<?xml version="1.0" encoding="utf-8"?>
<!-- Generator: Adobe Illustrator 18.0.0, SVG Export Plug-In . SVG Version: 6.00 Build 0)  -->
<!DOCTYPE svg PUBLIC "-//W3C//DTD SVG 1.0//EN" "http://www.w3.org/TR/2001/REC-SVG-20010904/DTD/svg10.dtd">
<svg version="1.0" id="Layer_1" xmlns="http://www.w3.org/2000/svg" xmlns:xlink="http://www.w3.org/1999/xlink" x="0px" y="0px"
	 width="1280px" height="800px" viewBox="0 0 1280 800" enable-background="new 0 0 1280 800" xml:space="preserve">
<g>
	
		<path fill="none" stroke="#000000" stroke-width="0.7087" stroke-linecap="round" stroke-linejoin="round" stroke-miterlimit="10" d="
		M532.2,433.3c-1.7-2.7-1.6-5.7-1.4-8.7c0.2-2.3-0.5-4.2-1.7-6c-2-3-1.4-4.5,2.1-5.6c1.6-0.5,3-1.1,4.2-2.6c1.6-1.9,3.8-3.1,6.5-3
		c1.6,0.1,3.1,0,4.6-0.8c1.4-0.7,3.1-1,4.5-0.2c2.8,1.7,5.6,1.4,8.3,0.1c2.8-1.4,5.6-0.8,8.5-0.6c3.9,0.2,7.6,1.4,10.9,3.2
		c4.2,2.3,8.2,5.1,10.4,9.8c1.1,2.3,2.5,4.6,3.5,7c0.6,1.7,1.1,3.3,1.1,5.2c0.1,5.8,2,10.8,7.2,13.9c1.5,0.9,3.4,1.3,5.3,1.6
		c3.9,0.6,8,0.4,11.8,2c4.2,1.7,6.4,4.8,6.6,9.3c0,1,0.5,1.9,0.6,2.9"/>
	
		<path fill="none" stroke="#000000" stroke-width="0.7087" stroke-linecap="round" stroke-linejoin="round" stroke-miterlimit="10" d="
		M702,424.2c0.1,1.6-0.6,3-1,4.5c-1.6,5.5-5,9.9-8.2,14.4c-4,5.7-8.5,11.1-13.6,15.8c-5,4.7-10.5,8.9-15.5,13.6
		c-5.8,5.4-11.1,11.2-15.8,17.5c-4.1,5.5-8.1,11.1-11.1,17.3c-1.7,3.6-4.1,6.9-4.7,11.1c-0.4,2.9-0.9,5.8-0.6,8.7
		c0.1,1.3-0.2,2.5-0.1,3.7"/>
	
		<path fill="none" stroke="#000000" stroke-width="0.7087" stroke-linecap="round" stroke-linejoin="round" stroke-miterlimit="10" d="
		M541.2,452.9c1.1,1.2,1.2,2.6,1.2,4.1c0,1.7-0.1,3.4,0.2,5.2c0.8,4.5,4.6,8.3,9.1,8.9c2.4,0.3,3.5,1.9,2.9,4.1
		c0,0.2-0.3,0.3-0.4,0.4c-2.4,4-0.5,7.4,1.6,10.7c0.3,0.5,0.6,0.9,1.2,1.3c3,1.9,5.9,4,8.8,6c3,2,6.6,2.8,10.4,1.8
		c2.2-0.6,4.4-0.4,6.4,1.2c2,1.5,3.7,3,4.6,5.5c1.1,3.2,3.6,5.8,6.9,6.7c5.2,1.4,10,4,15.2,5.4c2.9,0.7,5.6,2,8,3.5
		c4.4,2.8,7.4,6.8,7.9,12.3"/>
	
		<path fill="none" stroke="#000000" stroke-width="0.7087" stroke-linecap="round" stroke-linejoin="round" stroke-miterlimit="10" d="
		M616.5,279.3c3.8-4.4,12.6-4.1,17.1-1.4c5,3,8.4,7.6,10.9,12.8c3.7,7.6,5.7,15.8,7.4,24.1c0.5,2.4,0.9,4.8,0.8,7.2
		c-0.1,3.6,0,7.1,0,10.7c0,5.5-0.9,11-1.1,16.5c-0.1,4.1-0.5,8.1-1,12.2c-0.5,4.3-1.2,8.7-2,13c-1.4,7.8-3,15.5-4.5,23.3
		c-1,5-2.4,10-3.3,15c-0.6,3.3-1.6,6.5-2.4,9.7c-0.2,0.6-0.2,1.4,0.6,1.8"/>
	
		<path fill="none" stroke="#000000" stroke-width="0.7087" stroke-linecap="round" stroke-linejoin="round" stroke-miterlimit="10" d="
		M591.1,275.6c1.5-0.3,2.4-1.6,3.7-2.3c6.8-4,14-6.6,22.1-5.1c3.6,0.7,7.4,1,10.8,2.8c1.3,0.7,2.5,1.7,3.9,2.3
		c9.4,4.5,15.3,12.1,19.1,21.4c2.2,5.5,3.5,11.3,4.6,17.1c1.5,8.5,1.1,17,1.3,25.6c0.1,4.3-0.2,8.7-0.6,13c-0.3,4.1-1,8.1-1.4,12.2
		c-0.6,4.8-1.6,9.6-2.2,14.4c-0.8,6.1-2,12.1-3,18.1c-1.2,7-2.8,14-4.7,20.8c-0.1,0.5,0.1,1.1,0.2,1.6"/>
	
		<path fill="none" stroke="#000000" stroke-width="0.7087" stroke-linecap="round" stroke-linejoin="round" stroke-miterlimit="10" d="
		M563.1,326.1c0.3-9.2,6.6-14.3,13.4-18.9c7.7-5.2,12.5-12.3,15.2-21c0.3-1.1,1.1-2.1,0.9-3.3c-1.1-5.3,2.6-7.5,6.4-9.2
		c3.8-1.7,7.8-2.5,11.9-2.9c1.8-0.2,3.7,0.3,5.6,0.5c3.4,0.3,6.7,0.9,9.9,2.2c0.4,0.2,0.7,0.2,0.9,0.8c-1.5,0.5-2.9,0-4.4,0.1
		c-2.2,0.3-4.3,0.7-6.2,1.9c-1.1,0.7-2.2,1.1-3.5,1.1c-1.4,0-2.7-0.1-4.1,0.1c-6.7,0.9-11.2,4.7-14.7,10.3
		c-3.7,5.9-5.3,12.5-6.8,19.2c-0.8,3.5-1.6,7.1-4.3,9.9c-1.5,1.6-1.5,1.7-3.3,0.2"/>
	
		<path fill="none" stroke="#000000" stroke-width="0.7087" stroke-linecap="round" stroke-linejoin="round" stroke-miterlimit="10" d="
		M637.7,446.9c-0.1,3.1-1.3,6-1.9,9c-0.9,4.2-1.7,8.4-2.4,12.6c-0.5,3-1.2,6-1.7,9.1c-0.6,3.9-1.2,7.8-1.7,11.7
		c-0.9,7-1.3,14-1.2,21c0,0.8-0.2,1.6,0.7,2.3c0.9-2.1,1.8-4.4,2.6-6.6c1.5-3.9,3.7-7.3,6.2-10.5c8.2-10.5,16-21.3,26.4-29.9
		c3.2-2.6,6.1-5.5,9-8.3c1.6-1.6,1.9-3.8,1.9-5.9"/>
	
		<path fill="none" stroke="#000000" stroke-width="0.7087" stroke-linecap="round" stroke-linejoin="round" stroke-miterlimit="10" d="
		M577.1,470.8c-3.1-0.8-5.5-3-8-4.8c-7.7-5.3-16-9.6-24.8-12.9c-0.9-0.3-1.7-0.8-2.9-0.5c-1.6,0.4-2.1-1.3-2.8-2.2
		c-2.2-2.9-2.1-4.7,0.4-7.4c1.3-1.4,1.5-3,0.2-4.5c-1-1.2-2.2-2.4-3.3-3.5c-2.3-2.3-3-2.9-1.1-6.8c0.5-1.1,1.1-2.2,1.3-3.5
		c0.5-2.8,0-5.3-1.7-7.6c-0.3-0.4-0.4-1-0.6-1.6c2.5-1.5,5-2.1,8.1-1.4c2.2,0.5,4.7,0.4,6.8-1.3c2.7-2.1,5.9-2.2,8.8-0.6
		c3.2,1.7,6.5,2.2,9.9,1.1c3.7-1.1,6.6,0.3,8.6,2.8c2.4,3,4.5,6.3,5.2,10.4c0.5,3,2.4,5.6,5.3,7c3.5,1.8,4.9,4.6,5.4,8.3
		c0.5,4,3.4,6.2,6.5,8.3c2.3,1.5,4.8,2.3,7.6,2.1c1.8-0.1,3.6,0.5,4.9,2c1.2,1.3,2.6,1.7,4.3,1.7c4.7-0.1,8.8,3.5,9.5,8.2
		c0.7,4.2,0.4,8.4-0.2,12.6c-0.7,5.1-1.4,10.2,0.2,15.2"/>
	
		<path fill="none" stroke="#000000" stroke-width="0.7087" stroke-linecap="round" stroke-linejoin="round" stroke-miterlimit="10" d="
		M665.3,360.1c5.5,2,9,6.2,11.7,11.1c2.2,4,4.7,7.7,8.9,10.1c1.1,0.7,2.3,1,3.5,1.4c7.2,2.6,11.4,8.1,14,15c0.6,1.5,1.3,2.9,1.5,4.5
		"/>
	
		<path fill="none" stroke="#000000" stroke-width="0.7087" stroke-linecap="round" stroke-linejoin="round" stroke-miterlimit="10" d="
		M635.2,280.4c-2.1-0.6-4-0.1-5.6,1.5c-0.8,0.8-1.6,1.6-2.3,2.5c-1.7,2.3-2.9,4.5-1.5,7.7c2.1,4.8,1,9.9-0.1,14.8
		c-1,4.4-2.7,8.6-4.4,12.8c-1.5,3.8-1.6,7.7-2,11.6c-0.2,1.6,0.2,3.2-0.4,4.8c-0.2,0.7-0.4,1.7,0.3,2.5c1.6,1.6,2,3.8,2.4,6
		c0.2,0.8,0.4,1.5,0.7,2.3"/>
	
		<path fill="none" stroke="#000000" stroke-width="0.7087" stroke-linecap="round" stroke-linejoin="round" stroke-miterlimit="10" d="
		M633.6,446.7c-1.3,2.1-1.2,4.5-1.6,6.8c-1.2,6.2-2.5,12.3-3.2,18.6c-0.5,4.4-1.5,8.6-2,13c-0.3,2.4-0.8,4.9-1.8,7.2
		c-0.1,0.3-0.2,0.7-0.2,1c0.6,4.5-0.3,9.1-0.1,13.6c0.2,3.2,0.2,6.5,0.8,9.7c0.1,0.7,0.2,1.5-0.4,2.1"/>
	
		<path fill="none" stroke="#000000" stroke-width="0.7087" stroke-linecap="round" stroke-linejoin="round" stroke-miterlimit="10" d="
		M616.2,458.8c0.4,2-0.4,3.8-0.6,5.8c-0.6,5.2-1,10.4-0.8,15.7c0.1,3.2-0.6,6.3-1,9.5c-0.4,3.1-0.3,6.1-0.2,9.1
		c0.1,2.3-0.2,4.9,1.7,6.8c0.2,0.2,0,0.9,0,1.4"/>
	
		<path fill="none" stroke="#000000" stroke-width="0.7087" stroke-linecap="round" stroke-linejoin="round" stroke-miterlimit="10" d="
		M588.6,279.9c-1.2,7.2-5.1,12.7-10.3,17.6c-3.3,3.1-7.4,4.4-11.4,5.9c-5,2-9,5.2-11.7,9.9"/>
	
		<path fill="none" stroke="#000000" stroke-width="0.7087" stroke-linecap="round" stroke-linejoin="round" stroke-miterlimit="10" d="
		M614.2,278.7c3.1,0.8,2.6,1.3,2.7,3.7c0.3,8.7-1.5,16.9-5.4,24.7c-0.4,0.8-0.7,1.6-1.2,2.3c-1.6,2.1-1.1,4.7-1.6,7
		c-0.6,2.9-1.3,5.8-0.9,8.8c0,0.3-0.3,0.5-0.6,0.7c-1,0.8-1.9,1.8-2.9,2.6c-1.4,1.1-2.1,2.6-2.2,4.3c-0.2,2.1-1.3,3.7-2.7,5.2
		c-1.9,1.9-3.9,3.7-5.2,6.2c-0.6,1.3-0.3,2.5-0.1,3.7c0.2,0.8,1.1,1,2,0.7c0.7-0.2,1.3-0.8,2.2-0.6c0.4,0.6,0.8,1.4,1.3,2
		c1.5,1.8,3.2,2.1,4.9,0.6c1.7-1.6,3.4-1.9,5.2-0.4c0.7,0.6,1.6,0.6,2.3,0.2c0.7-0.4,0.5-1.4,0.4-2c-0.3-1.3-0.6-2.7-1.2-3.9
		c-1.3-2.8-1.7-5.5-0.8-8.5c0.2-0.6,0-1.3-0.4-1.8c-1.4-1.9-1.6-4.2-1.8-6.4"/>
	
		<path fill="none" stroke="#000000" stroke-width="0.7087" stroke-linecap="round" stroke-linejoin="round" stroke-miterlimit="10" d="
		M592.8,462.5c5,9.3,10.2,18.5,14.7,28c1.8,3.8,3.6,7.7,6.1,11.2"/>
	
		<path fill="none" stroke="#000000" stroke-width="0.7087" stroke-linecap="round" stroke-linejoin="round" stroke-miterlimit="10" d="
		M702.2,416c-1.3,3.9-2.5,7.8-4.1,11.6c-1.9,4.5-4.7,8.5-7.7,12.3c-3.3,4.1-6.5,8.3-10.5,11.8c-0.7,0.6-0.6,1.6-0.8,2.5
		c-1.1,3.4-2.8,4.7-5.6,4.7"/>
	
		<path fill="none" stroke="#000000" stroke-width="0.7087" stroke-linecap="round" stroke-linejoin="round" stroke-miterlimit="10" d="
		M701.6,340.7c1.1,1.6,0.3,3.6,1,5.4c1.3,3.4,2.5,6.8,4.4,9.9c1.4,2.3,2.1,5,2.6,7.6c0.9,4.1,0.6,8.4-0.9,12.3
		c-1.3,3.5-1.1,6.8-0.3,10.1c0.9,3.6,1.7,7.2,2.2,10.9"/>
	
		<path fill="none" stroke="#000000" stroke-width="0.7087" stroke-linecap="round" stroke-linejoin="round" stroke-miterlimit="10" d="
		M576.7,453.1c2.4,2.1,5.2,3.6,7.8,5.4c4.6,3.1,7.9,7.4,10.5,12.2c4.9,9,9.6,18,14.4,27c0.3,0.6,0.7,1.3,0.2,2"/>
	
		<path fill="none" stroke="#000000" stroke-width="0.7087" stroke-linecap="round" stroke-linejoin="round" stroke-miterlimit="10" d="
		M605.1,455.5c-0.7,6.8,0.2,13.6,0.7,20.4c0.1,2,0.6,4,1.1,6c0.8,3.2,1.2,6.6,1.7,9.9"/>
	
		<path fill="none" stroke="#000000" stroke-width="0.7087" stroke-linecap="round" stroke-linejoin="round" stroke-miterlimit="10" d="
		M709.2,410c2-1.1,4.1-0.6,6.4,1.4c3.5,3.1,5.5,7.1,6.8,11.5c1.2,4.3,2.2,8.7,4.5,12.6c0.4,0.8,0.9,1.6,1.4,2.4
		c0.5,0.9,1.1,1.6,1.2,2.7c0.2,1.5,1.7,2,3,2.7c2.1,1.1,2.6,2.2,2.3,4.3c-0.1,0.9-0.7,1.2-1.5,1.2c-2.6,0-2.7,0-2.6,2.5
		c0.1,1.8-1,2.7-2.2,3.4c-0.8,0.4-2.2,0.4-3-0.5c-0.5-0.6-1-1.2-1.5-1.8"/>
	
		<path fill="none" stroke="#000000" stroke-width="0.7087" stroke-linecap="round" stroke-linejoin="round" stroke-miterlimit="10" d="
		M708.6,403c-0.6-2.6,1.1-4.2,2.5-6c1.8-2.3,4.5-2.8,7-4c4.9-2.2,9.2,0,13.4,1.8c3.5,1.4,6.8,3.1,10.5,3.9c0.8,0.2,1.2-0.1,1.9-0.2
		c3.6-1.1,6.5-0.1,7.5,4.7c0.5,2.5,0.2,4.3-1.5,6.2c-0.8,0.9-1.5,2.1-0.5,3.7c1.2,1.9,0.8,3-0.5,4.5c-1.2,1.3-3.7,1.3-4.9,0.6
		c-1.9-1.2-3.4-2.8-5.7-4c-0.3,0-0.5,0.8-1.3,0.8c-5.7-0.1-10.6-1.9-14.6-6c-1.7-1.8-3.3-3.6-5-5.4"/>
	
		<path fill="none" stroke="#000000" stroke-width="0.7087" stroke-linecap="round" stroke-linejoin="round" stroke-miterlimit="10" d="
		M624.5,320.3c1.2,3.3,1.7,6.6,1.9,10.1c0.3,5.8,2.4,10.9,6.6,15c1.1,1.1,2.4,1.9,3.6,2.8c2.5,1.8,4.3,4.4,4.6,7.7
		c0.2,1.8,0.4,3.6-0.6,5.4c-0.6,1.1,0.4,2,0.7,2.8c0.5,1.4,0,2.2-0.7,3.1c-0.9,1.1-1.9,2.1-2.9,3.1c-2.2,2.1-6.7,2.5-8.3-1.8
		c-0.4-1-0.9-1.9-1.1-2.9"/>
	
		<path fill="none" stroke="#000000" stroke-width="0.7087" stroke-linecap="round" stroke-linejoin="round" stroke-miterlimit="10" d="
		M620,294.4c0.9,6.9-0.5,13.5-2.4,20c-1.9,6.6-4.8,12.8-6.8,19.4c-0.1,0.2-0.4,0.4-0.6,0.6"/>
	
		<path fill="none" stroke="#000000" stroke-width="0.7087" stroke-linecap="round" stroke-linejoin="round" stroke-miterlimit="10" d="
		M552.8,465c3.4,0.9,6.7,1.9,9.9,3.5c6.1,3,12.2,5.7,17.7,9.7c9.4,6.7,18.4,13.7,27.7,20.5c2.1,1.6,3.4,3.5,4.9,5.4
		c3.2,4.1,5.4,8.8,7.8,13.4c0.5,0.9,0.9,1.8,0,2.7"/>
	
		<path fill="none" stroke="#000000" stroke-width="0.7087" stroke-linecap="round" stroke-linejoin="round" stroke-miterlimit="10" d="
		M544.7,442.1c7.7,1.4,15.2,3.8,22.7,6.2c3.1,1,5.6,2.9,8.5,4.3"/>
	
		<path fill="none" stroke="#000000" stroke-width="0.7087" stroke-linecap="round" stroke-linejoin="round" stroke-miterlimit="10" d="
		M680.8,447.9c-1.2-2.7,0-5.1,1.1-7.4c1.2-2.8,2.9-5.6,3.2-8.7c0.5-4.2,1.1-8.4-1-12.4c-0.8-1.5-0.5-2.8,0.8-4.1
		c2.4-2.3,5.2-4.2,8.1-5.2c3.2-1.1,6.6-0.3,9.4,1.9c0.8,0.6,0.4,1.7,0.9,2.5"/>
	
		<path fill="none" stroke="#000000" stroke-width="0.7087" stroke-linecap="round" stroke-linejoin="round" stroke-miterlimit="10" d="
		M553.2,446.9c3,2.2,6,4.3,8.8,6.6c4.3,3.4,8.2,7.2,11.4,11.7c3.4,4.8,6.7,9.7,10.7,14c0.4,0.4,0.4,0.8,0.4,1.3"/>
	
		<path fill="none" stroke="#000000" stroke-width="0.7087" stroke-linecap="round" stroke-linejoin="round" stroke-miterlimit="10" d="
		M558.3,320.1c-1.3,3.1-1,6.4-1,9.7c0,2.4-0.1,4.8-1.1,7c-1.1,2.6-3.3,4.2-5.8,5.1c-1.3,0.5-2.1-1-2.9-2"/>
	
		<path fill="none" stroke="#000000" stroke-width="0.7087" stroke-linecap="round" stroke-linejoin="round" stroke-miterlimit="10" d="
		M674.2,407.9c-3.4,3.2-5.2,7.6-7.9,11.3c-3.2,4.4-6.3,8.9-11.7,11.2c-1.8,0.8-1.5,2.9-1.9,4.5c-0.7,2.9-0.4,5.9-1.4,8.8
		c-0.4,1.3-0.1,2.9-0.1,4.4"/>
	
		<path fill="none" stroke="#000000" stroke-width="0.7087" stroke-linecap="round" stroke-linejoin="round" stroke-miterlimit="10" d="
		M605.3,284.7c-4,3.1-5.4,7.7-7.5,11.9c-2.1,4.4-3.6,8.9-5.2,13.4c-1.2,3.3-1.7,6.8-2.5,10.3c-0.1,0.4,0.1,0.8,0.2,1.2"/>
	
		<path fill="none" stroke="#000000" stroke-width="0.7087" stroke-linecap="round" stroke-linejoin="round" stroke-miterlimit="10" d="
		M698.3,375.4c-1,3.4-0.8,6.9-0.2,10.3c0.1,0.4,0.1,0.9,0.6,1.3c4,3.8,5.8,8.7,7.4,13.8"/>
	
		<path fill="none" stroke="#000000" stroke-width="0.7087" stroke-linecap="round" stroke-linejoin="round" stroke-miterlimit="10" d="
		M678.7,406.7c-1-1.7-2.4-2.4-4.5-2.6c-9.5-0.8-16.9,3.7-24.1,9c-3.4,2.5-6.1,5.5-8.7,8.8c-1.7,2.2-4.3,3.4-6.4,5.1
		c-1.8,1.4-3.4,2.9-4.9,4.6c-1.6,1.7-1.7,3.9-2,6c-0.2,1.1,0.8,1.3,1.7,1.8c0.6-1.1,1.2-2.2,1.8-3.2"/>
	
		<path fill="none" stroke="#000000" stroke-width="0.7087" stroke-linecap="round" stroke-linejoin="round" stroke-miterlimit="10" d="
		M546,301.6c1.7,0.4,3.2-0.2,4.5-1.1c3.4-2.1,6-4.9,8-8.6c1.6-3.1,3.9-5.8,6.2-8.5c2.5-2.9,5-5.6,8.1-7.8c1.7-1.2,3.5-2.7,6-1.5
		c0.2,0.1,0.7,0,1-0.1c3.7-1,7.2,0,10.5,1.6"/>
	
		<path fill="none" stroke="#000000" stroke-width="0.7087" stroke-linecap="round" stroke-linejoin="round" stroke-miterlimit="10" d="
		M624.5,493.7c-4.4,3.4-3.9,8.4-3.6,13c0.2,3.2,1.5,6.4,2.5,9.5c0.4,1.3,1.4,2.1,2,3.3c1,2,1.6,4.1,2,6.2"/>
	
		<path fill="none" stroke="#000000" stroke-width="0.7087" stroke-linecap="round" stroke-linejoin="round" stroke-miterlimit="10" d="
		M611.7,284.5c-0.8,6.4-3.1,12.2-5.9,17.9c-1.2,2.4-3.1,4.2-4.4,6.4"/>
	
		<path fill="none" stroke="#000000" stroke-width="0.7087" stroke-linecap="round" stroke-linejoin="round" stroke-miterlimit="10" d="
		M691.9,363.8c2.3,5,4.5,10,9.2,13.4c3.4,2.4,4.9,6.1,5.8,10.1c0.7,3.1,1.4,6.3,1.6,9.5c0.1,0.7-0.1,1.3-0.4,1.9"/>
	
		<path fill="none" stroke="#000000" stroke-width="0.7087" stroke-linecap="round" stroke-linejoin="round" stroke-miterlimit="10" d="
		M539.2,423.8c6,0.9,12,1.8,17.9,2.7c1.4,0.2,2.8,0.5,3.9,1.4c1.1,0.9,2.7,1,3.9,1.8c2.7,1.8,4.7,4.3,6.7,6.7
		c3.9,4.7,7.9,9.3,11.4,14.3c2.4,3.4,4.3,7.1,6.4,10.7c0.2,0.4-0.1,0.6,0,0.8"/>
	
		<path fill="none" stroke="#000000" stroke-width="0.7087" stroke-linecap="round" stroke-linejoin="round" stroke-miterlimit="10" d="
		M633.4,324.5c0.5,2.6,1.3,5.2,1.6,7.8c0.3,2.7,0.2,5.5,0.3,8.2c0,2.5,0.4,4.9,1,7.2"/>
	
		<path fill="none" stroke="#000000" stroke-width="0.7087" stroke-linecap="round" stroke-linejoin="round" stroke-miterlimit="10" d="
		M693.5,407.9c-4.1,1.9-8.5,3.4-11.4,7.2c-0.4,0.5-1.4,0.7-2.2,0.7c-2.6,0.1-4.7,1.2-6.7,3c-2.7,2.5-4.6,5.5-6.4,8.7
		c-1,1.7-2.5,3.1-4.3,4.2c-3.5,2.2-6.7,4.9-9.3,8.3c-0.3,0.4-0.6,0.5-1,0.6"/>
	
		<path fill="none" stroke="#000000" stroke-width="0.7087" stroke-linecap="round" stroke-linejoin="round" stroke-miterlimit="10" d="
		M596.5,450.6c0.5,7.3,0.5,14.6,2.9,21.6c0.1,0.2,0.1,0.6-0.2,0.8"/>
	
		<path fill="none" stroke="#000000" stroke-width="0.7087" stroke-linecap="round" stroke-linejoin="round" stroke-miterlimit="10" d="
		M560.6,299.1c0.3,1.5-0.8,2.6-1.3,3.9c-1.7,4.9-4.5,9.1-7.8,13c-0.6,0.7-1.4,1.2-2.1,1.5c-0.7,0.4-1.9,0.3-2.2-1
		c-0.2-1.2-0.7-1.5-1.9-1c-1.6,0.6-2.9,0-3.9-1.4c-0.6-0.8-1.4-1.5-2-2.3c-1.3-1.4-2.3-2.7-1.3-4.8c0.3-0.6-0.1-1.1-0.8-1.7
		c-2.6-2.1-3.4-5.7-2.1-8.2c0.7-1.4,2-2,3.1-2.9"/>
	
		<path fill="none" stroke="#000000" stroke-width="0.7087" stroke-linecap="round" stroke-linejoin="round" stroke-miterlimit="10" d="
		M579.2,280.4c-4.7,1.9-8.1,5.4-11.3,9.1c-1.9,2.2-3.5,4.5-5,7c-1.3,2.3-3.8,3.5-6,4.9c-1.4,1-2.9,1.8-4.1,3.1
		c-1.7,1.7-6.9,1.8-8.6,0.2"/>
	
		<path fill="none" stroke="#000000" stroke-width="0.7087" stroke-linecap="round" stroke-linejoin="round" stroke-miterlimit="10" d="
		M541.6,433.3c2.8,1.1,5.8,1.2,8.7,1.9c4.1,1,8.3,1.4,12.4,2.7"/>
	
		<path fill="none" stroke="#000000" stroke-width="0.7087" stroke-linecap="round" stroke-linejoin="round" stroke-miterlimit="10" d="
		M682.4,423c0,4.2-0.9,8.2-2.7,12c-0.8,1.6-1.4,3.3-2.1,4.9c-1.1,2.6-0.8,5.2,0.6,7.6c0.7,1.2,0.6,2.7,1.2,3.9"/>
	
		<path fill="none" stroke="#000000" stroke-width="0.7087" stroke-linecap="round" stroke-linejoin="round" stroke-miterlimit="10" d="
		M704.3,356.8c2.3,3.3,4.1,6.7,3.7,10.9c-0.2,2.1,0.2,4.3-0.2,6.4c-0.1,0.8-0.3,1.6-1.1,2.1"/>
	
		<path fill="none" stroke="#000000" stroke-width="0.7087" stroke-linecap="round" stroke-linejoin="round" stroke-miterlimit="10" d="
		M547,317c-2.3,2.2-4.9,3.8-7.8,5.2c-2.1,1-4.5,2.3-3.9,5.3c0.3,1.4,0.4,3.4,2.4,3.9"/>
	
		<path fill="none" stroke="#000000" stroke-width="0.7087" stroke-linecap="round" stroke-linejoin="round" stroke-miterlimit="10" d="
		M575,423c0.4,2.5,0.9,4.9,1.2,7.4c0.5,3.6,1.2,7.1,2.5,10.5c0.2,0.5-0.3,0.7,0,1"/>
	
		<path fill="none" stroke="#000000" stroke-width="0.7087" stroke-linecap="round" stroke-linejoin="round" stroke-miterlimit="10" d="
		M565.6,416.8c0.9,5.8,2.3,11.4,5.3,16.5c0.4,0.7,1.4,1.4,0.7,2.5"/>
	
		<path fill="none" stroke="#000000" stroke-width="0.7087" stroke-linecap="round" stroke-linejoin="round" stroke-miterlimit="10" d="
		M677.9,405.2c5.6-2.9,11.3-3.2,16.6,0.3c1.8,1.2,3.4,2.4,5.4,2.7c2.1,0.3,3.4,1.5,4.5,3.1"/>
	
		<path fill="none" stroke="#000000" stroke-width="0.7087" stroke-linecap="round" stroke-linejoin="round" stroke-miterlimit="10" d="
		M713.5,398.2c5.5-2.3,10.6-0.5,15.7,1.4c1,0.4,1.8,1.1,2.9,1.1"/>
	
		<path fill="none" stroke="#000000" stroke-width="0.7087" stroke-linecap="round" stroke-linejoin="round" stroke-miterlimit="10" d="
		M675.6,328c-1.4,0.6-2.9,1.2-3.7,2.7c-0.4,0.9-0.7,1.8,0.2,2.7c1.3,1.4,3,2,4.8,2.7c3,1.1,6.2,1.7,8.5,4.3c1,1.2,1.5,2.6,2.5,3.7"
		/>
	
		<path fill="none" stroke="#000000" stroke-width="0.7087" stroke-linecap="round" stroke-linejoin="round" stroke-miterlimit="10" d="
		M632.1,440.3c0.3-0.2,0.9-0.3,1-0.6c1.7-5.2,5.7-8.5,9.9-11.5c1.3-0.9,3-1.1,4.5-1.5"/>
	
		<path fill="none" stroke="#000000" stroke-width="0.7087" stroke-linecap="round" stroke-linejoin="round" stroke-miterlimit="10" d="
		M558.1,316.2c0,1-0.7,1.8-1.1,2.7c-1.3,3.3-1.8,6.7-1.6,10.3c0.1,1.4-0.1,2.9-0.2,4.3"/>
	
		<path fill="none" stroke="#000000" stroke-width="0.7087" stroke-linecap="round" stroke-linejoin="round" stroke-miterlimit="10" d="
		M585.1,318.3c-1.1,2.5-3.5,3.2-5.8,3.9c-2,0.6-4,0.8-5.8,2.1c-1.4,1-2.7,2.1-2.3,4.1c0.1,0.5-0.2,1.1-0.4,1.6
		c-0.5,2-0.2,3.6,1.7,4.7"/>
	
		<path fill="none" stroke="#000000" stroke-width="0.7087" stroke-linecap="round" stroke-linejoin="round" stroke-miterlimit="10" d="
		M668.6,357c-2.1-0.7-3.3-2.4-4.3-4.1c-0.9-1.5-0.1-3,0.8-4.3c0.9-1.4,2.2-1.8,3.7-1.2c1,0.4,1.9,1,3.1,0.7c1.3-0.3,1.9-0.9,2-2.1"
		/>
	
		<path fill="none" stroke="#000000" stroke-width="0.7087" stroke-linecap="round" stroke-linejoin="round" stroke-miterlimit="10" d="
		M709.8,412.3c-1.9,3.9-0.7,7.7,0.5,11.3c0.6,1.7,1,3.8,2.4,5.2"/>
	
		<path fill="none" stroke="#000000" stroke-width="0.7087" stroke-linecap="round" stroke-linejoin="round" stroke-miterlimit="10" d="
		M678.7,319.9c0.1-1,0.2-1.9,0.4-2.9c1.3-5,5.8-5.8,9.7-2.9c1.1,0.9,1.5,2.5,3.3,2.8c1.1,0.2,1.9,0.5,2.5-0.7c0.9-1.6,2.5-1.3,3.7-1
		c1.4,0.4,2,1.7,1.9,3.2c-0.1,1.6-0.3,3,2.3,3c1.7,0,2.9,2.9,2.3,4.4c-0.8,1.7-2.8,2.4-4.7,1.7c-0.6-0.2-1.2-0.6-1.7-1
		c-1.7-1.6-3.6-1.5-5.6-0.6"/>
	
		<path fill="none" stroke="#000000" stroke-width="0.7087" stroke-linecap="round" stroke-linejoin="round" stroke-miterlimit="10" d="
		M679.3,420.1c-1.1,4.6-4.1,8.4-5.6,12.8c-0.4,1.2-0.8,2.4-1.2,3.5"/>
	
		<path fill="none" stroke="#000000" stroke-width="0.7087" stroke-linecap="round" stroke-linejoin="round" stroke-miterlimit="10" d="
		M666.5,410.6c-3.6,2.5-7.4,4.8-10.6,7.7c-3.9,3.5-7,7.9-9,12.9c-0.2,0.5-0.1,1-0.2,1.5"/>
	
		<path fill="none" stroke="#000000" stroke-width="0.7087" stroke-linecap="round" stroke-linejoin="round" stroke-miterlimit="10" d="
		M723.2,403.4c2.9,1.6,5.6,3.8,9.1,4.4c0.5,0.1,1,0.2,1.4,0.1c2-0.6,3.9-0.1,5.8,0.4"/>
	
		<path fill="none" stroke="#000000" stroke-width="0.7087" stroke-linecap="round" stroke-linejoin="round" stroke-miterlimit="10" d="
		M666.7,428.5c0,2.5-0.8,4.9-1,7.4c-0.1,1.4-0.3,2.7-0.4,4.1c-0.1,1.9-1.6,3.1-2.1,4.7c-0.3,0.8-1.2,0.9-2,0.8"/>
	
		<path fill="none" stroke="#000000" stroke-width="0.7087" stroke-linecap="round" stroke-linejoin="round" stroke-miterlimit="10" d="
		M672.3,347.7c-0.5-1.5-0.2-2.8,1.2-3.7c1.4-0.8,3.7-0.9,4.7,0c2.3,1.8,3.3,4.3,3.5,7.2"/>
	
		<path fill="none" stroke="#000000" stroke-width="0.7087" stroke-linecap="round" stroke-linejoin="round" stroke-miterlimit="10" d="
		M702,360.7c2,4,2.8,8.3,4,12.6c0.4,1.5-0.3,3.4,1.6,4.3"/>
	
		<path fill="none" stroke="#000000" stroke-width="0.7087" stroke-linecap="round" stroke-linejoin="round" stroke-miterlimit="10" d="
		M708,412.5c-2.2,3.1-1.8,6.5-1.1,9.9c0.4,1.9,1.2,3.7,1.7,5.6"/>
	
		<path fill="none" stroke="#000000" stroke-width="0.7087" stroke-linecap="round" stroke-linejoin="round" stroke-miterlimit="10" d="
		M671.1,420.7c-0.3-1.5,0.8-2.4,1.5-3.5c1.4-2.5,3-4.8,4.1-7.4c1.3-2.9,3.9-3.9,6.6-4.2c2.7-0.3,5.6-0.6,8.3,0.7
		c0.8,0.4,1.6,0.6,2.3,1.2c0.6,0.5,1.5,1.2,2.2,0"/>
	
		<path fill="none" stroke="#000000" stroke-width="0.7087" stroke-linecap="round" stroke-linejoin="round" stroke-miterlimit="10" d="
		M684.3,335.6c-0.9-0.2-1.6-0.8-2.3-1.4c-2.3-2.5-4.6-5-7-7.4c-1.1-1.1-1.4-2.6-0.9-3.7c0.5-1.3,2-2,3.6-1.7
		c2.2,0.4,4.4,0.8,4.8,3.7c0.3,1.8,2.1,2.7,2.8,4.3"/>
	
		<path fill="none" stroke="#000000" stroke-width="0.7087" stroke-linecap="round" stroke-linejoin="round" stroke-miterlimit="10" d="
		M609,311.7c-3.9,4.3-8.2,8.2-9.1,14.4"/>
	
		<path fill="none" stroke="#000000" stroke-width="0.7087" stroke-linecap="round" stroke-linejoin="round" stroke-miterlimit="10" d="
		M702.8,328c0.5,2.3-1.3,3-2.7,3.9c-1.5,0.9-3,1.7-3.7,3.5c-0.1,0.1-0.2,0.3-0.2,0.4c-0.5,4.1-0.9,8.3,2.3,11.7"/>
	
		<path fill="none" stroke="#000000" stroke-width="0.7087" stroke-linecap="round" stroke-linejoin="round" stroke-miterlimit="10" d="
		M597.5,324.9c0,2.3-0.1,4.5,0,6.8c0.1,3.1-0.9,5.5-3.7,7"/>
	
		<path fill="none" stroke="#000000" stroke-width="0.7087" stroke-linecap="round" stroke-linejoin="round" stroke-miterlimit="10" d="
		M685.1,352.1c-3.5,3.2-4.2,7.1-3.3,11.5c0.1,0.7,0.1,1.4,0.2,2.1"/>
	
		<path fill="none" stroke="#000000" stroke-width="0.7087" stroke-linecap="round" stroke-linejoin="round" stroke-miterlimit="10" d="
		M565.6,305.9c-3.6,3.9-5.9,8.3-6.6,13.6"/>
	
		<path fill="none" stroke="#000000" stroke-width="0.7087" stroke-linecap="round" stroke-linejoin="round" stroke-miterlimit="10" d="
		M626.8,336.4c-0.8,2.1-0.6,4.4-1.6,6.4c-0.7,1.4-1.2,2.8-2.3,3.9c-0.2,0.2-0.6,0.4-0.6,0.6c0.2,3.3-2.7,4.5-4.4,6.4
		c-2.1,2.3-3.5,4.8-4.1,7.9"/>
	
		<path fill="none" stroke="#000000" stroke-width="0.7087" stroke-linecap="round" stroke-linejoin="round" stroke-miterlimit="10" d="
		M711.9,399.5c0.3-1.9,2.2-3.7,4.3-3.9c2.7-0.2,5.4-1,8,0"/>
	
		<path fill="none" stroke="#000000" stroke-width="0.7087" stroke-linecap="round" stroke-linejoin="round" stroke-miterlimit="10" d="
		M563.5,437.8c0,0.4,0.2,0.6,0.6,0.6c4,0.6,7.6,2.3,11.1,4.1c0.5,0.2,0.8,0.1,1.3,0.2"/>
	
		<path fill="none" stroke="#000000" stroke-width="0.7087" stroke-linecap="round" stroke-linejoin="round" stroke-miterlimit="10" d="
		M546.2,338.9c-0.6-0.3-1.3-0.1-1.9-0.8c-1.3-1.6-2.9-2.1-4.7-0.8c-2.2-5.3,3-12.9,9.9-14.5"/>
	
		<path fill="none" stroke="#000000" stroke-width="0.7087" stroke-linecap="round" stroke-linejoin="round" stroke-miterlimit="10" d="
		M613.6,327.1c0.2,0.2,0.6,0.4,0.6,0.6c0.3,4.3,2.4,8.2,3.1,12.4"/>
	
		<path fill="none" stroke="#000000" stroke-width="0.7087" stroke-linecap="round" stroke-linejoin="round" stroke-miterlimit="10" d="
		M697.5,363.6c1.7,2.6,3.3,5.3,4.8,8c0.8,1.6,1.4,3.4,3.1,4.3"/>
	
		<path fill="none" stroke="#000000" stroke-width="0.7087" stroke-linecap="round" stroke-linejoin="round" stroke-miterlimit="10" d="
		M613.6,362c-0.9,1-0.6,2.2,0.1,2.8c1.7,1.8,2.2,4.2,3.6,6c1.4,1.7,5.3,2.8,7.4,1.8c1.7-0.7,2.3-2.1,2.3-3.9c0-1.1-0.2-2.3,1-3.1
		c0.5-0.4,0.5-1.5,0-2c-0.7-0.7-1.6-0.7-2.2,0.2c-0.5,0.7-1.2,1.1-2.1,0.6"/>
	
		<path fill="none" stroke="#000000" stroke-width="0.7087" stroke-linecap="round" stroke-linejoin="round" stroke-miterlimit="10" d="
		M625.9,311.5c3.7,3.3,6.1,7.3,7,12.2"/>
	
		<path fill="none" stroke="#000000" stroke-width="0.7087" stroke-linecap="round" stroke-linejoin="round" stroke-miterlimit="10" d="
		M614,362c1.4,2.1,2.3,1.9,3.7-0.6c0.5-0.9,0.6-2,1.4-2.7c0.7-0.6,1.3-1.3,2.2-0.8c1,0.6,0.2,1.8-0.1,2.2c-0.8,1.3-1.7,2.6-2.4,4
		c-0.3,0.8-0.4,1.6-0.6,2.5"/>
	
		<path fill="none" stroke="#000000" stroke-width="0.7087" stroke-linecap="round" stroke-linejoin="round" stroke-miterlimit="10" d="
		M679.5,330.6c2,0.3,3.2,1.8,4.7,2.9c2.4,1.8,4.1,4.3,4.8,7.4"/>
	
		<path fill="none" stroke="#000000" stroke-width="0.7087" stroke-linecap="round" stroke-linejoin="round" stroke-miterlimit="10" d="
		M623.3,288.6c1.4-2.9,3-5.6,5.3-7.9c1.3-1.3,2.8-1.9,4.6-1.8"/>
	
		<path fill="none" stroke="#000000" stroke-width="0.7087" stroke-linecap="round" stroke-linejoin="round" stroke-miterlimit="10" d="
		M583.5,344.9c-0.4,1.4-0.8,2.7-0.9,4.1c-0.1,2.2-2.9,4.9-5.3,5.4c-0.3,0.1-0.8-0.2-1,0.2"/>
	
		<path fill="none" stroke="#000000" stroke-width="0.7087" stroke-linecap="round" stroke-linejoin="round" stroke-miterlimit="10" d="
		M539.8,294c0.7-1.6,0.5-3.5,2-4.8c1.9-1.6,4.8-1.9,6.8-0.4c0.5,0.4,1,0.9,1.7,1"/>
	
		<path fill="none" stroke="#000000" stroke-width="0.7087" stroke-linecap="round" stroke-linejoin="round" stroke-miterlimit="10" d="
		M558.5,414.7c1,3.8,1.9,7.7,3.4,11.4c0.3,0.7,1,1.2,0.9,2"/>
	
		<path fill="none" stroke="#000000" stroke-width="0.7087" stroke-linecap="round" stroke-linejoin="round" stroke-miterlimit="10" d="
		M587.6,341.8c-0.6,2.4-0.6,4.8-0.1,7.2c0.3,1.5,0.1,3.1,0.1,4.7"/>
	
		<path fill="none" stroke="#000000" stroke-width="0.7087" stroke-linecap="round" stroke-linejoin="round" stroke-miterlimit="10" d="
		M715.4,436.2c1.7,4.2,4.1,8,7,11.6c0.6-1.9,0.6-4.1-0.2-7.7c-0.2-0.9-0.8-1.8-0.5-2.9c0.3-1.2-1.1-1.7-1.8-2.5"/>
	
		<path fill="none" stroke="#000000" stroke-width="0.7087" stroke-linecap="round" stroke-linejoin="round" stroke-miterlimit="10" d="
		M596.5,317.5c0.9,1.2,0.6,2.8,0.8,4.1c0.3,2.1,1.2,3.9,2.7,5.4c0.3,0.3,0.4,0.7,0.6,1"/>
	
		<path fill="none" stroke="#000000" stroke-width="0.7087" stroke-linecap="round" stroke-linejoin="round" stroke-miterlimit="10" d="
		M577.5,441.1c3.2,3.7,6.5,7.2,9.1,11.3c0.1,0.1,0.3,0.1,0.4,0.2"/>
	
		<path fill="none" stroke="#000000" stroke-width="0.7087" stroke-linecap="round" stroke-linejoin="round" stroke-miterlimit="10" d="
		M629.2,512.8c-0.6,3.6-0.3,7.2,0.2,10.7"/>
	
		<path fill="none" stroke="#000000" stroke-width="0.7087" stroke-linecap="round" stroke-linejoin="round" stroke-miterlimit="10" d="
		M717.6,448.1c-0.9,3,0,5.6,2.1,7.8c1.6,1.7,3,1.4,4.5-0.4"/>
	
		<path fill="none" stroke="#000000" stroke-width="0.7087" stroke-linecap="round" stroke-linejoin="round" stroke-miterlimit="10" d="
		M711.7,400.1c0.2-0.8,0.9-0.7,1.4-0.6c3.2,0.7,6.4,1.4,9.3,3.1"/>
	
		<path fill="none" stroke="#000000" stroke-width="0.7087" stroke-linecap="round" stroke-linejoin="round" stroke-miterlimit="10" d="
		M641.8,451.2c3.2-0.1,5.5-1.4,7.3-4.1c0.5-0.8,0.5-2.1,1.8-2.3"/>
	
		<path fill="none" stroke="#000000" stroke-width="0.7087" stroke-linecap="round" stroke-linejoin="round" stroke-miterlimit="10" d="
		M688,352.7c1,3.4,2.1,6.7,3.1,10.1"/>
	
		<path fill="none" stroke="#000000" stroke-width="0.7087" stroke-linecap="round" stroke-linejoin="round" stroke-miterlimit="10" d="
		M693.9,338.7c0.2,2.3-0.5,4.5-0.5,6.8c0,4.5,0.3,8.8,2.7,12.8"/>
	
		<path fill="none" stroke="#000000" stroke-width="0.7087" stroke-linecap="round" stroke-linejoin="round" stroke-miterlimit="10" d="
		M708.2,401.3c-3.1,1.5-4.4,6.4-2.3,8.9"/>
	
		<path fill="none" stroke="#000000" stroke-width="0.7087" stroke-linecap="round" stroke-linejoin="round" stroke-miterlimit="10" d="
		M693.9,371.7c1.1,2.2,1.9,4.5,1.7,7c-0.1,0.9-0.2,1.8,0.2,2.7"/>
	
		<path fill="none" stroke="#000000" stroke-width="0.7087" stroke-linecap="round" stroke-linejoin="round" stroke-miterlimit="10" d="
		M681.4,373.1c1.8,3.1,4.7,5.1,7.4,7.2c0.5,0.4,1,0.5,1.6,0.4"/>
	
		<path fill="none" stroke="#000000" stroke-width="0.7087" stroke-linecap="round" stroke-linejoin="round" stroke-miterlimit="10" d="
		M543.3,417.6c2.1,0.6,4.1,1.1,6.2,1.8c2.8,0.9,5,2.6,7.4,4.2c1.6,1.1,2.8,2.8,4.9,3.1"/>
	
		<path fill="none" stroke="#000000" stroke-width="0.7087" stroke-linecap="round" stroke-linejoin="round" stroke-miterlimit="10" d="
		M584.9,334.8c0-2,1.6-2.5,2.9-3c0.9-0.4,2.2-0.4,2.8,0.8c1.1,2.2,2.2,4.3,3.1,6.6c0.4,1.1-0.3,2.2-1.4,2.9
		c-1.3,0.8-2.5,0.3-3.7-0.2c-0.8-0.4-0.8-1.8-2.1-1.6"/>
	
		<path fill="none" stroke="#000000" stroke-width="0.7087" stroke-linecap="round" stroke-linejoin="round" stroke-miterlimit="10" d="
		M664.9,445.6c-2.9,2.6-2.6,5.8-1.9,9.1"/>
	
		<path fill="none" stroke="#000000" stroke-width="0.7087" stroke-linecap="round" stroke-linejoin="round" stroke-miterlimit="10" d="
		M570.1,346.3c-0.4,2.3,0.8,5.1,2.9,6.3c-0.1-0.9,0.1-1.6-0.2-2.4"/>
	
		<path fill="none" stroke="#000000" stroke-width="0.7087" stroke-linecap="round" stroke-linejoin="round" stroke-miterlimit="10" d="
		M665.3,444.4c1.9-1.5,4-2.7,5.4-4.9c1.5,1.7,0.5,4.2,2,5.8c1.3-0.9,2.4-2,3.9-2.6"/>
	
		<path fill="none" stroke="#000000" stroke-width="0.7087" stroke-linecap="round" stroke-linejoin="round" stroke-miterlimit="10" d="
		M691.7,373.5c0.6,1.6,1.2,3.2,1.9,4.7c0.7,1.5,0.7,2.9-0.2,4.3"/>
	
		<path fill="none" stroke="#000000" stroke-width="0.7087" stroke-linecap="round" stroke-linejoin="round" stroke-miterlimit="10" d="
		M637.3,431.2c-0.7,1.4-2,2.3-3,3.4c-2.1,2.3-2.4,5.1-2.6,7.9c-0.1,1.2,1.7,3.9,2.7,4.1c2.2,0.6,4.4-0.1,5.6-1.9
		c0.2-0.3,0.5-0.6,0.7-0.9"/>
	
		<path fill="none" stroke="#000000" stroke-width="0.7087" stroke-linecap="round" stroke-linejoin="round" stroke-miterlimit="10" d="
		M587,444.8c0,3.1,1,6,1.4,9.1"/>
	
		<path fill="none" stroke="#000000" stroke-width="0.7087" stroke-linecap="round" stroke-linejoin="round" stroke-miterlimit="10" d="
		M714.4,434.1c0.4,0.8,1,1.5,0.1,2.5c-0.4,0.4-0.1,1.5-0.1,2.2c0,2,0.1,4-1,5.8c-1.2,1.9-2.4,2.4-3.9,1.4"/>
	
		<path fill="none" stroke="#000000" stroke-width="0.7087" stroke-linecap="round" stroke-linejoin="round" stroke-miterlimit="10" d="
		M698.3,370.2c1.9,3,3.8,6,7,7.8"/>
	
		<path fill="none" stroke="#000000" stroke-width="0.7087" stroke-linecap="round" stroke-linejoin="round" stroke-miterlimit="10" d="
		M553.8,331.5c-0.3,3.3-1.1,6.2-4.7,7.4"/>
	
		<path fill="none" stroke="#000000" stroke-width="0.7087" stroke-linecap="round" stroke-linejoin="round" stroke-miterlimit="10" d="
		M694.6,361.1c1,2.8,1.6,5.7,3.3,8.2"/>
	
		<path fill="none" stroke="#000000" stroke-width="0.7087" stroke-linecap="round" stroke-linejoin="round" stroke-miterlimit="10" d="
		M701.8,338.9c-0.1,0.5-0.1,1.1-0.4,1.4c-2.8,3.5-3.3,7.2-1.7,11.4c0.5,1.3,1.1,2.7,1.1,4.1"/>
	
		<path fill="none" stroke="#000000" stroke-width="0.7087" stroke-linecap="round" stroke-linejoin="round" stroke-miterlimit="10" d="
		M585.7,434.9c-0.1,3.1,0.6,6,0.8,9.1"/>
	
		<path fill="none" stroke="#000000" stroke-width="0.7087" stroke-linecap="round" stroke-linejoin="round" stroke-miterlimit="10" d="
		M683.4,345.1c4.4-0.7,6.9,1.9,9.1,5.2"/>
	
		<path fill="none" stroke="#000000" stroke-width="0.7087" stroke-linecap="round" stroke-linejoin="round" stroke-miterlimit="10" d="
		M576.7,338.7c-0.9,1-1.8,1.9-3,2.6c-1.5,0.9-2.6,2.4-3.1,4.2"/>
	
		<path fill="none" stroke="#000000" stroke-width="0.7087" stroke-linecap="round" stroke-linejoin="round" stroke-miterlimit="10" d="
		M591.3,311.1c-1.1,2.9-3.4,4.8-5.8,6.6c-0.7,0.5-1.6,0.7-2.5,0.2"/>
	
		<path fill="none" stroke="#000000" stroke-width="0.7087" stroke-linecap="round" stroke-linejoin="round" stroke-miterlimit="10" d="
		M578.5,339.9c2,0.6,3.9,1.7,6.2,1c0.5-0.1,1.1-0.2,1.4-0.6"/>
	
		<path fill="none" stroke="#000000" stroke-width="0.7087" stroke-linecap="round" stroke-linejoin="round" stroke-miterlimit="10" d="
		M587.4,453.5c1.4,1.3,2,2.9,2.3,4.7c0.1,0.8,0.2,1.7,1,2.3"/>
	
		<path fill="none" stroke="#000000" stroke-width="0.7087" stroke-linecap="round" stroke-linejoin="round" stroke-miterlimit="10" d="
		M550.7,291.1c2.4,0.8,4.9,1.6,7.4,0.6"/>
	
		<path fill="none" stroke="#000000" stroke-width="0.7087" stroke-linecap="round" stroke-linejoin="round" stroke-miterlimit="10" d="
		M685.1,345.3c1.2,1.3,2.2,2.8,2.6,4.6c0.2,0.9,0.7,2-0.5,3.2c-0.9,0.8-0.4,2.5-0.1,3.8c0.4,1.7,1.3,3.2,2.1,4.7"/>
	
		<path fill="none" stroke="#000000" stroke-width="0.7087" stroke-linecap="round" stroke-linejoin="round" stroke-miterlimit="10" d="
		M544.3,295c1.6-2.6,3.9-3.4,6.8-2.7"/>
	
		<path fill="none" stroke="#000000" stroke-width="0.7087" stroke-linecap="round" stroke-linejoin="round" stroke-miterlimit="10" d="
		M722,437c0.5,0.3,1.1,0.7,1.6,1c2.4,1.5,5,2.2,7.8,1.9"/>
	
		<path fill="none" stroke="#000000" stroke-width="0.7087" stroke-linecap="round" stroke-linejoin="round" stroke-miterlimit="10" d="
		M673.1,357c1.9,1.7,3.9,3.4,5.4,5.6c0.2,0.4,0.7,0.7,0.2,1.2"/>
	
		<path fill="none" stroke="#000000" stroke-width="0.7087" stroke-linecap="round" stroke-linejoin="round" stroke-miterlimit="10" d="
		M633.8,353.1c1.7,2,2.9,4.2,2.1,6.9"/>
	
		<path fill="none" stroke="#000000" stroke-width="0.7087" stroke-linecap="round" stroke-linejoin="round" stroke-miterlimit="10" d="
		M598.5,290.7c-1,2.3-1.9,4.7-2.9,7"/>
	
		<path fill="none" stroke="#000000" stroke-width="0.7087" stroke-linecap="round" stroke-linejoin="round" stroke-miterlimit="10" d="
		M663.9,454.9c0.8,0.5,1.7,0.8,2.7,0.4c2.1-0.8,3.6-0.1,4.5,1.8c0.2,0.4,0.5,0.8,0.8,1.2"/>
	
		<path fill="none" stroke="#000000" stroke-width="0.7087" stroke-linecap="round" stroke-linejoin="round" stroke-miterlimit="10" d="
		M667.4,354.1c2.5,1.5,4.7,3.2,6.3,5.9c0.9,1.6,2.8,2.8,4.5,3.7c0.7,0.4,1.1,1.3,2,1.3"/>
	
		<path fill="none" stroke="#000000" stroke-width="0.7087" stroke-linecap="round" stroke-linejoin="round" stroke-miterlimit="10" d="
		M669.4,358.3c-0.3,1-1.2,0.7-1.8,0.6c-2.2-0.3-3.2,0.8-3.7,2.7"/>
	
		<path fill="none" stroke="#000000" stroke-width="0.7087" stroke-linecap="round" stroke-linejoin="round" stroke-miterlimit="10" d="
		M575,350.8c-1.4,0.6-0.1,1.7-0.4,2.5c1.6,0.4,1.6,2.2,2.7,3.1c0.9,0.8,1.7,1.5,2.9,1.2c1.2-0.4,2.1-1.2,2.4-2.5
		c0.4-1.5,0.8-3.2,0-4.7"/>
	
		<path fill="none" stroke="#000000" stroke-width="0.7087" stroke-linecap="round" stroke-linejoin="round" stroke-miterlimit="10" d="
		M674.4,450.6c-0.1,1-0.4,1.9-0.5,2.9c-0.2,1.5-0.9,2.9-2.4,3.5"/>
	
		<path fill="none" stroke="#000000" stroke-width="0.7087" stroke-linecap="round" stroke-linejoin="round" stroke-miterlimit="10" d="
		M559.2,319.9c0.5,2.5,1.2,4.8,3.7,6.2c0.6,0.3,0.9,1.2,0.8,2"/>
	
		<path fill="none" stroke="#000000" stroke-width="0.7087" stroke-linecap="round" stroke-linejoin="round" stroke-miterlimit="10" d="
		M647.2,436.2c-1.8,1.9-4.3,3.3-5.2,6"/>
	
		<path fill="none" stroke="#000000" stroke-width="0.7087" stroke-linecap="round" stroke-linejoin="round" stroke-miterlimit="10" d="
		M542.9,329.8c-0.9,2-1,4.2-1.2,6.4"/>
	
		<path fill="none" stroke="#000000" stroke-width="0.7087" stroke-linecap="round" stroke-linejoin="round" stroke-miterlimit="10" d="
		M645.9,433.7c2.2-1.7,4.5-3,7.4-2.5"/>
	
		<path fill="none" stroke="#000000" stroke-width="0.7087" stroke-linecap="round" stroke-linejoin="round" stroke-miterlimit="10" d="
		M616.9,290.5c0.7,0.1,0.9-0.5,1.2-0.8c2.1-1.8,4.3-1.3,6.6-0.4"/>
	
		<path fill="none" stroke="#000000" stroke-width="0.7087" stroke-linecap="round" stroke-linejoin="round" stroke-miterlimit="10" d="
		M681.6,319.3c1.7,1.9,2.3,4.4,4.1,6.2c0.5,0.5,0.7,1.7-0.4,2.4"/>
	
		<path fill="none" stroke="#000000" stroke-width="0.7087" stroke-linecap="round" stroke-linejoin="round" stroke-miterlimit="10" d="
		M641.4,425.4c2-0.9,3.8-2.2,6.2-1.6"/>
	
		<path fill="none" stroke="#000000" stroke-width="0.7087" stroke-linecap="round" stroke-linejoin="round" stroke-miterlimit="10" d="
		M736.4,402.2c2.5,2.5,3.5,5.6,4.1,8.9"/>
	
		<path fill="none" stroke="#000000" stroke-width="0.7087" stroke-linecap="round" stroke-linejoin="round" stroke-miterlimit="10" d="
		M630.9,368.2c0-1.5,0-3,0-4.5c1.1-0.4,2.2,0.1,3.1-0.6"/>
	
		<path fill="none" stroke="#000000" stroke-width="0.7087" stroke-linecap="round" stroke-linejoin="round" stroke-miterlimit="10" d="
		M599.3,312.5c-0.9,0.3-0.9,1.2-1.2,1.9c-1.9,3.7-5.4,5.6-8.5,8"/>
	
		<path fill="none" stroke="#000000" stroke-width="0.7087" stroke-linecap="round" stroke-linejoin="round" stroke-miterlimit="10" d="
		M554,324.5c0.1,1.9-0.6,3.8,0,5.8"/>
	
		<path fill="none" stroke="#000000" stroke-width="0.7087" stroke-linecap="round" stroke-linejoin="round" stroke-miterlimit="10" d="
		M546.2,463.6c1.9,0,3.7,0.7,5.6,1.2"/>
	
		<path fill="none" stroke="#000000" stroke-width="0.7087" stroke-linecap="round" stroke-linejoin="round" stroke-miterlimit="10" d="
		M736,410.2c1.7-0.4,2.4,1.2,3.7,1.7c0.6,0.3,1.1,1.1,1.9,1.2"/>
	
		<path fill="none" stroke="#000000" stroke-width="0.7087" stroke-linecap="round" stroke-linejoin="round" stroke-miterlimit="10" d="
		M741.3,398.7c-2.2,1.5-4.2,3.6-7.2,2.9"/>
	
		<path fill="none" stroke="#000000" stroke-width="0.7087" stroke-linecap="round" stroke-linejoin="round" stroke-miterlimit="10" d="
		M581.2,330c-1.7,0.1-3.3,1.3-5.3,0.6c0.8-1.3,2.3-1.3,3.4-2"/>
	
		<path fill="none" stroke="#000000" stroke-width="0.7087" stroke-linecap="round" stroke-linejoin="round" stroke-miterlimit="10" d="
		M576.5,328.2c0.8-1.1,1.7-0.7,2.7-0.4c1.4,0.4,2.6,0.3,3.3-1.2"/>
	
		<path fill="none" stroke="#000000" stroke-width="0.7087" stroke-linecap="round" stroke-linejoin="round" stroke-miterlimit="10" d="
		M686.3,318.7c1,1.6,1.1,3.4,1.8,5.4c1.8-0.7,2.7,1,4.1,1.6"/>
	
		<path fill="none" stroke="#000000" stroke-width="0.7087" stroke-linecap="round" stroke-linejoin="round" stroke-miterlimit="10" d="
		M586.8,332.7c0.6,1.7,0.2,3.4-0.6,4.9"/>
	
		<path fill="none" stroke="#000000" stroke-width="0.7087" stroke-linecap="round" stroke-linejoin="round" stroke-miterlimit="10" d="
		M541.2,294c1.3-0.2,2.3,0.5,3.1,1.3c2,2.3,4.3,3.8,7.5,3.9"/>
	
		<path fill="none" stroke="#000000" stroke-width="0.7087" stroke-linecap="round" stroke-linejoin="round" stroke-miterlimit="10" d="
		M551.3,335c-0.9,1.9-2.2,3.1-4.3,3.5"/>
	
		<path fill="none" stroke="#000000" stroke-width="0.7087" stroke-linecap="round" stroke-linejoin="round" stroke-miterlimit="10" d="
		M684.7,319.5c1.1,1.5,1.4,3.3,2.3,4.8"/>
	
		<path fill="none" stroke="#000000" stroke-width="0.7087" stroke-linecap="round" stroke-linejoin="round" stroke-miterlimit="10" d="
		M571.5,328.6c1.4-1.3,2.9-2.1,4.7-1"/>
	
		<path fill="none" stroke="#000000" stroke-width="0.7087" stroke-linecap="round" stroke-linejoin="round" stroke-miterlimit="10" d="
		M639.5,445.8c0.4,0.5,0.7,1.1,0.6,1.9c-0.1,1.3,0.5,2.1,1.6,2.5"/>
	
		<path fill="none" stroke="#000000" stroke-width="0.7087" stroke-linecap="round" stroke-linejoin="round" stroke-miterlimit="10" d="
		M712.3,400.5c1.4,0.7,2.9,1.4,4.3,2.1"/>
	
		<path fill="none" stroke="#000000" stroke-width="0.7087" stroke-linecap="round" stroke-linejoin="round" stroke-miterlimit="10" d="
		M638.9,362c-0.9-0.4-1.8-0.3-2.7,0.2c-0.1,1.2,1.1,2.2,0.4,3.5"/>
	
		<path fill="none" stroke="#000000" stroke-width="0.7087" stroke-linecap="round" stroke-linejoin="round" stroke-miterlimit="10" d="
		M692.1,320.3c-0.3,1.4,0,3-1.2,4.1"/>
	
		<path fill="none" stroke="#000000" stroke-width="0.7087" stroke-linecap="round" stroke-linejoin="round" stroke-miterlimit="10" d="
		M695.4,321.6c-0.1,0.2-0.1,0.5-0.2,0.6c-1.7,1.5-3.2,3-2.9,5.6c0,0.2-0.4,0.5-0.6,0.8"/>
	
		<path fill="none" stroke="#000000" stroke-width="0.7087" stroke-linecap="round" stroke-linejoin="round" stroke-miterlimit="10" d="
		M543.7,297.3c-0.8-0.4-1.5-0.9-2.3-1.2c-2-0.8-4.1,0.8-4.1,3.1c0,0.9-0.1,1.8-0.2,2.7"/>
	
		<path fill="none" stroke="#000000" stroke-width="0.7087" stroke-linecap="round" stroke-linejoin="round" stroke-miterlimit="10" d="
		M574.4,335c1.6,0.6,2.1,2.1,2.7,3.5"/>
	
		<path fill="none" stroke="#000000" stroke-width="0.7087" stroke-linecap="round" stroke-linejoin="round" stroke-miterlimit="10" d="
		M550.7,416.4c1,1,1.3,2.4,1.4,3.7"/>
	
		<path fill="none" stroke="#000000" stroke-width="0.7087" stroke-linecap="round" stroke-linejoin="round" stroke-miterlimit="10" d="
		M650.9,423.4c-1.2,0-2.3-0.1-3.4,1c-0.8,0.8-2.1,1-3.2,1.5"/>
	
		<path fill="none" stroke="#000000" stroke-width="0.7087" stroke-linecap="round" stroke-linejoin="round" stroke-miterlimit="10" d="
		M547.4,303c1.6,1.2,3.6,0.2,5.4,0.8"/>
	
		<path fill="none" stroke="#000000" stroke-width="0.7087" stroke-linecap="round" stroke-linejoin="round" stroke-miterlimit="10" d="
		M621.8,363c-1.2,0.9-1.5,2.4-2.1,3.7"/>
	
		<path fill="none" stroke="#000000" stroke-width="0.7087" stroke-linecap="round" stroke-linejoin="round" stroke-miterlimit="10" d="
		M632.7,362.4c0.1,1.6,0.1,3.3,0.2,4.9"/>
	
		<path fill="none" stroke="#000000" stroke-width="0.7087" stroke-linecap="round" stroke-linejoin="round" stroke-miterlimit="10" d="
		M735,409c1,1.7,2.1,3.4,3.1,5.2"/>
	
		<path fill="none" stroke="#000000" stroke-width="0.7087" stroke-linecap="round" stroke-linejoin="round" stroke-miterlimit="10" d="
		M623.3,353.7c-0.5,1.2-1,2.5-1.4,3.7"/>
	
		<path fill="none" stroke="#000000" stroke-width="0.7087" stroke-linecap="round" stroke-linejoin="round" stroke-miterlimit="10" d="
		M689,320.1c0.6,1.2,1,2.4,0.8,3.7"/>
	
		<path fill="none" stroke="#000000" stroke-width="0.7087" stroke-linecap="round" stroke-linejoin="round" stroke-miterlimit="10" d="
		M624.1,363.2c-1,1.5-1.6,3.2-2.1,4.9"/>
	
		<path fill="none" stroke="#000000" stroke-width="0.7087" stroke-linecap="round" stroke-linejoin="round" stroke-miterlimit="10" d="
		M618.9,338.3c-0.5,1-1.1,2.1-1.6,3.1"/>
	
		<path fill="none" stroke="#000000" stroke-width="0.7087" stroke-linecap="round" stroke-linejoin="round" stroke-miterlimit="10" d="
		M669.8,358.9c1.2,0.4,2.1,1.5,3.5,1.2"/>
	
		<path fill="none" stroke="#000000" stroke-width="0.7087" stroke-linecap="round" stroke-linejoin="round" stroke-miterlimit="10" d="
		M634.6,363.2c0.7,1,0.3,2.2,0.4,3.3"/>
	
		<path fill="none" stroke="#000000" stroke-width="0.7087" stroke-linecap="round" stroke-linejoin="round" stroke-miterlimit="10" d="
		M588.8,333.5c-0.6,1.5-0.2,3.1-1,4.5"/>
	
		<path fill="none" stroke="#000000" stroke-width="0.7087" stroke-linecap="round" stroke-linejoin="round" stroke-miterlimit="10" d="
		M538.3,326.1c-1.6,0.3-1.2,2-1.9,2.9"/>
	
		<path fill="none" stroke="#000000" stroke-width="0.7087" stroke-linecap="round" stroke-linejoin="round" stroke-miterlimit="10" d="
		M577.9,274.4c-1.1,0.5-2.2,1-3.3,1.4"/>
	
		<path fill="none" stroke="#000000" stroke-width="0.7087" stroke-linecap="round" stroke-linejoin="round" stroke-miterlimit="10" d="
		M543.3,300.3c2.1,1.2,3.8,0,5.6-0.8"/>
	
		<path fill="none" stroke="#000000" stroke-width="0.7087" stroke-linecap="round" stroke-linejoin="round" stroke-miterlimit="10" d="
		M543.3,299.9c1.1-0.3,2.2-0.7,3.3-1"/>
	
		<path fill="none" stroke="#000000" stroke-width="0.7087" stroke-linecap="round" stroke-linejoin="round" stroke-miterlimit="10" d="
		M538.8,328.2c-0.2,0.8-0.4,1.7-0.6,2.5c-0.4,1-0.2,1.8,0.8,2.3"/>
	
		<path fill="none" stroke="#000000" stroke-width="0.7087" stroke-linecap="round" stroke-linejoin="round" stroke-miterlimit="10" d="
		M688,377.2c0.8,1.3,2,2.2,2.7,3.5c0.4,0.8,1.2,1.4,2.2,1.3"/>
	
		<path fill="none" stroke="#000000" stroke-width="0.7087" stroke-linecap="round" stroke-linejoin="round" stroke-miterlimit="10" d="
		M581.2,331.3c-1,0.5-1.9,1-2.9,1.4"/>
	
		<path fill="none" stroke="#000000" stroke-width="0.7087" stroke-linecap="round" stroke-linejoin="round" stroke-miterlimit="10" d="
		M545.4,329.4c-1.9,1.3-1.2,3.2-1.2,4.9"/>
	
		<path fill="none" stroke="#000000" stroke-width="0.7087" stroke-linecap="round" stroke-linejoin="round" stroke-miterlimit="10" d="
		M589.9,334.8c-0.5,0.6,0.2,1.5-0.6,2.1c-0.3,0.3-0.4,0.1-0.6,0"/>
	
		<path fill="none" stroke="#000000" stroke-width="0.7087" stroke-linecap="round" stroke-linejoin="round" stroke-miterlimit="10" d="
		M587.2,354.8c-1.3,1.1-2.5,2.1-4.3,1"/>
	
		<path fill="none" stroke="#000000" stroke-width="0.7087" stroke-linecap="round" stroke-linejoin="round" stroke-miterlimit="10" d="
		M741.8,416.2c1.1-0.6,1.8,0.3,2.7,0.6"/>
	
		<path fill="none" stroke="#000000" stroke-width="0.7087" stroke-linecap="round" stroke-linejoin="round" stroke-miterlimit="10" d="
		M635.8,360.3c-1,0.5-1.4,1.4-1.4,2.5"/>
	
		<path fill="none" stroke="#000000" stroke-width="0.7087" stroke-linecap="round" stroke-linejoin="round" stroke-miterlimit="10" d="
		M585.3,332.7c-0.5-0.5-1.4,0.2-1.9-0.8c-0.9,0.8-1.8,1.6-2.7,2.4"/>
	
		<path fill="none" stroke="#000000" stroke-width="0.7087" stroke-linecap="round" stroke-linejoin="round" stroke-miterlimit="10" d="
		M615,324.9c0,0.9,0.1,1.8-0.6,2.5"/>
	
		<path fill="none" stroke="#000000" stroke-width="0.7087" stroke-linecap="round" stroke-linejoin="round" stroke-miterlimit="10" d="
		M627.8,274.4c0.7,0.3,1.3,0.6,2.1,0.6"/>
	
		<path fill="none" stroke="#000000" stroke-width="0.7087" stroke-linecap="round" stroke-linejoin="round" stroke-miterlimit="10" d="
		M581.8,328c-0.2,1-0.9,2.1,0.2,3.1"/>
	
		<path fill="none" stroke="#000000" stroke-width="0.7087" stroke-linecap="round" stroke-linejoin="round" stroke-miterlimit="10" d="
		M714.6,437.6c1,0.2,0.3,1.4,1,1.9"/>
	
		<path fill="none" stroke="#000000" stroke-width="0.7087" stroke-linecap="round" stroke-linejoin="round" stroke-miterlimit="10" d="
		M584.7,353.9c-0.2,0.7-0.5,1.3-0.4,2.1"/>
	
		<path fill="none" stroke="#000000" stroke-width="0.7087" stroke-linecap="round" stroke-linejoin="round" stroke-miterlimit="10" d="
		M624.9,364.9c0.7,0.9-0.5,1.3-0.4,2.1"/>
	
		<path fill="none" stroke="#000000" stroke-width="0.7087" stroke-linecap="round" stroke-linejoin="round" stroke-miterlimit="10" d="
		M584.3,332.7c-0.4,0.6-0.8,1.2-1.2,1.9"/>
	
		<path fill="none" stroke="#000000" stroke-width="0.7087" stroke-linecap="round" stroke-linejoin="round" stroke-miterlimit="10" d="
		M621.4,360.9c0.6,1,0.6,2.4,1.9,3.1"/>
	
		<path fill="none" stroke="#000000" stroke-width="0.7087" stroke-linecap="round" stroke-linejoin="round" stroke-miterlimit="10" d="
		M663.7,453.9c0.8,0.8-1,1.3-0.2,2.1"/>
	
		<path fill="none" stroke="#000000" stroke-width="0.7087" stroke-linecap="round" stroke-linejoin="round" stroke-miterlimit="10" d="
		M636.7,360.7c0.7,0.5,0.6,1.3,0.6,2.1"/>
	
		<path fill="none" stroke="#000000" stroke-width="0.7087" stroke-linecap="round" stroke-linejoin="round" stroke-miterlimit="10" d="
		M641.6,442.6c-0.1,0.2-0.3,0.4-0.4,0.6"/>
</g>
</svg>
