<?xml version="1.0" encoding="utf-8"?>
<!-- Generator: Adobe Illustrator 18.0.0, SVG Export Plug-In . SVG Version: 6.00 Build 0)  -->
<!DOCTYPE svg PUBLIC "-//W3C//DTD SVG 1.0//EN" "http://www.w3.org/TR/2001/REC-SVG-20010904/DTD/svg10.dtd">
<svg version="1.0" id="Layer_1" xmlns="http://www.w3.org/2000/svg" xmlns:xlink="http://www.w3.org/1999/xlink" x="0px" y="0px"
	 width="1280px" height="800px" viewBox="0 0 1280 800" enable-background="new 0 0 1280 800" xml:space="preserve">
<g>
	
		<path fill="none" stroke="#000000" stroke-width="0.8672" stroke-linecap="round" stroke-linejoin="round" stroke-miterlimit="10" d="
		M591.1,283.8c-0.2-0.3-0.2-0.7-0.7-0.7c-0.5,0-0.7-0.5-0.8-0.9c-0.3-0.9-0.8-1.2-1.7-1c-0.6,0.1-1.2-0.1-1.7,0.1
		c-0.8,0.2-1.5,0.7-2.4,1.1c0.5,3,1.5,5.9,2.3,8.8c0.6,2.2,1.1,4.5,1.7,6.7c0.6,2.2,1.3,4.4,2,6.5c0.4,1.2,0.5,2.5,0.6,3.7
		c0.1,0.9,0.4,1.8,0.8,2.6c0.7,1.4,1.3,2.8,0.3,4.3"/>
	
		<path fill="none" stroke="#000000" stroke-width="0.8672" stroke-linecap="round" stroke-linejoin="round" stroke-miterlimit="10" d="
		M634.7,421.6c-0.2,0.2-0.4,0.5-0.6,0.7c-0.6,0.8-0.5,2.2,0.6,3.1c1.2,1,1.6,2.5,2.3,3.8c1.3,2.4,2,5.1,3.2,7.5
		c1.2,2.3,2.3,4.7,3.5,7c0.8,1.6,2,3.1,3.1,4.6c1.2,1.7,2.5,3.4,3.7,5.1c2.2,3.2,4,6.6,5.7,10.2c1.3,2.8,2.9,5.5,3.9,8.4
		c1.1,3.1,2.5,6.2,3.5,9.4c0.9,2.6,1.6,5.3,1.9,8.1"/>
	
		<path fill="none" stroke="#000000" stroke-width="0.8672" stroke-linecap="round" stroke-linejoin="round" stroke-miterlimit="10" d="
		M598.6,331.3c0.8,1.1,1.6,2.1,2.4,3.2c2.2,3,4.4,6,6,9.4c0.7,1.4,1.4,2.8,1.8,4.4c0.1,0.6,0.4,1.2,1.2,1.1"/>
	
		<path fill="none" stroke="#000000" stroke-width="0.8672" stroke-linecap="round" stroke-linejoin="round" stroke-miterlimit="10" d="
		M612.6,360.8c0.1,0.3,0.1,0.7,0.3,1c0.6,0.8,0.8,1.6,0.9,2.5c0.2,1.3,0.7,2.6,1,3.9c0.4,1.4,0.8,2.9,1.9,4.1
		c0.2,0.3,0.2,0.7,0.3,1.1c0.3,1.2,0.4,2.5,1.3,3.4"/>
	
		<path fill="none" stroke="#000000" stroke-width="0.8672" stroke-linecap="round" stroke-linejoin="round" stroke-miterlimit="10" d="
		M617.6,376.3c-0.2,0.4-0.1,0.7,0,1.1c1.5,4.1,2.7,8.3,3.3,12.6c0.3,2.1,1,4.2,1.6,6.2c0.8,2.5,1.6,4.9,2.5,7.3
		c0.8,2.1,1.6,4.2,2.5,6.2c0.7,1.5,1.1,3,2,4.4c0.2,0.3,0.2,0.6,0.3,0.9c0.3,1.7,1.5,2.6,2.9,3.4"/>
	
		<path fill="none" stroke="#000000" stroke-width="0.8672" stroke-linecap="round" stroke-linejoin="round" stroke-miterlimit="10" d="
		M662.2,456.1c0.8,0.4,0.9,1.1,0.6,1.9c-0.2,0.8,0,2.8,0.4,3.7c0.6,1.3,0.8,2.8,1.1,4.2c0.4,1.6,1.1,3,1.6,4.5
		c0.7,1.9,1.3,3.9,1.8,5.9c0.3,0.9,0.5,1.9,0.9,2.7c0.5,1.1,0.9,2.3,1.2,3.5"/>
	
		<path fill="none" stroke="#000000" stroke-width="0.8672" stroke-linecap="round" stroke-linejoin="round" stroke-miterlimit="10" d="
		M590.9,283.3c0.5-0.2,1,0.2,1.5,0.2c0.9,0.1,1.4,1,1.5,2c0.1,0.6-0.1,1.2-0.2,1.8c-0.5,3-0.1,6-0.2,8.9c0,3,0.5,6,1,8.9
		c0.1,0.4,0.1,0.7-0.1,1"/>
	
		<path fill="none" stroke="#000000" stroke-width="0.8672" stroke-linecap="round" stroke-linejoin="round" stroke-miterlimit="10" d="
		M594.1,306.7c0.5-0.3,0.6,0.1,0.7,0.4c0.6,1.5,0.9,3.1,1.4,4.7c0.6,1.7,1.2,3.3,1.8,5c0.3,0.9,0.6,1.8,0.4,2.7"/>
	
		<path fill="none" stroke="#000000" stroke-width="0.8672" stroke-linecap="round" stroke-linejoin="round" stroke-miterlimit="10" d="
		M632.8,407.3c1.2,0.4,1.7,1.6,2.2,2.5c0.8,1.3,1.4,2.7,1.7,4.3c0.2,1,0.8,1.8,1.5,2.6c0.3,0.3,0.6,0.7,0.7,1.2
		c0.1,1.2,1,2.1,1.3,3.3c0.1,0.6,0.4,1.1,0.2,1.7c-0.1,0.2,0,0.6,0.1,0.8c1.6,1.6,2,3.9,3.1,5.8c1.5,2.6,3.4,5,4.3,7.9
		c0.8,2.3,2.6,4,3.7,6c0.1,0.1,0.1,0.2,0.2,0.3c0.6,1.1,0.9,2.3,2.3,2.9c1.1,0.4,1.5,1.8,2.6,2.3c1.3,0.6,2.2,1.8,3.5,2.6
		c1,0.6,1.3,1.7,1.8,2.7c0.1,0.2,0.1,0.6,0.6,0.4"/>
	
		<path fill="none" stroke="#000000" stroke-width="0.8672" stroke-linecap="round" stroke-linejoin="round" stroke-miterlimit="10" d="
		M623,409.9c1,1.2,2,2.4,3.1,3.5c0.5,0.5,0.8,1.1,1,1.8c0.1,0.7,0.7,1.3,1.2,1.8c1.4,1.9,2.6,3.9,4.1,5.7c0.3,0.4,0.7,0.8,1.3,0.8"
		/>
	
		<path fill="none" stroke="#000000" stroke-width="0.8672" stroke-linecap="round" stroke-linejoin="round" stroke-miterlimit="10" d="
		M615.1,338.9c0.6,0.5,0.3,1.1,0.3,1.7c-0.1,1.4,0.3,2.2,1.5,2.7c0.8,0.3,1.4,0.7,1.4,1.5c0,1,0,2.2-0.9,2.8c-1,0.7-1,1.5-0.9,2.5
		c0.1,0.8,0.2,1.5,0,2.3c-0.2,0.8,0.1,1.7,0.4,2.5c0.4,1.4,1.1,2.8,1.4,4.3c0,0.2,0.1,0.4,0.2,0.5c0.4,0.2,0.6,0.6,0.6,1
		c-0.2,1.8,1,3.2,1.2,4.9c0.2,1.2,0,2.3,0.3,3.5c0.2,0.5,0.4,0.9,0.7,1.4c0.7,1.1,0.9,2.5,1,3.7c0.2,1.8,0.8,3.6,0.9,5.5
		c0,0.6,0.6,1.2,0.6,1.8c0.1,2,0.5,4.1,1.1,6c0.7,2.1,1.2,4.4,2.3,6.4c0.6,1.1,0.6,2.5,1.3,3.4c0.8,1,1.1,2.1,1.4,3.2
		c0.3,1,0.8,1.8,1.1,2.8c0.3,0.9,1.1,1.4,1.5,2.2c0.6,1.2,0.6,1.6-0.5,2.5"/>
	
		<path fill="none" stroke="#000000" stroke-width="0.8672" stroke-linecap="round" stroke-linejoin="round" stroke-miterlimit="10" d="
		M609.4,337c-0.9,1.6,0.1,3.2,0,4.8c0,1.1,0.2,2.2,0.5,3.2c0.3,1.4,1.2,2.5,2.6,3.1"/>
	
		<path fill="none" stroke="#000000" stroke-width="0.8672" stroke-linecap="round" stroke-linejoin="round" stroke-miterlimit="10" d="
		M620.3,371.1c0.4,2.5,0.7,5.1,1.1,7.6c0.1,0.9,0.7,1.2,1.6,1"/>
	
		<path fill="none" stroke="#000000" stroke-width="0.8672" stroke-linecap="round" stroke-linejoin="round" stroke-miterlimit="10" d="
		M617.3,368.7c0.1,1.6,1.1,2.8,1.4,4.3c0.4,2,1,4,1.5,6"/>
	
		<path fill="none" stroke="#000000" stroke-width="0.8672" stroke-linecap="round" stroke-linejoin="round" stroke-miterlimit="10" d="
		M676.6,497.3c0.3,0.2,0.6,0.5,0.8,0.9c0.8,1.9,2.1,3.6,2.9,5.6c0.5,1.3,1.3,2.5,2.5,3.4c0.3,0.2,0.4,0.7,0.5,1.1
		c1-0.3,1.3-1.3,1.7-2c0.4-0.7,0.6-1.6,1.5-2"/>
	
		<path fill="none" stroke="#000000" stroke-width="0.8672" stroke-linecap="round" stroke-linejoin="round" stroke-miterlimit="10" d="
		M656.5,452.5c-0.3,1.6,0.1,2.4,1.4,3c0.2,0.1,0.5,0.3,0.7,0.4c1.7,1,3,0.5,3.7-1.3"/>
	
		<path fill="none" stroke="#000000" stroke-width="0.8672" stroke-linecap="round" stroke-linejoin="round" stroke-miterlimit="10" d="
		M661.9,464.1c0.1,0.3,0,0.6-0.1,0.8c-0.3,0.6-0.5,1.3-0.2,2c0.3,0.8,0.4,1.5,0.4,2.3c0,1.4,1,2.5,1.4,3.8c0.4,1.3,0.7,2.7,1.3,3.9
		c0.2,0.5,0.6,0.9,0.8,1.4c1,2.1,1.4,4.3,2.1,6.5c0.2,0.6,0.7,1,0.6,1.6"/>
	
		<path fill="none" stroke="#000000" stroke-width="0.8672" stroke-linecap="round" stroke-linejoin="round" stroke-miterlimit="10" d="
		M587,306.1c0.2,1.9,0.8,3.7,1.7,5.4c0.7,1.3,1.2,2.8,2.7,3.6c0.3,0.1,0.2,0.4,0.4,0.6"/>
	
		<path fill="none" stroke="#000000" stroke-width="0.8672" stroke-linecap="round" stroke-linejoin="round" stroke-miterlimit="10" d="
		M695.1,501.4c-1.3,1.7-2,3.8-3.6,5.2c-0.1,0.1-0.1,0.2-0.1,0.3c0.1,2-1.9,3.1-2.3,5c-0.1,0.5-0.6,0.9-1.1,1.2
		c-1.5,1-3.1,1.6-4.9,1.5c-0.7,0-1.2,0.4-1.9,0.6c-0.9,0.3-1.8,0.9-2.9,0.6c-0.6-0.1-1-0.6-1.2-1c-0.5-1.8-1.7-3.3-2.4-5
		c-0.1-0.3-0.4-0.4-0.6-0.5c-0.6-0.3-0.6-0.7-0.3-1.2"/>
	
		<path fill="none" stroke="#000000" stroke-width="0.8672" stroke-linecap="round" stroke-linejoin="round" stroke-miterlimit="10" d="
		M672.4,497c0,0.4,0.1,0.9,0.4,1.1c1.3,0.8,1.2,2.2,1.7,3.3c0.8,1.6,1.7,3,2.7,4.5c1.3,1.8,2.3,3.7,3.2,5.7c0,0.1,0.1,0.3,0.1,0.3
		c1.3,0.6,1.2,1.9,1.5,3"/>
	
		<path fill="none" stroke="#000000" stroke-width="0.8672" stroke-linecap="round" stroke-linejoin="round" stroke-miterlimit="10" d="
		M661.3,484.6c0.6,1.5,1.3,3,1.9,4.6c0.5,1.3,1.3,2.3,2.2,3.3c0.8,0.9,1.2,2,1.6,3.2"/>
	
		<path fill="none" stroke="#000000" stroke-width="0.8672" stroke-linecap="round" stroke-linejoin="round" stroke-miterlimit="10" d="
		M607.9,330.7c0.8,2,1.3,4,1.7,6.1"/>
	
		<path fill="none" stroke="#000000" stroke-width="0.8672" stroke-linecap="round" stroke-linejoin="round" stroke-miterlimit="10" d="
		M617,334.5c-0.6,1.2-1.2,2.4-1.6,3.7c-0.2,0.6-0.8,0.8-1.1,1.3c-0.9,1.9-1.6,3.9-0.4,6c0.5,0.8,0.4,1.8,0.6,2.6"/>
	
		<path fill="none" stroke="#000000" stroke-width="0.8672" stroke-linecap="round" stroke-linejoin="round" stroke-miterlimit="10" d="
		M609.8,337c0.7,0.3,0.7,0.9,1,1.4c0.7,1.3,1,2.8,2.4,3.6"/>
	
		<path fill="none" stroke="#000000" stroke-width="0.8672" stroke-linecap="round" stroke-linejoin="round" stroke-miterlimit="10" d="
		M598.7,319.6c1,1.1,1.5,2.4,1.7,3.9c0,0.3,0.1,0.6,0.3,0.8c1.6,1.5,2.1,3.6,2.9,5.5c0.9,2,2.1,3.9,3.2,5.9c0.6,1.1,1,2.1,2.2,2.7"
		/>
	
		<path fill="none" stroke="#000000" stroke-width="0.8672" stroke-linecap="round" stroke-linejoin="round" stroke-miterlimit="10" d="
		M640.1,433.2c0.3-0.3,0.6-0.7,0.9-0.2c0.4,0.5,0.9,0.9,1.2,1.5c0.7,1.4,1.6,2.6,2.7,3.7c0.7,0.7,1.1,1.7,1.5,2.6
		c0.2,0.5,0.6,1,0.9,1.3c0.7,0.7,1.5,1.3,1.3,2.5c-0.1,0.4,0.5,0.8,0.7,1.2c0.8,1.7,1.8,3.2,2.9,4.7c0.7,1,1.2,2.1,1.8,3.2"/>
	
		<path fill="none" stroke="#000000" stroke-width="0.8672" stroke-linecap="round" stroke-linejoin="round" stroke-miterlimit="10" d="
		M588.8,322.1c0.2,1,0.8,1.8,1.5,2.5c1.1,1.1,2.2,2.3,3.6,3"/>
	
		<path fill="none" stroke="#000000" stroke-width="0.8672" stroke-linecap="round" stroke-linejoin="round" stroke-miterlimit="10" d="
		M609.6,349.6c-0.3,0.7,0,1.3,0.5,1.8c1,1,0.9,2.4,1.3,3.7c0.4,1.3,0.6,2.7,0.9,4"/>
	
		<path fill="none" stroke="#000000" stroke-width="0.8672" stroke-linecap="round" stroke-linejoin="round" stroke-miterlimit="10" d="
		M691,507.1c-1.1,0.1-1.8,0.9-2.5,1.7c-0.5,0.6-1.1,1.3-2,1.5c-0.6,0.1-0.6,1-1.2,1.2"/>
	
		<path fill="none" stroke="#000000" stroke-width="0.8672" stroke-linecap="round" stroke-linejoin="round" stroke-miterlimit="10" d="
		M671.1,485.2c0.1,0,0.4,0,0.4,0.1c0.5,1.9,1.7,3.5,2,5.5c0,0.2,0,0.3,0.1,0.5c1,1.4,0.5,2.4-0.8,3.3"/>
	
		<path fill="none" stroke="#000000" stroke-width="0.8672" stroke-linecap="round" stroke-linejoin="round" stroke-miterlimit="10" d="
		M668.3,501.4c1,1.5,1.7,3.2,3.6,4c0.7,0.3,0.6,1.3,0.9,1.9c0.2,0.4,0.3,0.9,0.8,1.2"/>
	
		<path fill="none" stroke="#000000" stroke-width="0.8672" stroke-linecap="round" stroke-linejoin="round" stroke-miterlimit="10" d="
		M604.5,320.6c0.6,0.9,1.2,1.8,1.8,2.7c0.6,0.9,0.9,1.1,1.7,0.4c0.3-0.2,0.7-0.4,1-0.7c0.4-0.6,0.2-0.9-0.2-1.2
		c-1-0.6-1.7-0.4-2.7,0.6"/>
	
		<path fill="none" stroke="#000000" stroke-width="0.8672" stroke-linecap="round" stroke-linejoin="round" stroke-miterlimit="10" d="
		M589.4,292.5c-0.1,1.2,0.3,2.3,0.5,3.5c0.1,0.6-0.1,1.2,0.2,1.8"/>
	
		<path fill="none" stroke="#000000" stroke-width="0.8672" stroke-linecap="round" stroke-linejoin="round" stroke-miterlimit="10" d="
		M688.1,499.5c-0.6,0.2-0.3,0.7-0.5,1.1c-1.1,2.3-0.6,4.9-1.1,7.4c-0.2,0.7-0.4,1.4-0.2,2.1"/>
	
		<path fill="none" stroke="#000000" stroke-width="0.8672" stroke-linecap="round" stroke-linejoin="round" stroke-miterlimit="10" d="
		M599.1,326.6c0.2-0.6-0.3-1-0.5-1.5c-0.7-1.5-1.8-2.6-2.6-4c-0.3-0.5-0.7-1-1.4-1"/>
	
		<path fill="none" stroke="#000000" stroke-width="0.8672" stroke-linecap="round" stroke-linejoin="round" stroke-miterlimit="10" d="
		M662.3,491.7c0,1.4,0.7,2.7,1.1,4.1c0.1,0.5,0,1.2,0.7,1.7c0.9,0.7,1.5,0.9,2.2,0.1c0.2-0.2,0.3-0.5,0.4-0.7"/>
	
		<path fill="none" stroke="#000000" stroke-width="0.8672" stroke-linecap="round" stroke-linejoin="round" stroke-miterlimit="10" d="
		M600.7,330.3c1.4,1.5,2.8,3,3.6,4.9"/>
	
		<path fill="none" stroke="#000000" stroke-width="0.8672" stroke-linecap="round" stroke-linejoin="round" stroke-miterlimit="10" d="
		M652.8,452.6c0.4,1.7,1.6,3,2.2,4.5"/>
	
		<path fill="none" stroke="#000000" stroke-width="0.8672" stroke-linecap="round" stroke-linejoin="round" stroke-miterlimit="10" d="
		M674.3,493.2c1.3,0.9,1.7,2.3,2.1,3.7c0.1,0.4,0,0.6-0.5,0.6c-0.3,0-0.6,0.1-0.8,0.1"/>
	
		<path fill="none" stroke="#000000" stroke-width="0.8672" stroke-linecap="round" stroke-linejoin="round" stroke-miterlimit="10" d="
		M588,285.4c-0.5,0.9,0,1.9,0.2,2.7c0.2,1,0.5,2,0.7,3c0.1,0.4,0.2,0.9,0.6,1c0.4,0,1-0.2,1.3-0.5c1-1.1,1.7-2.3,1.3-3.8"/>
	
		<path fill="none" stroke="#000000" stroke-width="0.8672" stroke-linecap="round" stroke-linejoin="round" stroke-miterlimit="10" d="
		M620.2,379.3c0.4,1.4,0.8,2.7,1.3,4.1c0.2,0.5,0.5,0.9,1.1,0.4"/>
	
		<path fill="none" stroke="#000000" stroke-width="0.8672" stroke-linecap="round" stroke-linejoin="round" stroke-miterlimit="10" d="
		M644.7,434.4c0.7,1,1.4,2,2,3c0.2,0.3,0.3,0.6,0.6,0.7"/>
	
		<path fill="none" stroke="#000000" stroke-width="0.8672" stroke-linecap="round" stroke-linejoin="round" stroke-miterlimit="10" d="
		M627.3,402.6c-0.5-2.1-1.7-3.9-2.1-6c-0.2-1.2-0.9-2.4-1.3-3.5c-0.2-0.4-0.4-0.5-0.8-0.3"/>
	
		<path fill="none" stroke="#000000" stroke-width="0.8672" stroke-linecap="round" stroke-linejoin="round" stroke-miterlimit="10" d="
		M665.2,498.4c0.4,0.6,0.7,1.2,1.2,1.7c1.1,1.3,1.4,1.4,3.1,0.7"/>
	
		<path fill="none" stroke="#000000" stroke-width="0.8672" stroke-linecap="round" stroke-linejoin="round" stroke-miterlimit="10" d="
		M652.6,446.8c-0.2,0.4,0.1,0.7,0.2,1c0.4,1.2,0.2,1.4-1.1,1.8"/>
	
		<path fill="none" stroke="#000000" stroke-width="0.8672" stroke-linecap="round" stroke-linejoin="round" stroke-miterlimit="10" d="
		M621.8,380.2c-0.3,1.1,0.3,2.1,0.4,3.1c0.1,0.8,0.9,0.5,1.4,0.6"/>
	
		<path fill="none" stroke="#000000" stroke-width="0.8672" stroke-linecap="round" stroke-linejoin="round" stroke-miterlimit="10" d="
		M589.7,317.2c-0.9,1-1.8,2-1,3.5c1.1,0.2,0.7-1.4,1.6-1.4"/>
	
		<path fill="none" stroke="#000000" stroke-width="0.8672" stroke-linecap="round" stroke-linejoin="round" stroke-miterlimit="10" d="
		M655.6,458.9c0.4,1.1,0.9,2.1,1.3,3.2"/>
	
		<path fill="none" stroke="#000000" stroke-width="0.8672" stroke-linecap="round" stroke-linejoin="round" stroke-miterlimit="10" d="
		M676.9,501c0,0.5,0.4,0.9,0.5,1.4c0.4,1.2,0.3,1.6-0.7,2.3"/>
	
		<path fill="none" stroke="#000000" stroke-width="0.8672" stroke-linecap="round" stroke-linejoin="round" stroke-miterlimit="10" d="
		M587.4,307c0.7,0.2,1.2,0.8,1.7,1.2c0.4,0.3,0.7,0.7,1.2,0.7"/>
	
		<path fill="none" stroke="#000000" stroke-width="0.8672" stroke-linecap="round" stroke-linejoin="round" stroke-miterlimit="10" d="
		M588,313.6c0.5,0.4,0.5,1,0.7,1.6c0.4,1,1,1.9,1.9,2.5"/>
	
		<path fill="none" stroke="#000000" stroke-width="0.8672" stroke-linecap="round" stroke-linejoin="round" stroke-miterlimit="10" d="
		M589.6,282.6c-0.9-0.1-1.8-0.1-2.5,0.6c-0.1,0.1-0.4,0.1-0.6,0.1"/>
	
		<path fill="none" stroke="#000000" stroke-width="0.8672" stroke-linecap="round" stroke-linejoin="round" stroke-miterlimit="10" d="
		M596.4,316.3c0.6,0.8,0.9,1.8,1.7,2.5"/>
	
		<path fill="none" stroke="#000000" stroke-width="0.8672" stroke-linecap="round" stroke-linejoin="round" stroke-miterlimit="10" d="
		M645.3,442.2c0.7,0.1,1,0.6,1.3,1.2c0.2,0.4,0.4,0.8,0.8,1"/>
	
		<path fill="none" stroke="#000000" stroke-width="0.8672" stroke-linecap="round" stroke-linejoin="round" stroke-miterlimit="10" d="
		M621.7,386c0.2,0.7,0.5,1.4,0.5,2.1c0,0.3-0.1,0.4-0.3,0.6"/>
	
		<path fill="none" stroke="#000000" stroke-width="0.8672" stroke-linecap="round" stroke-linejoin="round" stroke-miterlimit="10" d="
		M671.2,494.7c0.6,0.6,1.4,1.1,1.1,2.2c-1,0-1.7-1.4-2.9-0.8"/>
	
		<path fill="none" stroke="#000000" stroke-width="0.8672" stroke-linecap="round" stroke-linejoin="round" stroke-miterlimit="10" d="
		M669.7,482.5c1.6,0.5,1.3,0.9,1.5,2.5"/>
	
		<path fill="none" stroke="#000000" stroke-width="0.8672" stroke-linecap="round" stroke-linejoin="round" stroke-miterlimit="10" d="
		M590.1,283.1c-0.3,0.4-0.7,0.7-1.2,1c-0.3,0.2-0.9,0.5-0.8,1.1"/>
	
		<path fill="none" stroke="#000000" stroke-width="0.8672" stroke-linecap="round" stroke-linejoin="round" stroke-miterlimit="10" d="
		M629.8,415.4c-0.6,0-0.9-0.4-1.4-0.6c-0.5-0.2-0.9-0.5-1.5-0.5"/>
	
		<path fill="none" stroke="#000000" stroke-width="0.8672" stroke-linecap="round" stroke-linejoin="round" stroke-miterlimit="10" d="
		M670.3,492.1c-0.3,0.9-0.9,1.7-0.2,2.6"/>
	
		<path fill="none" stroke="#000000" stroke-width="0.8672" stroke-linecap="round" stroke-linejoin="round" stroke-miterlimit="10" d="
		M630.8,414.2c0.8-0.4,1.5-1.1,2.5-0.6c0.4,0.7-0.3,1.5,0,2.2"/>
	
		<path fill="none" stroke="#000000" stroke-width="0.8672" stroke-linecap="round" stroke-linejoin="round" stroke-miterlimit="10" d="
		M618.4,364.4c0.2,0.8,0.4,1.7,0.6,2.5"/>
	
		<path fill="none" stroke="#000000" stroke-width="0.8672" stroke-linecap="round" stroke-linejoin="round" stroke-miterlimit="10" d="
		M613.4,349.1c0.9,0.4,1.8,0.5,2.8,0.5"/>
	
		<path fill="none" stroke="#000000" stroke-width="0.8672" stroke-linecap="round" stroke-linejoin="round" stroke-miterlimit="10" d="
		M592.4,319.3c1.2-0.1,2.3,0.1,2.4,1.7c0,0.4,0.6,0.8,0.6,1.4"/>
	
		<path fill="none" stroke="#000000" stroke-width="0.8672" stroke-linecap="round" stroke-linejoin="round" stroke-miterlimit="10" d="
		M637.6,418.5c-1.4,0.4-2.3,1.9-3.8,2.3"/>
	
		<path fill="none" stroke="#000000" stroke-width="0.8672" stroke-linecap="round" stroke-linejoin="round" stroke-miterlimit="10" d="
		M640.5,429.7c0.7,0.5,1.4,0.8,2.2,0.5"/>
	
		<path fill="none" stroke="#000000" stroke-width="0.8672" stroke-linecap="round" stroke-linejoin="round" stroke-miterlimit="10" d="
		M639.7,424.4c0,1.4-0.1,2.7-0.1,4.1"/>
	
		<path fill="none" stroke="#000000" stroke-width="0.8672" stroke-linecap="round" stroke-linejoin="round" stroke-miterlimit="10" d="
		M627.5,406.8c0.3,0.7,1.1,0.9,1.4,1.6"/>
	
		<path fill="none" stroke="#000000" stroke-width="0.8672" stroke-linecap="round" stroke-linejoin="round" stroke-miterlimit="10" d="
		M590.8,291.7c0.3,0.3,0.5,0.5,0.3,1c-0.3,0.7-0.4,1.4-0.1,2"/>
	
		<path fill="none" stroke="#000000" stroke-width="0.8672" stroke-linecap="round" stroke-linejoin="round" stroke-miterlimit="10" d="
		M644.5,432.1c-0.1,0.4-0.1,0.8,0.2,1.2c0.3,0.4,0.2,0.8-0.1,1.1"/>
	
		<path fill="none" stroke="#000000" stroke-width="0.8672" stroke-linecap="round" stroke-linejoin="round" stroke-miterlimit="10" d="
		M629.3,404.4c0.7,0,1.4,0.3,2-0.4"/>
	
		<path fill="none" stroke="#000000" stroke-width="0.8672" stroke-linecap="round" stroke-linejoin="round" stroke-miterlimit="10" d="
		M676,497.8c-0.2,0.7,0,1.3,0.1,2"/>
	
		<path fill="none" stroke="#000000" stroke-width="0.8672" stroke-linecap="round" stroke-linejoin="round" stroke-miterlimit="10" d="
		M619.7,342.9c-0.7,0.3-1.1,0.8-1.7,1.3c-0.5,0.4-1.1,0.7-1.7,0.3"/>
	
		<path fill="none" stroke="#000000" stroke-width="0.8672" stroke-linecap="round" stroke-linejoin="round" stroke-miterlimit="10" d="
		M643.2,432.2c-0.6-0.4-1.2-0.6-1.9-0.3"/>
	
		<path fill="none" stroke="#000000" stroke-width="0.8672" stroke-linecap="round" stroke-linejoin="round" stroke-miterlimit="10" d="
		M592.9,317.7c0.5,0.4,1.1,0.8,0.9,1.6"/>
	
		<path fill="none" stroke="#000000" stroke-width="0.8672" stroke-linecap="round" stroke-linejoin="round" stroke-miterlimit="10" d="
		M641.3,427.5c0.2,0.6,0.6,1,1.3,0.7"/>
	
		<path fill="none" stroke="#000000" stroke-width="0.8672" stroke-linecap="round" stroke-linejoin="round" stroke-miterlimit="10" d="
		M657.3,449.7c-0.1,0.6,0.2,1.1,0.6,1.5"/>
	
		<path fill="none" stroke="#000000" stroke-width="0.8672" stroke-linecap="round" stroke-linejoin="round" stroke-miterlimit="10" d="
		M633.1,415.2c-0.6,0.2-1.2-0.5-1.8-0.1"/>
	
		<path fill="none" stroke="#000000" stroke-width="0.8672" stroke-linecap="round" stroke-linejoin="round" stroke-miterlimit="10" d="
		M669.6,483.3c-0.1,0.6,0.1,1.1,0.3,1.7"/>
	
		<path fill="none" stroke="#000000" stroke-width="0.8672" stroke-linecap="round" stroke-linejoin="round" stroke-miterlimit="10" d="
		M613.7,342c0.6,0.2,1-0.2,1.5-0.2"/>
	
		<path fill="none" stroke="#000000" stroke-width="0.8672" stroke-linecap="round" stroke-linejoin="round" stroke-miterlimit="10" d="
		M591,286.1c-0.5-0.1-1-0.2-1.5-0.2c-0.6,0.5-0.1,1.1-0.2,1.7"/>
	
		<path fill="none" stroke="#000000" stroke-width="0.8672" stroke-linecap="round" stroke-linejoin="round" stroke-miterlimit="10" d="
		M621.9,384.1c-0.4,0.5,0.2,1.1-0.1,1.6"/>
	
		<path fill="none" stroke="#000000" stroke-width="0.8672" stroke-linecap="round" stroke-linejoin="round" stroke-miterlimit="10" d="
		M623.3,391c0.2,0.4,0.4,0.9,0.3,1.4"/>
	
		<path fill="none" stroke="#000000" stroke-width="0.8672" stroke-linecap="round" stroke-linejoin="round" stroke-miterlimit="10" d="
		M616.7,359.7c0.5,0.1,0.9-0.2,1.3-0.4"/>
	
		<path fill="none" stroke="#000000" stroke-width="0.8672" stroke-linecap="round" stroke-linejoin="round" stroke-miterlimit="10" d="
		M672,492.8c0.1,0.5,0.7,0.6,0.9,1"/>
	
		<path fill="none" stroke="#000000" stroke-width="0.8672" stroke-linecap="round" stroke-linejoin="round" stroke-miterlimit="10" d="
		M674.2,496.6c0.4,0.6-0.3,0.9-0.4,1.4"/>
	
		<path fill="none" stroke="#000000" stroke-width="0.8672" stroke-linecap="round" stroke-linejoin="round" stroke-miterlimit="10" d="
		M590.1,287.6c0.8,0.6,0.4,1.4,0.2,2.1"/>
	
		<path fill="none" stroke="#000000" stroke-width="0.8672" stroke-linecap="round" stroke-linejoin="round" stroke-miterlimit="10" d="
		M614.4,348.3c0.6-0.3,1.2,0,1.7,0.2"/>
	
		<path fill="none" stroke="#000000" stroke-width="0.8672" stroke-linecap="round" stroke-linejoin="round" stroke-miterlimit="10" d="
		M615.8,365.8c0,0.7,0.4,1.3,0.7,2"/>
	
		<path fill="none" stroke="#000000" stroke-width="0.8672" stroke-linecap="round" stroke-linejoin="round" stroke-miterlimit="10" d="
		M591.4,285.2c0.6,0,1.2,0.1,1.7-0.1"/>
	
		<path fill="none" stroke="#000000" stroke-width="0.8672" stroke-linecap="round" stroke-linejoin="round" stroke-miterlimit="10" d="
		M611.9,359.3c0.9-0.3,0.9,0.5,1.2,1"/>
	
		<path fill="none" stroke="#000000" stroke-width="0.8672" stroke-linecap="round" stroke-linejoin="round" stroke-miterlimit="10" d="
		M591.9,303c-0.1,0.6,0.8,0.9,0.5,1.6"/>
	
		<path fill="none" stroke="#000000" stroke-width="0.8672" stroke-linecap="round" stroke-linejoin="round" stroke-miterlimit="10" d="
		M619.9,367.1c-0.8-0.5-1.2-0.1-1.5,0.6"/>
	
		<path fill="none" stroke="#000000" stroke-width="0.8672" stroke-linecap="round" stroke-linejoin="round" stroke-miterlimit="10" d="
		M592.6,305.7c0.1,0.2,0.3,0.5,0.4,0.7"/>
	
		<path fill="none" stroke="#000000" stroke-width="0.8672" stroke-linecap="round" stroke-linejoin="round" stroke-miterlimit="10" d="
		M590.4,322.7c-0.3,0.1-0.8-0.1-1,0.3"/>
</g>
</svg>
