<?xml version="1.0" encoding="utf-8"?>
<!-- Generator: Adobe Illustrator 18.0.0, SVG Export Plug-In . SVG Version: 6.00 Build 0)  -->
<!DOCTYPE svg PUBLIC "-//W3C//DTD SVG 1.0//EN" "http://www.w3.org/TR/2001/REC-SVG-20010904/DTD/svg10.dtd">
<svg version="1.0" id="Layer_1" xmlns="http://www.w3.org/2000/svg" xmlns:xlink="http://www.w3.org/1999/xlink" x="0px" y="0px"
	 width="1280px" height="800px" viewBox="0 0 1280 800" enable-background="new 0 0 1280 800" xml:space="preserve">
<g>
	
		<path fill="none" stroke="#000000" stroke-width="0.7087" stroke-linecap="round" stroke-linejoin="round" stroke-miterlimit="10" d="
		M657.2,475.3c-3.7-2.9-5.9-6.9-7.8-10.9c-0.8-1.6-1.9-2.8-3.4-3.8c-6.7-4.5-11.7-10.9-18.1-15.7c-3.4-2.5-6.7-5.2-10.3-7.5
		c-1.9-1.3-4.8-1-5.8-3.8c-0.3-0.7-0.8-1.4-0.6-2.1c1.3-4.1,0.3-8.2,0.1-12.3c-0.4-5.7,0.1-11.4-0.1-17.1c-0.2-4.5-0.9-8.9-1.4-13.6
		c-1,0.5-1.4,0.8-1.9,1c-7.6,3.4-8.2,10.6-9.5,17.4c-0.3,1.4-0.6,2.6-1.5,3.8c-3.7-0.3-5.7-3.2-8.2-5.5c-4.9-4.6-9.9-9-14.7-13.7
		c-3.7-3.6-8.5-4.4-13-6.2c-8.7-3.5-17.4-7.3-25.4-12.1c-1.5,1.2-1.2,2.7-0.9,3.6c2.2,6.3,4.2,12.5,9,17.6c3.5,3.7,7.5,7.1,9.5,12.1
		c0.6,1.5,2.1,2.7,3.6,3.9c6.8,5.4,13.3,11.2,20.9,15.7c1.4,0.9,2.6,2.2,3.8,3.2c-0.7,2-2.3,2-3.8,1.9c-5.2-0.3-10.5-0.4-15.7-0.4
		c-5.4,0-10.9-0.2-16.4,0.4c-2.3,0.2-4.7,0.8-6.1,2.7c-4.3,6.3-11.3,8.3-17.5,11.6c-3,1.6-6.1,3-9.2,4.4c-1.3,0.6-2.4,1.4-3,2.4
		c-2.4,4-6.8,5.7-9.9,8.9c-4.7,5-10.1,9.4-14.1,15.1c2.2,2.3,4.5,2.1,6.9,1.5c5.3-1.2,10-3.8,15.4-4.8c16-2.9,31.3-8.3,46.8-12.9
		c6.7-2,13.9-2.6,20.5-5.1c3.4-1.3,6.8-2.6,10.2-3.7c2.4-0.8,4.8-2,7.5-1.2c0.6,3,0.2,6-0.7,9.1c-2.6,9.6-5.3,19.1-6.6,29
		c-0.8,6.3-3.9,11.9-6.1,17.8c-2.3,6.2-4.1,12.5-4.1,19.1c0,1.1-0.1,2.3,1.1,2.7c0.8,0.3,1.7-0.2,2.4-1c4-4.5,9.3-7.3,13.9-11
		c6.7-5.4,11.2-12.5,14.2-20.7c2.5-6.8,4-13.8,5.3-20.9c0.6-3.5-0.8-6.8-1.6-10.2c-0.6-3-1.4-6.1,0.9-9c3.1,1.3,4.3,4,5.6,6.7
		c2.6,5.6,6.8,9.7,12.6,12c1,0.4,2.2,1.2,3,0.2c0.4-0.5-0.1-1.7-0.5-2.7c-1.6-4.2-3.1-8.6-4.2-12.9c-1.9-7.5-5.1-14.2-11.6-18.8
		c-0.7-0.5-1.9-1.1-1.7-2.3"/>
	
		<path fill="none" stroke="#000000" stroke-width="0.7087" stroke-linecap="round" stroke-linejoin="round" stroke-miterlimit="10" d="
		M749.7,455.9c6.5,12.5,11.2,25.8,16.5,38.9c1.2,3.1,1.6,6.2,1.8,9.3c0.6,7.2,2.1,14,4.1,20.9c0.6,2.2,2,4.3,1.9,6.8
		c-2,2.2-3.7,0.6-5.1-0.7c-3.8-3.5-7.1-7.4-10.3-11.5c-5.5-7.2-11.2-14.2-17.1-21.2c-6.8-8-11.4-17.2-15.7-26.7
		c-2.1-4.7-4.7-9.2-7.9-13.3c-4.3-5.6-6.3-12.3-8.5-18.8c-2-6.1-5.1-11.6-8.3-17c-1.6-2.9-3-2.8-5.1,0c-3.7,5-5.7,11-8.8,16.4
		c-1.2,2-2.5,3.6-4.4,4.8c-2.9,1.8-5.7,3.9-8.2,6.1c-3.9,3.5-8.9,4.1-13.4,6.1"/>
	
		<path fill="none" stroke="#000000" stroke-width="0.7087" stroke-linecap="round" stroke-linejoin="round" stroke-miterlimit="10" d="
		M619.6,286.1c-5.1-2.4-10.2-5-15.4-7.1c-4.1-1.7-8.3-2-12.3,0.8c0.4,2.4,1.4,4.3,3.7,6.1c5.3,4.1,8.8,9.8,12.1,15.6
		c1.5,2.6,2.7,5.4,6.1,6.7c1.8,0.6,3.2,2.7,4.5,4.3c2.8,3.4,5.8,6.5,9.2,9.8c-3.7,2.5-7.6,2.8-11.2,3.8c-7.9,2.1-16.2,2.9-23.9,5.9
		c-5.1,2-10.1,4.2-14.8,7.3c-8.9,5.8-16.2,13.8-25.9,18.6c-5.2,2.5-9.8,6-15.3,8c-1.3,0.5-3.3,0.9-3.5,3"/>
	
		<path fill="none" stroke="#000000" stroke-width="0.7087" stroke-linecap="round" stroke-linejoin="round" stroke-miterlimit="10" d="
		M734.7,429.9c-5.9-5.3-10.4-11.7-15.4-18.2c2.6-1.9,5.3-2.7,8.2-3c10.8-0.8,20.4-5.6,30.4-9c5.2-1.8,10.7-1.9,15.7-4
		c6.7-2.8,12.8-6.6,18.4-11.6c-2.6-2.5-5.9-2.8-8.9-3.4c-5.4-1.1-10.8-1.8-16.1-3.4c-3.5-1.1-7.2,0.6-10.9,0.6
		c-9.8-0.2-18.5,4.1-27.7,6.5c-1.3,0.3-2.7,0.5-4.1,0.7c-1.7,0.2-2-1-2.1-2.4c-0.8-9.9-2.9-19.4-8.8-27.7c-1.3-1.8-2.3-3.6-4.7-4.6
		c-1.9,3.2-1.6,6.4-1.2,9.8c0.5,5,0.6,10,1.1,15c0.9,7.6-1.6,14.3-4.9,20.8c-0.9,1.8-1.9,3.5-2.3,5.5"/>
	
		<path fill="none" stroke="#000000" stroke-width="0.7087" stroke-linecap="round" stroke-linejoin="round" stroke-miterlimit="10" d="
		M623.7,445.6c1.7-0.3,2.4,1.3,3.4,2.1c5.2,4.2,9.5,9.1,14,14c5.7,6.2,6.8,14.2,7.6,22.2c0.8,7.7-0.4,15.5,0.7,23.2
		c0.4,2.7-0.7,5.2-0.7,7.9c-0.1,5.4,0.9,10.7,0.6,16c-0.6,12.1,1,24,2.7,35.9c1.2,8.5,3.3,16.7,5.6,24.9c0.5,1.7,0.7,3.4,1,5.1"/>
	
		<path fill="none" stroke="#000000" stroke-width="0.7087" stroke-linecap="round" stroke-linejoin="round" stroke-miterlimit="10" d="
		M671.5,343.5c-6.2-5.3-12.2-11-19.4-15.1c-2.6-1.5-2.8-2.9-1-5.7c2.9-4.6,5.6-9.3,7.4-14.4c2.5-7.2,5.7-14.3,5.9-22.2
		c0-0.5,0.2-1-0.7-1.6c-1.5-0.7-3,0.2-4.4,1.3c-5.7,4.4-8.9,10.4-11.3,17.1c-1,2.8-1.5,5.8-3.4,8.4c-3.9-2-5.9-5.8-8.1-9.1
		c-3.8-5.7-7.8-11.2-14.1-14.7"/>
	
		<path fill="none" stroke="#000000" stroke-width="0.7087" stroke-linecap="round" stroke-linejoin="round" stroke-miterlimit="10" d="
		M691.7,277.3c1-4.7-0.6-9.3-0.4-14c0.2-5.9,1.5-11.2,6-16.3c4.5,7.2,4.4,14.8,3.8,22.4c3.4,1,6.4-0.5,9.4-1.2
		c4.8-1,9.3-0.6,13.7,0.9c4.5,1.6,9.1,2.7,13.7,4c0.6,0.2,1.1,0.4,1.7,0.7c1.8,0.9,3.5,2.1,3.3,4.1c-0.2,2.1-2.3,2.5-4,3.1
		c-7.3,2.7-15,2.4-22.5,3.4c-3,0.4-6.1,0.3-9.2,0.4c-1.2,0-2.5,0-3.5,1.1c0.7,1.6,1.5,3,3.1,4c7.3,4.4,9.9,11.7,10.4,19.5
		c0.5,7.9,2,15.4,4.3,22.9c1.6,5,2.1,10.2,2.7,15.4c0.3,2.6,0.7,5.3,1.4,7.8c0.3,0.9-0.1,1.4-0.1,3c-3.8-5.5-7.6-9.9-11.6-14.3"/>
	
		<path fill="none" stroke="#000000" stroke-width="0.7087" stroke-linecap="round" stroke-linejoin="round" stroke-miterlimit="10" d="
		M679.4,366.1c-8.6-1.3-16.1-4.9-22.2-11.3c-0.7-0.7-1.6-1.1-2.4-1.7c-1.1-1-2.4-2.2-3.7-1.6c-1.7,0.7-1.5,2.7-1.8,4.3
		c-1.5,9.1,0.1,18.3-1.3,27.3c-1.2,7.4-3.5,14.5-8.3,20.4c-2,2.4-3.3,5.5-6.5,7.7c-3.4-11-5.1-21.8-5.2-33
		c-0.1-11,3.9-21.5,4.3-32.6c-3.2-0.1-4.7,2.3-6.5,3.6c-9.1,6.8-19.3,11-30.1,14c-7.4,2-14.5,4.9-21.9,6.7c-9.9,2.4-20,4.3-30.4,2.6
		c-3.1-0.5-6.3-0.2-9.2-1.5c-0.9-0.4-2.5-0.2-1.7-2"/>
	
		<path fill="none" stroke="#000000" stroke-width="0.7087" stroke-linecap="round" stroke-linejoin="round" stroke-miterlimit="10" d="
		M666,583.9c-2.5-8-4-16.2-4.4-24.6c-0.1-1.7-0.1-3.2-1-4.8c-1.9-3.3-1.4-7.3-1.7-10.9c-1.2-14.7-0.9-29.4-0.8-44
		c0-6.3,0-12.6,0.8-18.8c0.9-7.8,0.4-15.8,1.9-23.6c0.1-0.3-0.3-0.6-0.5-1.1c-3.5,0.9-7,2.2-10.1,4.5"/>
	
		<path fill="none" stroke="#000000" stroke-width="0.7087" stroke-linecap="round" stroke-linejoin="round" stroke-miterlimit="10" d="
		M707.7,336.7c-6.8-8.1-10-18.3-15-27.4c-1.6-2.8-1.8-6.2-1.8-9.5c0-3,0.5-6-0.6-9.1c-3.2,1.6-3.9,4.8-5.5,7.4
		c-1.5,2.4-2.4,5.2-4.1,7.5c-4.9,6.7-12.4,8.2-20,10.2c-1.3-5.1,0.7-9.3,2.9-13.3c3.3-5.9,7.7-10.8,12.9-15.1
		c0.9-0.7,1.4-1.8,2.3-3.1c-5.8-4.1-13.4-6.6-14.9-15c2.3-2,5.1-2,9.9,0c1.7-2.3,2.1-5.2,2.7-7.9c0.6-2.6,0.7-5.4,1.8-7.8
		c1.3-2.9,0.9-5.3-0.4-7.9"/>
	
		<path fill="none" stroke="#000000" stroke-width="0.7087" stroke-linecap="round" stroke-linejoin="round" stroke-miterlimit="10" d="
		M694.4,222.6c-1.5,4.8-4.8,8.9-6,13.7c-2.7,10.5-4.9,21.1-7.3,31.7c-0.2,1-0.7,2.1-1,3.1"/>
	
		<path fill="none" stroke="#000000" stroke-width="0.7087" stroke-linecap="round" stroke-linejoin="round" stroke-miterlimit="10" d="
		M650.7,330.5c2.6,6.1,7.6,10.1,12.7,13.9c5.6,4.2,11.8,7.6,15.1,14.4c0.4,0.9,1,1.9,1.7,2.7c1.5,1.8,1.8,2.8-0.3,4.6
		c-1.6,1.3-1.3,4-1.8,6c-2.7,10.2-6.3,20.2-10.2,30.1c-0.6,1.4-0.7,2.9-1.1,4.4"/>
	
		<path fill="none" stroke="#000000" stroke-width="0.7087" stroke-linecap="round" stroke-linejoin="round" stroke-miterlimit="10" d="
		M677.6,216.8c2.9-1,5.7-2.3,8.3-4.3c2,3.5,1,7.3,0.4,10.4c-1.1,5.6-2.6,11.2-3.9,16.8c-0.2,0.9-0.1,1.6-1.4,2.1
		c-2.5,0.9-3.4,3.4-4.5,5.7c-1.6,3.1-2.4,6.9-6,8.6c-0.8,0.4-2-0.3-2.5,1.4c-2.7-7.7-0.6-14.5,2.3-22c-5.5,0.2-10.2-1.8-15.2-2.7"/>
	
		<path fill="none" stroke="#000000" stroke-width="0.7087" stroke-linecap="round" stroke-linejoin="round" stroke-miterlimit="10" d="
		M656.1,414.9c-0.9,3.8-2.1,7.5-2.7,11.3c-0.9,6.5-1.5,13-2.1,19.5c-0.1,1.1-0.2,2.2,0.7,3.1"/>
	
		<path fill="none" stroke="#000000" stroke-width="0.7087" stroke-linecap="round" stroke-linejoin="round" stroke-miterlimit="10" d="
		M734.3,276.6c-2.3,0-4.6-0.3-6.8-0.6c-4.6-0.5-9.1,0.6-13.7,1.1c-4.3,0.5-8.6,1.3-13,1.3c-2.6,0-5.3,0.5-7.8,1.4
		c-2.3,0.8-4.3,0.5-6.5,0.3"/>
	
		<path fill="none" stroke="#000000" stroke-width="0.7087" stroke-linecap="round" stroke-linejoin="round" stroke-miterlimit="10" d="
		M710.4,357.2c-0.3,4.9,1.6,9.3,2.4,14c0.8,4.5,1.5,9.1,2,13.7c0.1,1.4-0.6,3-0.9,4.4"/>
	
		<path fill="none" stroke="#000000" stroke-width="0.7087" stroke-linecap="round" stroke-linejoin="round" stroke-miterlimit="10" d="
		M642.1,344.9c0.3,4.2-1.1,8.1-1.1,12.3c0,7.1-0.9,14.1-1.2,21.2c-0.2,4.3-1.4,8.5-2.6,12.6c-0.8,2.9-1.3,5.6-1.2,8.6"/>
	
		<path fill="none" stroke="#000000" stroke-width="0.7087" stroke-linecap="round" stroke-linejoin="round" stroke-miterlimit="10" d="
		M669.5,314.1c1.5,3.4,0.3,7.1,1,10.6c1.3,7.2,2.1,14.4,3.8,21.5"/>
	
		<path fill="none" stroke="#000000" stroke-width="0.7087" stroke-linecap="round" stroke-linejoin="round" stroke-miterlimit="10" d="
		M670.5,200.4c-2,9.2-0.7,18.1,2.4,26.8c-2.6,1.3-3.2-1.4-4.8-1.9"/>
	
		<path fill="none" stroke="#000000" stroke-width="0.7087" stroke-linecap="round" stroke-linejoin="round" stroke-miterlimit="10" d="
		M607,433.7c-0.5,0.8-0.2,2-1.7,2.1c-7.9,0.2-15.1,3.2-22.6,5.4c-8.6,2.5-17.3,4.4-25.9,6.9c-11.4,3.3-22.8,6.6-33.5,11.9
		c-0.5,0.3-0.9,0.2-1.4,0.3"/>
	
		<path fill="none" stroke="#000000" stroke-width="0.7087" stroke-linecap="round" stroke-linejoin="round" stroke-miterlimit="10" d="
		M677.3,325.1c0.7,4.7,1.5,9.3,2,14c0.7,6.7,2.3,13.4,0.7,20.1"/>
	
		<path fill="none" stroke="#000000" stroke-width="0.7087" stroke-linecap="round" stroke-linejoin="round" stroke-miterlimit="10" d="
		M584.8,353.1c-3.7,0-6.7,2.2-9.8,3.6c-4.9,2.1-9.9,3.8-14.8,6c-0.4,0.2-0.9,0-1.4,0"/>
	
		<path fill="none" stroke="#000000" stroke-width="0.7087" stroke-linecap="round" stroke-linejoin="round" stroke-miterlimit="10" d="
		M605.2,400.2c-1.1,8.6-1.4,17.2,1,25.6"/>
	
		<path fill="none" stroke="#000000" stroke-width="0.7087" stroke-linecap="round" stroke-linejoin="round" stroke-miterlimit="10" d="
		M704.3,402.6c-4.6-1.6-9-1.3-13,1.7c-1.9,1.4-4.4,1.1-6.5,1.6c-8.4,1.8-17,1.5-25.6,1.5c-2.9,0-5.1,1.6-7.7,2.7
		c1.7,3.2,4.7,3.9,7.7,4.8c2.5,0.8,5.7,0.6,6.5,4.1"/>
	
		<path fill="none" stroke="#000000" stroke-width="0.7087" stroke-linecap="round" stroke-linejoin="round" stroke-miterlimit="10" d="
		M722.4,433.3c2.2,1.8,3.3,4.2,4.6,6.8c2.3,4.7,3.9,9.8,7.1,14c0.5,0.7,0.1,1.4,0.3,2.1"/>
	
		<path fill="none" stroke="#000000" stroke-width="0.7087" stroke-linecap="round" stroke-linejoin="round" stroke-miterlimit="10" d="
		M740.5,467.8c4.2,6.9,7.3,14.4,10.2,21.9"/>
	
		<path fill="none" stroke="#000000" stroke-width="0.7087" stroke-linecap="round" stroke-linejoin="round" stroke-miterlimit="10" d="
		M651.7,305.9c-2.8,6.4-3.4,13.4-4.5,20.4c-1.7-0.6-3.1-1.2-4.4-1.7"/>
	
		<path fill="none" stroke="#000000" stroke-width="0.7087" stroke-linecap="round" stroke-linejoin="round" stroke-miterlimit="10" d="
		M596.4,493.1c-1.4,4.2-3.6,8-6.1,11.6c-2.3,3.3-4.4,6.7-6.1,10.2"/>
	
		<path fill="none" stroke="#000000" stroke-width="0.7087" stroke-linecap="round" stroke-linejoin="round" stroke-miterlimit="10" d="
		M715.2,236.3c0.4-5-2.2-9.1-4.2-13.3c-1.4-2.8-4.8-2.1-7.4-2.8"/>
	
		<path fill="none" stroke="#000000" stroke-width="0.7087" stroke-linecap="round" stroke-linejoin="round" stroke-miterlimit="10" d="
		M705.7,308c2.3,6.8,4.6,13.7,6.8,20.5"/>
	
		<path fill="none" stroke="#000000" stroke-width="0.7087" stroke-linecap="round" stroke-linejoin="round" stroke-miterlimit="10" d="
		M607,436.4c0.9,3.7-0.6,7.2-1.5,10.5c-1.3,4.3-2.2,8.5-2.2,13c0,2.2-1,4.2-1.3,6.5c-0.6,4.7-1.2,9.4-1.6,14
		c-0.4,3.7-1.4,7.1-2.5,10.6"/>
	
		<path fill="none" stroke="#000000" stroke-width="0.7087" stroke-linecap="round" stroke-linejoin="round" stroke-miterlimit="10" d="
		M581.3,415.2c8.4,6.4,17.1,12.3,26.3,18c2.1-1,0.6-2.8,0.3-4.3c-0.2-1.1-1.6-2.1-0.6-3.4"/>
	
		<path fill="none" stroke="#000000" stroke-width="0.7087" stroke-linecap="round" stroke-linejoin="round" stroke-miterlimit="10" d="
		M669.5,348.3c-0.4-0.6,0.8-1,0-1.7c-4.8-4.6-9-9.7-14.7-13.4c-1.1-0.7-2-0.9-3.1-0.9"/>
	
		<path fill="none" stroke="#000000" stroke-width="0.7087" stroke-linecap="round" stroke-linejoin="round" stroke-miterlimit="10" d="
		M606.3,342.5c-3.8,3.2-8.6,4.4-13,6.5c-2.1,1-4.3,1.8-6.5,2.7"/>
	
		<path fill="none" stroke="#000000" stroke-width="0.7087" stroke-linecap="round" stroke-linejoin="round" stroke-miterlimit="10" d="
		M696.1,258.1c0,7-1.5,13.9-2.4,20.8"/>
	
		<path fill="none" stroke="#000000" stroke-width="0.7087" stroke-linecap="round" stroke-linejoin="round" stroke-miterlimit="10" d="
		M645.5,329.9c-8.1,3-16.7,4-24.7,7.6c-3.6,1.7-7.6,3.4-11.5,4.2c-3.6,0.7-7.5,0.2-11.2-0.2c-2.4-0.3-4.8-0.6-7.2-0.6"/>
	
		<path fill="none" stroke="#000000" stroke-width="0.7087" stroke-linecap="round" stroke-linejoin="round" stroke-miterlimit="10" d="
		M739.5,436.1c4,5.3,6.1,11.6,9.2,17.4"/>
	
		<path fill="none" stroke="#000000" stroke-width="0.7087" stroke-linecap="round" stroke-linejoin="round" stroke-miterlimit="10" d="
		M670.8,199.4c0.5,0.8,0.7,1.7,0.7,2.7c0.3,5.4,2.2,10.2,5.8,14.3"/>
	
		<path fill="none" stroke="#000000" stroke-width="0.7087" stroke-linecap="round" stroke-linejoin="round" stroke-miterlimit="10" d="
		M738.4,395.4c-4.3,1-8.8,1.7-12.9,3.2c-5.8,2.1-11.9,2.8-17.8,3.4c-3.3,0.3-3.5,1.6-4.1,3.7"/>
	
		<path fill="none" stroke="#000000" stroke-width="0.7087" stroke-linecap="round" stroke-linejoin="round" stroke-miterlimit="10" d="
		M542.4,439.8c6.3,0.1,12.6-0.5,18.8,0.7c3.3,0.6,6.8,0.6,9.6,3"/>
	
		<path fill="none" stroke="#000000" stroke-width="0.7087" stroke-linecap="round" stroke-linejoin="round" stroke-miterlimit="10" d="
		M692.3,404.3c2.4,1.3,5.3-1.1,7.5,1c4.5-1.2,5.6,2.9,7.4,5.2c2.3,3,3.8,6.6,6,9.8c0.9,1.3,0.3,2.6,0.6,3.8"/>
	
		<path fill="none" stroke="#000000" stroke-width="0.7087" stroke-linecap="round" stroke-linejoin="round" stroke-miterlimit="10" d="
		M691,281c-6.2,8.7-12.7,17.1-20.8,24.2"/>
	
		<path fill="none" stroke="#000000" stroke-width="0.7087" stroke-linecap="round" stroke-linejoin="round" stroke-miterlimit="10" d="
		M669.1,423.1c-4.2,2-5.1,6.6-7.4,10c-0.4,0.6,0.2,1.8,0.3,2.7"/>
	
		<path fill="none" stroke="#000000" stroke-width="0.7087" stroke-linecap="round" stroke-linejoin="round" stroke-miterlimit="10" d="
		M668.8,372.9c-1.9,5.9-3.1,12.1-5.8,17.8"/>
	
		<path fill="none" stroke="#000000" stroke-width="0.7087" stroke-linecap="round" stroke-linejoin="round" stroke-miterlimit="10" d="
		M690.3,412.2c-2,0.3-4.1,0.6-6.1,1.1c-3.3,0.8-6.5-0.1-9.6-0.8c-2.6-0.6-5.2-0.6-7.9-0.6"/>
	
		<path fill="none" stroke="#000000" stroke-width="0.7087" stroke-linecap="round" stroke-linejoin="round" stroke-miterlimit="10" d="
		M657.8,424.8c3-1.2,6.3-2.1,7.9-5.4c0.6-1.3,2.2-1,3-0.6c1.2,0.5,1.2,1.8,1.2,3.3c0,5.6-3.8,8.8-6.7,12.6
		c-6.1,8.2-12.3,16.4-18.4,24.6"/>
	
		<path fill="none" stroke="#000000" stroke-width="0.7087" stroke-linecap="round" stroke-linejoin="round" stroke-miterlimit="10" d="
		M678.3,213c-2.5,4.3,0.4,8,1.9,11.5c0.8,1.9,0.9,3-0.2,4.5"/>
	
		<path fill="none" stroke="#000000" stroke-width="0.7087" stroke-linecap="round" stroke-linejoin="round" stroke-miterlimit="10" d="
		M674.9,269.4c6,1.7,10.6,6,15.9,8.9c0.5,0.3,0.6,1.1,0.9,1.7"/>
	
		<path fill="none" stroke="#000000" stroke-width="0.7087" stroke-linecap="round" stroke-linejoin="round" stroke-miterlimit="10" d="
		M672.2,215.8c0.7,2.5,2.2,4.8,2.4,7.5c0.1,1.3,0.4,2.7-0.7,3.8"/>
	
		<path fill="none" stroke="#000000" stroke-width="0.7087" stroke-linecap="round" stroke-linejoin="round" stroke-miterlimit="10" d="
		M693,214.8c-2.3,3.1-1.7,6.9-2.6,10.3c-0.2,1-0.2,1.8-1.2,2.3"/>
	
		<path fill="none" stroke="#000000" stroke-width="0.7087" stroke-linecap="round" stroke-linejoin="round" stroke-miterlimit="10" d="
		M702.2,228.8c-0.7-0.8-0.4-2.4-2.4-2.4c-0.7,2.3-0.2,4.8-0.3,7.2"/>
	
		<path fill="none" stroke="#000000" stroke-width="0.7087" stroke-linecap="round" stroke-linejoin="round" stroke-miterlimit="10" d="
		M692.3,230.1c0.6,2,0.8,4,0.1,6.2c-0.4,1.3-0.9,3.1,0.9,4.4c0.5-0.2,1.3-0.6,2.1-1"/>
	
		<path fill="none" stroke="#000000" stroke-width="0.7087" stroke-linecap="round" stroke-linejoin="round" stroke-miterlimit="10" d="
		M621.6,458.3c1.7,3.3,4.1,6.1,5.5,9.6"/>
	
		<path fill="none" stroke="#000000" stroke-width="0.7087" stroke-linecap="round" stroke-linejoin="round" stroke-miterlimit="10" d="
		M673.2,281.4c-1.2,3.1-1.8,6.3-1,9.6"/>
	
		<path fill="none" stroke="#000000" stroke-width="0.7087" stroke-linecap="round" stroke-linejoin="round" stroke-miterlimit="10" d="
		M603.2,491.7c1,3.2-0.5,6.4,0.3,9.6"/>
	
		<path fill="none" stroke="#000000" stroke-width="0.7087" stroke-linecap="round" stroke-linejoin="round" stroke-miterlimit="10" d="
		M694.4,411.5c-1,3.6-3.5,6.4-5.3,9.4c-1.8,2.9-3.9,5.7-6.3,8.3"/>
	
		<path fill="none" stroke="#000000" stroke-width="0.7087" stroke-linecap="round" stroke-linejoin="round" stroke-miterlimit="10" d="
		M648.3,329.9c-1.5,2.8-3,5.7-4.4,8.5"/>
	
		<path fill="none" stroke="#000000" stroke-width="0.7087" stroke-linecap="round" stroke-linejoin="round" stroke-miterlimit="10" d="
		M558.8,396.1c4.1,3.4,8.2,6.8,12.3,10.2"/>
	
		<path fill="none" stroke="#000000" stroke-width="0.7087" stroke-linecap="round" stroke-linejoin="round" stroke-miterlimit="10" d="
		M699.2,408.4c-0.1,2.7-0.2,5.5-0.3,8.2"/>
	
		<path fill="none" stroke="#000000" stroke-width="0.7087" stroke-linecap="round" stroke-linejoin="round" stroke-miterlimit="10" d="
		M659.9,392.7c2.6,2.8,1,6-0.2,8.4c-0.9,1.9-1.5,3.6-1.5,5.6"/>
	
		<path fill="none" stroke="#000000" stroke-width="0.7087" stroke-linecap="round" stroke-linejoin="round" stroke-miterlimit="10" d="
		M696.1,216.5c0,4.3,0,8.7,0,13"/>
	
		<path fill="none" stroke="#000000" stroke-width="0.7087" stroke-linecap="round" stroke-linejoin="round" stroke-miterlimit="10" d="
		M696.1,202.8c-1.2,3.4-2.4,6.7-6.8,6.8c-1.2-0.8-1.4-2.3-2.1-3.4"/>
	
		<path fill="none" stroke="#000000" stroke-width="0.7087" stroke-linecap="round" stroke-linejoin="round" stroke-miterlimit="10" d="
		M692.3,281.4c2,1.4,2.3,3.9,3.4,5.8c2.3,4.2,4.4,8.4,6.5,12.6"/>
	
		<path fill="none" stroke="#000000" stroke-width="0.7087" stroke-linecap="round" stroke-linejoin="round" stroke-miterlimit="10" d="
		M701.6,283.4c-2.4,0-4.8,0-7.2,0"/>
	
		<path fill="none" stroke="#000000" stroke-width="0.7087" stroke-linecap="round" stroke-linejoin="round" stroke-miterlimit="10" d="
		M699.2,405.7c-1,3.2-3.4,5.2-6.5,5.5c-0.7,0.1-1.4,0.2-2,0.3"/>
	
		<path fill="none" stroke="#000000" stroke-width="0.7087" stroke-linecap="round" stroke-linejoin="round" stroke-miterlimit="10" d="
		M671.2,365c-1,2.3-0.6,5-2,7.2"/>
	
		<path fill="none" stroke="#000000" stroke-width="0.7087" stroke-linecap="round" stroke-linejoin="round" stroke-miterlimit="10" d="
		M712.1,393c-1.9,3-5.6,4.6-6.1,8.5"/>
	
		<path fill="none" stroke="#000000" stroke-width="0.7087" stroke-linecap="round" stroke-linejoin="round" stroke-miterlimit="10" d="
		M610.4,437.8c0.9,2.6,1.1,5.4,3.1,7.5"/>
	
		<path fill="none" stroke="#000000" stroke-width="0.7087" stroke-linecap="round" stroke-linejoin="round" stroke-miterlimit="10" d="
		M680.4,200.8c1.5,2.2,3,4.3,4.4,6.5"/>
	
		<path fill="none" stroke="#000000" stroke-width="0.7087" stroke-linecap="round" stroke-linejoin="round" stroke-miterlimit="10" d="
		M675.6,311.1c0.3,3.6,0.7,7.3,1,10.9c0.2,1.9,0.9,3.1,3.1,2.4"/>
	
		<path fill="none" stroke="#000000" stroke-width="0.7087" stroke-linecap="round" stroke-linejoin="round" stroke-miterlimit="10" d="
		M681.1,436.4c0-1.5,0-3,0-4.9c-2.4,2.2-4.5,4.1-6.5,5.9"/>
	
		<path fill="none" stroke="#000000" stroke-width="0.7087" stroke-linecap="round" stroke-linejoin="round" stroke-miterlimit="10" d="
		M678.7,235.2c1.7,1.7,1.9,4,2.4,6.1"/>
	
		<path fill="none" stroke="#000000" stroke-width="0.7087" stroke-linecap="round" stroke-linejoin="round" stroke-miterlimit="10" d="
		M692.3,209.3c1.5,3.8,1.1,8,2,12"/>
	
		<path fill="none" stroke="#000000" stroke-width="0.7087" stroke-linecap="round" stroke-linejoin="round" stroke-miterlimit="10" d="
		M651.4,332.2c-3.3,1.5-1.3,3.3-0.3,5.1"/>
	
		<path fill="none" stroke="#000000" stroke-width="0.7087" stroke-linecap="round" stroke-linejoin="round" stroke-miterlimit="10" d="
		M711.5,327.1c-0.8,2-0.1,4.1-0.3,6.1"/>
	
		<path fill="none" stroke="#000000" stroke-width="0.7087" stroke-linecap="round" stroke-linejoin="round" stroke-miterlimit="10" d="
		M538.3,368.1c-1.9,0.3-3.9,0.7-5.8,1"/>
	
		<path fill="none" stroke="#000000" stroke-width="0.7087" stroke-linecap="round" stroke-linejoin="round" stroke-miterlimit="10" d="
		M734,456.9c-0.8,1.5-0.1,3.2-0.3,4.8"/>
	
		<path fill="none" stroke="#000000" stroke-width="0.7087" stroke-linecap="round" stroke-linejoin="round" stroke-miterlimit="10" d="
		M650.7,462.4c1.2,1.6,3.1,2.2,4.8,2.9c-0.1,0.8-0.2,1.3-0.4,1.9"/>
	
		<path fill="none" stroke="#000000" stroke-width="0.7087" stroke-linecap="round" stroke-linejoin="round" stroke-miterlimit="10" d="
		M735,456.6c0.9,1.4,1.8,2.8,2,4.4"/>
	
		<path fill="none" stroke="#000000" stroke-width="0.7087" stroke-linecap="round" stroke-linejoin="round" stroke-miterlimit="10" d="
		M679.4,229.8c-2.3,2.2-4.1,4.8-5.1,7.9"/>
	
		<path fill="none" stroke="#000000" stroke-width="0.7087" stroke-linecap="round" stroke-linejoin="round" stroke-miterlimit="10" d="
		M700.2,221.9c-1.8,0-3.6,0-5.5,0"/>
	
		<path fill="none" stroke="#000000" stroke-width="0.7087" stroke-linecap="round" stroke-linejoin="round" stroke-miterlimit="10" d="
		M661.3,387.9c0.8,2,1.9,4,0.3,6.1"/>
	
		<path fill="none" stroke="#000000" stroke-width="0.7087" stroke-linecap="round" stroke-linejoin="round" stroke-miterlimit="10" d="
		M693.7,212c1.9-0.5,2.7,1,3.8,2"/>
	
		<path fill="none" stroke="#000000" stroke-width="0.7087" stroke-linecap="round" stroke-linejoin="round" stroke-miterlimit="10" d="
		M612.4,444.6c-0.7,1.1-0.2,2.3-0.3,3.4"/>
	
		<path fill="none" stroke="#000000" stroke-width="0.7087" stroke-linecap="round" stroke-linejoin="round" stroke-miterlimit="10" d="
		M697.8,292.3c-1.4,0.5-0.9,1.7-1,2.7"/>
	
		<path fill="none" stroke="#000000" stroke-width="0.7087" stroke-linecap="round" stroke-linejoin="round" stroke-miterlimit="10" d="
		M611.4,290.9c2.1,1.6,4.3,3,5.5,5.5"/>
	
		<path fill="none" stroke="#000000" stroke-width="0.7087" stroke-linecap="round" stroke-linejoin="round" stroke-miterlimit="10" d="
		M683.8,289.9c-0.8-0.7-1.8-0.2-2.7-0.3"/>
	
		<path fill="none" stroke="#000000" stroke-width="0.7087" stroke-linecap="round" stroke-linejoin="round" stroke-miterlimit="10" d="
		M644.9,322.3c0,0.9,0,1.8,0,2.7"/>
	
		<path fill="none" stroke="#000000" stroke-width="0.7087" stroke-linecap="round" stroke-linejoin="round" stroke-miterlimit="10" d="
		M672.5,341.1c-1.1-0.2-1.7,0.4-2,1.4"/>
	
		<path fill="none" stroke="#000000" stroke-width="0.7087" stroke-linecap="round" stroke-linejoin="round" stroke-miterlimit="10" d="
		M611.1,433.3c-0.5-0.1-0.9,0.9-1.4,0"/>
</g>
</svg>
