<?xml version="1.0" encoding="utf-8"?>
<!-- Generator: Adobe Illustrator 18.0.0, SVG Export Plug-In . SVG Version: 6.00 Build 0)  -->
<!DOCTYPE svg PUBLIC "-//W3C//DTD SVG 1.0//EN" "http://www.w3.org/TR/2001/REC-SVG-20010904/DTD/svg10.dtd">
<svg version="1.0" id="Layer_1" xmlns="http://www.w3.org/2000/svg" xmlns:xlink="http://www.w3.org/1999/xlink" x="0px" y="0px"
	 width="1280px" height="800px" viewBox="0 0 1280 800" enable-background="new 0 0 1280 800" xml:space="preserve">
<g>
	<path fill="none" stroke="#000000" stroke-width="0.7087" stroke-miterlimit="10" d="M622.1,279.9c1.1-0.6,1.7-1.6,2.3-2.7
		c2.8-5.6,3.2-11.4,2.2-17.4c-0.3-2-0.6-4-1.6-5.8c-1-1.8-2.2-3.5-3.7-5c-4.3-4.3-8.5-8.7-12.8-13c-1.8-1.8-3.7-3.6-6.3-4.3
		c-2-0.6-4-0.2-5.3,1.6c-2,2.8-4.8,4.4-7.9,5.8c-3.3,1.5-6.7,2.9-9.6,5.1c-2.9,2.3-5.1,5.3-6.7,8.6c-2.4,5-2.8,10.3-2,15.8"/>
	<path fill="none" stroke="#000000" stroke-width="0.7087" stroke-miterlimit="10" d="M634.1,522c0.4,0.7-0.2,1.2-0.3,1.8
		c-0.8,3.5-0.5,6.9-0.3,10.4c0.2,2.7,0.2,5.4,0.8,8.1c0.4,1.8,0.7,3.7,1.1,5.5c0.6,2.5,0.8,5,0.6,7.5c-0.2,2.8-0.6,5.7,0.2,8.5
		c0.4,1.6,0.6,3.2,1.3,4.7c1.3,0,2.4-0.8,3.4-1.4c1.5-1,3.2-1.4,5-1.9c1.4-0.4,2.9-0.7,4.3-1.1c2-0.6,3.9-1.3,5.7-2.2
		c2.9-1.4,5.9-2.7,8.8-4.2c1.9-0.9,3.8-1.6,5.6-2.7c2.1-1.4,3.9-2.9,4.6-5.5c0.1-0.4,0.1-0.8,0.5-1.1"/>
	<path fill="none" stroke="#000000" stroke-width="0.7087" stroke-miterlimit="10" d="M566.9,273c-0.5-0.1-0.9-0.5-1.2-0.8
		c-0.8-0.7-1.8-1.2-2.9-1.4c-4.1-0.8-8.2-1.7-12.4-2.5c-3.2-0.7-6.4-0.8-9.7-0.8c-3.1,0-5.2,1.8-7.2,4c-2.3,2.6-4.4,5.3-7.3,7.3
		c-3.5,2.5-6.9,5.2-10.7,7.3c-2.1,1.1-3.9,2.7-5.6,4.3c-0.5,0.4-1,0.8-1.7,1c-0.5,0.1-1,0.5-1.5,0.7"/>
	<path fill="none" stroke="#000000" stroke-width="0.7087" stroke-miterlimit="10" d="M584.9,323.9c-0.1,0.5-0.2,0.9-0.2,1.4
		c0.4,3.9-0.2,7.6-1.4,11.3c-0.7,2-1,4.1-1.4,6.1c-0.5,2.8-1.6,5.3-3.1,7.7c-1.7,2.7-3.5,5.3-5,8.1c-0.3,0.5-0.3,1.1-0.7,1.6
		c-1,1.2-2.2,1.6-3.6,1.7c-1,0.1-1.9,0.2-2.5,1.1c-0.3,0.4-0.7,0.5-1.2,0.3c-1.7-0.5-3.4-0.4-5.1-0.1c-2.5,0.4-4.8-0.2-7.2-0.8
		c-4.1-0.9-7.7,0.3-11.3,2c-0.2,0.1-0.3,0.2-0.5,0.3c-1.7,0.8-1.9,0.8-2-1.1c-0.2-3.2-0.6-6.5-1.2-9.7c-0.8-4.7-1.5-9.5-3.6-14
		c-0.9-2-1.3-4.1-1.6-6.2c0-0.4-0.2-0.7-0.3-1c0-0.3-0.2-0.7,0.3-0.9c2.1-0.9,2.8-2.8,3.3-4.8c0.3-1,0.4-2,0.6-3
		c-5.3,1.1-9-1.6-12.6-5c-4.2-3.9-7-8.6-9.3-13.7c-0.2-0.4-0.3-0.9-0.8-1"/>
	<path fill="none" stroke="#000000" stroke-width="0.7087" stroke-miterlimit="10" d="M798.5,506.4c-0.5-0.6-1-1.3-1.6-1.8
		c-1.1-0.9-2.4-0.7-3.6-0.7c-4.6,0.3-9.2,0.8-13.8,1.5c-3.8,0.6-7.6,1.2-11.5,0.5c-2.2-0.4-4.3-1.1-6.4-1.9
		c-2.8-1.2-5.7-2.5-8.5-3.6c-2.9-1.1-5.9-2.1-9-3c-0.4,0.8-0.2,1.4,0.4,1.8c0.2,0.2,0.3,0.5,0.4,0.7"/>
	<path fill="none" stroke="#000000" stroke-width="0.7087" stroke-miterlimit="10" d="M593,439.2c-0.2,0.1-0.5,0.1-0.7,0.2
		c-3.7,1.9-7.7,1.8-11.5,0.9c-4.6-1-9-2.7-13-5.5c-4-2.8-7.3-6.3-10-10.4c-1.8-2.7-2.9-5.7-4-8.6c-0.3-0.7-0.1-1.6-0.9-2.1"/>
	<path fill="none" stroke="#000000" stroke-width="0.7087" stroke-miterlimit="10" d="M520.6,299.3c2.2,2.6,3.9,5.6,5.9,8.3
		c3.5,4.9,8.2,7,14.2,6.6c4.5-0.3,8.5-1.9,12.4-4c2.8-1.5,5.5-3.1,8.2-4.7"/>
	<path fill="none" stroke="#000000" stroke-width="0.7087" stroke-miterlimit="10" d="M661.2,314.5c-1.7,0.1-2.9-1-4.3-1.6
		c-5.2-2.4-8.5-6.8-12.2-10.9c-2.8-3.2-5.7-6.3-8.5-9.5c-1.6-1.9-3.1-3.9-4.5-5.9c-2.3-3.2-5.5-5.1-9.2-6.2"/>
	<path fill="none" stroke="#000000" stroke-width="0.7087" stroke-miterlimit="10" d="M640.4,396.8c0.2,0,0.3-0.2,0.6-0.1
		c3.4,0.9,6.8,0.8,10.2,0.8c2.9,0,5.8,0.6,8.8,0.5c2.2,0,4.2-0.3,6.3-0.8c4.7-1.2,8.7-3.6,12.3-6.7c1.8-1.5,3.9-2.7,5.3-4.8
		c0.3-0.4,0.6-0.7,0.7-1.2"/>
	<path fill="none" stroke="#000000" stroke-width="0.7087" stroke-miterlimit="10" d="M654.4,510.1c-0.9,0.4-1.8,0.6-2.8,0.6
		c-2,0-3.9,0.4-5.8,0.9c-3.6,1.1-6.6,3-8.9,6c-0.5,0.7-1.1,1.4-1.4,2.2c-0.5,1.5-1.5,2.2-2.9,2.6c-1.6,0.4-3.3,1.1-5,1.1
		c-2.6,0-4.9-1.1-7-2.5c-4.6-2.9-8.2-6.8-11.6-10.9c-2.3-2.8-4.6-5.5-7.4-7.9c-1.7-1.4-3.5-2.4-5.4-3.3c-3-1.4-3.5-3.4-1.1-5.8
		c1.8-1.9,3.9-3.1,6.1-4.4c3.7-2.2,7.8-3.6,11.6-5.4c1.1-0.5,2.5-0.9,3.4-1.8"/>
	<path fill="none" stroke="#000000" stroke-width="0.7087" stroke-miterlimit="10" d="M519.5,295.6c2.5,2.8,4.6,5.8,7.1,8.6
		c4,4.5,8.7,6.8,14.8,6.6c3.1-0.1,6.1-0.7,8.9-2c2.1-0.9,4.1-2.2,6-3.4c1-0.6,2.1-0.9,3.2-1.4"/>
	<path fill="none" stroke="#000000" stroke-width="0.7087" stroke-miterlimit="10" d="M655.7,471.1c-1.5-3.1-1.9-6.4-2.6-9.7
		c-0.5-2.2-1-4.4-1.8-6.5c-0.8-2.1-1.4-4.3-2.4-6.4c-1.6-3.4-3.3-6.8-5.2-10.1c-1.6-2.8-3.4-5.5-4.3-8.6"/>
	<path fill="none" stroke="#000000" stroke-width="0.7087" stroke-miterlimit="10" d="M677,447.7c-0.4-0.1-0.8-0.3-1-0.8
		c-0.4-0.8-0.9-1.5-1.2-2.4c-1.3-3.6-3.9-6.2-6.5-8.9c-3.9-4-8.1-7.7-12.8-10.8c-3.1-2.1-6.4-3.8-9.5-5.9c-1.2-0.8-2.4-1.7-3.5-2.8
		c-0.5-0.5-0.6-0.9-0.5-1.5"/>
	<path fill="none" stroke="#000000" stroke-width="0.7087" stroke-miterlimit="10" d="M592.3,442.1c-1-0.3-1.8,0.3-2.7,0.5
		c-4.4,0.8-8.8,0.4-13-0.9c-6.2-2-11.4-5.6-15.8-10.3c-2-2.1-3.7-4.4-5.2-6.9c-0.8-1.5-1.3-3-2.1-4.5c-0.1-0.2-0.3-0.4-0.5-0.6"/>
	<path fill="none" stroke="#000000" stroke-width="0.7087" stroke-miterlimit="10" d="M604.5,384.1c1.4,0.3,2.8,0.7,4.2,1
		c0.8,0.1,1.7,0,2.5-0.2c1.8-0.5,3.7-0.9,5.5-1.7c1.3-0.6,2.6-0.6,3.8,0.6c1.5,1.5,3.1,2.8,5.2,3.3c1,0.2,1.5,1.1,2.2,1.8
		c0.3,0.3,0.2,0.8,0.2,1.2c0,0.4-0.2,0.9-0.3,1.3c-0.2,1.2,0.6,1.9,1.8,1.6c0.6-0.2,1.1-0.5,1.7-0.7c2.7-0.9,4.6,0.5,6.5,2.1
		c0.8,0.7,1.6,1.4,2.2,2.2c0.7,1,1.4,2,1.9,3.1c0.3,0.6,0.7,1,1.4,1.1c2,0.3,3.9,0.3,5.9,0.2c3.2-0.2,6.4-0.2,9.6,0
		c5.1,0.4,9.9-0.7,14.5-3.1c2.3-1.2,4.3-2.8,6.3-4.5c1.8-1.5,3.8-2.6,6-3.4c0.2-0.1,0.4,0,0.5,0"/>
	<path fill="none" stroke="#000000" stroke-width="0.7087" stroke-miterlimit="10" d="M671.6,452c-2.8-6-6.6-11.2-11.3-15.8
		c-2.4-2.4-5.3-4.4-8-6.4c-3-2.3-6.1-4.6-8.7-7.4c-1.5-1.6-2.1-3.4-2.3-5.5c-0.1-0.7-0.7-1.4-0.3-2.2"/>
	<path fill="none" stroke="#000000" stroke-width="0.7087" stroke-miterlimit="10" d="M594,435.9c-5.2,0.9-10.1,0-14.9-2
		c-3.6-1.6-6.9-3.5-9.9-6.1c-3.6-3.2-6.3-7-8.4-11.3c-1-2.2-1.8-4.5-2.7-6.7"/>
	<path fill="none" stroke="#000000" stroke-width="0.7087" stroke-miterlimit="10" d="M674.1,449.5c-1.1-0.2-1.3-1.3-1.6-1.9
		c-2.4-4.7-6.1-8.2-9.7-11.8c-5.2-5.1-10.5-10.2-16.6-14.3c-1.8-1.2-3.1-2.9-4.5-4.5"/>
	<path fill="none" stroke="#000000" stroke-width="0.7087" stroke-miterlimit="10" d="M555.8,430.2c-0.9-0.2-1.6-0.9-2.4-1.4
		c-0.5-0.3-0.6-0.8-0.5-1.4c0.7-2.4,0.2-4.7-0.2-7.1c-0.5-2.7-0.8-5.4,0-8.2c0.5-2,0.2-4.2,1.3-6.1c2.4-4,4.7-8,8.6-10.9
		c1.6-1.2,3.2-1.8,5-2.3c0.4-0.1,0.7,0,0.9,0.2c2.2,1.3,4.7,1.2,7,0.8c3.2-0.7,6.4-0.6,9.6-0.2c3.1,0.3,6.2,0.4,9.2,1.1
		c1.3,0.3,2.4,1,3.8,0.9"/>
	<path fill="none" stroke="#000000" stroke-width="0.7087" stroke-miterlimit="10" d="M644.2,403.5c5.3,0.6,10.6,0.5,15.9,0.8
		c4.1,0.2,8.2,0,12.1-1.9c2.2-1,4.1-2.5,6.1-3.8c2.2-1.4,4.3-2.8,6.3-4.5c0.1-0.1,0.4-0.1,0.6-0.1"/>
	<path fill="none" stroke="#000000" stroke-width="0.7087" stroke-miterlimit="10" d="M657.8,466.7c-0.9-0.5-0.8-1.5-0.9-2.3
		c-0.6-3.4-1.7-6.7-3.1-9.9c-1.5-3.5-2.9-7.1-4.4-10.6c-1.5-3.4-3.3-6.6-5.5-9.6c-0.9-1.3-1.6-2.8-2.3-4.2c-0.2-0.4-0.3-0.9-0.7-1.3
		"/>
	<path fill="none" stroke="#000000" stroke-width="0.7087" stroke-miterlimit="10" d="M594.3,434.7c-1.6,0.1-3.3,0.5-4.9,0.3
		c-4.3-0.3-8.1-2.1-11.6-4.5c-4.1-2.9-7.5-6.5-10.3-10.6c-2.1-3.1-4-6.3-4.8-10.1c-0.1-0.6-0.5-1.2-0.7-1.8"/>
	<path fill="none" stroke="#000000" stroke-width="0.7087" stroke-miterlimit="10" d="M638.8,462.8c-1.1-0.1-2.2,0.3-3.4,0.4
		c-2.6,0.1-5.2-0.3-7.8-0.6c-4.8-0.6-9.6-1.3-14.1-3c-4.2-1.6-8.3-3.2-12-5.8c-2.5-1.7-4.7-3.6-6.8-5.7"/>
	<path fill="none" stroke="#000000" stroke-width="0.7087" stroke-miterlimit="10" d="M595,433.3c-1.2-0.4-2.5-0.2-3.7-0.2
		c-4.9,0.1-9-2-12.7-4.9c-3.3-2.6-6-5.8-8.1-9.4c-2.1-3.7-4-7.6-5.2-11.8"/>
	<path fill="none" stroke="#000000" stroke-width="0.7087" stroke-miterlimit="10" d="M533,331.8c-2-0.8-3.2-2.6-4.7-4
		c-1.1-1-2.1-2.1-3.3-2.9c-2-1.4-3.3-3.3-4.3-5.5c-2.2-4.5-4.1-9.2-5.9-13.9c-1-2.6-1.9-5.2-2.8-7.8c-0.7-1.8-2-3.3-3.7-4.5
		c-3.7-2.6-7.9-4.3-11.8-6.5c-4.2-2.4-8.3-5.1-11.2-9c-2.5-3.4-4.2-7.1-3.4-11.4c0.4-2.1,0.8-4.2,1.1-6.3"/>
	<path fill="none" stroke="#000000" stroke-width="0.7087" stroke-miterlimit="10" d="M669.3,454.5c-1.6-2.4-2.6-5.1-4-7.7
		c-1.8-3.5-4-6.7-6.7-9.6c-2.2-2.3-4.8-4.1-7.3-6c-2.9-2.2-6.1-4.1-8.4-7.1c-0.1-0.1-0.2-0.1-0.3-0.1"/>
	<path fill="none" stroke="#000000" stroke-width="0.7087" stroke-miterlimit="10" d="M606,503.7c-0.9-1.5-1.9-2.9-2.5-4.6
		c-1-2.9-0.9-5.6,0-8.5c0.4-1.2,1-2.4,1.7-3.5c-1.7-2.9-3.9-5.6-5.1-8.8c-1-2.8-1.6-5.7-2-8.6c-0.3-2.4-0.9-4.6-2.2-6.8
		c-1.9-3.4-3.4-7.1-3.7-11c-0.1-1-0.6-1.4-1.7-1.6c-1.5-0.2-2.9,0.3-4.3,0.7c-1.5,0.5-3,0.4-4.5-0.1c-4.3-1.7-8.4-3.6-12.3-6.1
		c-3.2-2.1-6.1-4.5-8.2-7.8c-1.5-2.4-3.5-4.4-5.3-6.5c-0.6-0.8-1.1-1.7-1.6-2.6"/>
	<path fill="none" stroke="#000000" stroke-width="0.7087" stroke-miterlimit="10" d="M706.1,555.7c-0.8-1.5-2.2-2.6-3.2-4
		c-1.3-1.9-2.7-3.8-3.6-5.9c-0.9-2-1.3-4.2-1.3-6.3c-0.1-3.8-1.1-7.3-2.8-10.7c-1.2-2.4-2.8-4.5-4.4-6.6c-0.4-0.6-0.8-1.1-1.2-1.7"
		/>
	<path fill="none" stroke="#000000" stroke-width="0.7087" stroke-miterlimit="10" d="M600.4,393.6c-0.5-0.4-0.9-0.8-0.8-1.5
		c0.1-0.3,0-0.7,0-1c-0.2-0.7,0.3-1.6-0.2-2.1c-1.1-0.8-1.7-2-3.2-2.4c-3-0.8-6-1.7-8.8-3c-4.8-2.2-8.9-5.2-12.7-8.9
		c-2.5-2.4-4.6-4.9-6.5-7.7c-0.7-1.1-1.6-2.3-1.7-3.7"/>
	<path fill="none" stroke="#000000" stroke-width="0.7087" stroke-miterlimit="10" d="M543.1,316.4c-2.3-0.5-4.6-0.5-6.9-0.3
		c-4.6,0.4-7.8-1.7-10.3-5.4c-1.5-2.3-2.6-4.7-4-7.1c-1.6-2.8-3.8-5.2-6.1-7.5c-0.8-0.7-1.5-1.4-2.3-2.2"/>
	<path fill="none" stroke="#000000" stroke-width="0.7087" stroke-miterlimit="10" d="M745.3,500.3c1.8,2.5,3.6,5,5.9,7.2
		c3.5,3.3,7.8,5.4,12.5,6.5c3.2,0.8,6.4,1.4,9.7,1c1-0.1,2-0.3,3-0.7c0.7-0.3,1.5-0.2,2.3-0.5c1.3-0.6,2.1-1.6,2.9-2.8"/>
	<path fill="none" stroke="#000000" stroke-width="0.7087" stroke-miterlimit="10" d="M569.5,405.5c0.7,3.4,1.9,6.6,3.5,9.6
		c2.9,5.5,6.6,10.6,12.2,13.8c2.5,1.4,5.3,2.4,8.2,2.9c0.8,0.1,1.6-0.1,2.4-0.1"/>
	<path fill="none" stroke="#000000" stroke-width="0.7087" stroke-miterlimit="10" d="M544.5,355.7c1.2-0.7,2-1.8,2.7-2.9
		c1.7-2.7,3.7-5.1,5.5-7.6c2.2-3.2,3.8-6.6,5.4-10.2c2.1-4.6,4.7-8.8,8.5-12.2c0.9-0.8,1.9-1.6,2.9-2.4"/>
	<path fill="none" stroke="#000000" stroke-width="0.7087" stroke-miterlimit="10" d="M593.6,437.4c-1.9,0.2-3.6,1-5.5,1.1
		c-3.7,0.3-7.4,0-10.9-1.2c-4.1-1.4-7.8-3.6-10.9-6.6c-2.4-2.3-4.6-4.8-6.2-7.8c-0.3-0.5-0.7-0.8-0.8-1.4"/>
	<path fill="none" stroke="#000000" stroke-width="0.7087" stroke-miterlimit="10" d="M645.1,414.1c1.3,1.1,2.6,2.2,4.2,3
		c0.9,0.5,1.9,0.6,2.8,0.8c4.2,0.7,7.9,2.7,11.7,4.2c2.3,0.9,4.7,1.1,7.1,0.5c3.5-0.9,6.3-2.9,8.8-5.3c1.3-1.2,2.1-3,3.1-4.5
		c2.8-3.9,3.7-8.4,4-13.1c0.3-3.6,1-7.1,1.7-10.6c0.4-1.7,1.2-3.2,2.4-4.5c0.2-0.2,0.2-0.4,0.3-0.5"/>
	<path fill="none" stroke="#000000" stroke-width="0.7087" stroke-miterlimit="10" d="M626,327.6c0.9-0.9,2-0.4,3.1-0.4
		c3.2,0,6.5,0.4,9.7,0c4.2-0.5,7.8-2.2,11-4.8c1.9-1.5,3.7-3.3,5.5-4.9c1.1-0.9,2.3-1.7,3.6-2.3c0.4-0.2,0.9-0.3,1.1-0.8"/>
	<path fill="none" stroke="#000000" stroke-width="0.7087" stroke-miterlimit="10" d="M705.6,554.4c1-4.1,3.9-6.7,7.3-8.8
		c1.7-1.1,2.8-2.5,3.5-4.3c1.1-2.8,2.7-5.3,4.5-7.7c2.5-3.3,2.5-6.8,1.6-10.7c-0.6-2.3-1.8-4.4-2.4-6.7c-0.5-1.9-2.1-3.1-3.8-4
		c-2.8-1.5-5.4-3.3-8.4-4.3c-3.3-1.1-6.3-3-9.9-3.5c-0.2,0-0.4,0-0.5,0"/>
	<path fill="none" stroke="#000000" stroke-width="0.7087" stroke-miterlimit="10" d="M597,452.8c4.1,3.3,8.3,6.5,13.1,8.7
		c3.3,1.5,6.8,2.2,10.3,2.8c3.9,0.7,7.8,1.4,11.8,1.5c1.5,0,3,0,4.5-0.4"/>
	<path fill="none" stroke="#000000" stroke-width="0.7087" stroke-miterlimit="10" d="M646.9,412.7c0.1,0.4,0.3,0.5,0.7,0.6
		c4.4,1.5,8.7,3.4,13.4,4.1c3.8,0.5,7.7,0.7,11.4-0.4c2-0.6,3.8-1.8,5.2-3.4c1.9-2.2,3.3-4.6,4.6-7.3c2.2-4.5,2.5-9.2,3.5-13.9
		c0.5-2.2,1.2-4.3,2.3-6.3"/>
	<path fill="none" stroke="#000000" stroke-width="0.7087" stroke-miterlimit="10" d="M646.6,406.7c1.7,0.1,3.3,0.8,5,0.8
		c3.4,0,6.7-0.3,10.1-0.2c3,0.1,6.1,0.2,9.1-0.3c4.5-0.7,8.4-2.5,11.9-5.6c0.1-0.1,0.4-0.1,0.2-0.4"/>
	<path fill="none" stroke="#000000" stroke-width="0.7087" stroke-miterlimit="10" d="M544.1,351.6c0.4-1.9,1.7-3.4,2.8-4.9
		c2.1-2.9,3.9-6.1,6.1-9c2.6-3.4,4.4-7.4,7.5-10.5c1.6-1.7,3.5-3,5.1-4.7c1.1-1.1,2.2-2.2,3.3-3.3"/>
	<path fill="none" stroke="#000000" stroke-width="0.7087" stroke-miterlimit="10" d="M722.3,463.7c0.5-0.3,0.9,0,1.2,0.2
		c1.5,0.7,3.1,0.6,4.6,0.1c3.3-1,6.5-2.2,9.6-3.9c5.6-3,10.3-7,14.9-11.3c0.4-0.3,0.6-0.7,0.8-1.2"/>
	<path fill="none" stroke="#000000" stroke-width="0.7087" stroke-miterlimit="10" d="M548.9,359.7c1.4-2.8,2.5-5.7,4.4-8.2
		c2-2.5,3.9-5.1,5.8-7.7c2.7-3.7,4.8-7.8,6.7-12c1.3-2.8,2.5-5.6,4.3-8.1c0.3-0.5,0.5-1.1,0.8-1.6"/>
	<path fill="none" stroke="#000000" stroke-width="0.7087" stroke-miterlimit="10" d="M597.3,430.4c-0.7-0.6-1.7-0.4-2.5-0.6
		c-5.5-1.3-9.7-4.6-13.1-9c-1.6-2-2.8-4.2-3.8-6.5c-1.6-3.5-2.2-7.2-1.1-11c0-0.1,0.2-0.2,0.2-0.4"/>
	<path fill="none" stroke="#000000" stroke-width="0.7087" stroke-miterlimit="10" d="M639.8,458.7c-2.7,0.2-5.3,0.8-8,0.9
		c-4.1,0.1-8-0.6-11.8-1.9c-6-2.1-11.2-5.5-16.2-9.4c-0.4-0.3-0.9-0.7-1.4-0.8"/>
	<path fill="none" stroke="#000000" stroke-width="0.7087" stroke-miterlimit="10" d="M646.8,495.3c-2.9,0.5-5.5-0.4-8.3-1.1
		c-7.8-2-15.8-2.6-23.8-1.7c-1.9,0.2-3.8,0.5-5.7,1"/>
	<path fill="none" stroke="#000000" stroke-width="0.7087" stroke-miterlimit="10" d="M659.2,462.4c-0.7-0.5-0.7-1.4-0.8-2.1
		c-0.4-1.7-0.8-3.4-1.5-5c-0.9-2.3-1.8-4.6-2.8-6.9c-2.1-4.9-4.5-9.6-7.5-14c-0.7-1-1.8-1.6-1.9-3c0,0,0.1,0,0.1,0
		c0.1,0,0.1,0,0.2,0.1"/>
	<path fill="none" stroke="#000000" stroke-width="0.7087" stroke-miterlimit="10" d="M692.3,383.1c0,0.7-0.5,0.8-0.9,0.9
		c-3.5,0.5-7,0.8-10.4-0.3c-3.4-1.1-6.9-2.1-9.9-4.1c-1.8-1.2-3.4-2.5-5.3-3.6c-3.4-2-7.1-2.4-11-2.3c-2.2,0.1-4.4,0.6-6.6,0.6
		c-2.5,0-3.9,1.8-5.5,3.1c-0.8,0.7-1.3,1.7-2,2.5c-1.1,1.1-2,2.5-3.7,2.9c-0.5,0.1-1,0.1-1.5-0.1c-1.1-0.4-2,0.1-2.8,0.8
		c-1.6,1.2-2.7,2.9-3.6,4.7c-0.1,0.3-0.2,0.5-0.5,0.7"/>
	<path fill="none" stroke="#000000" stroke-width="0.7087" stroke-miterlimit="10" d="M538.9,320.5c-1.9,0.3-3.7,0.3-5.5-0.2
		c-3.5-0.8-6.3-2.9-8.8-5.5c-2.4-2.5-4.2-5.5-5.7-8.5c-0.7-1.4-1.4-2.9-2.2-4.3c-0.9-1.6-1.9-3.2-2.9-4.6"/>
	<path fill="none" stroke="#000000" stroke-width="0.7087" stroke-miterlimit="10" d="M647.8,409c0.4-0.2,0.8,0,1.2,0.1
		c4.1,1.4,8.3,1.5,12.5,1.6c2.5,0.1,4.9,0.2,7.4,0.3c3.7,0.1,6.8-1.2,9.5-3.5c1.3-1.2,2.7-2.2,3.9-3.5"/>
	<path fill="none" stroke="#000000" stroke-width="0.7087" stroke-miterlimit="10" d="M704.2,475.6c-1.8-1.3-3.6-2.6-5.5-3.8
		c-3.4-2.1-7.3-3.2-11.1-4.4c-5.5-1.7-11.2-2.5-16.9-3.5c-1.9-0.4-3.8-0.7-5.7-1.4"/>
	<path fill="none" stroke="#000000" stroke-width="0.7087" stroke-miterlimit="10" d="M568.7,362.5c1.7,3.1,3.6,6.2,6.1,8.7
		c4.2,4.3,8.9,8.1,14.2,11c2.8,1.6,5.8,2.6,9,3c0.1,0,0.2-0.1,0.3-0.1"/>
	<path fill="none" stroke="#000000" stroke-width="0.7087" stroke-miterlimit="10" d="M558.4,302.4c-2.3,0.5-4.4,1.5-6.5,2.6
		c-6.6,3.4-15.3,3.5-21.6-1.3c-1.9-1.4-3.5-3.1-5-4.8"/>
	<path fill="none" stroke="#000000" stroke-width="0.7087" stroke-miterlimit="10" d="M543.6,346.1c0.9-2.4,2.5-4.2,4.1-6
		c2.8-3,5.7-6,8-9.4c2.2-3.1,4.3-6.4,7.4-8.7c1.1-0.9,2.3-1.5,3.5-2.2c0.6-0.3,1.1-0.8,1.6-1.1"/>
	<path fill="none" stroke="#000000" stroke-width="0.7087" stroke-miterlimit="10" d="M552,360c1.2-2.9,2.3-5.9,4.5-8.2
		c2.8-3,5-6.4,6.9-10c1.4-2.9,2.6-5.9,4.1-8.8c1.5-3,3.3-5.9,4.9-8.8c0.2-0.3,0.3-0.7,0.5-1"/>
	<path fill="none" stroke="#000000" stroke-width="0.7087" stroke-miterlimit="10" d="M647.7,411c3.4,1.2,6.9,2.2,10.5,2.8
		c4.9,0.7,9.7,0.9,14.6-0.5c1.9-0.6,3.5-1.6,4.9-3c1.1-1.1,2.3-2.2,3.3-3.4c0.2-0.3,0.6-0.4,0.9-0.5"/>
	<path fill="none" stroke="#000000" stroke-width="0.7087" stroke-miterlimit="10" d="M599.1,429c-0.1-0.1-0.1-0.3-0.4-0.4
		c-4.9-1.1-8.4-4.2-11.3-8.1c-2-2.7-3.7-5.6-4.7-8.8c-1.2-3.6-1.2-7.3,0.3-10.9"/>
	<path fill="none" stroke="#000000" stroke-width="0.7087" stroke-miterlimit="10" d="M678.6,441.7c-2.3-2.7-4.8-5.3-7.2-8
		c-4.4-5.1-9.4-9.3-15.5-12.4c-1.4-0.7-2.8-1.6-4.2-2.4c-0.4-0.2-0.8-0.6-0.7-1.1"/>
	<path fill="none" stroke="#000000" stroke-width="0.7087" stroke-miterlimit="10" d="M714.2,511c0.9-1.5,0.7-3.1,0.5-4.6
		c-0.5-5.2-2.7-9.6-6.5-13.1c-2.6-2.4-5.1-4.8-7-7.8c-0.6-0.8-1.1-1.8-1.5-2.8"/>
	<path fill="none" stroke="#000000" stroke-width="0.7087" stroke-miterlimit="10" d="M557.2,360.4c1.2-4.1,3.5-7.5,6-10.8
		c3.2-4.3,6-8.7,7.7-13.9c1.3-4,3.3-7.6,5.4-11.3"/>
	<path fill="none" stroke="#000000" stroke-width="0.7087" stroke-miterlimit="10" d="M542.8,340.5c2.7-1.9,4.6-4.5,6.5-7.1
		c1.6-2.2,3.2-4.4,5.2-6.3c2.4-2.4,5.2-4.2,7.9-6.3c1.7-1.2,3.3-2.5,5.3-3.2"/>
	<path fill="none" stroke="#000000" stroke-width="0.7087" stroke-miterlimit="10" d="M652.4,469.2c0.3-2,0.1-4-0.3-5.9
		c-1-5-3.1-9.7-5.2-14.3c-1.1-2.5-2.5-4.8-3.8-7.1c-0.4-0.7-0.6-1.6-1.3-2.2"/>
	<path fill="none" stroke="#000000" stroke-width="0.7087" stroke-miterlimit="10" d="M555.3,358.8c0.4-2,1.5-3.6,2.8-5.2
		c3.8-4.6,6.9-9.6,9.1-15.2c1.5-3.8,3.3-7.3,5.1-10.9c0.6-1.2,1.5-2.3,2.2-3.4"/>
	<path fill="none" stroke="#000000" stroke-width="0.7087" stroke-miterlimit="10" d="M646.2,374.2c0-1.4,0-2.7-0.3-4.1
		c-0.5-3-1.7-5.8-3.3-8.4c-2.9-4.7-6.9-8.4-11.3-11.7c-4.5-3.3-9.1-6.2-14.1-8.6c-1.9-0.9-3.4-2.4-3.8-4.7c-0.2-1-0.9-1.3-1.9-0.9
		c-1.9,0.7-3.4,2-4.6,3.6c-1.8,2.3-3.2,4.9-4.8,7.4c-1.7,2.7-3.6,5.1-6.4,6.8c-0.6,0.4-1.2,0.7-1.8,1c-2.3,1.2-3.6,3.1-4.9,5.1
		c-0.5,0.8-1,1.7-1.5,2.6c-1.2,2-0.6,3.7,0.6,5.5c0.5,0.8,1.4,1.4,1.6,2.3"/>
	<path fill="none" stroke="#000000" stroke-width="0.7087" stroke-miterlimit="10" d="M559.8,360.3c4.3-7.4,8.9-14.6,12.7-22.3
		c1.6-3.1,3.1-6.2,4.1-9.6c0.4-1.3,1.1-2.4,1.7-3.6"/>
	<path fill="none" stroke="#000000" stroke-width="0.7087" stroke-miterlimit="10" d="M595.9,407.2c-0.5,0.4-0.1,0.9-0.2,1.4
		c-0.2,1.6-0.4,3.2-0.6,4.8c-0.3,2.1,0,2.7,2,3.5c1.6,0.7,2.2,1.7,1.7,3.7c-0.5,1.9,0,3.3,1.4,4.5c0.5,0.4,0.7,0.8,0.7,1.5
		c-2.9,0.1-5.3-0.9-7.5-2.7c-2.6-2.1-4.4-4.7-6-7.5c-1.6-2.9-2.6-5.9-2.7-9.3c-0.1-2.3,0.4-4.6,1.8-6.5"/>
	<path fill="none" stroke="#000000" stroke-width="0.7087" stroke-miterlimit="10" d="M701,476c-1.7-0.3-2.9-1.4-4.4-2.1
		c-2.3-1.2-4.8-2.1-7.2-3.1c-4.9-1.9-9.8-3.4-15-4.5c-3.7-0.8-7.4-1.3-11.1-1.6"/>
	<path fill="none" stroke="#000000" stroke-width="0.7087" stroke-miterlimit="10" d="M542,336.5c2.4-1.6,4.3-3.7,6.4-5.6
		c2.9-2.8,5.2-6.2,8.4-8.7c2.8-2.2,5.7-4.3,9.3-5.1c0.5-0.1,0.9-0.4,1.3-0.5"/>
	<path fill="none" stroke="#000000" stroke-width="0.7087" stroke-miterlimit="10" d="M597.8,383.1c-4.8-1.6-9.7-3.4-14-6.2
		c-4.9-3.2-8.7-7.4-12-12.2c-0.7-1-1.3-2-1.7-3.1"/>
	<path fill="none" stroke="#000000" stroke-width="0.7087" stroke-miterlimit="10" d="M608.3,445c2.9,2.7,6.1,5.1,9.7,6.7
		c4.1,1.9,8.3,3.5,12.9,3.6c2.5,0.1,5,0.2,7.4-0.2c0.9-0.2,1.8-0.5,2.6-0.8"/>
	<path fill="none" stroke="#000000" stroke-width="0.7087" stroke-miterlimit="10" d="M563.8,360.7c0.3-0.4,0.6-0.7,0.8-1.2
		c1.3-4.1,3.5-7.7,5.7-11.3c2.9-4.8,5.4-9.8,7.2-15.1c0.9-2.7,1.6-5.5,2.4-8.3"/>
	<path fill="none" stroke="#000000" stroke-width="0.7087" stroke-miterlimit="10" d="M661.6,450.7c-2.5-4.9-4.8-9.8-8.5-13.9
		c-2.5-2.7-5.1-5.3-8-7.6c-0.9-0.7-1.7-1.6-2.4-2.5c-0.2-0.3-0.6-0.6-0.5-1.1c0.5-1.5-0.1-2.9,0-4.4"/>
	<path fill="none" stroke="#000000" stroke-width="0.7087" stroke-miterlimit="10" d="M696.4,476.8c-1.6-0.7-2.8-1.8-4.2-2.7
		c-3.1-1.9-6.6-2.9-10.1-3.7c-6.7-1.5-13.4-2.9-20.1-4.4c-0.2,0-0.4,0-0.5-0.2"/>
	<path fill="none" stroke="#000000" stroke-width="0.7087" stroke-miterlimit="10" d="M695.9,511c1,0.7,1.6,1.8,2.3,2.8
		c1.6,2.1,3.7,3.7,6.3,4.4c2.1,0.6,4.2,0.9,6.3,1.3c1.7,0.3,3.4,0.6,5.2,0.6c3.6-0.1,6.6-1.5,9.1-4c2.3-2.3,4.2-5,6.4-7.4
		c2-2.2,4.3-3.9,6.9-5.4c2.2-1.2,4.4-2.3,6.8-3.2"/>
	<path fill="none" stroke="#000000" stroke-width="0.7087" stroke-miterlimit="10" d="M642.7,544.6c1.5-3.5,2.2-7.2,3.4-10.8
		c2.6-7.6,7.5-13.3,14.1-17.7c0.1-0.1,0.3-0.2,0.4-0.3"/>
	<path fill="none" stroke="#000000" stroke-width="0.7087" stroke-miterlimit="10" d="M693.4,478.1c-1.2-1.3-2.9-1.9-4.4-2.7
		c-3.8-2.1-7.9-3.3-12-4.2c-5.8-1.4-11.7-2.5-17.6-3.4"/>
	<path fill="none" stroke="#000000" stroke-width="0.7087" stroke-miterlimit="10" d="M602,387.6c-1.5-2.1-1.5-4.5-1.9-6.9
		c-0.4-2.4-0.9-4.8-2-7c-1.1-2-2.4-3.9-3.6-5.9c-1.3-2.3-2.4-4.6-2.5-7.3"/>
	<path fill="none" stroke="#000000" stroke-width="0.7087" stroke-miterlimit="10" d="M650.2,497.6c-1.2,0.4-2.3,0.9-3.6,1.1
		c-2.9,0.5-5.7,0.1-8.6-0.3c-3.4-0.5-6.7-1.1-10.1-1.3c-3-0.2-5.9,0.1-8.7,0.9"/>
	<path fill="none" stroke="#000000" stroke-width="0.7087" stroke-miterlimit="10" d="M600.9,459.9c4.2,3.3,9,5.3,14.2,6.6
		c4.2,1,8.4,1.8,12.7,2c1.9,0.1,3.9,0,5.8-0.3"/>
	<path fill="none" stroke="#000000" stroke-width="0.7087" stroke-miterlimit="10" d="M596.9,380.9c-1.3,0.2-2.5-0.5-3.6-1
		c-5.8-2.2-10.8-5.6-15.1-10.1c-2.5-2.6-4.6-5.4-6.4-8.5"/>
	<path fill="none" stroke="#000000" stroke-width="0.7087" stroke-miterlimit="10" d="M717.9,507.9c-0.3-3.8-1.1-7.4-2.8-10.8
		c-1-1.9-2.3-3.5-3.9-5c-2.9-2.7-5.6-5.6-8.1-8.7"/>
	<path fill="none" stroke="#000000" stroke-width="0.7087" stroke-miterlimit="10" d="M561,435.8c1.6,1.2,3.2,2.5,4.9,3.7
		c4.5,3,9.3,5.3,14.5,6.6c2.9,0.7,5.9,0.9,8.9,0.4c0.9-0.2,1.6-0.6,2.5-0.9"/>
	<path fill="none" stroke="#000000" stroke-width="0.7087" stroke-miterlimit="10" d="M642.1,540.1c0.4-3.2,1.2-6.3,2.3-9.3
		c1.9-5.5,5.2-10.1,9.1-14.3c1.5-1.6,3.2-3,5.2-4"/>
	<path fill="none" stroke="#000000" stroke-width="0.7087" stroke-miterlimit="10" d="M599.6,350c-2.1-1.4-3.2-3.6-4.5-5.6
		c-1.3-2-2.1-4.3-3-6.6c-1-2.7-1.7-5.5-2.9-8.1c-0.6-1.3-1.2-2.6-2.1-3.8c-0.1-0.1,0-0.4,0-0.6"/>
	<path fill="none" stroke="#000000" stroke-width="0.7087" stroke-miterlimit="10" d="M597.2,352.5c-1.4-1.4-2.6-3-3.4-4.7
		c-1.2-2.6-2.3-5.3-3.2-8.2c-1-3.3-2-6.6-3.9-9.6c-0.5-0.8-0.7-1.8-1.7-2.1"/>
	<path fill="none" stroke="#000000" stroke-width="0.7087" stroke-miterlimit="10" d="M606.3,318.4c1.1-1.2,2.4-2.1,3.3-3.4
		c2.8-4.3,3.5-8.9,2.6-13.9c-0.8-4.2-3.8-6.2-6.5-6.6c-1.7-0.2-3.1,0.4-4.6,0.8c-0.2,0.1-0.6-0.1-0.7,0.3"/>
	<path fill="none" stroke="#000000" stroke-width="0.7087" stroke-miterlimit="10" d="M611.2,384.7c-0.3-0.6-0.4-1.3-0.4-2
		c0-2.7-1.4-5-2.5-7.3c-1.4-2.8-2.6-5.7-3.4-8.7c-0.7-2.6-1-5.3-0.5-8c0.1-0.4,0.2-0.6,0.5-0.7"/>
	<path fill="none" stroke="#000000" stroke-width="0.7087" stroke-miterlimit="10" d="M641.2,451.6c-4.3,0.8-8.5,1-12.8,0
		c-4.6-1.1-8.5-3.2-12.2-6c-1.4-1-2.6-2.4-4.1-3.3"/>
	<path fill="none" stroke="#000000" stroke-width="0.7087" stroke-miterlimit="10" d="M537.4,323.6c1.1-2.7,3-4.8,5.4-6.4
		c2.5-1.6,5.3-2.5,8.1-3.4c0.9-0.3,1.8-0.6,2.8-0.9c2.6-0.8,5.1-1.6,7.5-2.8c1.6-0.8,3-1.8,4.1-3.2c0.8-1,3.1-1,3.8,0.1
		c0.6,0.9,0.1,1.7-0.5,2.2c-1.1,1-1.7,2.2-1.8,3.7c-0.1,2.3,0.8,4.2,2,6c1,1.5,2.4,2.7,4,3.7c1.3,0.7,2.6,1.2,4.1,1.3
		c0.5,0,1,0.1,1.4,0.3c1.6,0.6,3.3,0.5,5,0.1c0.4-0.1,0.6-0.4,0.9-0.6"/>
	<path fill="none" stroke="#000000" stroke-width="0.7087" stroke-miterlimit="10" d="M718.9,471.5c-1.4,1.2-3.1,1.7-4.8,2.2
		c-2.4,0.7-4.8,1.2-7.2,2.1c-1.5,0.6-2.7,1.5-3.5,2.9c-0.7,1.2-1.7,2.1-2.8,2.7c-1.2,0.6-2.6,0.6-3.8-0.3c-1.3-1-2.6-2-4.3-2.1
		c-2.2-0.1-3.8-1.6-5.6-2.4c-3.4-1.5-7-2.2-10.5-3.1c-4.4-1.2-8.8-2.6-13.4-3.2c-1.6-0.2-3.2-0.5-4.8-0.2"/>
	<path fill="none" stroke="#000000" stroke-width="0.7087" stroke-miterlimit="10" d="M608.3,384.5c-1.6-3.6-2.5-7.4-4.1-10.9
		c-0.8-1.8-1.7-3.6-2.5-5.5c-1.5-3.1-2.1-6.3-1.7-9.7"/>
	<path fill="none" stroke="#000000" stroke-width="0.7087" stroke-miterlimit="10" d="M703,542.9c-1-3.5-1.1-7.2-1.7-10.7
		c-0.7-4.5-3.1-8-6.4-11c-1-0.8-1.9-1.7-2.9-2.6c-0.2-0.2-0.1-0.4-0.2-0.6"/>
	<path fill="none" stroke="#000000" stroke-width="0.7087" stroke-miterlimit="10" d="M614.5,383.9c-0.2-0.5-0.4-1-0.4-1.5
		c0.1-2.6-0.6-5.1-1.6-7.5c-0.8-2-1.7-4.1-2.5-6.1c-1.5-3.6-2-7.3-1.5-11.1c0-0.2-0.1-0.5-0.2-0.7"/>
	<path fill="none" stroke="#000000" stroke-width="0.7087" stroke-miterlimit="10" d="M705.2,554.7c-0.7,0.4-1.3,0.5-2.1,0.1
		c-3-1.7-6.2-1.7-9.5-0.9c-4.5,1.1-8.8,0.3-12.8-1.8c-2.3-1.2-4.5-2.5-6.1-4.5c-1.4-1.7-2.4-3.6-3.3-5.7c-0.8-1.9-1.4-3.8-1.7-5.8
		c-0.2-0.9-0.3-1.9-0.5-2.8c-0.1-0.4-0.1-0.8,0.5-0.6"/>
	<path fill="none" stroke="#000000" stroke-width="0.7087" stroke-miterlimit="10" d="M569.4,356.2c2.5-5,5.6-9.6,8.1-14.6
		c2.3-4.6,3.4-9.5,4.4-14.5c0.2-0.8,0.3-1.7,0.5-2.5"/>
	<path fill="none" stroke="#000000" stroke-width="0.7087" stroke-miterlimit="10" d="M721.2,506.4c0.6-1.4,0.1-2.7-0.4-4
		c-1.3-4.2-4-7.5-6.6-10.9c-1.2-1.5-2.2-3.2-3.1-4.8c-0.8-1.4-1.6-2.8-2.5-4"/>
	<path fill="none" stroke="#000000" stroke-width="0.7087" stroke-miterlimit="10" d="M640.5,535.1c0.5-1.8,1-3.6,1.6-5.3
		c1.1-3.5,3.1-6.6,5.3-9.6c2.4-3.4,5.5-6.1,9-8.3c1-0.6,2-1.2,3.1-1.5c0.6-0.2,1.2-0.4,1.6,0.4"/>
	<path fill="none" stroke="#000000" stroke-width="0.7087" stroke-miterlimit="10" d="M705,539c-0.8-2.6-0.9-5.3-1.1-8
		c-0.4-5.7-3.1-9.9-7.6-13.1c-1.2-0.8-2.4-1.6-3.4-2.6"/>
	<path fill="none" stroke="#000000" stroke-width="0.7087" stroke-miterlimit="10" d="M589.7,399.5c-1.4,3.5-1.7,7.1-0.9,10.9
		c1.1,4.6,3.1,8.6,6.7,11.8c0.5,0.5,1.2,0.8,1.7,1.2c0.4,0.3,0.9,0.4,1.4,0.1"/>
	<path fill="none" stroke="#000000" stroke-width="0.7087" stroke-miterlimit="10" d="M595.8,378.8c-2.6-0.6-5-1.7-7.3-3.2
		c-3.1-2-6.2-4.1-8.7-7c-1.8-2.2-3.3-4.7-5-7c-0.4-0.5-0.6-1.2-1.2-1.6"/>
	<path fill="none" stroke="#000000" stroke-width="0.7087" stroke-miterlimit="10" d="M614,439.8c3.1,2.3,6.2,4.6,9.7,6.2
		c4.2,1.9,8.5,3.2,13.2,3.2c1.9,0,3.6-0.5,5.4-1.2"/>
	<path fill="none" stroke="#000000" stroke-width="0.7087" stroke-miterlimit="10" d="M701,544.3c-1.4-3.5-1.4-7.3-2.2-10.9
		c-0.5-2.6-1.6-5-2.9-7.4c-1.1-2.1-2.6-3.8-3.9-5.8"/>
	<path fill="none" stroke="#000000" stroke-width="0.7087" stroke-miterlimit="10" d="M615.5,408.7c-2.6-1.2-5.3-2.3-7.8-3.4
		c-1.7-0.8-3.3-2-4.6-3.5c-0.6-0.7-0.8-1.5-0.8-2.4c0-1.6-0.4-3-1.3-4.3c-0.5-0.7-0.4-1.3,0.2-1.8c1.3-1.2,2-2.7,2.5-4.3
		c0.5-1.6,0.5-3.2,0.6-4.8c0-0.2,0.1-0.5,0-0.6c-1.6-1.3-1.5-3.3-1.9-5.1c-0.5-2.1-1.2-4.1-2.2-6c-2-3.7-3.4-7.6-3.5-11.8
		c0-0.4-0.1-0.8-0.1-1.2"/>
	<path fill="none" stroke="#000000" stroke-width="0.7087" stroke-miterlimit="10" d="M706.5,473.7c-1.6-0.9-2.8-2.1-4.2-3.2
		c-3.5-2.5-7.4-4-11.5-5c-4.2-1-8.5-1.6-12.8-2.3"/>
	<path fill="none" stroke="#000000" stroke-width="0.7087" stroke-miterlimit="10" d="M708,471c-2.8-1.7-5.5-3.4-8.4-4.9
		c-4.8-2.4-9.9-3.9-15.2-5c-2.1-0.4-4.1-0.9-6.1-1.3"/>
	<path fill="none" stroke="#000000" stroke-width="0.7087" stroke-miterlimit="10" d="M640.3,466.2c1.4,0,2.7-0.5,4.1-0.5
		c3.5,0,6,1.6,8.2,3.9c1.3,1.3,2.4,2.7,3.4,4.2c0.2,0.2,0.4,0.3,0.7,0.5c0-1.9,0.2-3.8,0.6-5.6c1.2-4.7,3.7-8.4,8-10.7
		c3.3-1.8,6.3-3.8,8.8-6.6c2.1-2.4,5-3.1,8-3.2c2.4-0.1,4.9-0.1,7.3-0.2c1,0,1.7,0.4,2.3,1.1c2.5,3.1,3.8,6.7,5.3,10.3
		c0.1,0.3-0.1,0.4,0,0.7"/>
	<path fill="none" stroke="#000000" stroke-width="0.7087" stroke-miterlimit="10" d="M626.3,473.9c-1.1-0.2-2.2,0.1-3.3,0.2
		c-2.9,0.2-5.7-0.4-8.5-1c-4.9-1-9.5-2.7-13.6-5.5c-0.7-0.5-1.4-1.1-2.1-1.7"/>
	<path fill="none" stroke="#000000" stroke-width="0.7087" stroke-miterlimit="10" d="M629.8,471.1c-6.2,0.5-12.2-0.5-18-2.4
		c-3.6-1.2-7-3-10.1-5.2"/>
	<path fill="none" stroke="#000000" stroke-width="0.7087" stroke-miterlimit="10" d="M593.9,375.4c-5.9-2.2-10.7-5.8-14.3-10.8
		c-1.7-2.3-3.3-4.8-4.9-7.2"/>
	<path fill="none" stroke="#000000" stroke-width="0.7087" stroke-miterlimit="10" d="M616.8,382.4c0.4-3.2,0.2-6.3-0.6-9.4
		c-0.6-2.4-1.6-4.7-2.4-7.1c-0.9-2.7-1.3-5.3-0.5-8.1"/>
	<path fill="none" stroke="#000000" stroke-width="0.7087" stroke-miterlimit="10" d="M743.4,497.4c-2.4-1.1-3.8-3.1-4.9-5.3
		c-1.7-3.4-3.1-6.9-4.8-10.2c-2.3-4.4-5.7-7.6-10.7-9c-1.6-0.4-3.1-1.3-4.6-2c-1.6-0.7-3.2-1.1-4.9-0.2c-0.2,0.1-0.5,0.2-0.6,0.4
		c-0.9,1-1.9,2-2.6,3.1"/>
	<path fill="none" stroke="#000000" stroke-width="0.7087" stroke-miterlimit="10" d="M658.9,451.6c-0.9-2.7-2-5.3-3.3-7.9
		c-2.2-4.1-5.5-7.4-8.8-10.6c-0.5-0.5-1-1-1.6-1.6"/>
	<path fill="none" stroke="#000000" stroke-width="0.7087" stroke-miterlimit="10" d="M637.6,394.1c1.8-1,3.8-0.9,5.8-1
		c3.7-0.1,7.2,1,10.7,2c2.4,0.6,4.8,1.1,7.3,0.8c0.9-0.1,1.5-0.5,2.2-1.1"/>
	<path fill="none" stroke="#000000" stroke-width="0.7087" stroke-miterlimit="10" d="M621.2,319.6c2.4-1.9,3-4.7,3.5-7.6
		c0.7-4.1,0.5-8.2-0.4-12.2c-0.4-1.7-0.6-3.5-1.4-5.1"/>
	<path fill="none" stroke="#000000" stroke-width="0.7087" stroke-miterlimit="10" d="M623.9,320.3c0.5-1.2,1.5-2,2.1-3.1
		c2.2-3.7,2.4-7.6,2-11.7c-0.3-3.2-1.1-6.4-2.5-9.3"/>
	<path fill="none" stroke="#000000" stroke-width="0.7087" stroke-miterlimit="10" d="M636.8,393.1c0.8-1.1,2.1-1.1,3.2-1.3
		c5.7-1.2,11.3-0.6,16.9,1c0.8,0.2,1.6,0.3,2.4,0.4c0.6,0.1,1.2,0,1.6-0.6"/>
	<path fill="none" stroke="#000000" stroke-width="0.7087" stroke-miterlimit="10" d="M657.4,388.6c-1,0-1.7-0.9-2.7-1.1
		c-1.7-0.4-3.5-0.6-5.2-0.6c-3.5,0-6.9,0.4-10.1,1.9c-1.6,0.7-3.2,1.5-4.6,2.8"/>
	<path fill="none" stroke="#000000" stroke-width="0.7087" stroke-miterlimit="10" d="M649.5,466.8c0.5-2.1,0-4.2-0.5-6.3
		c-0.9-3.3-2-6.5-3.5-9.6c-0.8-1.7-1.4-3.5-2.8-4.9"/>
	<path fill="none" stroke="#000000" stroke-width="0.7087" stroke-miterlimit="10" d="M652.9,384.8c-4.2-0.7-8.4,0.1-12.5,0.8
		c-2.4,0.5-4.8,1.4-6.5,3.4c-0.7,0.8-1.1,1.6-0.8,2.7"/>
	<path fill="none" stroke="#000000" stroke-width="0.7087" stroke-miterlimit="10" d="M534.1,302.5c3.8,1.9,7.8,2.1,11.9,1.2
		c2.9-0.7,5.4-2.1,8-3.5c0.7-0.4,1.3-0.7,2-1.1"/>
	<path fill="none" stroke="#000000" stroke-width="0.7087" stroke-miterlimit="10" d="M640.5,530.7c1.7-4.4,3.3-8.8,6.2-12.6
		c1.8-2.4,4.2-4.3,6.6-6.1c0.6-0.5,1.3-0.9,1.8-1.5"/>
	<path fill="none" stroke="#000000" stroke-width="0.7087" stroke-miterlimit="10" d="M549,326.5c1.3-1.8,3.1-3,4.5-4.6
		c1.4-1.5,2.9-2.9,4.7-3.9c2.2-1.3,4.3-2.5,6.9-2.8c0.6-0.1,1.1-0.5,1.7-0.3"/>
	<path fill="none" stroke="#000000" stroke-width="0.7087" stroke-miterlimit="10" d="M603,344.8c-1-0.8-1.6-1.8-2.1-2.9
		c-1.4-3-2.3-6.3-3.4-9.4c-0.9-2.3-2-4.5-3.5-6.5c-0.2-0.3-0.4-0.4-0.8-0.3c-2.6,0.6-4.9-0.4-7.1-1.5c-0.3-0.2-0.6-0.4-1-0.5
		c-1.3-0.5-1.8-1.4-1.7-3.1"/>
	<path fill="none" stroke="#000000" stroke-width="0.7087" stroke-miterlimit="10" d="M707.8,531.8c-0.9-2.1-1.4-4.4-2.1-6.7
		c-0.9-3.3-2.6-5.9-5.5-7.7c-1.5-1-3-2-4.2-3.3"/>
	<path fill="none" stroke="#000000" stroke-width="0.7087" stroke-miterlimit="10" d="M622.5,385c1.5-2.5,1.6-5.3,1.3-8.1
		c-0.3-2.9-0.9-5.7-1.1-8.5c-0.1-2-0.1-4,0.7-5.9"/>
	<path fill="none" stroke="#000000" stroke-width="0.7087" stroke-miterlimit="10" d="M628.9,503.3c2.4-0.5,4.8-0.1,7.3-0.1
		c4,0.1,8-0.3,11.7-1.9c0.7-0.3,1.3-0.7,1.9-1c0.5-0.2,0.6-0.7,0.5-1.2c-0.2-1.7,0.6-3.2,1.2-4.7"/>
	<path fill="none" stroke="#000000" stroke-width="0.7087" stroke-miterlimit="10" d="M719.9,471.3c0.7-0.8,1.7-1.3,2.2-2.2
		c1.5-2.6,0.7-5.8-2-6.9c-3.6-1.5-6.4-4.2-9.8-6c-3.9-2-7.8-3.9-12.1-4.6c-1.4-0.2-2.8,0.1-4.2,0.2"/>
	<path fill="none" stroke="#000000" stroke-width="0.7087" stroke-miterlimit="10" d="M619.4,382.4c0.5-2.3,0.1-4.6,0.1-6.9
		c0-2.9-0.8-5.7-1.4-8.5c-0.4-2.2-0.3-4.3,0.4-6.4"/>
	<path fill="none" stroke="#000000" stroke-width="0.7087" stroke-miterlimit="10" d="M619.3,319.3c1.3-0.5,1.6-1.8,1.9-2.9
		c1.1-4.5,1.8-9.1,1.1-13.8c-0.5-3-0.9-6.1-1.8-9c-0.2-0.6-0.3-1.2-0.5-1.8"/>
	<path fill="none" stroke="#000000" stroke-width="0.7087" stroke-miterlimit="10" d="M598.3,421.2c-2.8-0.9-4.6-3-5.9-5.5
		c-1.5-2.8-2-5.9-2.2-9c-0.1-1.5,0.1-3,0.8-4.4"/>
	<path fill="none" stroke="#000000" stroke-width="0.7087" stroke-miterlimit="10" d="M605.9,340.5c-1.1-0.9-1.4-2.3-1.9-3.5
		c-1-2.5-1.2-5.2-1.9-7.8c-0.7-2.6-1.9-5.1-3.6-7.2"/>
	<path fill="none" stroke="#000000" stroke-width="0.7087" stroke-miterlimit="10" d="M604.2,342.8c-0.8-0.4-1.1-1.2-1.3-1.9
		c-0.7-2.3-1.2-4.6-2-6.8c-1-2.9-2-5.8-4-8.2c-0.3-0.3-0.4-0.8-0.6-1.2c1-1,1.6-2.2,1.5-3.7c-0.1-1.4,0.6-2.5,1.2-3.7
		c0.2-0.4,0.4-0.7,0.3-1.2"/>
	<path fill="none" stroke="#000000" stroke-width="0.7087" stroke-miterlimit="10" d="M704.7,465.9c-2-0.9-4.2-1.7-6.1-2.8
		c-1.3-0.8-2.8-1-4.1-1.7c-4.1-2-8.6-2.8-13.1-3.6c-2.6-0.5-5.2-1-7.8-1.6"/>
	<path fill="none" stroke="#000000" stroke-width="0.7087" stroke-miterlimit="10" d="M625.9,386.6c2.6-3.5,2.8-7.5,2.6-11.6
		c-0.2-2.6-0.4-5.2-0.6-7.8c-0.1-0.8,0.1-1.5,0.3-2.2"/>
	<path fill="none" stroke="#000000" stroke-width="0.7087" stroke-miterlimit="10" d="M628.5,347.8c2.9-2.2,3-5.3,2.8-8.5
		c-0.2-3-1.3-5.6-3.1-8.1c-0.4-0.6-0.8-1.4-1.3-1.9c-0.2-0.2-0.4-0.5,0-0.7"/>
	<path fill="none" stroke="#000000" stroke-width="0.7087" stroke-miterlimit="10" d="M697.3,508.8c2,1.2,3.8,2.6,5.9,3.7
		c3.7,1.8,7.6,2.6,11.6,3.1c1.3,0.2,2.6,0.5,4,0.2c0.3-0.1,0.5-0.3,0.8-0.3"/>
	<path fill="none" stroke="#000000" stroke-width="0.7087" stroke-miterlimit="10" d="M609.5,336.8c-1.2-2.4-1.4-5.1-1.8-7.7
		c-0.5-3.3-1.6-6.2-3.3-9.2c-0.8,0.2-1.3,1.1-2.3,0.6c-0.1-1.2,0.1-2.4,0.8-3.5c0.5-0.9,1-1.9,0-2.8"/>
	<path fill="none" stroke="#000000" stroke-width="0.7087" stroke-miterlimit="10" d="M723.8,504.1c0.2-3.6-1.3-6.6-3.3-9.4
		c-1.8-2.6-4-4.9-5.6-7.7c-0.1-0.1-0.2-0.2-0.4-0.2"/>
	<path fill="none" stroke="#000000" stroke-width="0.7087" stroke-miterlimit="10" d="M615.9,318.7c2-3.5,2.8-7.3,3.1-11.3
		c0.2-3.6-0.4-7.1-1.4-10.5c-0.9-3.2-2-6.3-3.1-9.4"/>
	<path fill="none" stroke="#000000" stroke-width="0.7087" stroke-miterlimit="10" d="M626.6,328.5c-0.6-0.7-1.4-1.1-2.2-1.6
		c-2.6-1.5-5.3-2.6-8.4-2.9c-1.8-0.2-3.7-1-5.2-2.1c-1.5-1.2-3.4-1.9-4.8-3.3c-0.4,0.6-1.1,0.6-1.3,1.3"/>
	<path fill="none" stroke="#000000" stroke-width="0.7087" stroke-miterlimit="10" d="M636.4,430.9c-0.9,0.8-1,2.1-1.8,3
		c-1.2,1.4-2.5,2.5-4.3,3.2c-2.6,1.1-5.2,1.5-8,1.7c-3.2,0.2-5.8-1-8.1-3.2c-1.8-1.7-3.1-3.6-4.1-5.8c-0.5-1.1-0.4-2.1,0.1-3.2
		c0.4-0.8,0.4-1.6-0.3-2.2c-0.8-0.7-1.6-0.5-2.4,0c-0.9,0.5-1.8,1.2-2.7,1.7c-1.3,0.9-2.7,0.5-4.1,0.1"/>
	<path fill="none" stroke="#000000" stroke-width="0.7087" stroke-miterlimit="10" d="M587,268.7c0.1-2.5,0.4-5,1.2-7.4
		c1.1-3.5,2.8-6.8,5-9.7c0.9-1.2,1.8-2.5,3.1-3.5"/>
	<path fill="none" stroke="#000000" stroke-width="0.7087" stroke-miterlimit="10" d="M623.4,476.3c-0.7-0.3-1.4,0.1-2,0.1
		c-5.8-0.4-11.5-1.1-16.8-3.8c-1.1-0.6-2.2-1-3.3-1.5"/>
	<path fill="none" stroke="#000000" stroke-width="0.7087" stroke-miterlimit="10" d="M641.2,445.9c-2.1,0.9-4.4,1.1-6.7,0.8
		c-5-0.7-9.7-2.3-13.7-5.6c-0.1-0.1-0.3-0.1-0.4-0.1"/>
	<path fill="none" stroke="#000000" stroke-width="0.7087" stroke-miterlimit="10" d="M720.5,518.4c-1.9,0.5-3.8,0.3-5.7,0
		c-5.7-1-11.1-2.9-15.6-6.6"/>
	<path fill="none" stroke="#000000" stroke-width="0.7087" stroke-miterlimit="10" d="M575.2,356.4c1.8,2.7,3.5,5.4,5.7,7.8
		c2.3,2.5,4.9,4.7,8,6c2.5,1,3.8,3,5.1,5.1c0.3,0.5,0.7,1,1,1.5c1.2,2,2.1,4.1,3,6.2c0.7,1.7,1.3,3.5,1.5,5.3c0,0.1,0.2,0.4-0.1,0.6
		"/>
	<path fill="none" stroke="#000000" stroke-width="0.7087" stroke-miterlimit="10" d="M583.8,268.5c-0.2-5.8,0.2-11.5,2.9-16.8
		c0.8-1.6,1.7-3,2.9-4.3"/>
	<path fill="none" stroke="#000000" stroke-width="0.7087" stroke-miterlimit="10" d="M591.4,271.7c0.3-1.6,0.5-3.2,0.8-4.7
		c0.8-4.3,3.1-7.9,5.5-11.4c1.1-1.6,2.2-3.1,2.9-5"/>
	<path fill="none" stroke="#000000" stroke-width="0.7087" stroke-miterlimit="10" d="M592.5,355.5c-2.6-1.9-4.3-4.5-5.6-7.4
		c-1.1-2.5-2-5-3-7.6c-0.2-0.4-0.2-0.9-0.7-1.1"/>
	<path fill="none" stroke="#000000" stroke-width="0.7087" stroke-miterlimit="10" d="M670.8,502c0.1-0.7-0.6-0.7-0.9-0.9
		c-2.5-1.4-4.8-3.1-6.5-5.5c-1.1-1.6-2.2-3.2-3-5c-0.6-1.3-1.4-2.5-1.6-4c-0.1-1.3-1.2-2.2-1.9-3.2c-0.2-0.3-0.6-0.3-0.9-0.1"/>
	<path fill="none" stroke="#000000" stroke-width="0.7087" stroke-miterlimit="10" d="M697.6,462.3c6.3-1,12.5-1.9,18.9-1.1
		c0.1,0,0.3-0.1,0.4-0.2"/>
	<path fill="none" stroke="#000000" stroke-width="0.7087" stroke-miterlimit="10" d="M701.9,504.6c-0.2-1.6-0.3-3.2-0.6-4.8
		c-0.4-2.9-1.9-5.3-3.8-7.5c-1.9-2.3-4.3-4-6.2-6.3c-0.7-0.8-1.3-1.6-1.9-2.3"/>
	<path fill="none" stroke="#000000" stroke-width="0.7087" stroke-miterlimit="10" d="M677.9,448.6c0.5-3.1,1.8-5.9,2.2-9
		c0.6-4,1.1-8,1.5-12c0.2-2.4-0.1-4.8-0.5-7.1c-0.2-1-0.7-1.9-1.1-2.8"/>
	<path fill="none" stroke="#000000" stroke-width="0.7087" stroke-miterlimit="10" d="M615.6,304.3c-0.3-2-0.5-4-1.1-5.9
		c-0.8-2.5-1.6-5-2.8-7.4c-0.6-1.1-1.2-2.2-1.8-3.3"/>
	<path fill="none" stroke="#000000" stroke-width="0.7087" stroke-miterlimit="10" d="M610,505.8c-3.5-4-4-8.6-2.6-13.6
		c0.5-1.6,1.2-3.2,2.1-4.6"/>
	<path fill="none" stroke="#000000" stroke-width="0.7087" stroke-miterlimit="10" d="M680.4,435.2c-2.3-0.9-3.9-2.6-5.4-4.4
		c-2.4-3-5.3-5.3-8.7-7c-0.5-0.2-0.6-0.6-0.8-1"/>
	<path fill="none" stroke="#000000" stroke-width="0.7087" stroke-miterlimit="10" d="M697.7,507.3c4,3.7,9,4.9,14.2,5.5
		c1.1,0.1,2.3,0.3,3.4,0.4c0.5,0,0.9,0,1.2-0.5"/>
	<path fill="none" stroke="#000000" stroke-width="0.7087" stroke-miterlimit="10" d="M594.6,273.4c0.5-2,0.6-4,1.1-6
		c0.7-2.5,1.8-4.7,3.5-6.7c1.4-1.7,2.8-3.4,3.9-5.3"/>
	<path fill="none" stroke="#000000" stroke-width="0.7087" stroke-miterlimit="10" d="M540.9,300.7c1-0.1,1.9,0.2,2.8,0.3
		c3.1,0.2,5.7-1,8.1-2.7c1.6-1.1,3.2-2.2,5.2-2.4"/>
	<path fill="none" stroke="#000000" stroke-width="0.7087" stroke-miterlimit="10" d="M603.4,477.5c3.7,1.8,7.5,3,11.5,3.4
		c1.3,0.1,2.3,0,3.5-0.8c2.5-1.7,4.9-3.4,7.2-5.4c1.5-1.2,3.1-2.3,4.6-3.6c0.9-0.8,2.1-1.3,3.2-2c1-0.6,2.1-1.1,3.2-1.6
		c0.5-0.3,0.9-0.7,1.3-1.3c1.6-2.4,2.4-5.1,3.1-7.8c1.1-4.2,1.5-8.4,1.3-12.7c-0.1-1.6-0.5-3.2-0.8-4.8c-0.2-1.1-0.3-2.2-0.7-3.4
		c-0.4-1.3-1.1-2.4-1.9-3.5c-0.7-1-1.3-2.1-1.7-3.2"/>
	<path fill="none" stroke="#000000" stroke-width="0.7087" stroke-miterlimit="10" d="M697.2,462c0.5-1.6-0.7-2.1-1.9-2.6
		c-4.5-1.8-9.1-3.2-13.9-3.8c-1.4-0.2-2.7-0.5-4.1-0.8"/>
	<path fill="none" stroke="#000000" stroke-width="0.7087" stroke-miterlimit="10" d="M704.5,505.5c-0.2-2-0.3-3.9-0.9-5.9
		c-0.5-1.7-1.3-3.2-2.2-4.7c-2.7-4.3-6.4-7.8-9.7-11.7c-0.3-0.3-0.5-0.6-0.8-1"/>
	<path fill="none" stroke="#000000" stroke-width="0.7087" stroke-miterlimit="10" d="M710.3,508.7c0-2-0.5-4-0.9-6
		c-0.8-3.3-2.6-6.1-4.4-9c-0.1-0.1-0.1-0.3-0.2-0.4"/>
	<path fill="none" stroke="#000000" stroke-width="0.7087" stroke-miterlimit="10" d="M626.9,320c3-2.6,3.7-6,3.7-9.7
		c0-2.5-0.6-4.9-1-7.3"/>
	<path fill="none" stroke="#000000" stroke-width="0.7087" stroke-miterlimit="10" d="M641,525.5c1.4-3.8,3.1-7.4,5.7-10.6
		c1.3-1.6,2.9-2.7,4.7-3.6c0.3-0.1,0.7-0.2,0.8-0.6"/>
	<path fill="none" stroke="#000000" stroke-width="0.7087" stroke-miterlimit="10" d="M691.4,512.8c0.3-1.1,0.8-2.2,1.2-3.3
		c0.7-1.7,0.1-3.3-0.8-4.8c-1.8-3.1-4.8-4.3-8.1-5c0.1,0.9,0.5,1.7,1,2.4c1.5,2.4,1.9,5,2.1,7.7c0,0.3-0.1,0.8,0.1,1
		c1.1,1.4,0,2.5-0.6,3.6c-0.6,1-1.5,1.7-2.8,1.7c-0.5,0-0.9,0.6-1.5,0.1"/>
	<path fill="none" stroke="#000000" stroke-width="0.7087" stroke-miterlimit="10" d="M620.4,478.6c-2-0.3-4-0.2-6-0.6
		c-4.5-1-8.7-2.7-12.7-5"/>
	<path fill="none" stroke="#000000" stroke-width="0.7087" stroke-miterlimit="10" d="M631.5,384.2c1.1-4.1,0.6-8.3-0.2-12.4
		c-0.3-1.5-0.6-3,0-4.6"/>
	<path fill="none" stroke="#000000" stroke-width="0.7087" stroke-miterlimit="10" d="M598.2,419.5c-3-1.3-4.7-3.6-5.6-6.8
		c-0.6-2.2-0.8-4.4-0.6-6.6c0-0.3,0-0.7,0.3-0.9"/>
	<path fill="none" stroke="#000000" stroke-width="0.7087" stroke-miterlimit="10" d="M590.8,357.1c-3-2.7-5.4-5.8-7.1-9.5
		c-0.6-1.2-0.8-2.7-1.9-3.7"/>
	<path fill="none" stroke="#000000" stroke-width="0.7087" stroke-miterlimit="10" d="M677.2,539.8c0.3-1.6,1.1-3,1.4-4.6
		c0.4-2,0.3-4,0.1-6c-0.1-1.3-0.6-2.7-0.3-4c0.5-2-0.2-3.7-1.5-4.9c-1.9-1.8-2.6-4.1-2.9-6.5c-0.1-1.3-0.7-2.5-0.3-3.8
		c0.1-0.4,0.2-0.6,0.4-0.9"/>
	<path fill="none" stroke="#000000" stroke-width="0.7087" stroke-miterlimit="10" d="M617.8,318.9c2.3-4.5,2.9-9.3,2.5-14.3
		c-0.1-0.8,0-1.7-0.4-2.4"/>
	<path fill="none" stroke="#000000" stroke-width="0.7087" stroke-miterlimit="10" d="M635.8,505.7c2.5-0.2,5-0.1,7.5-0.7
		c2.5-0.5,4.8-1.4,6.8-3.1c0.7-0.6,0.3-1.2,0-1.8"/>
	<path fill="none" stroke="#000000" stroke-width="0.7087" stroke-miterlimit="10" d="M618.4,479.9c-1.6-0.5-3.2-0.3-4.9-0.7
		c-3.8-0.8-7.3-2.2-10.8-3.6c-0.8-0.3-1.5-0.6-2.3-0.9"/>
	<path fill="none" stroke="#000000" stroke-width="0.7087" stroke-miterlimit="10" d="M646.3,465.4c0.6-1.9,0.3-3.7-0.2-5.5
		c-0.4-1.6-0.9-3.2-1.5-4.8c-0.5-1.3-1.1-2.6-2.1-3.5"/>
	<path fill="none" stroke="#000000" stroke-width="0.7087" stroke-miterlimit="10" d="M586.7,365.7c-3.2-1.5-5.4-4-7.4-6.7
		c-1.1-1.4-2.2-2.8-3-4.4"/>
	<path fill="none" stroke="#000000" stroke-width="0.7087" stroke-miterlimit="10" d="M692.3,535c0.2-3.1-0.9-5.9-2.7-8.4
		c-1.1-1.6-2.4-3-3.5-4.5"/>
	<path fill="none" stroke="#000000" stroke-width="0.7087" stroke-miterlimit="10" d="M668.5,501.5c-0.1-0.3-0.2-0.4-0.5-0.6
		c-2.9-1.5-5.2-3.7-7.1-6.3c-0.5-0.7-0.9-1.5-1.3-2.3c-0.5-1.1-1.1-2.2-1.6-3.2c-0.1-0.2-0.2-0.4-0.3-0.5c-2.7-1.2-4.5-3.5-6.7-5.3
		c-0.2-0.2-0.5-0.5-0.9-0.4"/>
	<path fill="none" stroke="#000000" stroke-width="0.7087" stroke-miterlimit="10" d="M597.7,275.2c0.5-0.4,0.4-0.9,0.4-1.5
		c0-4,1.7-7.3,4.1-10.2c0.9-1.1,1.8-2.2,2.5-3.4"/>
	<path fill="none" stroke="#000000" stroke-width="0.7087" stroke-miterlimit="10" d="M632.3,489.1c2.9,1.1,5.8,2.4,8.9,2.9
		c2.2,0.4,4.3,0.4,6.4-0.6c0.2-0.1,0.5-0.1,0.7-0.2"/>
	<path fill="none" stroke="#000000" stroke-width="0.7087" stroke-miterlimit="10" d="M628.9,320c3.9-2.4,4.6-6.1,4.2-10.2
		c-0.1-1.2-0.2-2.5-1.1-3.6"/>
	<path fill="none" stroke="#000000" stroke-width="0.7087" stroke-miterlimit="10" d="M703.9,492.4c-1-1.5-2.4-2.7-3.6-3.9
		c-1.9-1.9-3.5-4-4.7-6.4c-0.2-0.3-0.4-0.6-0.6-0.9"/>
	<path fill="none" stroke="#000000" stroke-width="0.7087" stroke-miterlimit="10" d="M587.9,360.5c-2.1-2-4.5-3.6-5.9-6.3
		c-0.7-1.2-1.1-2.6-1.7-3.8c-0.2-0.4-0.4-0.9-0.7-1.3"/>
	<path fill="none" stroke="#000000" stroke-width="0.7087" stroke-miterlimit="10" d="M557,293.6c-1.3,0-2.3,0.7-3.5,1.1
		c-2.1,0.7-4,1.7-6.1,2.1c-1.3,0.2-2.6,0.3-3.8-0.1"/>
	<path fill="none" stroke="#000000" stroke-width="0.7087" stroke-miterlimit="10" d="M600.6,278c0.8-1,0.5-2.3,0.8-3.4
		c0.8-4.3,3.2-7.6,6.1-10.7"/>
	<path fill="none" stroke="#000000" stroke-width="0.7087" stroke-miterlimit="10" d="M589.2,358.6c-3-1.9-5.2-4.7-6.9-7.8
		c-0.6-1.1-1-2.2-1.6-3.3"/>
	<path fill="none" stroke="#000000" stroke-width="0.7087" stroke-miterlimit="10" d="M616.6,312.9c0.7-3.7,0.8-7.5,0.2-11.3
		c-0.4-2.4-1-4.8-1.9-7c-0.9-2.3-1.9-4.6-2.8-6.9"/>
	<path fill="none" stroke="#000000" stroke-width="0.7087" stroke-miterlimit="10" d="M575.9,269.5c0-1.8-0.6-3.4-0.6-5.2
		c0-2.6,0.4-5.1,1.2-7.6c0.2-0.6,0.3-1.1,0.3-1.7"/>
	<path fill="none" stroke="#000000" stroke-width="0.7087" stroke-miterlimit="10" d="M611.2,333.6c0-3.1-0.6-6.2-1.4-9.2
		c-0.3-1.2-1-2.3-1.2-3.5"/>
	<path fill="none" stroke="#000000" stroke-width="0.7087" stroke-miterlimit="10" d="M587,362.6c-3.1-2.3-6-4.8-8.2-8
		c-0.4-0.6-0.6-1.4-1.2-1.8"/>
	<path fill="none" stroke="#000000" stroke-width="0.7087" stroke-miterlimit="10" d="M582.6,318.8c0.1,1.4,1.1,1.8,2.2,2.2
		c0.6,0.2,1-0.1,1.2-0.5c0.3-0.7,0.6-1.4,0.7-2.1c0.2-3.5,3.8-4.5,6.5-3.6c0.9,0.3,1.8,0.7,1.9,1.8"/>
	<path fill="none" stroke="#000000" stroke-width="0.7087" stroke-miterlimit="10" d="M629.8,423.9c-0.3-0.3-0.5-0.7-0.6-1.2
		c-0.4-2.6-1.1-5.1-2.8-7.2c-0.9-1.1-1.8-1.7-3.2-1.9"/>
	<path fill="none" stroke="#000000" stroke-width="0.7087" stroke-miterlimit="10" d="M607.6,338.4c-1.6-2.6-2.4-5.4-3.3-8.2
		c-0.7-2.2-1.1-4.5-2.1-6.5c-0.9-1.8-1.8-3.7-3.4-5.1"/>
	<path fill="none" stroke="#000000" stroke-width="0.7087" stroke-miterlimit="10" d="M681.7,482.4c-0.5-1.2-0.1-2.6-0.9-3.8
		c-0.5-0.8-0.9-1.8-1.9-2.2c-0.2-0.1-0.3-0.2-0.5-0.2c-2.9-0.3-5.7-1.5-8.6-1.9c-2-0.2-3.9-0.5-5.9-0.8c-0.4,0-1-0.1-1.2,0.5"/>
	<path fill="none" stroke="#000000" stroke-width="0.7087" stroke-miterlimit="10" d="M610.5,396.1c-0.1-0.2-0.4-0.6-0.4-0.6
		c0.9-0.7,0.1-1.4-0.1-2.1c-1.1-2.8-2.5-5.6-3.2-8.6"/>
	<path fill="none" stroke="#000000" stroke-width="0.7087" stroke-miterlimit="10" d="M725.6,500.7c0.2-2.3-0.5-4.4-1.8-6.2
		c-1.1-1.6-2.3-3.1-3.6-4.5"/>
	<path fill="none" stroke="#000000" stroke-width="0.7087" stroke-miterlimit="10" d="M557.1,291.9c-3.1,0.5-6.2,1.5-9.4,1.7
		c-0.9,0.1-1.8,0.1-2.6,0.2"/>
	<path fill="none" stroke="#000000" stroke-width="0.7087" stroke-miterlimit="10" d="M707.2,507.5c0.4-2.1,0-4.1-0.4-6.1
		c-0.4-1.9-1.3-3.7-2.1-5.5"/>
	<path fill="none" stroke="#000000" stroke-width="0.7087" stroke-miterlimit="10" d="M579.8,269c-0.9-3.8-1.5-7.7-0.1-11.5
		c0.1-0.3,0-0.6,0-0.9"/>
	<path fill="none" stroke="#000000" stroke-width="0.7087" stroke-miterlimit="10" d="M686.4,511.4c-0.5,1.3-1,2.7-2.2,3.5
		c-0.9,0.6-1.9,1.1-2.9,1.6c-0.5,0.2-1,0.5-1.5,0.8c-1,0.7-1.2,0.6-2.6-0.8c0-1,0.7-1.6,1.3-2.2c1.3-1.1,1.3-2.4,1-3.8
		c-0.3-1.5-1-2.8-1.7-4.1"/>
	<path fill="none" stroke="#000000" stroke-width="0.7087" stroke-miterlimit="10" d="M640.6,508.9c1.2-0.3,2.4-0.5,3.6-0.8
		c1.8-0.5,3.5-1.1,5-2.3c0.7-0.6,1-1.5,1.7-2.1"/>
	<path fill="none" stroke="#000000" stroke-width="0.7087" stroke-miterlimit="10" d="M613.9,307.6c0-2.6-0.2-5.3-0.8-7.9
		c-0.7-3.4-2.4-6.3-4.4-9.1c-0.4-0.6-0.8-1.1-1.2-1.7"/>
	<path fill="none" stroke="#000000" stroke-width="0.7087" stroke-miterlimit="10" d="M607.1,420.7c3.6-1.4,7.3-1.8,11.1-1.7
		c0.2,0,0.3,0,0.3-0.2"/>
	<path fill="none" stroke="#000000" stroke-width="0.7087" stroke-miterlimit="10" d="M675.1,505c0.3-0.4,0.5-0.8,1.1-0.2
		c0.9,0.8,1.6,3.3,1.3,4.4c-0.2,0.7-0.8,0.5-1.1,0.4c-0.7-0.2-1.5-0.4-2.1-0.8c-1.8-1.3-3.9-2.1-5.8-3.2c-0.7-0.4-1.3-0.9-1.9-1.4
		c-0.8-0.8-0.5-1.7,0.6-1.9c0.6-0.1,1.2-0.3,1.6-0.8c0.8,0,1.3,0.6,2.1,0.7c1.8,0.1,4.8,3.3,5.2,5.2"/>
	<path fill="none" stroke="#000000" stroke-width="0.7087" stroke-miterlimit="10" d="M682.1,452.7c4.3,0.7,8.2,2.2,12.2,3.9
		c0.5,0.2,1,0.6,1.6,0.5"/>
	<path fill="none" stroke="#000000" stroke-width="0.7087" stroke-miterlimit="10" d="M674.9,495.1c0.2,0.8,0.7,1.4,0.9,2.1
		c0.3,0.9,0.7,1.9,0.7,2.8c0,1.1,1,2,0.6,3.2c-0.1,0.4,0.5,0.9,1,1.1c1.3,0.8,2.7,1.2,4.3,1.2c0.4-0.4,0.4-0.9,0.1-1.3
		c-1.2-1.9-1.8-4.1-3.7-5.5c-0.8-0.6-1.5-1.5-2.7-1.3"/>
	<path fill="none" stroke="#000000" stroke-width="0.7087" stroke-miterlimit="10" d="M697.7,505.9c3.2,1.9,6.7,3.2,10.4,3.8
		c0.8,0.1,1.7,0.4,2.4-0.3"/>
	<path fill="none" stroke="#000000" stroke-width="0.7087" stroke-miterlimit="10" d="M700.6,490.7c-1.6-2-3.6-3.6-5.3-5.5
		c-0.9-1-1.9-2-2.7-3.2"/>
	<path fill="none" stroke="#000000" stroke-width="0.7087" stroke-miterlimit="10" d="M594.6,354.1c-0.8-1.5-2-2.7-2.8-4.3
		c-1.5-2.8-2.9-5.5-3.8-8.5c-0.7-2-1.7-4-2.7-5.9c-0.2-0.4-0.4-0.8-0.9-0.9"/>
	<path fill="none" stroke="#000000" stroke-width="0.7087" stroke-miterlimit="10" d="M601.1,347.7c-2-2-3.1-4.5-3.9-7.2
		c-0.9-3-1.7-6-3.1-8.9c-0.7-1.4-1.5-2.8-2.4-4.2c-0.3-0.4-0.5-0.9-0.5-1.3"/>
	<path fill="none" stroke="#000000" stroke-width="0.7087" stroke-miterlimit="10" d="M692.5,478.7c1.2-0.9,2.7-0.8,4-0.9
		c2.7-0.4,5.4-0.7,8.1-1.1"/>
	<path fill="none" stroke="#000000" stroke-width="0.7087" stroke-miterlimit="10" d="M678.5,531.7c-2.3-2.2-4.9-4.1-7.3-6
		c-0.7-0.5-1-1.4-1.9-1.7"/>
	<path fill="none" stroke="#000000" stroke-width="0.7087" stroke-miterlimit="10" d="M609.1,396.4c-0.3-0.2,0.1-0.6-0.3-0.7
		c-0.8-0.2-1-0.9-1.3-1.7c-0.8-2.1-1.8-4.1-2.6-6.2c-0.1-0.3-0.3-0.6-0.7-0.6"/>
	<path fill="none" stroke="#000000" stroke-width="0.7087" stroke-miterlimit="10" d="M609.9,395.3c-0.7-0.3-1-0.9-1.2-1.6
		c-0.8-2.8-2.2-5.3-3.3-8"/>
	<path fill="none" stroke="#000000" stroke-width="0.7087" stroke-miterlimit="10" d="M611.8,396c0-1.4-0.6-2.8-0.9-4.2
		c-0.3-1.3-1.1-2.6-1.6-3.9c-0.3-0.9-0.9-1.8-0.7-2.8"/>
	<path fill="none" stroke="#000000" stroke-width="0.7087" stroke-miterlimit="10" d="M681.4,427.7c-2.1-0.2-4.4-0.1-6.3-1.2
		c-1.8-1-3.8-1.8-5.3-3.4"/>
	<path fill="none" stroke="#000000" stroke-width="0.7087" stroke-miterlimit="10" d="M678.4,533.9c-2.5-2.3-5.3-4.2-7.7-6.6
		c-0.4-0.4-0.7-0.9-1.4-0.9"/>
	<path fill="none" stroke="#000000" stroke-width="0.7087" stroke-miterlimit="10" d="M629,440.9c2,0.9,4.1,1.6,6.2,2.1
		c1.9,0.4,3.8,0,5.7-0.4"/>
	<path fill="none" stroke="#000000" stroke-width="0.7087" stroke-miterlimit="10" d="M547.5,290.1c1.7,0.6,3.4-0.1,5-0.6
		c1.5-0.5,3-0.4,4.6-0.5c0.4,0,0.7,0,1.1,0.1"/>
	<path fill="none" stroke="#000000" stroke-width="0.7087" stroke-miterlimit="10" d="M583,307.6c1.4-0.6,1.5-1.7,0.4-3
		c-0.3-0.4-0.8-0.7-1.2-1.1c-1.2-0.9-1.8-2.1-1.9-3.6c-0.2-1.4-0.2-2.9-1.1-4.1c-0.3-0.4-0.5-1-1.2-0.8"/>
	<path fill="none" stroke="#000000" stroke-width="0.7087" stroke-miterlimit="10" d="M678,536.7c-1.6-2.1-3.8-3.6-5.9-5.1
		c-1-0.7-1.6-1.7-2.8-2.1"/>
	<path fill="none" stroke="#000000" stroke-width="0.7087" stroke-miterlimit="10" d="M601.8,500.3c-1.9-2.6-2.4-5.5-1.3-8.5
		c0.2-0.6,0.4-1.3,0.5-1.9"/>
	<path fill="none" stroke="#000000" stroke-width="0.7087" stroke-miterlimit="10" d="M636,379.5c0.5-2.3,0.1-4.6-0.2-6.9
		c-0.2-1.2,0-2.4,0-3.6"/>
	<path fill="none" stroke="#000000" stroke-width="0.7087" stroke-miterlimit="10" d="M578.7,278.9c0.3,0,0.7,0,1.1,0
		c0.1-0.7-0.1-1.3-0.6-1.9c-1.6-1.9-2.8-4.1-4.3-6.1c-0.4-0.6-0.5-1.8-1.6-1.7c-1.6,0.1-3.2-1-4.8,0.3c-0.6,0.5-0.9,0.9-0.9,1.6
		c0,2.2-1.2,3.9-2.6,5.5c-2.4,2.6-5.1,4.9-7.8,7.1c-0.3,0.3-0.5,0.6-0.8,1.2c0.2,0.6,1,0.3,1.4,0.8c1.3,1.5,1.4,2.2,0.5,4.1
		c-0.5,1.1-1.1,2.2-1.1,3.5"/>
	<path fill="none" stroke="#000000" stroke-width="0.7087" stroke-miterlimit="10" d="M678.4,523.6c-0.9,0.4-1.9,0.5-2.9,0.3
		c-1.7-0.4-3.5-0.5-5.3-1.1c-2.7-0.9-5.1-2.5-7.1-4.5c-1.6-1.5-3-3.2-4-5.2c-0.3-0.7-0.5-1.4-0.8-2.1"/>
	<path fill="none" stroke="#000000" stroke-width="0.7087" stroke-miterlimit="10" d="M619.1,338.2c1.4-3.5,1.4-7,0.2-10.5"/>
	<path fill="none" stroke="#000000" stroke-width="0.7087" stroke-miterlimit="10" d="M587.5,304c0,0.2,0.1,0.5-0.2,0.5
		c-1.1-0.2-2.3-1.8-2.1-2.9c0.5-3-0.2-5.7-1.9-8.2c-0.1-0.2-0.2-0.4-0.2-0.6"/>
	<path fill="none" stroke="#000000" stroke-width="0.7087" stroke-miterlimit="10" d="M648.8,484.2c-0.7-1.1,0.2-1.9,0.4-2.9
		c0.2-0.7,0.4-1.4,0.7-2.1c0.9-0.4,1.9-0.2,2.9,0c1.2,0.2,2.5,0.3,3.5-0.7c0.5-0.5,0.8-1,1-1.6c0.4-1.1,1.3-1.9,2.4-2.1
		c1-0.2,1.8-1.1,2.9-0.6"/>
	<path fill="none" stroke="#000000" stroke-width="0.7087" stroke-miterlimit="10" d="M691.4,518c0.5-0.1,0.7-0.4,0.5-0.9
		c-0.3-0.6,0-1,0.3-1.6c0.8-1.8,2-3.3,3.6-4.5c1-0.8,1.1-2.2,1.2-3.5c0.1-2.2,0.4-4.5,0.7-6.7c0.2-1.3,0.1-2.5-0.4-3.6
		c-0.7-1.7-1.3-3.4-2.5-5c-2-2.6-4.9-4.5-6.6-7.4"/>
	<path fill="none" stroke="#000000" stroke-width="0.7087" stroke-miterlimit="10" d="M616.6,334.4c0-1.4-0.1-2.9,0.1-4.3
		c0.1-2-0.1-3.9-0.6-5.7"/>
	<path fill="none" stroke="#000000" stroke-width="0.7087" stroke-miterlimit="10" d="M678.8,517.6c0.3,2.1,1.9,2.8,3.6,3.4
		c3,1.1,6.8-1.7,7.8-4.4c0.2-0.6,0.4-1,0.9-1.4"/>
	<path fill="none" stroke="#000000" stroke-width="0.7087" stroke-miterlimit="10" d="M617.6,417.8c0.9,1,1.9,1.7,3.3,1.1
		c1.5-0.6,1.7-1.9,0.9-3.2c-0.9-1.5-2.4-2.3-3.5-3.6c-0.2-0.2-0.3-0.7-0.7-0.8"/>
	<path fill="none" stroke="#000000" stroke-width="0.7087" stroke-miterlimit="10" d="M663.1,484.9c0.2-0.3,0.6-0.6,0.3-1.1
		c-1-2.1-1.3-4.4-2.2-6.5c-0.2-0.4-0.4-0.9-0.6-1.3"/>
	<path fill="none" stroke="#000000" stroke-width="0.7087" stroke-miterlimit="10" d="M656.4,492.4c0.7-0.4,1.2,0.5,1.9,0.3
		c-0.3-0.8-0.5-1.7-1.2-2.1c-2.3-1.5-4.2-3.3-6.3-5c-0.6-0.5-1.3-0.8-1.9-1.2c-0.8,1.1-1.9,0.8-2.8,0.6c-1.4-0.4-2.7-1-3.9-1.6
		c-0.5-0.3-1-0.4-1.6-0.6"/>
	<path fill="none" stroke="#000000" stroke-width="0.7087" stroke-miterlimit="10" d="M633.1,319.5c1.7-0.7,2-2.4,2.4-3.9
		c0.6-1.9,0.4-3.8,0.3-5.7"/>
	<path fill="none" stroke="#000000" stroke-width="0.7087" stroke-miterlimit="10" d="M647.2,488.4c-1.7,0.5-3.3,0.4-4.9-0.3
		c-1.8-0.8-3.6-1.5-5.3-2.2"/>
	<path fill="none" stroke="#000000" stroke-width="0.7087" stroke-miterlimit="10" d="M663.8,484.4c0.2,0.1,0.3,0.2,0.6,0.3
		c0.4-0.7,0.5-1.5,0.3-2.3c-0.6-1.9-1-3.8-1.8-5.6c-0.1-0.3-0.1-0.5-0.2-0.8"/>
	<path fill="none" stroke="#000000" stroke-width="0.7087" stroke-miterlimit="10" d="M566.4,312.5c-2-0.5-3.5,0.5-5.1,1.6
		c-1,0.6-2,1.3-3.2,1.5"/>
	<path fill="none" stroke="#000000" stroke-width="0.7087" stroke-miterlimit="10" d="M656.6,493.6c0.2-1.3-0.9-1.9-1.7-2.5
		c-2.2-1.6-4.3-3.3-6.4-5"/>
	<path fill="none" stroke="#000000" stroke-width="0.7087" stroke-miterlimit="10" d="M727.5,498.7c-0.1-3.2-1.5-5.8-3.7-8"/>
	<path fill="none" stroke="#000000" stroke-width="0.7087" stroke-miterlimit="10" d="M642.7,465.6c1-2,0.8-4.1,0.1-6.1
		c-0.3-0.9-0.2-2-1.2-2.7"/>
	<path fill="none" stroke="#000000" stroke-width="0.7087" stroke-miterlimit="10" d="M579.9,303.3c-1.3-1.2-2.3-4.3-2-6.2
		c0.1-1.1,0.3-2.2-0.8-2.9"/>
	<path fill="none" stroke="#000000" stroke-width="0.7087" stroke-miterlimit="10" d="M677.1,539.1c-1.3-1.8-3.1-3-4.9-4.2
		c-0.8-0.6-1.6-1.3-2.3-1.9"/>
	<path fill="none" stroke="#000000" stroke-width="0.7087" stroke-miterlimit="10" d="M660.9,485.6c0.6-0.3,0.3-0.7,0.2-1.1
		c-0.9-2.4-1.8-4.8-2.7-7.2"/>
	<path fill="none" stroke="#000000" stroke-width="0.7087" stroke-miterlimit="10" d="M605.3,285c-1.4-3.7-4.3-6.3-6.9-9.1
		c-1.1-1.2-2.6-2-4.3-2.4c-1.2-0.3-2.4-1-3.6-1.5"/>
	<path fill="none" stroke="#000000" stroke-width="0.7087" stroke-miterlimit="10" d="M601.4,411.4c0.4-0.8,0.1-2-0.7-2.4
		c-0.3-0.1-0.6-0.2-0.9-0.3c-1.7-0.5-2.8-2-4-3.1c-0.8-0.8-1.7-1.5-2.1-2.6c-0.6-1.5-0.4-2.5,1-3.3c1.3-0.8,2.5-1.7,3.1-3.1
		c0.1-0.2,0.1-0.5,0.2-0.7"/>
	<path fill="none" stroke="#000000" stroke-width="0.7087" stroke-miterlimit="10" d="M640.9,438.6c-1.6,0.8-3.2,0.7-4.8,0.2
		c-1.6-0.5-3.1-1.3-4.6-2"/>
	<path fill="none" stroke="#000000" stroke-width="0.7087" stroke-miterlimit="10" d="M685.8,510.3c0,0.7,0.4,1.1,1.1,1
		c0.6-0.1,0.8-0.4,0.8-1.2c0.1-2.4-0.8-4.5-1.5-6.7"/>
	<path fill="none" stroke="#000000" stroke-width="0.7087" stroke-miterlimit="10" d="M676,462.7c-3.2-0.5-6.3-1.3-9.5-1.9"/>
	<path fill="none" stroke="#000000" stroke-width="0.7087" stroke-miterlimit="10" d="M564.4,277.6c1,1.5,2,3,3,4.5
		c0.4,0.5,0.8,0.9,1.5,0.8c0.4,0,0.5-0.3,0.7-0.6c0.2-0.4,0-0.6-0.2-0.8c-1-1.3-1.9-2.7-2.8-4"/>
	<path fill="none" stroke="#000000" stroke-width="0.7087" stroke-miterlimit="10" d="M614.7,391.3c-0.3,0.1,0.2,0.9-0.6,0.7
		c-0.4-0.1-0.3-0.4-0.4-0.5c-1.1-2.1-2-4.2-2.5-6.5"/>
	<path fill="none" stroke="#000000" stroke-width="0.7087" stroke-miterlimit="10" d="M639.3,381c0.3-2.6-0.3-5.2-0.1-7.9
		c0-0.3-0.2-0.4-0.3-0.6"/>
	<path fill="none" stroke="#000000" stroke-width="0.7087" stroke-miterlimit="10" d="M586.4,276.5c-1.1-0.3-1.4-1.4-1.8-2.1
		c-1-1.6-2.1-3.1-2.8-4.9"/>
	<path fill="none" stroke="#000000" stroke-width="0.7087" stroke-miterlimit="10" d="M656.4,493.4c-0.8,0-1.4-0.2-2.1-0.7
		c-2-1.3-3.8-2.8-5.5-4.4c-0.3-0.3-0.5-0.4-0.8-0.4"/>
	<path fill="none" stroke="#000000" stroke-width="0.7087" stroke-miterlimit="10" d="M635.5,424.3c1.1-0.6,1.8-1.5,2.1-2.7
		c0.1-0.3,0.2-0.5,0.3-0.8c0.5-1.7,1.4-2.9,3.3-3"/>
	<path fill="none" stroke="#000000" stroke-width="0.7087" stroke-miterlimit="10" d="M606.5,397.7c0.1-2.6-1.4-4.6-2.2-6.9
		c-0.2-0.4-0.5-0.6-0.8-0.9"/>
	<path fill="none" stroke="#000000" stroke-width="0.7087" stroke-miterlimit="10" d="M620.1,408.2c1-0.9,1.7-1.4,3,0.1
		c0.6,0.6,1.2,1.4,2.1,1.6c1,0.3,2.8-0.7,2.6-1.6c-0.1-0.9-0.9-1.6-1.7-2.1c-0.9-0.5-1.9-0.8-3-1c-0.7-0.1-1.2-0.3-1.3-1.2
		c0-0.5-0.6-0.8-1-1.1"/>
	<path fill="none" stroke="#000000" stroke-width="0.7087" stroke-miterlimit="10" d="M660.2,487.9c-0.1-0.3-0.4-0.6-0.3-0.8
		c0.6-1.4-0.3-2.5-0.8-3.7c-0.6-1.5-1.2-3-1.6-4.5c-0.1-0.5-0.4-0.7-0.7-1"/>
	<path fill="none" stroke="#000000" stroke-width="0.7087" stroke-miterlimit="10" d="M642.4,412.9c0.1-0.3,0.3-0.6,0-1
		c-0.9-1.6-2.1-2.9-3.5-4c-1.1-0.8-1.4-0.7-2.6,0.3"/>
	<path fill="none" stroke="#000000" stroke-width="0.7087" stroke-miterlimit="10" d="M663.4,485.6c-0.1-0.7-1-0.9-1.2-1.6
		c-0.7-2-1.5-4-2.2-6.1c-0.1-0.4-0.3-0.8-0.4-1.1"/>
	<path fill="none" stroke="#000000" stroke-width="0.7087" stroke-miterlimit="10" d="M602.7,283.7c-0.5,0.6-0.6-0.5-1-0.2
		c-0.6-1-1.7-1.5-2.4-2.6c-0.9-1.6-1.9-3.5-4-3.9"/>
	<path fill="none" stroke="#000000" stroke-width="0.7087" stroke-miterlimit="10" d="M642.8,400.9c0.1,0.3,0,0.6,0.2,0.8
		c0.6,1,1.2,1.9,1.5,3c0.1,0.2,0.2,0.5,0.4,0.6c1.2,0.6,1.5,1.8,2.2,2.7c0.6,0.9,0.6,1.7,0.6,2.6c0,0.9-0.6,1.6-1.3,2.2
		c-0.7,0.6-1.6,1.2-2.5,1.6c-1.4,0.6-2.3-0.5-3-1.2c-1.4-1.6-2.9-3.2-4.4-4.6c-0.6-0.6-1.4-1-2-1.7c-0.6-0.7-1.7-0.2-2.7-0.1
		c-1.4,0.2-2.7,0.5-3.9,1.3"/>
	<path fill="none" stroke="#000000" stroke-width="0.7087" stroke-miterlimit="10" d="M613.3,392.8c-0.8-0.3-0.9-1.1-1.2-1.7
		c-0.8-1.6-1.5-3.4-2.1-5.1c-0.1-0.2,0-0.5-0.1-0.8"/>
	<path fill="none" stroke="#000000" stroke-width="0.7087" stroke-miterlimit="10" d="M708.1,525c-0.4-0.4-0.5-1-0.7-1.5
		c-0.6-1.5-1.4-3-2.5-4.2c-0.2-0.2-0.5-0.6-0.4-1"/>
	<path fill="none" stroke="#000000" stroke-width="0.7087" stroke-miterlimit="10" d="M583.4,270.1c1.2,1.8,2.7,3.5,3.5,5.6
		c0.2,0.6,1.1,0.9,1.6,1.1c0.5,0.2,0.7-0.5,0.4-1c-0.6-1.3-1.4-2.5-2.2-3.7c-0.6-0.9-1.2-1.7-1.8-2.5"/>
	<path fill="none" stroke="#000000" stroke-width="0.7087" stroke-miterlimit="10" d="M603.8,278.8c0.9-1.7,1.1-3.7,2.2-5.3
		c0.7-1,1.3-1.9,2.3-2.5"/>
	<path fill="none" stroke="#000000" stroke-width="0.7087" stroke-miterlimit="10" d="M615.6,391.5c-0.3-0.1-0.6-0.2-0.7-0.5
		c-0.5-2-1.5-3.7-2.2-5.6c-0.1-0.2-0.1-0.4-0.1-0.6"/>
	<path fill="none" stroke="#000000" stroke-width="0.7087" stroke-miterlimit="10" d="M656.9,495.6c-2.8-0.7-4.8-2.8-7-4.4
		c-0.4-0.3-0.8-0.5-1.2-0.8c-1.2-0.7-1.5-2.2-0.7-3.6c0.3-0.6,1-1.2,0.7-2"/>
	<path fill="none" stroke="#000000" stroke-width="0.7087" stroke-miterlimit="10" d="M603.7,294.3c0.2-0.6,0.1-1.1-0.2-1.6
		c-0.5-0.7-0.3-1.6,0-2.3c0.6-1.2,0.9-2.6,1.2-3.9c0.1-0.5-0.1-0.7-0.6-0.8c-0.3,0.7-0.2,1.5-0.8,2.2"/>
	<path fill="none" stroke="#000000" stroke-width="0.7087" stroke-miterlimit="10" d="M598.9,499.3c-1.7-2.2-2.4-4.5-1.4-7.2"/>
	<path fill="none" stroke="#000000" stroke-width="0.7087" stroke-miterlimit="10" d="M580.2,270.1c1.1,2,2.6,3.7,3.5,5.8
		c0.1,0.3,0.4,0.5,0.3,0.8c0,0.2-0.1,0.4-0.1,0.7c-0.6-0.2-1-0.8-1.9-0.6c-0.7,0.2-1.3-0.5-1.8-1.1c-1.1-1.5-2-3.1-3.1-4.5
		c-0.3-0.3-0.2-0.6-0.2-1"/>
	<path fill="none" stroke="#000000" stroke-width="0.7087" stroke-miterlimit="10" d="M645.4,509.2c0.7-0.3,1.4-0.6,2.1-0.9
		c1.8-0.6,3.1-1.6,4-3.2"/>
	<path fill="none" stroke="#000000" stroke-width="0.7087" stroke-miterlimit="10" d="M616,417.9c-2.5,0.2-5,0.4-7.4,1"/>
	<path fill="none" stroke="#000000" stroke-width="0.7087" stroke-miterlimit="10" d="M564.3,292.6c0.5-0.5,0.9-1.2,0.6-1.8
		c-0.5-0.9-0.8-1.9-1.7-2.4c-1.7-1-3-2.5-4.5-3.8c-0.4-0.3-0.9-0.4-1.1-0.9"/>
	<path fill="none" stroke="#000000" stroke-width="0.7087" stroke-miterlimit="10" d="M691.5,492.2c0-1.3-1-1.9-1.7-2.7
		c-0.9-1.1-1.9-2.2-2.9-3.2"/>
	<path fill="none" stroke="#000000" stroke-width="0.7087" stroke-miterlimit="10" d="M582.2,276.7c-0.6-1.9-1.9-3.3-3-4.9
		c-0.3-0.4-0.5-0.9-0.7-1.4"/>
	<path fill="none" stroke="#000000" stroke-width="0.7087" stroke-miterlimit="10" d="M687.7,480c-1.4-1.6-3.3-2.3-5.3-2.7
		c-0.8-0.2-1.6-0.8-2.5-0.3"/>
	<path fill="none" stroke="#000000" stroke-width="0.7087" stroke-miterlimit="10" d="M580.6,297c0.6-1.8-0.1-3.3-1-4.9
		c-0.7-1.3-1.3-2.6-1.6-4.2c-0.4-1.8-1.5-3.5-2.6-5.2c-0.6-1-1.6-1.8-1.3-3.2"/>
	<path fill="none" stroke="#000000" stroke-width="0.7087" stroke-miterlimit="10" d="M571.7,280.7c-0.4-1.9-1.5-3.4-2.3-5.2
		c-0.2-0.4-0.4-0.8-0.6-1.2"/>
	<path fill="none" stroke="#000000" stroke-width="0.7087" stroke-miterlimit="10" d="M559,292.7c1.7,1.4,3.3,2.9,5.2,4.1
		c0.4,0.3,0.7,0.5,0.5,1c-0.3,0.5-0.7,0.4-1.1,0.1c-1.8-1.1-3.4-2.4-5.1-3.7c-0.3-0.3-0.6-0.7-1.2-0.7"/>
	<path fill="none" stroke="#000000" stroke-width="0.7087" stroke-miterlimit="10" d="M678.4,529c-1.7-1.5-3.3-3-5-4.6
		c-0.1-0.1-0.3-0.4-0.2-0.7"/>
	<path fill="none" stroke="#000000" stroke-width="0.7087" stroke-miterlimit="10" d="M563.8,299.5c-2.1-0.8-3.6-2.6-5.4-3.9
		c-0.4-0.3-0.5-0.7-1.1-0.7"/>
	<path fill="none" stroke="#000000" stroke-width="0.7087" stroke-miterlimit="10" d="M566.4,289.8c-1.9-1.9-3.7-3.8-5.4-5.9
		c-0.2-0.3-0.3-0.6-0.8-0.6"/>
	<path fill="none" stroke="#000000" stroke-width="0.7087" stroke-miterlimit="10" d="M601.9,406.4c-2.4-1.2-4.9-2.1-7.2-3.5
		c-0.4-0.2-0.6-0.1-0.9,0"/>
	<path fill="none" stroke="#000000" stroke-width="0.7087" stroke-miterlimit="10" d="M615.8,392c0.5-1.7-0.7-3-0.9-4.6
		c-0.2-1-0.7-2-0.7-3.1"/>
	<path fill="none" stroke="#000000" stroke-width="0.7087" stroke-miterlimit="10" d="M550.7,286.4c2,0,3.9,0,5.9,0.1
		c0.5,0,1-0.1,1.4-0.3"/>
	<path fill="none" stroke="#000000" stroke-width="0.7087" stroke-miterlimit="10" d="M597.1,307.4c-0.1-0.7-0.8-0.9-1.3-1.2
		c-1.3-0.8-2.9-1.2-4.3-1.7c-0.8-0.2-1.5-0.5-2.2-0.9"/>
	<path fill="none" stroke="#000000" stroke-width="0.7087" stroke-miterlimit="10" d="M668.5,477.7c0.6,1.9,0.8,4,2.7,5.2
		c0.7-0.6,0.7-1.2,0.4-1.9c-0.5-1.1-0.9-2.3-1.3-3.5"/>
	<path fill="none" stroke="#000000" stroke-width="0.7087" stroke-miterlimit="10" d="M619.7,408.7c-1-1.5-2.7-2.3-4.3-3
		c-0.9-0.4-1.8-0.7-2.6-1.3"/>
	<path fill="none" stroke="#000000" stroke-width="0.7087" stroke-miterlimit="10" d="M616.8,417.3c-1.9-1.3-3.9-1.2-6-0.7
		c-0.4,0.1-0.7,0.1-1.1,0.2"/>
	<path fill="none" stroke="#000000" stroke-width="0.7087" stroke-miterlimit="10" d="M577.3,281.7c0.2-0.8-0.1-1.4-0.6-2
		c-1.1-1.1-2.2-2.4-2.9-3.8c-0.2-0.4-0.6-0.5-0.9-0.7"/>
	<path fill="none" stroke="#000000" stroke-width="0.7087" stroke-miterlimit="10" d="M590.8,276.1c-0.6-1.4-1.4-2.6-2.4-3.8
		c-0.4-0.6-0.8-1.2-0.7-2"/>
	<path fill="none" stroke="#000000" stroke-width="0.7087" stroke-miterlimit="10" d="M584.9,302.6c-1.5,0.6-1.9,0.5-2.3-1.1
		c-0.3-1.4-0.4-2.9-0.6-4.3c-0.1-0.6,0-1.4-0.8-1.7"/>
	<path fill="none" stroke="#000000" stroke-width="0.7087" stroke-miterlimit="10" d="M681.3,423c-1.9-0.1-3.8-0.2-5.7-0.6
		c-0.5-0.1-1.2-0.1-1.4-0.8"/>
	<path fill="none" stroke="#000000" stroke-width="0.7087" stroke-miterlimit="10" d="M700,503.6c-0.8-2.3-1-4.8-2-7.1
		c-0.3-0.6-0.4-1.4-1.1-1.8"/>
	<path fill="none" stroke="#000000" stroke-width="0.7087" stroke-miterlimit="10" d="M677.3,459.8c-0.3-0.5-0.9-0.3-1.3-0.4
		c-2-0.5-4-0.9-6-1.4"/>
	<path fill="none" stroke="#000000" stroke-width="0.7087" stroke-miterlimit="10" d="M572.2,277.6c-0.4-0.2-0.5-0.6-0.6-0.9
		c-0.6-1.6-1.4-3.2-2.2-4.7"/>
	<path fill="none" stroke="#000000" stroke-width="0.7087" stroke-miterlimit="10" d="M616.9,391.2c0.3-2.1-0.5-3.9-1.4-5.6
		c-0.1-0.1,0-0.2,0-0.4"/>
	<path fill="none" stroke="#000000" stroke-width="0.7087" stroke-miterlimit="10" d="M564.6,291.7c-1.8-1-3.2-2.4-4.4-4
		c-0.3-0.4-0.5-0.7-1.1-0.3"/>
	<path fill="none" stroke="#000000" stroke-width="0.7087" stroke-miterlimit="10" d="M605,397.9c0.7,0.3,0.7-0.2,0.6-0.7
		c0-0.8-0.5-1.4-0.9-2c-0.7-1.2-0.9-2.6-1.9-3.6"/>
	<path fill="none" stroke="#000000" stroke-width="0.7087" stroke-miterlimit="10" d="M694.3,492.2c-2,0.5-4.1,0.3-6.1,0.2
		c-1.4-0.1-2.6-1.8-2.5-3.2c0.1-0.9,0.2-1.8,0.2-2.7c0-1.2-0.4-1.6-1.7-1.9c-0.6-0.1-1-0.6-1.3-1.2c-0.2-0.5-0.5-0.9-1.2-1
		c-0.2,0.6,0.2,1.1,0.2,1.7"/>
	<path fill="none" stroke="#000000" stroke-width="0.7087" stroke-miterlimit="10" d="M635.9,430.6c-0.8-0.4-1.5,0-2.3,0
		c-0.9,0.1-1.8,0.5-2.7,0.1c-0.5-0.2-0.9-0.3-0.9-0.9"/>
	<path fill="none" stroke="#000000" stroke-width="0.7087" stroke-miterlimit="10" d="M604.7,397.7c-0.5-1.9-1.4-3.7-2.7-5.2"/>
	<path fill="none" stroke="#000000" stroke-width="0.7087" stroke-miterlimit="10" d="M620.5,407.6c-1.6-1.6-3.4-2.9-5.2-4.2"/>
	<path fill="none" stroke="#000000" stroke-width="0.7087" stroke-miterlimit="10" d="M605.7,479.9c1.3,0.7,2.5,1.4,3.9,1.9
		c1,0.4,1.9,0.5,2.9,0.2"/>
	<path fill="none" stroke="#000000" stroke-width="0.7087" stroke-miterlimit="10" d="M688.5,531.4c-0.1-2.2-1-4.1-2.1-6
		c-0.6-1-1.2-1.9-1.7-2.9"/>
	<path fill="none" stroke="#000000" stroke-width="0.7087" stroke-miterlimit="10" d="M611.8,318.8c1.9-1.8,2.4-4.3,2.9-6.7"/>
	<path fill="none" stroke="#000000" stroke-width="0.7087" stroke-miterlimit="10" d="M675.9,543.6c-1.8-1.3-3.2-2.9-4.9-4.3"/>
	<path fill="none" stroke="#000000" stroke-width="0.7087" stroke-miterlimit="10" d="M579.2,279.9c-0.8-1.2-1.6-2.4-2.5-3.5
		c-1.2-1.3-1.6-3.1-2.6-4.5c-0.6-0.8-1.5-1.5-1.6-2.6"/>
	<path fill="none" stroke="#000000" stroke-width="0.7087" stroke-miterlimit="10" d="M651,481.5c1.4,0.6,2.3,1.8,3.5,2.7
		c0.6,0.4,1,1.1,1.8,1.1"/>
	<path fill="none" stroke="#000000" stroke-width="0.7087" stroke-miterlimit="10" d="M658,484.2c0.3-0.5,0-1-0.2-1.5
		c-0.5-1.3-1.1-2.6-1.8-3.8"/>
	<path fill="none" stroke="#000000" stroke-width="0.7087" stroke-miterlimit="10" d="M666.6,477.5c0.4,1.3,0.8,2.7,1.3,4
		c0.3,0.7,0.2,1.2-0.2,1.9c-1-0.6-1.6-1.3-1.9-2.4c-0.3-1.4-0.9-2.8-1.3-4.1"/>
	<path fill="none" stroke="#000000" stroke-width="0.7087" stroke-miterlimit="10" d="M629.4,429.7c-0.9-0.6-1.4-2.1-1-3.1
		c0.6-1.4,1.6-2.6,2.8-3.6c0.6-0.5,0.9-0.9,0.6-1.9c-0.4-1.6-1-3.1-2-4.5c-0.2-0.3-0.1-0.7-0.2-1.1"/>
	<path fill="none" stroke="#000000" stroke-width="0.7087" stroke-miterlimit="10" d="M631,429c0.8-1.9,2-3.4,4-4
		c0.1,0,0.2-0.2,0.2-0.3"/>
	<path fill="none" stroke="#000000" stroke-width="0.7087" stroke-miterlimit="10" d="M636.9,319.5c1.7-1.7,2-3.8,1.7-6"/>
	<path fill="none" stroke="#000000" stroke-width="0.7087" stroke-miterlimit="10" d="M563.9,307.9c-1.7-1.8-3.5-3.5-5.2-5.3
		c-1.1-1.1-1.3-2.7-1.5-4.2c-0.2-1.7-0.1-3.4-0.1-5.1"/>
	<path fill="none" stroke="#000000" stroke-width="0.7087" stroke-miterlimit="10" d="M630.9,422.9c-0.2-0.3-0.5-0.6-0.5-0.8
		c0.1-1.7-0.8-3-1.4-4.4"/>
	<path fill="none" stroke="#000000" stroke-width="0.7087" stroke-miterlimit="10" d="M661.9,459.4c-0.4-1.8-1.2-3.5-1.9-5.2"/>
	<path fill="none" stroke="#000000" stroke-width="0.7087" stroke-miterlimit="10" d="M564.1,288.9c0.4,0,0.8-0.1,1.2-0.2
		c1.2-0.5,1.4-1.8,0.4-2.7c-1.4-1.2-2.5-2.8-3.8-4.1"/>
	<path fill="none" stroke="#000000" stroke-width="0.7087" stroke-miterlimit="10" d="M602.1,311.6c-0.2-1-0.6-1.9-1-2.7
		c-0.4-0.8-1-1.3-2.2-1.2c-1.1,0.1-2.3,0.2-3.4-0.2c-0.6-0.2-1.3,0.5-2-0.2c-0.3-0.3-0.5-0.7-0.9-1"/>
	<path fill="none" stroke="#000000" stroke-width="0.7087" stroke-miterlimit="10" d="M633.2,420.1c-0.4-0.1-0.4-0.5-0.4-0.7
		c-0.4-1.5-0.9-2.9-2.2-3.9"/>
	<path fill="none" stroke="#000000" stroke-width="0.7087" stroke-miterlimit="10" d="M572.7,280.7c0.3-0.4-0.1-0.7-0.2-1.1
		c-0.2-0.6-0.5-1.2,0.2-1.7c0.3-0.2,0.3-0.7,0.2-1.1c-0.3-1.3-0.7-2.5-1.4-3.6c-0.6-0.9-1.3-1.8-2-2.7"/>
	<path fill="none" stroke="#000000" stroke-width="0.7087" stroke-miterlimit="10" d="M569.8,281.8c0.8-0.3,1-1,0.6-1.8
		c-0.8-1.4-1.6-2.9-2.3-4.4"/>
	<path fill="none" stroke="#000000" stroke-width="0.7087" stroke-miterlimit="10" d="M574.8,274.3c-0.8,0-1-0.8-1.4-1.2
		c-0.7-0.9-1.5-1.8-2.2-2.7"/>
	<path fill="none" stroke="#000000" stroke-width="0.7087" stroke-miterlimit="10" d="M596.7,411c1.1,0.5,2.1,1,3.2,1.5
		c0.7,0.3,1.5,0.4,2.3-0.3c-0.7-0.5-1.1-1-2-1.3c-1.2-0.3-2.3-0.9-3.3-1.5c-0.4-0.2-0.8-0.1-1.1-0.2"/>
	<path fill="none" stroke="#000000" stroke-width="0.7087" stroke-miterlimit="10" d="M637.9,466.9c2.1,0.2,2.9-1.9,2.1-3.7"/>
	<path fill="none" stroke="#000000" stroke-width="0.7087" stroke-miterlimit="10" d="M564.8,297c0.5-0.1,0.5-0.4,0.3-0.8
		c-0.2-0.6-0.7-1.2-1-1.3c-1.6-0.8-2.8-2.2-4.3-3.1c-0.1,0-0.2,0-0.3,0"/>
	<path fill="none" stroke="#000000" stroke-width="0.7087" stroke-miterlimit="10" d="M599.9,462.3c-1.5-1.2-3-2.3-4.4-3.5"/>
	<path fill="none" stroke="#000000" stroke-width="0.7087" stroke-miterlimit="10" d="M674.6,500.1c-1.6-0.9-3.1-2-4.2-3.6"/>
	<path fill="none" stroke="#000000" stroke-width="0.7087" stroke-miterlimit="10" d="M691.8,515.8c-0.3-0.3-0.7-0.5-0.7-1.1
		c0-3-0.9-5.8-2.4-8.3"/>
	<path fill="none" stroke="#000000" stroke-width="0.7087" stroke-miterlimit="10" d="M588.1,299.6c-0.4-1.2-1.5-2-2.3-2.9
		c-0.3-0.3-0.5-0.7-0.9-1"/>
	<path fill="none" stroke="#000000" stroke-width="0.7087" stroke-miterlimit="10" d="M566.2,286.2c0.4-0.5,0.2-1.2,0.7-1.8
		c0.5-0.5,0-1.2-0.4-1.6c-1-1-1.8-2.2-2.8-3.3"/>
	<path fill="none" stroke="#000000" stroke-width="0.7087" stroke-miterlimit="10" d="M556.7,415.5c-0.4-1.6-0.8-3.1-1.2-4.7"/>
	<path fill="none" stroke="#000000" stroke-width="0.7087" stroke-miterlimit="10" d="M620.2,412c-1.2-1.6-3-2.3-4.6-3.2
		c0.1-0.3,0.2-0.5,0.3-0.6c1.8,0.3,3.4,0.8,4.2,2.6"/>
	<path fill="none" stroke="#000000" stroke-width="0.7087" stroke-miterlimit="10" d="M674.4,539.7c-1.4-1.1-2.9-2.2-4.3-3.3"/>
	<path fill="none" stroke="#000000" stroke-width="0.7087" stroke-miterlimit="10" d="M566.4,284.8c-1.1-1.2-2.2-2.4-3.1-3.8"/>
	<path fill="none" stroke="#000000" stroke-width="0.7087" stroke-miterlimit="10" d="M601.6,407.3c0.4-0.5,0.6-1.2,1.7-1.2
		c-1-1.2-2.1-1.9-2.7-3"/>
	<path fill="none" stroke="#000000" stroke-width="0.7087" stroke-miterlimit="10" d="M704.2,495.7c-0.5-1.3-1.4-2.3-2.2-3.4
		c-0.2-0.3-0.4-0.6-0.6-0.9"/>
	<path fill="none" stroke="#000000" stroke-width="0.7087" stroke-miterlimit="10" d="M613.9,318.8c1.4-1.5,2-3.3,2.5-5.2"/>
	<path fill="none" stroke="#000000" stroke-width="0.7087" stroke-miterlimit="10" d="M689.5,492.3c-0.2-1.4-1.3-2.3-2.2-3.3
		c-0.2-0.2-0.2-0.4-0.3-0.5"/>
	<path fill="none" stroke="#000000" stroke-width="0.7087" stroke-miterlimit="10" d="M684.8,484.3c1.3-2.4,2.9-4.6,5.6-5.6"/>
	<path fill="none" stroke="#000000" stroke-width="0.7087" stroke-miterlimit="10" d="M595,400.9c1,0.8,2.2,1.4,3.3,2
		c0.6,0.4,2,0,2.7-0.6c0.4-0.4,1-0.6,1.5-0.9"/>
	<path fill="none" stroke="#000000" stroke-width="0.7087" stroke-miterlimit="10" d="M679.6,483.8c0.3-0.8-0.6-0.8-0.8-1.2
		c-0.7-1.3-0.8-2.8-1.1-4.2c-0.1-0.4-0.2-0.8-0.3-1.2"/>
	<path fill="none" stroke="#000000" stroke-width="0.7087" stroke-miterlimit="10" d="M591.9,450.3c0.2-1.3-0.1-2.5,0-3.8
		c0.1-1.5,0.2-3,0.5-4.4c0.7-2.6,1.3-5.2,2.3-7.8c0.9-2.4,2.7-4,4.6-5.5c0.7-0.6,1.3-1.3,1.4-2.3"/>
	<path fill="none" stroke="#000000" stroke-width="0.7087" stroke-miterlimit="10" d="M619.2,390.4c0-0.2,0-0.4-0.1-0.5
		c-1.4-1-1.5-2.6-2.1-4.1"/>
	<path fill="none" stroke="#000000" stroke-width="0.7087" stroke-miterlimit="10" d="M596.4,497.8c-1-0.8-1.3-1.9-0.9-3.6
		c0.1-0.5,0.1-0.7-0.3-0.9"/>
	<path fill="none" stroke="#000000" stroke-width="0.7087" stroke-miterlimit="10" d="M616.4,415.7c-0.5-1-1.5-1.1-2.4-1.2
		c-0.7-0.1-1.4-0.1-2.1-0.2"/>
	<path fill="none" stroke="#000000" stroke-width="0.7087" stroke-miterlimit="10" d="M595,308c1.8,1.7,4.3,1.6,6.4,2.4"/>
	<path fill="none" stroke="#000000" stroke-width="0.7087" stroke-miterlimit="10" d="M644.6,431.3c-0.7-1.1-1.6-2.1-2.3-3.2
		c-0.5-0.7-0.5-1.2,0-1.8"/>
	<path fill="none" stroke="#000000" stroke-width="0.7087" stroke-miterlimit="10" d="M581,253.4c1-1.3,1.6-2.9,3.1-3.9"/>
	<path fill="none" stroke="#000000" stroke-width="0.7087" stroke-miterlimit="10" d="M680.6,483.6c-0.5-0.3-0.8-0.6-0.9-1.3
		c-0.1-1.2-0.3-2.5-0.8-3.7"/>
	<path fill="none" stroke="#000000" stroke-width="0.7087" stroke-miterlimit="10" d="M599.6,459c-1.3-1-2.6-2-3.9-3.1"/>
	<path fill="none" stroke="#000000" stroke-width="0.7087" stroke-miterlimit="10" d="M673.9,477.6c0.3,1.2,0.6,2.3,0.9,3.5
		c0.1,0.5,0,1-0.6,1.3c-0.7-0.4-1.3-0.8-1.3-1.8c-0.1-1-0.3-2.1-0.8-3"/>
	<path fill="none" stroke="#000000" stroke-width="0.7087" stroke-miterlimit="10" d="M675.4,498.8c-1.2-0.8-2-2-2.8-3.3"/>
	<path fill="none" stroke="#000000" stroke-width="0.7087" stroke-miterlimit="10" d="M589,302.4c1-0.1,0.9-0.9,1-1.6
		c0.1-0.8-0.1-1.7-0.2-2.5"/>
	<path fill="none" stroke="#000000" stroke-width="0.7087" stroke-miterlimit="10" d="M556.9,283.8c-1.5-0.7-3.1-0.5-4.6-0.8"/>
	<path fill="none" stroke="#000000" stroke-width="0.7087" stroke-miterlimit="10" d="M638.6,436.2c-1.7,0.2-3.3-0.4-4.9-1.1"/>
	<path fill="none" stroke="#000000" stroke-width="0.7087" stroke-miterlimit="10" d="M560.5,299.7c-0.5-1.5-1.8-2.4-3.1-3.1"/>
	<path fill="none" stroke="#000000" stroke-width="0.7087" stroke-miterlimit="10" d="M669.2,499c0.9,1,1.9,1.9,3.2,2.4
		c0.5,0.2,0.9,0.2,1.2-0.2c-1.3-0.9-2.8-1.8-3.9-2.9"/>
	<path fill="none" stroke="#000000" stroke-width="0.7087" stroke-miterlimit="10" d="M597,310.4c1.8,0.1,3.3,1.3,5.1,1.3
		c0.3,0,1.1,1.7,1,2c-0.2,0.8-0.7,0.6-1.2,0.5c-1.4-0.2-2.8-0.6-4.2-1"/>
	<path fill="none" stroke="#000000" stroke-width="0.7087" stroke-miterlimit="10" d="M582.9,318.6c-0.8,0.4-0.7-0.5-1.1-0.8
		c-0.9-0.7-1.7-1.6-2.5-2.5c-0.2-0.2-0.1-0.5-0.1-0.8"/>
	<path fill="none" stroke="#000000" stroke-width="0.7087" stroke-miterlimit="10" d="M677.8,483.2c-1.6-1.6-1.2-4-2.2-5.9"/>
	<path fill="none" stroke="#000000" stroke-width="0.7087" stroke-miterlimit="10" d="M589.2,276c0.8,0.7,1.8,0.3,2.7,0.5
		c0.2-1.1-0.5-1.8-1-2.6c-0.2-0.3-0.5-0.7-0.5-1.1c0-0.6-0.3-1-0.7-1.4c-1.1-1-2.4-1.7-3.7-2.5c-1.4-0.8-2.8-0.2-4.1,0.4
		c-1.5,0.6-3,1.2-4.7,0.9c-0.9-0.2-1.7-0.9-2.7-0.7"/>
	<path fill="none" stroke="#000000" stroke-width="0.7087" stroke-miterlimit="10" d="M687.7,504.3c-0.5-1.2-1.1-2.4-2.2-3.2"/>
	<path fill="none" stroke="#000000" stroke-width="0.7087" stroke-miterlimit="10" d="M606.9,279.7c0.6-1.6,1.3-3.1,2.5-4.4"/>
	<path fill="none" stroke="#000000" stroke-width="0.7087" stroke-miterlimit="10" d="M601.6,414.3c-1.6-0.5-3.3-1-4.9-1.5"/>
	<path fill="none" stroke="#000000" stroke-width="0.7087" stroke-miterlimit="10" d="M621.2,405.5c-1.1-1-2.3-1.9-3.4-2.9"/>
	<path fill="none" stroke="#000000" stroke-width="0.7087" stroke-miterlimit="10" d="M564.4,294.9c0.6-0.7,0.2-1.7-0.7-2.4
		c-1.2-0.9-2.3-1.7-3.4-2.6"/>
	<path fill="none" stroke="#000000" stroke-width="0.7087" stroke-miterlimit="10" d="M641.8,378.1c-0.3-1.3-0.7-2.7-0.5-4.1"/>
	<path fill="none" stroke="#000000" stroke-width="0.7087" stroke-miterlimit="10" d="M601.1,402.2c-0.6-1.1-1.7-1.6-2.6-2.3
		c-0.2-0.2-0.7-0.2-0.7-0.6"/>
	<path fill="none" stroke="#000000" stroke-width="0.7087" stroke-miterlimit="10" d="M622.3,280.2c-2.2-0.4-4.3-0.6-6.5-0.1
		c-3.1,0.7-5.6,2.6-8.2,4.3c-0.7,0.5-1.4,0.7-2.2,0.9"/>
	<path fill="none" stroke="#000000" stroke-width="0.7087" stroke-miterlimit="10" d="M634,418.6c-0.5-1.2-1-2.5-1.7-3.6"/>
	<path fill="none" stroke="#000000" stroke-width="0.7087" stroke-miterlimit="10" d="M626.6,392.7c-0.1-0.2-0.1-0.5-0.2-0.7
		c-1.7,0.2-2-0.1-2.5-1.9c-0.3-1.1-1-1.9-1.6-2.9"/>
	<path fill="none" stroke="#000000" stroke-width="0.7087" stroke-miterlimit="10" d="M602.6,314.1c-1.4-1.1-3-1.6-4.6-2.3"/>
	<path fill="none" stroke="#000000" stroke-width="0.7087" stroke-miterlimit="10" d="M593.9,277.4c-0.1-1.7-1.6-2.7-1.7-4.4"/>
	<path fill="none" stroke="#000000" stroke-width="0.7087" stroke-miterlimit="10" d="M559.1,281.5c-1.5-0.5-2.9-1.2-4.6-1"/>
	<path fill="none" stroke="#000000" stroke-width="0.7087" stroke-miterlimit="10" d="M601.1,409.2c0.5-0.2,0.9-0.5,1.4-0.7
		c-0.8-1.6-2.6-1.6-4-2.4c-0.4-0.2-0.9,0.3-1.4,0.4"/>
	<path fill="none" stroke="#000000" stroke-width="0.7087" stroke-miterlimit="10" d="M590.7,303c0.6-0.2,0.9-0.5,1-1.2
		c0-0.8,0.1-1.6-0.2-2.4"/>
	<path fill="none" stroke="#000000" stroke-width="0.7087" stroke-miterlimit="10" d="M655.3,498.7c-1.1-0.9-2.4-1.5-3.3-2.7"/>
	<path fill="none" stroke="#000000" stroke-width="0.7087" stroke-miterlimit="10" d="M655.4,493.4c0.1,1,0.9,2,0.5,3.1
		c-1.2,0.6-2-0.4-2.8-1c-0.9-0.6-1.7-1.3-2.3-1.8c-1.9-0.2-2.2,1.6-3.4,2.3c-0.9-0.7-0.6-1.6-0.1-2.2c0.9-1,1.3-2,1.2-3.3"/>
	<path fill="none" stroke="#000000" stroke-width="0.7087" stroke-miterlimit="10" d="M655,505.5c0.5-0.6,0.6-1.8,0-2.1
		c-1.3-0.7-2.3-1.8-3.6-2.3"/>
	<path fill="none" stroke="#000000" stroke-width="0.7087" stroke-miterlimit="10" d="M655.2,503.5c0.4-0.5,0.3-1.6-0.3-1.9
		c-1.2-0.7-2.2-1.6-3.4-2.4"/>
	<path fill="none" stroke="#000000" stroke-width="0.7087" stroke-miterlimit="10" d="M598.9,316.8c-0.7-0.8-1.7-0.9-2.5-0.5
		c-1.2,0.6-2.5,0.3-3.6,1.1"/>
	<path fill="none" stroke="#000000" stroke-width="0.7087" stroke-miterlimit="10" d="M675.2,548c0.6-0.9,0.4-2,0.7-3
		c0.4-1.6,0.7-3.3,1.1-4.9"/>
	<path fill="none" stroke="#000000" stroke-width="0.7087" stroke-miterlimit="10" d="M623.9,390.9c-0.3,0.1-0.5,0.6-0.7,0.3
		c-0.3-0.3-0.7-0.4-0.8-0.9c-0.2-1.1-0.6-2.3-1.1-3.3"/>
	<path fill="none" stroke="#000000" stroke-width="0.7087" stroke-miterlimit="10" d="M633.5,420.8c1.5-0.4,2-1.8,2.8-3
		c0.1-0.2,0.2-0.3,0.3-0.5"/>
	<path fill="none" stroke="#000000" stroke-width="0.7087" stroke-miterlimit="10" d="M577.1,281.8c-1.2-1.5-2.8-2.4-4-3.8"/>
	<path fill="none" stroke="#000000" stroke-width="0.7087" stroke-miterlimit="10" d="M755.1,447.4c-1.4-0.1-1.6,0-1.9-1.7
		c-0.1-0.3,0-0.7-0.2-1"/>
	<path fill="none" stroke="#000000" stroke-width="0.7087" stroke-miterlimit="10" d="M655.3,501.8c0.2-0.2,0.6,0.2,0.9-0.3
		c-0.9-1.9-2.9-2.5-4.6-3.6"/>
	<path fill="none" stroke="#000000" stroke-width="0.7087" stroke-miterlimit="10" d="M642.7,412c0.7-1.4,0.6-2.1-0.4-2.9
		c-1-0.8-2-1.6-3.1-2.4"/>
	<path fill="none" stroke="#000000" stroke-width="0.7087" stroke-miterlimit="10" d="M558.5,420.2c-0.6-1-1-2-1.3-3.1"/>
	<path fill="none" stroke="#000000" stroke-width="0.7087" stroke-miterlimit="10" d="M619.7,299.7c-0.3-1.1-0.6-2.2-0.8-3.3"/>
	<path fill="none" stroke="#000000" stroke-width="0.7087" stroke-miterlimit="10" d="M626.1,391.8c-0.5-1-0.6-2.1-1-3.1"/>
	<path fill="none" stroke="#000000" stroke-width="0.7087" stroke-miterlimit="10" d="M599.7,402.7c-0.6-1.2-2-1.4-2.9-2.3"/>
	<path fill="none" stroke="#000000" stroke-width="0.7087" stroke-miterlimit="10" d="M657.6,488.2c0.2-0.3,0.2-0.7,0-1
		c-0.5-0.9-1.3-1.7-1.3-2.8c0-1-1-1.7-1.1-2.8c0-0.4-0.5-0.7-0.8-1.1"/>
	<path fill="none" stroke="#000000" stroke-width="0.7087" stroke-miterlimit="10" d="M618.4,293.3c-0.6-0.9-0.4-2.1-0.9-3"/>
	<path fill="none" stroke="#000000" stroke-width="0.7087" stroke-miterlimit="10" d="M615.4,308.8c0-1.1,0.1-2.3,0.1-3.4"/>
	<path fill="none" stroke="#000000" stroke-width="0.7087" stroke-miterlimit="10" d="M662.5,454c-0.1-0.8-0.5-1.5-0.8-2.3
		c-0.1-0.3-0.1-0.4,0.2-0.6"/>
	<path fill="none" stroke="#000000" stroke-width="0.7087" stroke-miterlimit="10" d="M657.5,510.8c-0.7-0.3-1.5-0.5-2.2-0.7
		c-1.4-0.4-2.1-1.6-2.3-3"/>
	<path fill="none" stroke="#000000" stroke-width="0.7087" stroke-miterlimit="10" d="M616.1,414c-0.2-1-1.1-1-1.8-1.2
		c-0.4-0.1-0.8-0.1-1.2-0.1"/>
	<path fill="none" stroke="#000000" stroke-width="0.7087" stroke-miterlimit="10" d="M602.5,317.3c-1-0.6-1.9-1.1-3-1.4
		c-0.9-0.2-1.5-0.8-1.8-1.7c-0.2-0.9-0.4-1.8-0.6-2.6c-0.2-0.8-0.5-1.5-0.7-2.3"/>
	<path fill="none" stroke="#000000" stroke-width="0.7087" stroke-miterlimit="10" d="M582.1,315.2c-0.9-0.8-1.9-1.5-3-2"/>
	<path fill="none" stroke="#000000" stroke-width="0.7087" stroke-miterlimit="10" d="M682.4,512.9c1.4,0.2,1.3-0.8,1.4-1.6
		c0.1-0.6,0-1.3-0.2-1.8"/>
	<path fill="none" stroke="#000000" stroke-width="0.7087" stroke-miterlimit="10" d="M643.6,407.6c-1-0.7-2-1.3-3-2"/>
	<path fill="none" stroke="#000000" stroke-width="0.7087" stroke-miterlimit="10" d="M683.6,499.8c-1.1-0.3-2.1,0.5-3.1,0.3"/>
	<path fill="none" stroke="#000000" stroke-width="0.7087" stroke-miterlimit="10" d="M669.3,532.6c-0.5-0.8-0.3-1.7-0.2-2.5
		c0.2-2.2,0-4.3,0.1-6.4c0-0.4,0.3-0.7,0.1-1"/>
	<path fill="none" stroke="#000000" stroke-width="0.7087" stroke-miterlimit="10" d="M582.5,312.4c-1-0.5-1.9-1.4-3.1-1.7"/>
	<path fill="none" stroke="#000000" stroke-width="0.7087" stroke-miterlimit="10" d="M656.7,482.9c0.1-1-0.4-1.8-0.9-2.5
		c-0.3-0.4-0.4-0.7-0.4-1.1"/>
	<path fill="none" stroke="#000000" stroke-width="0.7087" stroke-miterlimit="10" d="M620.6,390.3c-1.3-0.6-1.1-2-1.6-3
		c-0.1-0.3-0.2-0.6-0.3-0.9"/>
	<path fill="none" stroke="#000000" stroke-width="0.7087" stroke-miterlimit="10" d="M645.3,480c1.2,0.3,2.1,1.3,3.3,1.5"/>
	<path fill="none" stroke="#000000" stroke-width="0.7087" stroke-miterlimit="10" d="M680,513.6c0.3,0,0.7-0.1,1-0.2
		c0.8-0.2,1.3-0.6,1.1-1.6c-0.1-0.5-0.4-1,0-1.6"/>
	<path fill="none" stroke="#000000" stroke-width="0.7087" stroke-miterlimit="10" d="M585.6,302.8c1-0.4,1.9,0.1,3,0.3
		c0.6-0.4,0.3-1,0.2-1.6c-0.2-0.6-0.8-1-0.8-1.8"/>
	<path fill="none" stroke="#000000" stroke-width="0.7087" stroke-miterlimit="10" d="M684.7,512.8c0.4-1,0-1.9-0.2-2.9"/>
	<path fill="none" stroke="#000000" stroke-width="0.7087" stroke-miterlimit="10" d="M560.5,279.1c-1-0.4-2-1-3.1-0.9"/>
	<path fill="none" stroke="#000000" stroke-width="0.7087" stroke-miterlimit="10" d="M603,316.1c-0.7-0.8-2-0.9-2.5-2"/>
	<path fill="none" stroke="#000000" stroke-width="0.7087" stroke-miterlimit="10" d="M603,418.1c-0.6-0.8-1.3-1.5-2.4-1.6
		c-0.8-0.1-1.5-0.4-2.3-0.7"/>
	<path fill="none" stroke="#000000" stroke-width="0.7087" stroke-miterlimit="10" d="M579.4,312.2c-0.6,0.7-0.5,1.4-0.3,2.3
		c1.1,0.2,1.8,1.4,3,1.6"/>
	<path fill="none" stroke="#000000" stroke-width="0.7087" stroke-miterlimit="10" d="M600.6,423.8c0.9,0.2,1.8,0.7,2.8,0.6
		c0.2-0.8-0.1-0.9-0.8-1.1c-0.9-0.2-1.8-0.3-2.6-0.8"/>
	<path fill="none" stroke="#000000" stroke-width="0.7087" stroke-miterlimit="10" d="M579.4,306.7c0.2-0.6,0.4-1.1,1.1-1.4
		c0.3-0.1,0.5-0.5,0.7-0.8"/>
	<path fill="none" stroke="#000000" stroke-width="0.7087" stroke-miterlimit="10" d="M620.6,412.6c0-0.3-0.5-0.4-0.2-0.8
		c0-0.1,0.1-0.1,0.2,0c1.6,0.5,1.8,1.3,3.9-1.6"/>
	<path fill="none" stroke="#000000" stroke-width="0.7087" stroke-miterlimit="10" d="M578.4,251.4c0.6-0.9,1.2-1.7,1.8-2.6"/>
	<path fill="none" stroke="#000000" stroke-width="0.7087" stroke-miterlimit="10" d="M650.3,501.9c0.8,1.3,1.2,2.7,1.8,4.1
		c0.5,1,1.3,1.3,2.3,0.9c0.8-0.4,0.5-0.9,0.2-1.4c-0.7-1-1.6-1.9-2.7-2.5"/>
	<path fill="none" stroke="#000000" stroke-width="0.7087" stroke-miterlimit="10" d="M582.3,313.7c-0.8-0.5-1.5-1-2.3-1.4
		c-0.3-0.2-0.6-0.3-0.7-0.6c-0.3-0.5,0.4-3,1-3.5"/>
	<path fill="none" stroke="#000000" stroke-width="0.7087" stroke-miterlimit="10" d="M678.6,497.2c-0.6-0.7-0.7-1.6-0.6-2.5"/>
	<path fill="none" stroke="#000000" stroke-width="0.7087" stroke-miterlimit="10" d="M593.9,325.8c0.7-0.3,1.3-0.5,2-0.8
		c0.1-0.1,0.2-0.2,0.3-0.4c-0.2-0.2-0.3-0.4-0.5-0.5"/>
	<path fill="none" stroke="#000000" stroke-width="0.7087" stroke-miterlimit="10" d="M582.8,311.3c-0.9-0.5-1.7-1.2-2.7-1.5"/>
	<path fill="none" stroke="#000000" stroke-width="0.7087" stroke-miterlimit="10" d="M620.8,390.2c0.2-0.9-0.4-1.6-0.3-2.5"/>
	<path fill="none" stroke="#000000" stroke-width="0.7087" stroke-miterlimit="10" d="M636,430.5c0.5,0.6,1.1,0.6,1.6,0.1
		c0.4-0.4,0.8-0.6,1.3-0.8c0.9-0.3,1.7-0.8,2.2-1.6c0.2-0.3,0.4-0.4,0.7-0.5"/>
	<path fill="none" stroke="#000000" stroke-width="0.7087" stroke-miterlimit="10" d="M592.8,303.6c0.4-0.9,0.6-1.8,0.6-2.7"/>
	<path fill="none" stroke="#000000" stroke-width="0.7087" stroke-miterlimit="10" d="M595,276.2c-0.7-0.6-1-1.3-0.9-2.2"/>
	<path fill="none" stroke="#000000" stroke-width="0.7087" stroke-miterlimit="10" d="M675.9,504.4c0-0.2,0.1-0.6,0-0.6
		c-1-0.4-2-0.8-3.1-0.8"/>
	<path fill="none" stroke="#000000" stroke-width="0.7087" stroke-miterlimit="10" d="M602,399.8c-1,0.1-1.8-0.3-2.5-1"/>
	<path fill="none" stroke="#000000" stroke-width="0.7087" stroke-miterlimit="10" d="M688,518.5c0.2-1.6-0.1-3-1.3-4.1"/>
	<path fill="none" stroke="#000000" stroke-width="0.7087" stroke-miterlimit="10" d="M582.3,317.6c0.2-0.9-0.1-1.8,0.1-2.7
		c0.3-1.3,0.5-2.7,0.8-4c0.2-0.7-0.1-1.1-0.5-1.4c-0.5-0.4-1.1-0.7-1.7-1c-0.9-0.4-1.1-0.9-0.6-1.7"/>
	<path fill="none" stroke="#000000" stroke-width="0.7087" stroke-miterlimit="10" d="M608.2,397c-0.2-0.8-1.1-1-1.6-1.6"/>
	<path fill="none" stroke="#000000" stroke-width="0.7087" stroke-miterlimit="10" d="M600.2,421.5c1,0.2,1.9,0.6,2.9,0.6
		c0.3-0.8-0.3-0.9-0.8-1.1c-0.8-0.3-1.6-0.5-2.4-0.8"/>
	<path fill="none" stroke="#000000" stroke-width="0.7087" stroke-miterlimit="10" d="M655.3,500c0.6-1.1,0.4-2.1-0.2-3.2"/>
	<path fill="none" stroke="#000000" stroke-width="0.7087" stroke-miterlimit="10" d="M601.9,318.4c-0.8-0.5-1.6-0.9-2.4-1.4"/>
	<path fill="none" stroke="#000000" stroke-width="0.7087" stroke-miterlimit="10" d="M677,497.2c0-0.7-0.7-1.3-0.5-2.1"/>
	<path fill="none" stroke="#000000" stroke-width="0.7087" stroke-miterlimit="10" d="M689,515.5c-0.3-1.1-1.1-1.8-1.9-2.6"/>
	<path fill="none" stroke="#000000" stroke-width="0.7087" stroke-miterlimit="10" d="M677.9,525.8c-0.6-0.5-1.3-0.8-1.4-1.6"/>
	<path fill="none" stroke="#000000" stroke-width="0.7087" stroke-miterlimit="10" d="M565.5,306.5c-0.3-0.6-0.9-1.1-0.9-1.8"/>
	<path fill="none" stroke="#000000" stroke-width="0.7087" stroke-miterlimit="10" d="M686.8,516.9c-0.3-0.6-0.7-1.2-1-1.8"/>
	<path fill="none" stroke="#000000" stroke-width="0.7087" stroke-miterlimit="10" d="M664.3,457.5c-0.6-0.4-0.7-1.2-1-1.8"/>
	<path fill="none" stroke="#000000" stroke-width="0.7087" stroke-miterlimit="10" d="M654.8,482.1c-0.6-0.5-1.3-0.9-1.9-1.4"/>
	<path fill="none" stroke="#000000" stroke-width="0.7087" stroke-miterlimit="10" d="M650.6,496.2c-0.6-0.6-1.4-0.8-2.2-1"/>
	<path fill="none" stroke="#000000" stroke-width="0.7087" stroke-miterlimit="10" d="M582.9,309.5c0.8-0.5,0.1-1.2,0.2-1.8
		c-0.6-0.7-1.6-0.3-2.3-0.9"/>
	<path fill="none" stroke="#000000" stroke-width="0.7087" stroke-miterlimit="10" d="M643,409.7c1.1-0.9,0.9-2.3,1-3.4
		c0-0.5,0.2-0.8,0.5-1.1"/>
	<path fill="none" stroke="#000000" stroke-width="0.7087" stroke-miterlimit="10" d="M577.2,284c0.7-0.6-0.1-1.3,0.1-2"/>
	<path fill="none" stroke="#000000" stroke-width="0.7087" stroke-miterlimit="10" d="M627,391.7c-0.2-0.6-0.4-1.1-0.6-1.7"/>
	<path fill="none" stroke="#000000" stroke-width="0.7087" stroke-miterlimit="10" d="M573.1,281.9c-0.3-1.2-1.4-1-2.2-1.3"/>
	<path fill="none" stroke="#000000" stroke-width="0.7087" stroke-miterlimit="10" d="M623.9,389c0.2-0.7-0.3-1.2-0.5-1.8"/>
	<path fill="none" stroke="#000000" stroke-width="0.7087" stroke-miterlimit="10" d="M609.3,281.4c0.4-0.7,0.7-1.4,1.1-2.1"/>
	<path fill="none" stroke="#000000" stroke-width="0.7087" stroke-miterlimit="10" d="M634.5,382.3c0.2-0.7,0.7-1.2,1-1.9"/>
	<path fill="none" stroke="#000000" stroke-width="0.7087" stroke-miterlimit="10" d="M674.9,481.8c0.3,0.2,0.7,0.5,1,0.5
		c0.5-0.1,0.4-0.6,0.7-0.8"/>
	<path fill="none" stroke="#000000" stroke-width="0.7087" stroke-miterlimit="10" d="M602.2,418.3c0.4,1.2,0.3,1.3-0.8,1.1
		c-0.4,0-0.7-0.4-1.1-0.1"/>
	<path fill="none" stroke="#000000" stroke-width="0.7087" stroke-miterlimit="10" d="M676.3,541.5c-0.4-0.4-0.8-0.9-1.2-1.3"/>
	<path fill="none" stroke="#000000" stroke-width="0.7087" stroke-miterlimit="10" d="M621.6,420.6c0.2-0.8-0.6-0.9-0.9-1.5"/>
	<path fill="none" stroke="#000000" stroke-width="0.7087" stroke-miterlimit="10" d="M632.1,421.6c0.6-0.1,0.9-0.4,1.1-1.1
		c0.4-1.3,1.4-2.4,1.8-3.7c0.2-0.7,0.4-1.1-0.1-1.7"/>
	<path fill="none" stroke="#000000" stroke-width="0.7087" stroke-miterlimit="10" d="M638.3,418.3c-0.6,0-1.2-0.1-1.9-0.1"/>
	<path fill="none" stroke="#000000" stroke-width="0.7087" stroke-miterlimit="10" d="M602.6,417.8c-0.2,0.2-0.4,0.6-0.8,0.5
		c-0.6-0.2-1.2-0.4-1.8-0.6"/>
	<path fill="none" stroke="#000000" stroke-width="0.7087" stroke-miterlimit="10" d="M564.7,299.7c-0.2-0.4-0.4-0.4-0.7-0.2
		c-0.1,0.3,0.1,0.5,0.2,0.7c0.1,0.5,0.4,1-0.1,1.3c-0.5,0.3-1.1,0.6-1.7,0.2c-0.3-0.1-0.5-0.3-0.7-0.5c-0.8-1-2-1.4-3-2.1"/>
	<path fill="none" stroke="#000000" stroke-width="0.7087" stroke-miterlimit="10" d="M634.8,416.8c-0.4-0.3-0.4-1.1-0.9-1.3"/>
	<path fill="none" stroke="#000000" stroke-width="0.7087" stroke-miterlimit="10" d="M643.5,413.4c-0.5,0.2-1.1-0.2-1.5,0.4"/>
	<path fill="none" stroke="#000000" stroke-width="0.7087" stroke-miterlimit="10" d="M586,276.4c-0.1,0.3-0.2,0.5-0.3,0.8
		c-0.6-0.1-0.9-0.8-1.7-0.7"/>
	<path fill="none" stroke="#000000" stroke-width="0.7087" stroke-miterlimit="10" d="M669.9,482.1c-0.2,0.3,0.1,0.7-0.4,1.1
		c-0.5,0.2-0.6-0.8-1.2-0.9"/>
	<path fill="none" stroke="#000000" stroke-width="0.7087" stroke-miterlimit="10" d="M577.4,280.5c0.7-0.3,0.1-0.9,0.4-1.3"/>
	<path fill="none" stroke="#000000" stroke-width="0.7087" stroke-miterlimit="10" d="M643.9,405.7c-0.4-0.3-0.9-0.6-1.3-0.9"/>
	<path fill="none" stroke="#000000" stroke-width="0.7087" stroke-miterlimit="10" d="M685.3,513.1c-0.7-0.2-1.4,0.1-2.1-0.3"/>
	<path fill="none" stroke="#000000" stroke-width="0.7087" stroke-miterlimit="10" d="M636.8,417.1c-0.3-0.5-0.6-1-1.3-1.2"/>
	<path fill="none" stroke="#000000" stroke-width="0.7087" stroke-miterlimit="10" d="M603.5,286.9c-0.4-0.2-0.3-0.8-0.8-1
		c-0.2-0.1-0.2,0.1-0.2,0.1"/>
	<path fill="none" stroke="#000000" stroke-width="0.7087" stroke-miterlimit="10" d="M579.8,277.8c0.4-0.1,0.5,0.4,0.8,0.4
		c0.9-0.4-0.1-1.1,0.2-1.7"/>
	<path fill="none" stroke="#000000" stroke-width="0.7087" stroke-miterlimit="10" d="M680.9,484.5c-0.4-0.8,0-1.4,0.7-1.8"/>
	<path fill="none" stroke="#000000" stroke-width="0.7087" stroke-miterlimit="10" d="M593.8,276.7c0.3,0.1,0.7,0.2,1.1,0.3
		c0.1-0.5,0.8-1,0.2-1.6"/>
	<path fill="none" stroke="#000000" stroke-width="0.7087" stroke-miterlimit="10" d="M604.6,398.1c-0.1,0.3-0.2,0.5-0.4,0.8
		c-0.3-0.2-0.6-0.5-0.9-0.8"/>
	<path fill="none" stroke="#000000" stroke-width="0.7087" stroke-miterlimit="10" d="M603.2,425.2c-0.3,0.3-0.7,0-1,0"/>
	<path fill="none" stroke="#000000" stroke-width="0.7087" stroke-miterlimit="10" d="M612.4,393.2c-0.3-0.5-0.8-0.7-1.2-1.1"/>
	<path fill="none" stroke="#000000" stroke-width="0.7087" stroke-miterlimit="10" d="M601.8,416.7c0.5-0.5-0.1-0.8-0.1-1.2"/>
	<path fill="none" stroke="#000000" stroke-width="0.7087" stroke-miterlimit="10" d="M622,391.8c-0.1-0.4,0.4-0.6,0.4-0.9"/>
	<path fill="none" stroke="#000000" stroke-width="0.7087" stroke-miterlimit="10" d="M665.1,483.3c0.2,0.1,0.4,0.2,0.7,0.4
		c0.4-0.2,0.1-0.7,0.3-1.1"/>
	<path fill="none" stroke="#000000" stroke-width="0.7087" stroke-miterlimit="10" d="M618.2,391.3c-0.2-0.5-0.3-1-0.9-1.2"/>
	<path fill="none" stroke="#000000" stroke-width="0.7087" stroke-miterlimit="10" d="M661.2,486.2c-0.1-0.6-0.5-0.8-1.1-1"/>
</g>
</svg>
