<?xml version="1.0" encoding="utf-8"?>
<!-- Generator: Adobe Illustrator 18.0.0, SVG Export Plug-In . SVG Version: 6.00 Build 0)  -->
<!DOCTYPE svg PUBLIC "-//W3C//DTD SVG 1.0//EN" "http://www.w3.org/TR/2001/REC-SVG-20010904/DTD/svg10.dtd">
<svg version="1.0" id="Layer_1" xmlns="http://www.w3.org/2000/svg" xmlns:xlink="http://www.w3.org/1999/xlink" x="0px" y="0px"
	 width="1280px" height="800px" viewBox="0 0 1280 800" enable-background="new 0 0 1280 800" xml:space="preserve">
<g>
	
		<path fill="none" stroke="#000000" stroke-width="0.7087" stroke-linecap="round" stroke-linejoin="round" stroke-miterlimit="10" d="
		M596.2,359.5c2.8,3.4,6.4,3.7,10.4,2.9c3.3-0.6,6.6-1,9.4-3.2c4.2-3.3,6.7-7.3,6.3-12.8c-0.2-3.1-0.1-6,0.9-9.1
		c1.2-3.7,1.5-7.7-0.3-11.5c-0.7-1.6-2.3-2.3-3-3.9c-1.2-2.8-3.7-3.9-6.3-4.3c-2.9-0.5-4.2-2.8-5.7-4.7c-2.9-3.7-5.8-7.3-10.9-7.9
		c-1.4-0.2-2.5-0.9-3.6-1.9c-3.7-3.4-7.7-5.6-13.1-4.5c-3.5,0.7-7.2,0.1-10.8,0c-1.6,0-2.9-0.9-3.4-2.4c-0.3-0.9-1.2-1-1.7-1.6"/>
	
		<path fill="none" stroke="#000000" stroke-width="0.7087" stroke-linecap="round" stroke-linejoin="round" stroke-miterlimit="10" d="
		M623.9,476.3c-3.4,3.8-5.2,7.9-3.8,13.1c0.2,0.8-0.1,1.7-0.3,2.6c-0.7,3.3,0.1,6.3,2.1,8.9c0.7,1,0.9,2,1,3.2
		c0.2,2.8,0.9,5.4,2.7,7.6c0.4,0.5,0.8,0.8,1.2,1.1c1.6,1.5,3.2,3,3.9,5.2c1,2.9,3.1,4.9,5.7,6.3c1.4,0.7,2.4,1.6,3.1,3.1
		c1.1,2.4,2.8,4.6,5.2,5.8c3,1.4,4.3,3.5,4,6.7c0,0.5,0.1,0.9,0.7,1.2c0.3-0.2,0.8-0.3,1-0.6c2.7-4.1,6.9-7,8.7-11.7
		c1.6-4.1,4.3-7.1,7.4-9.8c2.5-2.2,3.7-5.2,3.8-8c0.1-3.7,0.7-7.4,0.7-11.2c0-1.6-0.4-3.1-1.2-4.6c-0.7-1.2-1.1-2.5-0.8-4.2
		c0.7-3.5-0.4-6.8-2.5-9.7c-1.3-1.9-2.6-3.8-5.2-4.3c-0.8-0.2-1.3-1.5-2.3-1.9"/>
	
		<path fill="none" stroke="#000000" stroke-width="0.7087" stroke-linecap="round" stroke-linejoin="round" stroke-miterlimit="10" d="
		M666.4,475.6c1.3,3.9,2.5,7.9,5.8,10.7c3.4,2.8,7,5.1,11.8,4.1c2-0.4,3.8,0.1,5.7,1c3,1.4,6.4,0.7,9.5-0.1c2.1-0.6,4.1-1,6.4-0.2
		c2.2,0.7,4.6,0.1,6.4-1.6c1.2-1.1,2.4-2.1,3.3-3.5c0.3-0.6,1-1.2,1.6-1.3c7.4-0.2,11.5-5.3,15.7-10.3c2.1-2.5,4.5-4.6,6.7-7
		c1.1-1.2,2.5-2,3.7-3.1"/>
	
		<path fill="none" stroke="#000000" stroke-width="0.7087" stroke-linecap="round" stroke-linejoin="round" stroke-miterlimit="10" d="
		M558.5,338.3c-1-0.3-1.6-1.1-1.9-2c-6.7-15.2-12.2-30.6-14.8-47.1c-1.5-9.6-3.3-19.1-4.1-28.8c-0.1-1.3-0.7-2.9,1.3-3.6"/>
	
		<path fill="none" stroke="#000000" stroke-width="0.7087" stroke-linecap="round" stroke-linejoin="round" stroke-miterlimit="10" d="
		M535.3,499.1c1.1,0.8,1.9,0.2,2.8-0.5c3.6-2.6,7.6-3.6,12-3.6c3.8,0,7.4,0,10.9-2c2.7-1.6,5-3.6,7-5.9c1.1-1.3,2.2-2.3,4-2.5
		c3.9-0.5,6.9-2.2,8.9-5.6c1.3-2.1,3.6-3.2,5.6-4.4c2.3-1.4,3.6-3.5,4.5-5.9c0.3-0.7,0.5-1.2,1.2-1.4"/>
	
		<path fill="none" stroke="#000000" stroke-width="0.7087" stroke-linecap="round" stroke-linejoin="round" stroke-miterlimit="10" d="
		M570.5,374.6c-3.3-0.5-4.9-3.3-6.9-5.4c-3.2-3.3-4.5-7.3-3.9-11.9c0.4-3.1-1.4-5.7-2.1-8.6c-0.6-2.2-0.2-4.2,0.5-6.3
		c0.7-2.2,1.3-4.4,1.8-6.6c0.9-3.8-0.1-7.1-2-10.6c-1.9-3.5-2.6-7.6-3.9-11.4c-2.8-8.2-3.8-16.9-5.9-25.3c-2.2-9-3-18.1-4.1-27.2
		c-0.1-0.6,0-1.2,0-1.9c-1-0.1-2-1-3.3-0.3"/>
	
		<path fill="none" stroke="#000000" stroke-width="0.7087" stroke-linecap="round" stroke-linejoin="round" stroke-miterlimit="10" d="
		M535,499.4c0-1.3,1.2-1.7,2-2.2c4-2.4,5.6-6.3,6.6-10.6c0.1-0.5,0.1-1,0.5-1.5c1.7-2.5,2.1-5.2,1.6-8.3c-0.5-2.9,0.3-5.7,2-8.3
		c1.5-2.3,1.4-5.1,1-7.7c-0.6-4.3,0-8.4,1.9-12.3c0.1-0.2,0.1-0.4,0.2-0.5c3.9-2.4,4.3-6.5,5.2-10.4c0.6-2.5,2-4.5,3.7-6.3
		c1.9-1.9,3.5-4.1,5.6-5.8c3.6-2.8,7.9-4,12.4-4.4"/>
	
		<path fill="none" stroke="#000000" stroke-width="0.7087" stroke-linecap="round" stroke-linejoin="round" stroke-miterlimit="10" d="
		M740.4,465.7c-3.3-1.6-6.9-2.6-9.4-5.5c-1.1-1.4-2-2.9-3.4-4c-0.6-0.5-1.1-1.3-1.8-1.4c-3.1-0.7-4.4-3-5.9-5.5
		c-1.9-3.3-5-5.3-9.1-5.2c-1.3-4.9-4.7-7.8-9.3-9.4c-0.9-0.3-2-0.8-2.7-0.4c-2.5,1.3-4.4-0.1-6.2-1.4c-3.5-2.5-7-3.1-10.7-0.6
		c-0.8,0.5-1.7,0.9-2.6,0.6c-5-1.5-8.9,0.5-12.3,3.9"/>
	
		<path fill="none" stroke="#000000" stroke-width="0.7087" stroke-linecap="round" stroke-linejoin="round" stroke-miterlimit="10" d="
		M632.7,455.9c-0.5-4.1-2-7.9-3.9-11.4c-1.3-2.4-3.8-4.2-6.2-5.8c-4-2.6-7.1-6.3-10.3-9.8c-2.1-2.3-4.5-4.4-6.1-7.2
		c-0.3-0.5-0.3-1-0.5-1.5"/>
	
		<path fill="none" stroke="#000000" stroke-width="0.7087" stroke-linecap="round" stroke-linejoin="round" stroke-miterlimit="10" d="
		M609.7,417.6c7.9-6.2,10-12.7,4.8-22c-1.3-2.3-3.7-3.6-6.7-3.7c-3.3-0.1-6.6,0-9.9-0.4c-2.5-0.3-5.1,0.1-7.3,1.7
		c-1.4,1.1-2.5,0.4-3.6-0.6c-2.7-2.8-4.8-6.1-6.6-9.6"/>
	
		<path fill="none" stroke="#000000" stroke-width="0.7087" stroke-linecap="round" stroke-linejoin="round" stroke-miterlimit="10" d="
		M630.1,364.8c-2,0.5-3.6,1.8-5,3.1c-9.7,9.1-23.8,9.3-34.5,3.3c-0.8-0.4-2.1-0.2-2.3-1.6"/>
	
		<path fill="none" stroke="#000000" stroke-width="0.7087" stroke-linecap="round" stroke-linejoin="round" stroke-miterlimit="10" d="
		M629.3,362.4c-2.9,0.9-4.8,3.2-7.1,4.8c-9,6-18.5,7.2-28.6,3.4c-1.3-0.5-2.5-1.4-3.7-2.1"/>
	
		<path fill="none" stroke="#000000" stroke-width="0.7087" stroke-linecap="round" stroke-linejoin="round" stroke-miterlimit="10" d="
		M698.7,360.9c-0.4,0.4-1,0.1-1.3,0c-5.7-2.6-11-0.5-16,1.9c-6.8,3.1-13.8,5.3-21.2,6c-2.4,0.2-4.3-0.9-6.4-1.4
		c-3.9-0.9-7.6-2.9-11.8-3.2c-0.1,0-0.2-0.2-0.3-0.3"/>
	
		<path fill="none" stroke="#000000" stroke-width="0.7087" stroke-linecap="round" stroke-linejoin="round" stroke-miterlimit="10" d="
		M688.2,344.3c-5.5,2.4-11.1,4.3-16.9,6.1c-5.1,1.6-10.1,3.1-15.4,4.1c-2.5,0.5-4.5,1.9-6.3,3.7"/>
	
		<path fill="none" stroke="#000000" stroke-width="0.7087" stroke-linecap="round" stroke-linejoin="round" stroke-miterlimit="10" d="
		M649.4,339.7c0.6-0.1,1.3,0.2,1.8-0.5c2-2.7,5.1-3.1,8.1-3.6c5.3-0.9,10.5-1.8,15.6-3.8c4.3-1.7,7.8-4.3,9.9-8.6"/>
	
		<path fill="none" stroke="#000000" stroke-width="0.7087" stroke-linecap="round" stroke-linejoin="round" stroke-miterlimit="10" d="
		M642.6,446c-3.8-1.8-7.3-4.2-10.7-7.7c4.3-0.4,7.4-2.2,10.2-4.5c5.9-4.8,9.9-10.7,10.7-18.4c0.1-0.7,0.2-1.3,0.3-1.9"/>
	
		<path fill="none" stroke="#000000" stroke-width="0.7087" stroke-linecap="round" stroke-linejoin="round" stroke-miterlimit="10" d="
		M659.6,408.9c3-2.6,3.1-7.4,0.5-11.2c-1.7-2.4-3.9-4.4-6.2-6.1c-1.9-1.4-3.4-3.1-5.1-4.9c-0.7,0-1.3,0.5-1.2,1.5
		c0.2,2.7-1.6,4.5-2.8,6.6c-2.2,3.9-4.1,8.1-2.8,12.6c0.6,2.3,2.2,4.5,4.4,5.9c1.4,0.9,2.5,0,3.7-0.2c0.8-0.1,1.5-0.7,2.6-0.1
		c1.3,0.7,2.9-0.2,3.8-1.3c0.9-1,2-1.7,2.8-2.7"/>
	
		<path fill="none" stroke="#000000" stroke-width="0.7087" stroke-linecap="round" stroke-linejoin="round" stroke-miterlimit="10" d="
		M559.1,326.3c1.5-3,2.2-6.3,4.4-8.9c0.3-5.9,3.9-11.6,0.8-17.7c-1-1.9-0.4-3.9-0.3-5.9"/>
	
		<path fill="none" stroke="#000000" stroke-width="0.7087" stroke-linecap="round" stroke-linejoin="round" stroke-miterlimit="10" d="
		M633.2,435.6c1.8,0.7,3.3-0.6,4.5-1.4c4.8-3.2,8.9-7.1,11-12.6c1-2.5,1.8-5.2,0.5-7.9"/>
	
		<path fill="none" stroke="#000000" stroke-width="0.7087" stroke-linecap="round" stroke-linejoin="round" stroke-miterlimit="10" d="
		M611,476.6c0.3,0.1,0.6,0,0.8,0.2c2.4,2,2.8,2,3.6-1.3c1.9-8.2,2-16.4-1.1-24.5c-0.2-0.4-0.2-0.9-0.3-1.3"/>
	
		<path fill="none" stroke="#000000" stroke-width="0.7087" stroke-linecap="round" stroke-linejoin="round" stroke-miterlimit="10" d="
		M659.2,372.6c-2.5-2.9-5.4-1.8-8.3-0.8c-6.9,2.4-15.9-0.2-19.9-6.3c-1.7-2.6-2-5.6-1.3-8.7c1.6-7.8,7.3-11.9,13.9-14.9
		c1.6-0.7,3.7-0.9,5.3-1.9"/>
	
		<path fill="none" stroke="#000000" stroke-width="0.7087" stroke-linecap="round" stroke-linejoin="round" stroke-miterlimit="10" d="
		M650,469.9c-0.4,0.3-0.8,0.7-0.6,1.3c0.8,3.3-1,5.8-2.9,8.1c-1,1.2-1.5,2.6-2.2,4c-1.5,3.2-3.6,6-6.3,8.3c-0.9,0.8-2.4,0.8-2.8-0.3
		c-0.7-2-2.4-2.9-3.7-4.1c-1.7-1.6-2.8-3.6-4.5-5.3c-1-1.1-0.5-2.7-0.8-4c-0.3-1.3-0.4-2.5-1.5-3.4c-0.7-0.5-0.8-1.4-0.8-2.1
		c-0.1-3.9,0.3-7.7,2.3-11.2c0.8-1.3,1.6-2.2,3-2.9c2-1,3.7-2.4,5.7-3.3c1.4-0.7,3-0.1,4.5,0.3"/>
	
		<path fill="none" stroke="#000000" stroke-width="0.7087" stroke-linecap="round" stroke-linejoin="round" stroke-miterlimit="10" d="
		M651.1,532.9c-0.4-1.1-0.4-2.2-0.2-3.4c1.1-8.7,0.1-17.3-1.5-25.9c-1.1-5.8-2.9-11.4-4.3-17.2c-0.2-0.7-0.3-1.5-1.1-1.8"/>
	
		<path fill="none" stroke="#000000" stroke-width="0.7087" stroke-linecap="round" stroke-linejoin="round" stroke-miterlimit="10" d="
		M609.2,479.3c1.7-0.5,1.5-2.1,1.6-3.2c0.2-9.4-0.4-18.7-4.1-27.6c-0.4-0.9-0.8-1.3-1.5-1.8"/>
	
		<path fill="none" stroke="#000000" stroke-width="0.7087" stroke-linecap="round" stroke-linejoin="round" stroke-miterlimit="10" d="
		M692.4,467c-1.4-0.3-2.9-0.1-4.4-0.4c-1.7-0.4-3.1,0.8-4.5,1.6c-2.7,1.7-5.2,3.7-8.8,2.6c-0.8-0.2-1.9,0.4-2.2,1.3
		c-0.4,1.3-1.3,1.7-2.5,2.1c-3.6,1.4-6.8,0.3-9.7-1.7c-0.5-0.3-0.7-0.7-1.5-0.5c-3.6,0.7-6.8-0.2-9.2-3c-0.4-0.5-0.9-0.5-1.3-0.6
		c-5.4-1.8-8.7-7.4-8.1-13.3c0.2-2.3,0.7-4.2,2.8-5.3"/>
	
		<path fill="none" stroke="#000000" stroke-width="0.7087" stroke-linecap="round" stroke-linejoin="round" stroke-miterlimit="10" d="
		M668.5,340.7c-6.4,0.7-12.3,3.2-18.3,5.3c-1.7,0.6-3.8,0.8-4.4,3.1"/>
	
		<path fill="none" stroke="#000000" stroke-width="0.7087" stroke-linecap="round" stroke-linejoin="round" stroke-miterlimit="10" d="
		M675.8,359c-7.2,2.3-14.2,5-21.9,5.3c-1,0-2,0.4-2.9-0.3"/>
	
		<path fill="none" stroke="#000000" stroke-width="0.7087" stroke-linecap="round" stroke-linejoin="round" stroke-miterlimit="10" d="
		M629.6,436.9c1.3,0,2.8,0.2,3.6-1.6c-2.2-0.5-4.5-0.2-6.2-1.7c-1.6-1.4-3.5-1.7-5.4-2.4c-4-1.4-6-5-8.5-8c-1.2-1.5-2.7-3-3.7-4.8"
		/>
	
		<path fill="none" stroke="#000000" stroke-width="0.7087" stroke-linecap="round" stroke-linejoin="round" stroke-miterlimit="10" d="
		M615,448.6c0.6-3-1.1-5.4-2.2-7.9c-1.6-4-5-5.8-9.2-6c-1-0.1-2-0.1-3-0.1"/>
	
		<path fill="none" stroke="#000000" stroke-width="0.7087" stroke-linecap="round" stroke-linejoin="round" stroke-miterlimit="10" d="
		M673,353.7c-3.6,0.3-6.7,2-10.1,2.9c-3.5,0.9-7.1,1.6-10.7,2.3c-1.4,0.3-2.5-0.4-3.7-0.8"/>
	
		<path fill="none" stroke="#000000" stroke-width="0.7087" stroke-linecap="round" stroke-linejoin="round" stroke-miterlimit="10" d="
		M596.4,420.2c0.1,0.8,1,1.6,0.2,2.4c-1.2,1.1-2.4,2.4-3.9,2.5c-2.8,0.1-5.9,0.2-8.4-1.5c-2.9-2.1-5.4-4.7-6.7-8.1
		c-0.6-1.5-1.2-2.5-2.7-3.2c-2.2-1.1-2.9-3.5-3.5-5.5c-0.8-2.7-2.3-4.2-5-4.8c0.1-1.3,1.1-1.4,2-1.7c3.3-1.4,7-1.6,10.2-3.2
		c2.9-1.4,6.1-2.1,9-3.6"/>
	
		<path fill="none" stroke="#000000" stroke-width="0.7087" stroke-linecap="round" stroke-linejoin="round" stroke-miterlimit="10" d="
		M673.3,346.2c-5.6,2-11.4,3.2-17,5.3c-1.6,0.6-2.9,1.7-4.7,1.9"/>
	
		<path fill="none" stroke="#000000" stroke-width="0.7087" stroke-linecap="round" stroke-linejoin="round" stroke-miterlimit="10" d="
		M603.4,482.9c-2.3-3-4.5-6.1-7-8.9c-3.5-3.9-4.7-8.6-5.1-13.6c-0.2-1.8-0.5-3.5-1.1-5.2c-1.3-3.9-1.7-8.2,0.6-12.1
		c1.6-2.6,2.7-5.7,6-7"/>
	
		<path fill="none" stroke="#000000" stroke-width="0.7087" stroke-linecap="round" stroke-linejoin="round" stroke-miterlimit="10" d="
		M658.4,453.1c-1.4-2.1-3.9-2-5.9-2.9c-2.6-1.1-5.1-2.6-7.9-3.2c-0.5-0.1-1-0.6-1.4-0.9c0.9-1.8,0.3-3.8,1.2-5.7
		c1.7-3.9,3.5-5.4,7.5-5.9c1.8-0.2,3.6-1,5.5-1.3c2.9-0.4,5.3,0.3,7.5,2.2c1.6,1.4,3.2,2.6,5.6,3c3,0.6,5.5,3,6.4,6.4
		c0.3,1.1,0.4,2.2,0.7,3.2c4.4,0.7,6.1,4.2,7.4,7.8c1.1,2.9,2.5,5,5.8,6.3c8.8,3.3,17.9,5.1,26.9,7c3.4,0.7,6.8,0.2,10.2-0.8
		c2.2-0.6,4.4-1.2,6.6-1.8"/>
	
		<path fill="none" stroke="#000000" stroke-width="0.7087" stroke-linecap="round" stroke-linejoin="round" stroke-miterlimit="10" d="
		M606.8,417c0.2-0.7,0.8-0.9,1.3-1.3c5.5-4.1,7.4-11.1,5-17.6"/>
	
		<path fill="none" stroke="#000000" stroke-width="0.7087" stroke-linecap="round" stroke-linejoin="round" stroke-miterlimit="10" d="
		M586.8,324.8c-4.8-2-9.9-2.2-14.9-3.2c-2-0.4-3.7-1.5-5.4-2.7c-0.7-0.5-0.3-0.8-0.1-1.2"/>
	
		<path fill="none" stroke="#000000" stroke-width="0.7087" stroke-linecap="round" stroke-linejoin="round" stroke-miterlimit="10" d="
		M663.9,471.6c-0.4-1-1.3-1.6-2-2.3c-3.3-3.3-5.2-7.3-6.3-11.8c-0.3-1.3-0.6-2.5,0.2-3.7"/>
	
		<path fill="none" stroke="#000000" stroke-width="0.7087" stroke-linecap="round" stroke-linejoin="round" stroke-miterlimit="10" d="
		M576.2,402.6c2.2-0.5,3.9,0.8,5.5,2c3.7,2.8,7.2,5.8,10.9,8.5c2.2,1.6,4.5,3.3,7.3,4.1c1,0.3,1.6,0.2,2.5-0.5
		c5.8-4,5.5-9.7,3.5-14.9c-0.5-1.3-1.2-2.5-1.8-3.7"/>
	
		<path fill="none" stroke="#000000" stroke-width="0.7087" stroke-linecap="round" stroke-linejoin="round" stroke-miterlimit="10" d="
		M578.4,448.6c-5.3,3.3-11.4,4.7-17.3,6.7c-2.8,1-5.4,2.7-7.5,5.1"/>
	
		<path fill="none" stroke="#000000" stroke-width="0.7087" stroke-linecap="round" stroke-linejoin="round" stroke-miterlimit="10" d="
		M588.3,369.4c0.7-0.3,1.2-0.7,1.5-1.5c0.4-1.2,1.2-2.2,2.1-3.1c1.8-1.9,1.8-2.7-0.2-4.7c-2.8-2.7-6.4-4-10-5.3
		c-4-1.4-8.3-1.3-12.4-2.4c-3.4-0.9-5.8-2.7-7.7-5.3"/>
	
		<path fill="none" stroke="#000000" stroke-width="0.7087" stroke-linecap="round" stroke-linejoin="round" stroke-miterlimit="10" d="
		M609.4,480.8c-1.6-4.5-4.9-8.1-7.3-12.1c-0.9-1.5-1.4-3.1-2.2-4.6c-0.1-0.2-0.6-0.8,0-0.9c1.9-0.5,0.7-1.7,0.6-2.6
		c-0.2-2.6-1.6-5.1-0.6-8c0.2-0.7-0.2-2.9-2.1-3.2c-0.4-0.1-0.6-0.3-0.5-0.8"/>
	
		<path fill="none" stroke="#000000" stroke-width="0.7087" stroke-linecap="round" stroke-linejoin="round" stroke-miterlimit="10" d="
		M595.3,414.2c4.8-5.3,3.8-10.9,0.6-16.5c-0.3-0.5-0.6-1.1-1-1.6"/>
	
		<path fill="none" stroke="#000000" stroke-width="0.7087" stroke-linecap="round" stroke-linejoin="round" stroke-miterlimit="10" d="
		M664.4,508.3c-2.7-1-5-2.8-7.5-4.2c-2-1.1-4.3-2-5.9-3.9c-0.4-0.5-1.2-0.8-1.9-0.7"/>
	
		<path fill="none" stroke="#000000" stroke-width="0.7087" stroke-linecap="round" stroke-linejoin="round" stroke-miterlimit="10" d="
		M663.4,439.7c-5.6-2.4-12.3,2.2-14.6,8.4"/>
	
		<path fill="none" stroke="#000000" stroke-width="0.7087" stroke-linecap="round" stroke-linejoin="round" stroke-miterlimit="10" d="
		M592,329.4c4.1-0.8,5.8-4,6.7-7.5c0.7-2.9,1.2-6,0.7-9"/>
	
		<path fill="none" stroke="#000000" stroke-width="0.7087" stroke-linecap="round" stroke-linejoin="round" stroke-miterlimit="10" d="
		M684.5,464.6c-4.4-3.2-9.3-5.3-14.4-7c-2.8-0.9-5.4-2.3-8.2-3.2c-1.9-0.6-3.7-1-5.7-1.1c-1.8-0.1-3.5-1-5.4-1.4
		c-6.3-1.2-11.6-4.6-17-7.7c-0.6-0.3-1.1-0.7-1.7-0.2"/>
	
		<path fill="none" stroke="#000000" stroke-width="0.7087" stroke-linecap="round" stroke-linejoin="round" stroke-miterlimit="10" d="
		M650.5,411.2c1-3.5,0.3-7-0.1-10.3c-0.4-2.9-1-5.7-0.9-8.6c0-1.4-0.7-1.9-1.6-2.5"/>
	
		<path fill="none" stroke="#000000" stroke-width="0.7087" stroke-linecap="round" stroke-linejoin="round" stroke-miterlimit="10" d="
		M670.1,356.9c-5.3,2-10.5,4.2-16.2,4.5c-0.5,0-1,0.1-1.5,0.2"/>
	
		<path fill="none" stroke="#000000" stroke-width="0.7087" stroke-linecap="round" stroke-linejoin="round" stroke-miterlimit="10" d="
		M637,483.2c0.8-4.4,2.5-8.6,2.7-13.1c0.1-2,0.1-4,0.2-6"/>
	
		<path fill="none" stroke="#000000" stroke-width="0.7087" stroke-linecap="round" stroke-linejoin="round" stroke-miterlimit="10" d="
		M594.9,361.4c1.2,0.5,1.8,1.7,2.8,2.4c2.7,2,10.2,1,12.6-1.6"/>
	
		<path fill="none" stroke="#000000" stroke-width="0.7087" stroke-linecap="round" stroke-linejoin="round" stroke-miterlimit="10" d="
		M665.5,338.1c-5.1,0.4-9.8,2.1-14.4,4.4c-0.9,0.4-0.9,0.4-2.1,0.2"/>
	
		<path fill="none" stroke="#000000" stroke-width="0.7087" stroke-linecap="round" stroke-linejoin="round" stroke-miterlimit="10" d="
		M593.5,337.6c-0.9-0.5-1.9-0.9-2.7-1.5c-2.8-2-6.1-3-9.4-3.9c-1.2-0.3-2.1-0.9-2.8-2c-1.1-1.6-2.8-2.8-4.3-4.1"/>
	
		<path fill="none" stroke="#000000" stroke-width="0.7087" stroke-linecap="round" stroke-linejoin="round" stroke-miterlimit="10" d="
		M669.3,443.9c-4.8-1.4-10.7,1.8-12.5,7.6"/>
	
		<path fill="none" stroke="#000000" stroke-width="0.7087" stroke-linecap="round" stroke-linejoin="round" stroke-miterlimit="10" d="
		M579.2,449.1c-1.8,4.2-3.7,8.4-6.6,11.9c-1.5,1.8-4.2,2.6-6.5,3.5c-2.8,1.1-5.8,1.9-8.2,3.5c-2.4,1.6-5.2,2.9-7.4,4.9"/>
	
		<path fill="none" stroke="#000000" stroke-width="0.7087" stroke-linecap="round" stroke-linejoin="round" stroke-miterlimit="10" d="
		M592.3,391.9c-2.6-4.2-5.8-8.1-7.8-12.6"/>
	
		<path fill="none" stroke="#000000" stroke-width="0.7087" stroke-linecap="round" stroke-linejoin="round" stroke-miterlimit="10" d="
		M576.6,353.2c-0.2-0.3-0.3-0.7-0.5-0.8c-3.7-2.2-6-6-9.4-8.4c-0.3-0.2-0.5-0.3-0.8-0.5"/>
	
		<path fill="none" stroke="#000000" stroke-width="0.7087" stroke-linecap="round" stroke-linejoin="round" stroke-miterlimit="10" d="
		M716.2,480.1c-3.7-3.2-6.7-6.9-7.9-11.8"/>
	
		<path fill="none" stroke="#000000" stroke-width="0.7087" stroke-linecap="round" stroke-linejoin="round" stroke-miterlimit="10" d="
		M578.7,331.3c-0.9,0.5-1.7,0-2.6-0.3c-3.6-1.5-6.9-3.4-8.9-7"/>
	
		<path fill="none" stroke="#000000" stroke-width="0.7087" stroke-linecap="round" stroke-linejoin="round" stroke-miterlimit="10" d="
		M613.9,460.7c-0.8-3.7-1.1-7.6-2.4-11.2c-0.5-1.4-1.8-2.5-1.7-4.2"/>
	
		<path fill="none" stroke="#000000" stroke-width="0.7087" stroke-linecap="round" stroke-linejoin="round" stroke-miterlimit="10" d="
		M571.8,462c0,2-1.8,3-2.6,4.5c-2.1,4.1-5.4,7.3-8,11.1c-1.4,2.1-3.5,3.8-5.6,5.4c-1.2,0.9-2.3,2-3.4,3.1c-2,1.9-3.8,4-6,5.7"/>
	
		<path fill="none" stroke="#000000" stroke-width="0.7087" stroke-linecap="round" stroke-linejoin="round" stroke-miterlimit="10" d="
		M650.6,465.4c-3.3-4.2-4.6-8.8-3.7-14.1"/>
	
		<path fill="none" stroke="#000000" stroke-width="0.7087" stroke-linecap="round" stroke-linejoin="round" stroke-miterlimit="10" d="
		M645.3,481.4c1.6,1.6,2,3.8,3.1,5.6c0.3,0.5,0.4,1,0.7,1.5c1.3,1.7,3.3,1.7,4-0.2c1.7-4.2,4.4-8,5.2-12.6c0.1-0.4,0-0.9,0-1.3"/>
	
		<path fill="none" stroke="#000000" stroke-width="0.7087" stroke-linecap="round" stroke-linejoin="round" stroke-miterlimit="10" d="
		M633.5,513.7c3.7-5.3,7.3-10.7,12.5-14.7"/>
	
		<path fill="none" stroke="#000000" stroke-width="0.7087" stroke-linecap="round" stroke-linejoin="round" stroke-miterlimit="10" d="
		M598.5,352c5.9,0.1,10.4-2.6,14.3-6.8c1.1-1.3,2.3-2.4,3.3-3.9c2.1-3.1,3.2-6.4,3.5-10.1"/>
	
		<path fill="none" stroke="#000000" stroke-width="0.7087" stroke-linecap="round" stroke-linejoin="round" stroke-miterlimit="10" d="
		M587.7,324.3c-0.3-1.8-1.8-2.7-2.9-3.9c-3-3.2-6.2-6.2-8.9-9.6c-2.9-3.7-6-7.4-8.2-11.6"/>
	
		<path fill="none" stroke="#000000" stroke-width="0.7087" stroke-linecap="round" stroke-linejoin="round" stroke-miterlimit="10" d="
		M665.7,494.4c-4.8-0.5-8.7-2.9-12.5-5.7"/>
	
		<path fill="none" stroke="#000000" stroke-width="0.7087" stroke-linecap="round" stroke-linejoin="round" stroke-miterlimit="10" d="
		M597.2,341.4c4.9-0.4,7.8-3.8,9.3-7.7c1.1-2.7,0.1-6.3,0.1-9.5c0-0.5,0-1.1,0-1.6"/>
	
		<path fill="none" stroke="#000000" stroke-width="0.7087" stroke-linecap="round" stroke-linejoin="round" stroke-miterlimit="10" d="
		M555.9,448.4c3-2.7,6-5.3,9.5-7.3c0.2-0.1,0.2-0.4,0.3-0.6"/>
	
		<path fill="none" stroke="#000000" stroke-width="0.7087" stroke-linecap="round" stroke-linejoin="round" stroke-miterlimit="10" d="
		M643.5,409.4c0.6-0.3,0.6-0.9,0.5-1.5c-0.7-3-0.1-5.9,0.9-8.8c0.5-1.3,1.4-2.9,0.2-4.4"/>
	
		<path fill="none" stroke="#000000" stroke-width="0.7087" stroke-linecap="round" stroke-linejoin="round" stroke-miterlimit="10" d="
		M560.1,476.6c-2.7,0.8-5,2.3-7.8,3c-1.9,0.4-3.7,0.9-5.7,0.8"/>
	
		<path fill="none" stroke="#000000" stroke-width="0.7087" stroke-linecap="round" stroke-linejoin="round" stroke-miterlimit="10" d="
		M654,410.8c1.8-4.1,2.5-8.4,1.4-12.8c-0.1-0.6-0.2-1.1-0.3-1.6"/>
	
		<path fill="none" stroke="#000000" stroke-width="0.7087" stroke-linecap="round" stroke-linejoin="round" stroke-miterlimit="10" d="
		M664.4,344.4c-3,1-6.2,1.4-8.9,3.1c-3.7,2.3-7.6,2.4-11.5,1.6c-3.5-0.7-6.3,0.1-9.1,2.1"/>
	
		<path fill="none" stroke="#000000" stroke-width="0.7087" stroke-linecap="round" stroke-linejoin="round" stroke-miterlimit="10" d="
		M648.5,413.1c-1.8-3.9-2.9-7.8-1.8-12.2c0.2-0.6,0-1.3,0-1.9"/>
	
		<path fill="none" stroke="#000000" stroke-width="0.7087" stroke-linecap="round" stroke-linejoin="round" stroke-miterlimit="10" d="
		M673.5,468.5c-4.2-3-6-6.9-5-10.9"/>
	
		<path fill="none" stroke="#000000" stroke-width="0.7087" stroke-linecap="round" stroke-linejoin="round" stroke-miterlimit="10" d="
		M585.5,433c-1.9,1-3.9,2-5.8,2.9c-4.2,2.1-9,2.3-13.3,4.1c-2.1,0.8-4.7,0.3-7.1,0.5"/>
	
		<path fill="none" stroke="#000000" stroke-width="0.7087" stroke-linecap="round" stroke-linejoin="round" stroke-miterlimit="10" d="
		M661.3,514c-0.5-2.2-2.3-3.5-3.4-5.3c-1-1.6-2.1-3-3.2-4.5"/>
	
		<path fill="none" stroke="#000000" stroke-width="0.7087" stroke-linecap="round" stroke-linejoin="round" stroke-miterlimit="10" d="
		M607.1,332.8c2.5-1.6,2.8-4.4,3.4-7c0.4-1.8,0.1-3.6,0.9-5.3"/>
	
		<path fill="none" stroke="#000000" stroke-width="0.7087" stroke-linecap="round" stroke-linejoin="round" stroke-miterlimit="10" d="
		M585.1,376.8c-0.9-1.1-1.9-1.5-3.4-1.5c-1.8,0-3.5,0.5-5.4,0.3c-1.5-0.2-3.1-0.5-4.5-1"/>
	
		<path fill="none" stroke="#000000" stroke-width="0.7087" stroke-linecap="round" stroke-linejoin="round" stroke-miterlimit="10" d="
		M641.4,521.6c1.8-2.3,3.3-4.8,5.8-6.5c0.7-0.5,1.1-1.5,1.6-2.2"/>
	
		<path fill="none" stroke="#000000" stroke-width="0.7087" stroke-linecap="round" stroke-linejoin="round" stroke-miterlimit="10" d="
		M668.8,364.7c-3.1,0.6-6.2,1.6-9.4,1.7c-1.1,0-2.4,0.2-3.1,1.4"/>
	
		<path fill="none" stroke="#000000" stroke-width="0.7087" stroke-linecap="round" stroke-linejoin="round" stroke-miterlimit="10" d="
		M676.7,484c-2.9-2.7-4.3-6.3-5.7-9.9"/>
	
		<path fill="none" stroke="#000000" stroke-width="0.7087" stroke-linecap="round" stroke-linejoin="round" stroke-miterlimit="10" d="
		M611.1,456.3c-1.2-3.4-1.1-7.2-3.4-10.2c-0.3-0.4,0.2-1.2,0.1-1.7c-0.1-0.7-0.7-1.4-1.4-1.4c-0.7-0.1-1.1,0.6-1.3,1.3
		c-0.2,0.9-0.1,1.9-0.3,2.9c-0.6,3-0.5,6.3-2.5,8.9c-0.1,0.2,0.2,0.6,0.3,0.9"/>
	
		<path fill="none" stroke="#000000" stroke-width="0.7087" stroke-linecap="round" stroke-linejoin="round" stroke-miterlimit="10" d="
		M599.6,463c-1.4-2.7-2-5.6-2.1-8.6c0-1.4,0.1-2.7-1.1-3.7"/>
	
		<path fill="none" stroke="#000000" stroke-width="0.7087" stroke-linecap="round" stroke-linejoin="round" stroke-miterlimit="10" d="
		M595.9,467.7c-2.2-4.1-2.5-8.6-2.1-13.1"/>
	
		<path fill="none" stroke="#000000" stroke-width="0.7087" stroke-linecap="round" stroke-linejoin="round" stroke-miterlimit="10" d="
		M661.2,520.3c-2.9-1.1-5.8-2.2-7.6-5c-0.4-0.6-1-0.9-1.8-0.8"/>
	
		<path fill="none" stroke="#000000" stroke-width="0.7087" stroke-linecap="round" stroke-linejoin="round" stroke-miterlimit="10" d="
		M705.2,486.6c-1.7-2-3.1-4.2-4.8-6.2c-1-1.2-2.2-1.9-3.2-3c-1.6-1.9-2.3-4.2-2.9-6.5c-0.6-2.2-1.9-4.3-1.3-6.8"/>
	
		<path fill="none" stroke="#000000" stroke-width="0.7087" stroke-linecap="round" stroke-linejoin="round" stroke-miterlimit="10" d="
		M601.3,447.8c0.6-3-0.3-5.9-1-8.7c-0.2-1-0.6-1.8,0.1-2.8c0.4-0.6,0.3-1.5,0-2.2c-1.2-4.2-1.2-8.4,0-12.6"/>
	
		<path fill="none" stroke="#000000" stroke-width="0.7087" stroke-linecap="round" stroke-linejoin="round" stroke-miterlimit="10" d="
		M703.3,487.3c-2-2.5-4.2-4.9-5.2-8.1c-0.1-0.2,0-0.4,0-0.6"/>
	
		<path fill="none" stroke="#000000" stroke-width="0.7087" stroke-linecap="round" stroke-linejoin="round" stroke-miterlimit="10" d="
		M678.7,451c-4.1-0.8-7.8,0.1-10.7,3.2"/>
	
		<path fill="none" stroke="#000000" stroke-width="0.7087" stroke-linecap="round" stroke-linejoin="round" stroke-miterlimit="10" d="
		M688.7,486.9c-2.4-2.3-4.8-4.6-5.7-7.9c0-0.1,0.1-0.3,0.2-0.5"/>
	
		<path fill="none" stroke="#000000" stroke-width="0.7087" stroke-linecap="round" stroke-linejoin="round" stroke-miterlimit="10" d="
		M622.8,493.6c1.1-3.6,2.8-6.6,6.3-8.3"/>
	
		<path fill="none" stroke="#000000" stroke-width="0.7087" stroke-linecap="round" stroke-linejoin="round" stroke-miterlimit="10" d="
		M597.9,465.7c-1.3-1.1-1.2-2.8-1.6-4.2c-0.5-1.9-0.8-3.8-0.8-5.8c0-0.9,0.1-2.3-1.6-2.3"/>
	
		<path fill="none" stroke="#000000" stroke-width="0.7087" stroke-linecap="round" stroke-linejoin="round" stroke-miterlimit="10" d="
		M714.3,458.8c-3.1-2.1-6.4-3.3-10.1-2.3"/>
	
		<path fill="none" stroke="#000000" stroke-width="0.7087" stroke-linecap="round" stroke-linejoin="round" stroke-miterlimit="10" d="
		M579.6,314c1-0.8,1.7-1.9,1.7-3.1c0.1-2.9,0.5-5.9-0.6-8.7"/>
	
		<path fill="none" stroke="#000000" stroke-width="0.7087" stroke-linecap="round" stroke-linejoin="round" stroke-miterlimit="10" d="
		M580,468.3c1.4-3.5,2.8-6.9,3.3-10.7c0.1-0.6,0.2-1.1,0.2-1.8c-0.3-4.5,0.3-9.1,0.1-13.6c-0.1-1.8,1.2-3.8,2-5.7
		c0.9-2.4,1.8-4.8,2.9-7.1c0.6-1.3,0.2-2.6,0.6-3.9"/>
	
		<path fill="none" stroke="#000000" stroke-width="0.7087" stroke-linecap="round" stroke-linejoin="round" stroke-miterlimit="10" d="
		M635.1,454.4c-0.3-4.3-2.6-8-3.9-12"/>
	
		<path fill="none" stroke="#000000" stroke-width="0.7087" stroke-linecap="round" stroke-linejoin="round" stroke-miterlimit="10" d="
		M653.4,401.1c0-2.7-0.6-5.2-1.7-7.7c-0.5-1.2-1.2-1.5-2.2-1.9"/>
	
		<path fill="none" stroke="#000000" stroke-width="0.7087" stroke-linecap="round" stroke-linejoin="round" stroke-miterlimit="10" d="
		M695.7,463.8c0.8-2.5,3.1-3.6,5.1-5c1.6-1.1,3.1-2.2,4.2-3.9c1.5-2.3,3.3-4.4,5-6.7"/>
	
		<path fill="none" stroke="#000000" stroke-width="0.7087" stroke-linecap="round" stroke-linejoin="round" stroke-miterlimit="10" d="
		M686.4,351.9c1.9,0.5,4.4-0.6,5.2-2.8c0.5-1.3,1.4-2.4,2.1-3.1c2.4-2.1,3.2-5.4,5.4-7.6"/>
	
		<path fill="none" stroke="#000000" stroke-width="0.7087" stroke-linecap="round" stroke-linejoin="round" stroke-miterlimit="10" d="
		M676.2,442.7c1.5-0.6,2.1-2.2,3.2-3.2c1.2-1.1,2.4-2.2,3.6-3.2"/>
	
		<path fill="none" stroke="#000000" stroke-width="0.7087" stroke-linecap="round" stroke-linejoin="round" stroke-miterlimit="10" d="
		M572.4,478.8c1.9-4.7,2.8-9.7,2.7-14.7c0-2,1.1-4-0.1-6"/>
	
		<path fill="none" stroke="#000000" stroke-width="0.7087" stroke-linecap="round" stroke-linejoin="round" stroke-miterlimit="10" d="
		M659.4,408.7c-0.5-2.5,0.5-5-0.3-7.5c-0.3-1.1-0.6-2.3-1.5-3.1"/>
	
		<path fill="none" stroke="#000000" stroke-width="0.7087" stroke-linecap="round" stroke-linejoin="round" stroke-miterlimit="10" d="
		M613.4,343.9c-0.8-1.4,0-2.7,0.2-4c0.3-2.4,0.8-4.8,0.1-7.3"/>
	
		<path fill="none" stroke="#000000" stroke-width="0.7087" stroke-linecap="round" stroke-linejoin="round" stroke-miterlimit="10" d="
		M640.6,364c7.6-2.5,9.4-8.9,11.5-14.4"/>
	
		<path fill="none" stroke="#000000" stroke-width="0.7087" stroke-linecap="round" stroke-linejoin="round" stroke-miterlimit="10" d="
		M627,504.3c2.4-4.4,4.9-8.7,8.3-12.5"/>
	
		<path fill="none" stroke="#000000" stroke-width="0.7087" stroke-linecap="round" stroke-linejoin="round" stroke-miterlimit="10" d="
		M588.1,370.2c-0.7,4-2.6,7.4-5.1,10.5c-1.3,1.5-3.2,2.6-5.1,3.3c-2.1,0.7-3,0-3.9-2.2c-0.7-1.9-1.5-3.7-2.7-5.4
		c-0.2-0.3-1.4-1.2-0.1-1.9"/>
	
		<path fill="none" stroke="#000000" stroke-width="0.7087" stroke-linecap="round" stroke-linejoin="round" stroke-miterlimit="10" d="
		M589.8,316.1c0.2-0.1,0.6-0.2,0.6-0.3c0.1-3.4,0.1-6.7-1.9-9.7"/>
	
		<path fill="none" stroke="#000000" stroke-width="0.7087" stroke-linecap="round" stroke-linejoin="round" stroke-miterlimit="10" d="
		M691.1,447.4c1.1-3,3.7-4.8,5.7-7"/>
	
		<path fill="none" stroke="#000000" stroke-width="0.7087" stroke-linecap="round" stroke-linejoin="round" stroke-miterlimit="10" d="
		M721.1,456.2c-2.1,3.8-4.6,7.2-8.1,9.7c-0.8,0.5-0.8,1.4-1.4,1.8"/>
	
		<path fill="none" stroke="#000000" stroke-width="0.7087" stroke-linecap="round" stroke-linejoin="round" stroke-miterlimit="10" d="
		M585.7,418.6c4.1,1.4,5.9,0.2,7.8-2.6"/>
	
		<path fill="none" stroke="#000000" stroke-width="0.7087" stroke-linecap="round" stroke-linejoin="round" stroke-miterlimit="10" d="
		M628.5,509.3c0.3-3.3,1.9-6.3,1.6-9.7"/>
	
		<path fill="none" stroke="#000000" stroke-width="0.7087" stroke-linecap="round" stroke-linejoin="round" stroke-miterlimit="10" d="
		M690.7,336.7c-2.6,2-6.1,1.3-8.9,3.1c-0.9-2.9,0.9-4.8,2.1-6.6c1.5-2.1,4.2-0.7,6-1.8c1,1.6,0.1,3,0.7,4.4c0.4,1.1,0.8,1.8,2.1,1.8
		c2,0,4,0.1,5.8,0.9"/>
	
		<path fill="none" stroke="#000000" stroke-width="0.7087" stroke-linecap="round" stroke-linejoin="round" stroke-miterlimit="10" d="
		M596.4,343.5c0.6-0.9,0.5-1.7,0.3-2.8c-0.4-1.8-0.9-3.7-1.5-5.5c-0.3-0.9-0.7-1.9-2-2"/>
	
		<path fill="none" stroke="#000000" stroke-width="0.7087" stroke-linecap="round" stroke-linejoin="round" stroke-miterlimit="10" d="
		M685.5,331.8c-0.4-1.3,1-2,1-3.2c0.1-2.2-0.3-4.3-1.8-6"/>
	
		<path fill="none" stroke="#000000" stroke-width="0.7087" stroke-linecap="round" stroke-linejoin="round" stroke-miterlimit="10" d="
		M700,362.9c-1.4-3-2.7-6.1-5.1-8.5c-1.1-1.1-2.3-1-3.5-1.3c-0.8-0.2-1.8-0.1-2.4-0.9"/>
	
		<path fill="none" stroke="#000000" stroke-width="0.7087" stroke-linecap="round" stroke-linejoin="round" stroke-miterlimit="10" d="
		M578.6,436.1c-0.9-1-2.3-0.6-3.4-1.2c-1.5-0.8-2.8-1.7-4.2-2.6"/>
	
		<path fill="none" stroke="#000000" stroke-width="0.7087" stroke-linecap="round" stroke-linejoin="round" stroke-miterlimit="10" d="
		M579.4,412c3.2,1,6,0.4,8.3-2.1"/>
	
		<path fill="none" stroke="#000000" stroke-width="0.7087" stroke-linecap="round" stroke-linejoin="round" stroke-miterlimit="10" d="
		M689,484c-1.6-2.2-3.3-4.1-5.7-5.7c-1.7-1.2-2.9-3.4-3.3-5.8c-0.1-0.6,0.4-1.4-0.3-1.9"/>
	
		<path fill="none" stroke="#000000" stroke-width="0.7087" stroke-linecap="round" stroke-linejoin="round" stroke-miterlimit="10" d="
		M685.3,455.4c1.5-2,3.2-4,3.9-6.5c0.3-1,1.4-1.4,1.8-1.4c2.9,0.4,5.9-0.4,8.8,0.6"/>
	
		<path fill="none" stroke="#000000" stroke-width="0.7087" stroke-linecap="round" stroke-linejoin="round" stroke-miterlimit="10" d="
		M726.9,463.6c-2.9-1.1-6-0.9-8.9-2.1"/>
	
		<path fill="none" stroke="#000000" stroke-width="0.7087" stroke-linecap="round" stroke-linejoin="round" stroke-miterlimit="10" d="
		M590.1,408.7c2.1-2.3,0.9-4.9,1-7.4c0-0.5-0.1-1-0.2-1.5"/>
	
		<path fill="none" stroke="#000000" stroke-width="0.7087" stroke-linecap="round" stroke-linejoin="round" stroke-miterlimit="10" d="
		M589.4,440.8c-0.2-2-0.8-4.1-0.7-6.2c0-0.9-0.2-1.8-1.1-2.4"/>
	
		<path fill="none" stroke="#000000" stroke-width="0.7087" stroke-linecap="round" stroke-linejoin="round" stroke-miterlimit="10" d="
		M602.1,417.1c0.9,1,2,0.4,2.9,0.3c1.5-0.2,3-0.2,5.1,0c-1.4,1.8-3.3,2.1-4.8,2.5c-1.7,0.4-3.5,0.8-5.3,0.6c-1-0.1-2.1,0.3-2.9,0.9"
		/>
	
		<path fill="none" stroke="#000000" stroke-width="0.7087" stroke-linecap="round" stroke-linejoin="round" stroke-miterlimit="10" d="
		M570.6,340.4c-1.2-2.1-3.4-3.3-4.7-5.3"/>
	
		<path fill="none" stroke="#000000" stroke-width="0.7087" stroke-linecap="round" stroke-linejoin="round" stroke-miterlimit="10" d="
		M579.5,448.8c1.1-2.1,2.1-4.3,3.8-6.1"/>
	
		<path fill="none" stroke="#000000" stroke-width="0.7087" stroke-linecap="round" stroke-linejoin="round" stroke-miterlimit="10" d="
		M567.9,482.4c-0.8-3.4-1.5-6.8-0.2-10.2c0.2-0.6-0.2-1.1-0.6-1.6"/>
	
		<path fill="none" stroke="#000000" stroke-width="0.7087" stroke-linecap="round" stroke-linejoin="round" stroke-miterlimit="10" d="
		M622.5,487.4c0.8-2.3,1.9-4.4,4-5.7"/>
	
		<path fill="none" stroke="#000000" stroke-width="0.7087" stroke-linecap="round" stroke-linejoin="round" stroke-miterlimit="10" d="
		M586.7,458.1c-0.8-1.5-1.1-3.1-1.4-4.7c-0.2-0.9-0.5-1.7-1.3-2.3"/>
	
		<path fill="none" stroke="#000000" stroke-width="0.7087" stroke-linecap="round" stroke-linejoin="round" stroke-miterlimit="10" d="
		M613.4,353.3c-1.2-1.3-2.8-1.9-4.4-2.4c-0.7-0.2-1.6-0.1-2.1-0.8"/>
	
		<path fill="none" stroke="#000000" stroke-width="0.7087" stroke-linecap="round" stroke-linejoin="round" stroke-miterlimit="10" d="
		M635.9,517.1c-0.3-1.7,0.5-3.3,1-4.9c0.3-1,0.9-1.9,0.2-3"/>
	
		<path fill="none" stroke="#000000" stroke-width="0.7087" stroke-linecap="round" stroke-linejoin="round" stroke-miterlimit="10" d="
		M569.2,308.5c0.5,0.4,1.1,0.8,1.6,1.3c1.3,1.2,2.6,2,4.4,1.1"/>
	
		<path fill="none" stroke="#000000" stroke-width="0.7087" stroke-linecap="round" stroke-linejoin="round" stroke-miterlimit="10" d="
		M586.5,321.6c2.9-2,3.3-3,2.4-6.6c-0.4-1.9-0.1-4.1-2.3-5.2"/>
	
		<path fill="none" stroke="#000000" stroke-width="0.7087" stroke-linecap="round" stroke-linejoin="round" stroke-miterlimit="10" d="
		M575.8,366.9c-1.5-1.6-3.2-2.7-5.2-3.6"/>
	
		<path fill="none" stroke="#000000" stroke-width="0.7087" stroke-linecap="round" stroke-linejoin="round" stroke-miterlimit="10" d="
		M577.3,476.3c-0.1-2.3-0.4-4.5-2.1-6.3"/>
	
		<path fill="none" stroke="#000000" stroke-width="0.7087" stroke-linecap="round" stroke-linejoin="round" stroke-miterlimit="10" d="
		M599.6,437.1c-2.1,0.3-2.9-0.7-3.1-2.8c-0.2-2.7-1-5.4,0-8.1c0.3-0.9,0.4-2.1-0.1-3.1"/>
	
		<path fill="none" stroke="#000000" stroke-width="0.7087" stroke-linecap="round" stroke-linejoin="round" stroke-miterlimit="10" d="
		M557,490.3c-0.7-1.4-0.3-2.9-0.1-4.4c0.1-1.1,0.2-2.2,0-3.2"/>
	
		<path fill="none" stroke="#000000" stroke-width="0.7087" stroke-linecap="round" stroke-linejoin="round" stroke-miterlimit="10" d="
		M694.2,353.5c1.1-1.2,2.7-1.6,4.1-2.5c-0.5-2.7-3.7-2-4.9-3.8"/>
	
		<path fill="none" stroke="#000000" stroke-width="0.7087" stroke-linecap="round" stroke-linejoin="round" stroke-miterlimit="10" d="
		M627.3,491.6c0.8-1.8,2-3.4,3.4-4.7"/>
	
		<path fill="none" stroke="#000000" stroke-width="0.7087" stroke-linecap="round" stroke-linejoin="round" stroke-miterlimit="10" d="
		M648.7,365.3c0.4-0.2-0.3-1,0.6-1c1.9,0,2.4-1.3,2.6-2.9c-0.9-1.1-2.3-0.3-3.4-0.8"/>
	
		<path fill="none" stroke="#000000" stroke-width="0.7087" stroke-linecap="round" stroke-linejoin="round" stroke-miterlimit="10" d="
		M585.5,462.8c-0.4-1.5-0.9-2.9-1.1-4.4c-0.1-0.7-0.6-0.8-0.9-1.1"/>
	
		<path fill="none" stroke="#000000" stroke-width="0.7087" stroke-linecap="round" stroke-linejoin="round" stroke-miterlimit="10" d="
		M556.7,468c-1.3-0.7-2.7-0.3-4-0.1c-0.7,0.1-1.4,0.3-2.1-0.2"/>
	
		<path fill="none" stroke="#000000" stroke-width="0.7087" stroke-linecap="round" stroke-linejoin="round" stroke-miterlimit="10" d="
		M613.7,449.2c-0.9-2.8-2.9-4.1-5.7-4.7"/>
	
		<path fill="none" stroke="#000000" stroke-width="0.7087" stroke-linecap="round" stroke-linejoin="round" stroke-miterlimit="10" d="
		M670.6,438c0.5-1.7,2-2.4,3.2-3.2"/>
	
		<path fill="none" stroke="#000000" stroke-width="0.7087" stroke-linecap="round" stroke-linejoin="round" stroke-miterlimit="10" d="
		M564.7,483.1c1-1.2,0.6-3.1,2.1-4"/>
	
		<path fill="none" stroke="#000000" stroke-width="0.7087" stroke-linecap="round" stroke-linejoin="round" stroke-miterlimit="10" d="
		M606.3,456c-0.8-1.4,0-3.4-1.8-4.4"/>
	
		<path fill="none" stroke="#000000" stroke-width="0.7087" stroke-linecap="round" stroke-linejoin="round" stroke-miterlimit="10" d="
		M598,418.6c-1.7,1.7-3.7,2.8-6,3.4"/>
	
		<path fill="none" stroke="#000000" stroke-width="0.7087" stroke-linecap="round" stroke-linejoin="round" stroke-miterlimit="10" d="
		M595.6,428.8c-1.1-1-1.6-2.3-2.3-3.6"/>
	
		<path fill="none" stroke="#000000" stroke-width="0.7087" stroke-linecap="round" stroke-linejoin="round" stroke-miterlimit="10" d="
		M609.5,439.8c-0.5-1.3-1.9-2.2-2.1-3.7"/>
	
		<path fill="none" stroke="#000000" stroke-width="0.7087" stroke-linecap="round" stroke-linejoin="round" stroke-miterlimit="10" d="
		M691,466.5c0-1.5-2.2-1.9-1.9-3.6"/>
	
		<path fill="none" stroke="#000000" stroke-width="0.7087" stroke-linecap="round" stroke-linejoin="round" stroke-miterlimit="10" d="
		M559.3,455.7c-1.5-0.6-3.1-0.4-4.7-0.2"/>
	
		<path fill="none" stroke="#000000" stroke-width="0.7087" stroke-linecap="round" stroke-linejoin="round" stroke-miterlimit="10" d="
		M602.4,455.4c-0.9-0.8-0.8-2.3-2.1-2.8"/>
	
		<path fill="none" stroke="#000000" stroke-width="0.7087" stroke-linecap="round" stroke-linejoin="round" stroke-miterlimit="10" d="
		M603.4,481.9c0.7-1.3,0-2.8,0.8-4"/>
	
		<path fill="none" stroke="#000000" stroke-width="0.7087" stroke-linecap="round" stroke-linejoin="round" stroke-miterlimit="10" d="
		M590.9,455.9c0.9-0.7,1.1-2.2,2.6-2.3"/>
	
		<path fill="none" stroke="#000000" stroke-width="0.7087" stroke-linecap="round" stroke-linejoin="round" stroke-miterlimit="10" d="
		M700,458.8c0.1-1.5,0.1-2.9,0.2-4.4"/>
	
		<path fill="none" stroke="#000000" stroke-width="0.7087" stroke-linecap="round" stroke-linejoin="round" stroke-miterlimit="10" d="
		M650.2,437.7c0.9-0.6,1-1.8,1.6-2.6"/>
	
		<path fill="none" stroke="#000000" stroke-width="0.7087" stroke-linecap="round" stroke-linejoin="round" stroke-miterlimit="10" d="
		M559.6,333.9c-1.1-0.1-1.2-1.2-1.6-1.9"/>
	
		<path fill="none" stroke="#000000" stroke-width="0.7087" stroke-linecap="round" stroke-linejoin="round" stroke-miterlimit="10" d="
		M648.1,345.9c0.3-0.9,0.1-1.9,1-2.6"/>
	
		<path fill="none" stroke="#000000" stroke-width="0.7087" stroke-linecap="round" stroke-linejoin="round" stroke-miterlimit="10" d="
		M540.5,259.4c-0.4-1.4-1.2-2.6-2.1-3.7"/>
	
		<path fill="none" stroke="#000000" stroke-width="0.7087" stroke-linecap="round" stroke-linejoin="round" stroke-miterlimit="10" d="
		M606.9,480c-0.8-1.3-2.8-1.6-3.1-3.4"/>
	
		<path fill="none" stroke="#000000" stroke-width="0.7087" stroke-linecap="round" stroke-linejoin="round" stroke-miterlimit="10" d="
		M589.3,428c0.9,0.1,1-0.7,1.5-1.1"/>
	
		<path fill="none" stroke="#000000" stroke-width="0.7087" stroke-linecap="round" stroke-linejoin="round" stroke-miterlimit="10" d="
		M595.6,359.5c-0.9,0.9-0.5,2.7-2.1,3.1"/>
</g>
</svg>
