<?xml version="1.0" encoding="utf-8"?>
<!-- Generator: Adobe Illustrator 18.0.0, SVG Export Plug-In . SVG Version: 6.00 Build 0)  -->
<!DOCTYPE svg PUBLIC "-//W3C//DTD SVG 1.0//EN" "http://www.w3.org/TR/2001/REC-SVG-20010904/DTD/svg10.dtd">
<svg version="1.0" id="Layer_1" xmlns="http://www.w3.org/2000/svg" xmlns:xlink="http://www.w3.org/1999/xlink" x="0px" y="0px"
	 width="1280px" height="800px" viewBox="0 0 1280 800" enable-background="new 0 0 1280 800" xml:space="preserve">
<g>
	
		<path fill="none" stroke="#000000" stroke-width="0.7115" stroke-linecap="round" stroke-linejoin="round" stroke-miterlimit="10" d="
		M704.2,360.3c0.2,0.4,0.6,0.7,0.5,1.2c-0.2,3.7,0.9,7.3,0.4,11c-0.3,2.5-1.5,4.7-2.4,7c-1.8,4.4-4.6,8.2-7.6,11.8
		c-3.7,4.3-7.1,8.8-11,12.8c-2.6,2.7-5.5,5.1-8.1,7.8c-2.1,2.2-4.4,4.1-6.6,6.2c-1.4,1.3-2.9,2.5-4.4,3.8c-2.7,2.4-5.4,4.9-7.9,7.6
		c-3,3.2-5.3,6.8-8,10.2c-2.3,2.9-4.8,5.7-7.1,8.6c-1.5,2-3,4-4.7,5.8c-1.6,1.6-3.1,3.3-5.1,4.6c-2,1.3-4.2,2.4-6.3,3.5
		c-0.9,0.5-1.9,1-2.9,0.3"/>
	
		<path fill="none" stroke="#000000" stroke-width="0.7115" stroke-linecap="round" stroke-linejoin="round" stroke-miterlimit="10" d="
		M687.2,360c0.1,1.2,0.4,2.2,1,3.3c0.6,1,0.8,2.3,0.2,3.6c-1.2,2.6-2.9,4.7-5,6.6c-2,1.8-4.3,3.2-6.6,4.6c-1.6,1-3.1,2.1-4.7,3.1
		c-2.5,1.7-5.1,3.2-7.7,4.8c-1.9,1.2-3.9,2.5-5.9,3.7c-3,1.9-6,3.7-9.1,5.5c-3.7,2.2-7.4,4.3-11,6.4c-3.2,1.9-6.6,3.6-10.1,4.9
		c-3.9,1.3-7.7,2.8-11.7,3.8c-3.3,0.8-6.5,1.8-9.8,2.5c-3,0.6-5.9,1.3-8.9,1.6c-3.9,0.4-7.8,0.5-11.7-0.1"/>
	
		<path fill="none" stroke="#000000" stroke-width="0.7115" stroke-linecap="round" stroke-linejoin="round" stroke-miterlimit="10" d="
		M650.7,406.7c-0.4-0.1-0.8-0.1-1.2,0.1c-2.3,0.8-4.6,1.5-7.1,1.4c-0.6,0-1.2,0.2-1.8,0.5c-2.5,1.3-5.1,1.5-7.8,1
		c-1.8-0.3-3.4,0.3-5,0.6c-2.1,0.3-3.9,1.5-5.9,2.1c-3.5,1-6.7,2.5-10.1,3.9c-0.6,0.2-1.4,0.5-1.4,1.5"/>
	
		<path fill="none" stroke="#000000" stroke-width="0.7115" stroke-linecap="round" stroke-linejoin="round" stroke-miterlimit="10" d="
		M628.5,423.8c-2,0.1-3.9,0.9-5.6,1.7c-2.5,1.1-5.1,1.7-7.5,2.9c-0.4,0.2-1,0.3-1.2,0.6c-1.5,1.9-3.8,2.1-5.8,2.7
		c-2,0.6-3.9,1.4-5.9,1.9c-1,0.3-2,0.4-3,0.4c-0.7,0-1.3-0.2-2-0.1c-1.4,0.3-2.4-0.4-3.4-1.3c-0.6-0.6-0.1-1.1,0.1-1.4
		c0.9-1.3,1.9-2.5,3-3.6c1.5-1.6,3.1-3,4.6-4.6c0.8-0.9,1.9-1.4,3-1.9c1.7-0.9,3.3-2,5.2-2.8c0.5-0.2,0.7-0.1,1,0.1"/>
	
		<path fill="none" stroke="#000000" stroke-width="0.7115" stroke-linecap="round" stroke-linejoin="round" stroke-miterlimit="10" d="
		M633.5,423.2c0.2,2.1-0.2,2.7-2.1,3.2c-1.1,0.3-2.1,0.9-2.8,1.7c-2.2,2-4.8,3.6-6.4,6.2c-1.4,2.4-2.7,4.8-4.1,7.3
		c-0.1,0.2-0.1,0.4-0.1,0.6"/>
	
		<path fill="none" stroke="#000000" stroke-width="0.7115" stroke-linecap="round" stroke-linejoin="round" stroke-miterlimit="10" d="
		M667.4,400.3c-0.3,0.1-0.7,0.2-0.8,0.4c-0.2,1.4-1.4,1.4-2.3,1.8c-2.8,1.3-5.7,2.6-8.4,4c-1.4,0.7-2.9,1.4-4.6,0.6"/>
	
		<path fill="none" stroke="#000000" stroke-width="0.7115" stroke-linecap="round" stroke-linejoin="round" stroke-miterlimit="10" d="
		M633.3,412.3c-0.2-1.1-1-0.7-1.6-0.7c-3.7,0.3-7.2,1-10.6,2.7c-2,1.1-4.2,2.1-6.4,2.7c-0.8,0.2-1.2,0.9-2,1.1
		c-0.5,0.1-1,0.3-1.5,0.2"/>
	
		<path fill="none" stroke="#000000" stroke-width="0.7115" stroke-linecap="round" stroke-linejoin="round" stroke-miterlimit="10" d="
		M636.6,421.1c-1,0.6-2.1,1-3,1.9c-0.2,0.2-0.4,0.1-0.7,0.2c-1.6,0.1-3.2,0.3-4.4,1.6c-0.6,0.7-1.7,1-2.6,1.3
		c-3.6,1.4-7.3,2.7-10.9,4c-0.4,0.2-1,0.3-1.4,0"/>
	
		<path fill="none" stroke="#000000" stroke-width="0.7115" stroke-linecap="round" stroke-linejoin="round" stroke-miterlimit="10" d="
		M687.4,394.7c-0.2-0.7-0.6-1.1-1.4-1c-1.1,0.2-1.1,1.2-1.4,1.9c-0.1,0.2-0.1,0.6,0,0.8c1.5,3-0.5,4.7-2.3,6.5
		c-0.3,0.2-0.4,0.5-0.5,0.8c-0.3,1.7-1.8,2.1-3,2.7c-1,0.5-1.8,1.1-2.2,2.1c-0.4,0.9-0.9,1.8-2.2,1.7"/>
	
		<path fill="none" stroke="#000000" stroke-width="0.7115" stroke-linecap="round" stroke-linejoin="round" stroke-miterlimit="10" d="
		M696.5,353.1c0.1-1.1,0.8-1.7,1.6-2.2c0.8-0.5,2.6,0,3,0.9c0.9,2.5,2.7,4.8,2.9,7.6c0.1,1.3-0.4,2.6-0.5,3.9
		c-0.2,2.9-1.4,5.5-3.4,7.6c-0.4,0.4-0.5,1-0.9,1.5c-0.7,0.8-1.7,1.2-2.4,2.1c-1.4,1.8-2.9,3.6-4.5,5.1c-0.9,0.9-1.9,1.8-3,2.5
		c-1,0.6-1.9,1.4-2.8,2.2c-1.4,1.2-2.7,2.6-4.1,3.8c-1,0.9-1.9,1.9-2.9,2.8c-1.2,1-2.3,2.3-3.7,3c-0.6,0.3-1.1,0.7-1.4,1.3"/>
	
		<path fill="none" stroke="#000000" stroke-width="0.7115" stroke-linecap="round" stroke-linejoin="round" stroke-miterlimit="10" d="
		M684.9,368.1c-0.3,1-1,1.7-1.8,2.2c-2.4,1.6-4.5,3.7-7,5.2c-0.8,0.5-1.6,0.7-2.3,0c-0.4-0.3-0.8-0.4-1.3,0
		c-0.4,0.3-0.9,0.2-1.3,0.4c-1.4,0.5-1.7,0.6-1.5,2.3"/>
	
		<path fill="none" stroke="#000000" stroke-width="0.7115" stroke-linecap="round" stroke-linejoin="round" stroke-miterlimit="10" d="
		M619.3,442.2c-0.3,0-0.7,0-1-0.1c-0.8-0.2-1.2,0.1-1.5,0.8c-0.9,1.8-2.1,3.5-3.2,5.2c-1,1.6-1.5,3.5-1.5,5.6c0,2,0.1,4,0.4,6
		c0.2,1.2,0.5,2.5,1,3.7c0.3,0.7,0.8,1.4,1.8,1.5c0.9,0.1,1.9,0.1,2.7,0.7"/>
	
		<path fill="none" stroke="#000000" stroke-width="0.7115" stroke-linecap="round" stroke-linejoin="round" stroke-miterlimit="10" d="
		M652.3,369.2c-0.3-0.1-0.6,0.2-0.9-0.1c-1-0.8-1.9-0.4-2.9,0.1c-1.4,0.6-2.7,1.5-3.7,2.7c-0.3,0.4-0.7,0.6-1.1,0.6
		c-1.5,0.2-2.9,0.7-3.8,2.1c-0.1,0.1-0.3,0.3-0.4,0.3c-2.1,0-3.5,1.5-5.1,2.5c-1.3,0.9-2.8,1.6-4.1,2.5c-1.2,0.7-2.7,1.1-4,1.8
		c-2.9,1.4-5.7,3-8.5,4.6c-0.9,0.5-1.8,1-2.5,1.8c-0.3,0.3-0.8,0.2-1.1,0.4c-3.3,1.8-7.1,2.4-10.7,3.5c-0.7,0.2-1.4,0.5-1.9,1
		c-0.3,0.3-0.7,0.5-1.1,0.6"/>
	
		<path fill="none" stroke="#000000" stroke-width="0.7115" stroke-linecap="round" stroke-linejoin="round" stroke-miterlimit="10" d="
		M639.5,447.2c-1.3,1.8-2,3.9-3.7,5.3c-0.3,0.2-0.4,0.5-0.5,0.7c-1.8,3.2-4.9,4.8-7.8,6.6c-1.4,0.8-2.9,1.4-4.1,2.4
		c-0.3,0.2-0.7,0.6-1.2,0.5"/>
	
		<path fill="none" stroke="#000000" stroke-width="0.7115" stroke-linecap="round" stroke-linejoin="round" stroke-miterlimit="10" d="
		M626.2,450.2c-1.1-0.2-2-0.1-2.4,1.1c-0.1,0.3-0.4,0.3-0.6,0.5c-0.8,0.8-1.6,1.6-1.5,2.9c0.1,1.3,1.2,2,2.3,1.3
		c1-0.7,2.1-1.3,2.5-2.6c0.2-0.7,0.7-0.8,1.2-0.9c0.5-0.1,0.9-0.4,1-0.9c0-0.2-0.4-0.7-0.5-0.7c-0.5,0.2-1-0.2-1.4,0.2"/>
	
		<path fill="none" stroke="#000000" stroke-width="0.7115" stroke-linecap="round" stroke-linejoin="round" stroke-miterlimit="10" d="
		M623.6,417.7c1.6,2.4,4.9,1.1,6.1-0.7c0.6-1,0-1.8-1.2-1.7c-0.6,0.1-1.2,0.1-1.8,0.5c-0.3,0.2-0.8,0.3-1.3,0.2
		c-1.5-0.3-1.9,0-1.9,1.7"/>
	
		<path fill="none" stroke="#000000" stroke-width="0.7115" stroke-linecap="round" stroke-linejoin="round" stroke-miterlimit="10" d="
		M636,435.7c0.7,0.3,1.2-0.3,1.7-0.6c0-0.5-0.4-0.8-0.7-1.2c-3.5,1.3-4.5,5.7-3.4,8.6c0.3,0.9,1,1,1.8,0.4c2.4-1.9,3.2-4.6,3.8-7.4"
		/>
	
		<path fill="none" stroke="#000000" stroke-width="0.7115" stroke-linecap="round" stroke-linejoin="round" stroke-miterlimit="10" d="
		M693,383c0,2.1-1.4,3.2-2.9,4.1c-2.4,1.5-5.1,2.6-7.4,4.3c-1.2,0.9-2.5,1.7-4,2.3c-1,0.4-1.4,1.7-2.6,1.9c-0.4,0.1-0.7,0.2-1.1,0
		c-1-0.8-2.1-0.5-2.9,0c-1.8,1.1-3.7,1.8-5.5,2.8c-1.8,1-3.7,1.9-5.5,3c-0.6,0.4-1.5,0.5-1.8,1.4"/>
	
		<path fill="none" stroke="#000000" stroke-width="0.7115" stroke-linecap="round" stroke-linejoin="round" stroke-miterlimit="10" d="
		M632.7,431.8c-2.3,0.2-3.7,1.8-4.6,3.5c-0.7,1.4-0.1,3.3,0.4,5c0.5,1.6,1.1,3,2.5,3.9"/>
	
		<path fill="none" stroke="#000000" stroke-width="0.7115" stroke-linecap="round" stroke-linejoin="round" stroke-miterlimit="10" d="
		M579.4,404c-0.2,0.2-0.4,0.3-0.9,0.3c-0.2-0.5-0.7-1-1.3-1.3c-0.7,0.7-1.8,0.9-2,2.1c0,0.1-0.1,0.1-0.2,0.1c-2.5,0.8-3.7,2.9-4.9,5
		c-0.3,0.5-1.2,0.8-0.5,1.6"/>
	
		<path fill="none" stroke="#000000" stroke-width="0.7115" stroke-linecap="round" stroke-linejoin="round" stroke-miterlimit="10" d="
		M674.2,404.6c0.9-0.1,0.8,0.5,0.7,1c-0.1,1.5-0.3,3.1-0.9,4.5c-0.6,1.3-1.5,2.4-2.5,3.4c-1.3,1.2-2.6,2.4-4.3,3.3
		c-1.3,0.7-2.6,1.6-3.2,3c-0.1,0.3-0.4,0.6-0.7,0.7c-0.9,0.3-1.5,1.3-2.3,1.5c-1,0.2-1.7,0.7-2.6,1"/>
	
		<path fill="none" stroke="#000000" stroke-width="0.7115" stroke-linecap="round" stroke-linejoin="round" stroke-miterlimit="10" d="
		M693.9,386.4c-1,0-1.7,0.5-2.5,1.2c-0.8,0.8-1.4,1.8-2.6,2.2c-0.7,0.3-1.6,0.7-1.7,1.7c0,0.3-0.8,0.6-1.3,0.7
		c-1.1,0.3-2,0.8-2.6,1.8c-0.1,0.2-0.3,0.3-0.5,0.4c-3.7,1.8-7.2,3.9-9.9,7.1c-0.4,0.4-0.9,0.7-1.6,0.6c-0.7-0.1-1.2,0.2-1.8,0.7
		c-0.8,0.7-1.8,1.2-2.4,2.1"/>
	
		<path fill="none" stroke="#000000" stroke-width="0.7115" stroke-linecap="round" stroke-linejoin="round" stroke-miterlimit="10" d="
		M701.5,375.6c-0.7,0.2-1.2,0.6-1.4,1.2c-0.6,1.4-1.5,2.6-2.3,3.9c-0.5,0.7-0.8,1.5-0.6,2.3"/>
	
		<path fill="none" stroke="#000000" stroke-width="0.7115" stroke-linecap="round" stroke-linejoin="round" stroke-miterlimit="10" d="
		M703.2,369.2c-0.8,1.1,0.1,2.3-0.4,3.4c-0.1,0.3,0,0.7-0.1,1c-1.3,2.9-2,6.1-4.2,8.3c-1.4,1.4-2.2,3.5-4.3,4.3"/>
	
		<path fill="none" stroke="#000000" stroke-width="0.7115" stroke-linecap="round" stroke-linejoin="round" stroke-miterlimit="10" d="
		M646.2,413.6c-0.4-0.9-1.6-1-2.2-1.1c-0.9-0.2-2-0.2-3,0.2c-0.9,0.3-1.6,0.8-2,1.8c-0.6,1.3-1.2,2.6-1.9,3.8
		c-0.8,1.5-0.6,2.8,0.2,4.2"/>
	
		<path fill="none" stroke="#000000" stroke-width="0.7115" stroke-linecap="round" stroke-linejoin="round" stroke-miterlimit="10" d="
		M649.2,424.2c0.3,1.3,0.5,2.7-0.3,3.9c-0.9,1.5-1.4,1.7-3.2,1c-0.3-0.8,0-1.5,0-2.3c0-0.4,0.2-0.6,0.6-0.6c0.4,0,0.8-0.3,1.2-0.5"
		/>
	
		<path fill="none" stroke="#000000" stroke-width="0.7115" stroke-linecap="round" stroke-linejoin="round" stroke-miterlimit="10" d="
		M637,424.5c0.4,2.1,2.1,3.6,2.9,5.5c0.3,0.6,0.9,1.1,1.4,1.5c1.4,1.1,1.9,2.6,2.4,4.1c0.2,0.5,0.3,0.9,0.6,1.3
		c0.4,0.5,0.5,1.2,0.3,1.8c-0.2,0.5-0.1,1,0.2,1.6c1.1-0.8,2.2-1.4,2.3-2.9"/>
	
		<path fill="none" stroke="#000000" stroke-width="0.7115" stroke-linecap="round" stroke-linejoin="round" stroke-miterlimit="10" d="
		M693.3,357c-1.5,0.3-3,0.4-4.6,0.3c-1,0-1.8,0.4-2.5,1.1c-0.5,0.6-1.1,0.7-1.8,0.7c-1.7-0.1-3.3-0.2-4.8,0.8"/>
	
		<path fill="none" stroke="#000000" stroke-width="0.7115" stroke-linecap="round" stroke-linejoin="round" stroke-miterlimit="10" d="
		M633.2,393c0.4,1.1,0.5,2.1,0,3.1c-0.1,0.1-0.2,0.3-0.2,0.4c0.2,1.5-0.7,2.2-2,2.7"/>
	
		<path fill="none" stroke="#000000" stroke-width="0.7115" stroke-linecap="round" stroke-linejoin="round" stroke-miterlimit="10" d="
		M669.4,378c-1.4-0.1-2.6,0.4-3.4,1.4c-0.4,0.4-0.8,0.5-1.2,0.7c-0.9,0.5-1.3,1.1-1,2.1"/>
	
		<path fill="none" stroke="#000000" stroke-width="0.7115" stroke-linecap="round" stroke-linejoin="round" stroke-miterlimit="10" d="
		M647.4,422.1c-0.8-0.8-1.3,0.2-1.9,0.4c-0.6,0.2-1.7,0.5-1.6,1.6c0.1,1.3,1,1.7,1.9,2.2"/>
	
		<path fill="none" stroke="#000000" stroke-width="0.7115" stroke-linecap="round" stroke-linejoin="round" stroke-miterlimit="10" d="
		M647.3,415.9c-0.5,0.6,0.2,1.1,0.3,1.3c0.9,1.5,2.1,2.8,3.4,3.9"/>
	
		<path fill="none" stroke="#000000" stroke-width="0.7115" stroke-linecap="round" stroke-linejoin="round" stroke-miterlimit="10" d="
		M584.6,414.3c-2,0.4-3.4-0.9-4.9-1.7c-0.9-0.4-1.1-1.5-1.3-2.3c-0.3-0.9-0.7-1.8-1-2.7c-0.2-0.6-0.5-1.2-1.3-1.4
		c-0.6-0.1-0.7-0.6-1-1"/>
	
		<path fill="none" stroke="#000000" stroke-width="0.7115" stroke-linecap="round" stroke-linejoin="round" stroke-miterlimit="10" d="
		M701.9,345.3c-2.2,1-2.8,3-3.1,5.2"/>
	
		<path fill="none" stroke="#000000" stroke-width="0.7115" stroke-linecap="round" stroke-linejoin="round" stroke-miterlimit="10" d="
		M594.3,410.5c0.7,0.4,1.4,0.8,1.5,1.7c-1.6,0.9-3.4,0.7-5.1,0.9c-0.6,0.1-1.5,0-1.4,1.1"/>
	
		<path fill="none" stroke="#000000" stroke-width="0.7115" stroke-linecap="round" stroke-linejoin="round" stroke-miterlimit="10" d="
		M691.3,363.1c1.5-0.1,2.3-0.8,2.6-2.2c0.2-1,0.4-2,0.3-3"/>
	
		<path fill="none" stroke="#000000" stroke-width="0.7115" stroke-linecap="round" stroke-linejoin="round" stroke-miterlimit="10" d="
		M589.4,413.5c-1-0.9-2.2-1-3.4-1.1c-1.3-0.1-2.4-0.4-3.4-1.2c-1-0.8-2.4-1.2-3.7-1.4"/>
	
		<path fill="none" stroke="#000000" stroke-width="0.7115" stroke-linecap="round" stroke-linejoin="round" stroke-miterlimit="10" d="
		M584.9,398.7c-0.8,0.6-1.5,1.1-2.6,0.5c-0.6-0.3-1.3,0.2-1.9,0.5c-1.1,0.5-2.4,1.1-2.9,2.4"/>
	
		<path fill="none" stroke="#000000" stroke-width="0.7115" stroke-linecap="round" stroke-linejoin="round" stroke-miterlimit="10" d="
		M665.2,408.4c0.3,0.9,1.2,1.1,1.8,1.7c0.5,0.5,0.6,0.8,0.3,1.4c-0.7,1.1-1.5,1.9-2.9,2c-0.5,0-1,0.1-1.6,0.2"/>
	
		<path fill="none" stroke="#000000" stroke-width="0.7115" stroke-linecap="round" stroke-linejoin="round" stroke-miterlimit="10" d="
		M639.7,413.2c-1.2-1.1-2.7-1.6-4.4-1.3c-0.6,0.1-1.3,0.1-1.9,0.2"/>
	
		<path fill="none" stroke="#000000" stroke-width="0.7115" stroke-linecap="round" stroke-linejoin="round" stroke-miterlimit="10" d="
		M614.8,404.4c-1-0.4-1.1,0.8-1.7,1.1c-0.4,0.3-0.6,0.8-0.9,1.3c-0.8,0.9-0.6,1.3,0.4,2.1"/>
	
		<path fill="none" stroke="#000000" stroke-width="0.7115" stroke-linecap="round" stroke-linejoin="round" stroke-miterlimit="10" d="
		M609.8,422c-0.3,0.5-0.9,0.8-0.6,1.5c0.2,0.3,0,0.3-0.2,0.4c-0.6,0.4-0.6,0.8,0,1.3c0.1,0.1,0.3,0.2,0.2,0.5
		c-0.3,1.1,0.3,1.9,0.6,2.8"/>
	
		<path fill="none" stroke="#000000" stroke-width="0.7115" stroke-linecap="round" stroke-linejoin="round" stroke-miterlimit="10" d="
		M709.5,331.2c-0.7,2.1-2.1,3.9-2.8,6c-0.1,0.3-0.7,0.7-1.2,0.7c-0.7,0-1.4,0-1.8,0.7c-0.6,1-1.3,1.9-1,3.1c0.2,1,0.2,1.9-0.3,2.7
		c-0.2,0.4-0.3,0.8-0.2,1.3c0.1,0.3,0.2,0.7-0.1,1.2c-0.5,0.9-0.5,1.9-0.4,2.9c0.1,0.7-0.1,1.2-0.7,1.6"/>
	
		<path fill="none" stroke="#000000" stroke-width="0.7115" stroke-linecap="round" stroke-linejoin="round" stroke-miterlimit="10" d="
		M648.9,389.4c-0.4,0.9-0.5,2.2-1.4,2.6c-1.6,0.8-2.5,2.7-4.6,3c-0.8,0.1-1.5,0.9-2.1,1.6c-0.5,0.6-1.3,0.9-2,1.3
		c-1.2,0.6-2.7,0.9-3.7,1.9c-0.8,0.8-1.8,1.6-3.2,1.6c-0.3,0-0.6,0.2-0.7,0.5c-0.4,0.8-1.1,1.1-2,1c-0.7-0.1-1.4-0.1-2,0.6
		c-0.4,0.4-1.3,1.2-2,0.1"/>
	
		<path fill="none" stroke="#000000" stroke-width="0.7115" stroke-linecap="round" stroke-linejoin="round" stroke-miterlimit="10" d="
		M668.8,379.1c-0.6,1.7-2.6,3.2-4.5,3.2"/>
	
		<path fill="none" stroke="#000000" stroke-width="0.7115" stroke-linecap="round" stroke-linejoin="round" stroke-miterlimit="10" d="
		M695.7,387.2c-0.4,1.3-1.1,2.2-2.5,2.5c-0.6,0.1-1.1,0.7-1.6,1.1"/>
	
		<path fill="none" stroke="#000000" stroke-width="0.7115" stroke-linecap="round" stroke-linejoin="round" stroke-miterlimit="10" d="
		M691.3,392.3c-0.3,1.2-1.2,2.1-2,3.1c-0.2,0.3-0.7,0.6-1,0.5c-1.6-0.5-2.3,0.8-3.3,1.5"/>
	
		<path fill="none" stroke="#000000" stroke-width="0.7115" stroke-linecap="round" stroke-linejoin="round" stroke-miterlimit="10" d="
		M623.8,442.6c-0.9-0.1-1.6,0.4-2.2,0.9c-1.5,1.2-2.9,2.5-3.7,4.3"/>
	
		<path fill="none" stroke="#000000" stroke-width="0.7115" stroke-linecap="round" stroke-linejoin="round" stroke-miterlimit="10" d="
		M609.8,395.9c-0.2-0.2-0.5-0.5-0.7-0.7c-0.3-0.3-0.2-1-0.8-1.1c-0.7-0.1-1.1,0.5-1.6,0.8c-0.2,0.1-0.4,0.3-0.5,0.5
		c-0.5,0.6-0.7,0.1-1-0.2"/>
	
		<path fill="none" stroke="#000000" stroke-width="0.7115" stroke-linecap="round" stroke-linejoin="round" stroke-miterlimit="10" d="
		M658.1,425.3c-0.9,1.1-1.8,2-2.8,3c-0.4,0.4-0.8,0.3-1.2,0.5"/>
	
		<path fill="none" stroke="#000000" stroke-width="0.7115" stroke-linecap="round" stroke-linejoin="round" stroke-miterlimit="10" d="
		M660.9,422.7c-0.7,1.4-1.8,2-3.3,2.1c-0.7,0-1.2,0.5-1.6,1"/>
	
		<path fill="none" stroke="#000000" stroke-width="0.7115" stroke-linecap="round" stroke-linejoin="round" stroke-miterlimit="10" d="
		M699.8,351.4c-0.8,1.8-1.9,3.4-3.1,4.9c-0.3,0.4-0.9,0.6-1.4,0.9c-1.1,0.5-1.6,0.6-1.7-0.8"/>
	
		<path fill="none" stroke="#000000" stroke-width="0.7115" stroke-linecap="round" stroke-linejoin="round" stroke-miterlimit="10" d="
		M654.9,408.8c-0.9,0-1.5,0.2-1.6,1.3c0,0.5-0.6,1.1-1,1c-0.8-0.1-1.6-0.1-2.3,0.3c-0.2,0.1-0.6-0.1-0.8-0.3
		c-0.9-0.7-2.8-0.7-3.6,0.1c-0.4,0.4-0.8,0.8-1.2,1.2"/>
	
		<path fill="none" stroke="#000000" stroke-width="0.7115" stroke-linecap="round" stroke-linejoin="round" stroke-miterlimit="10" d="
		M688.4,364.2c-1.1,0.5-2,1.4-2.6,2.4c-0.9,1.4-2.1,1.8-3.5,2c-0.7,0.1-0.6,0.5-0.8,0.8"/>
	
		<path fill="none" stroke="#000000" stroke-width="0.7115" stroke-linecap="round" stroke-linejoin="round" stroke-miterlimit="10" d="
		M663,405.9c-1.7,0.4-3.4,0.8-4.8,1.9c0,0-0.2-0.1-0.2-0.1"/>
	
		<path fill="none" stroke="#000000" stroke-width="0.7115" stroke-linecap="round" stroke-linejoin="round" stroke-miterlimit="10" d="
		M622,462.5c-0.1,1-1.1,1.3-1.8,1.7c-0.6,0.4-1.1,0.9-1.8,1.2c-0.5,0.3-0.5,0.7-0.3,1.1"/>
	
		<path fill="none" stroke="#000000" stroke-width="0.7115" stroke-linecap="round" stroke-linejoin="round" stroke-miterlimit="10" d="
		M655.2,404.5c-1.7,0.3-3.2,0.9-4,2.7c-0.2,0.5-0.6,0.8-1,1.2"/>
	
		<path fill="none" stroke="#000000" stroke-width="0.7115" stroke-linecap="round" stroke-linejoin="round" stroke-miterlimit="10" d="
		M666.9,362.8c-1.4,0-2.5,0.5-3.4,1.4c-0.6,0.6-1.2,0.9-2,0.9c-0.8,0-1.4,0.2-2.1,0.6c-0.8,0.4-1.6,0.8-2.6,0.8
		c-0.9,0-1.5,0.5-2.1,0.9"/>
	
		<path fill="none" stroke="#000000" stroke-width="0.7115" stroke-linecap="round" stroke-linejoin="round" stroke-miterlimit="10" d="
		M650.6,384.7c-1.5,0.2-2.2,0.9-2.4,2.3c0,0.4,0.1,0.6,0.3,0.9c0.3,0.4,0.8,0.7,0.5,1.3"/>
	
		<path fill="none" stroke="#000000" stroke-width="0.7115" stroke-linecap="round" stroke-linejoin="round" stroke-miterlimit="10" d="
		M600.7,427.5c0.5-0.5,1-1,1.5-1.6c-0.2-0.8-0.6-1.5-1.1-2.2"/>
	
		<path fill="none" stroke="#000000" stroke-width="0.7115" stroke-linecap="round" stroke-linejoin="round" stroke-miterlimit="10" d="
		M610.3,410c-1.2,0.5-2.3,1.1-3.6,0.8c-0.4-0.1-0.5-0.3-0.7-0.6"/>
	
		<path fill="none" stroke="#000000" stroke-width="0.7115" stroke-linecap="round" stroke-linejoin="round" stroke-miterlimit="10" d="
		M664,382.4c-0.4-0.3-0.5,0.2-0.6,0.3c-1.7,2.1-3,2.2-4.8,0.3"/>
	
		<path fill="none" stroke="#000000" stroke-width="0.7115" stroke-linecap="round" stroke-linejoin="round" stroke-miterlimit="10" d="
		M667.4,410.4c1-0.7,1.5-1.6,1.3-2.8c-0.4-0.2-0.8,0-1.2,0c-0.4,0.6-0.4,1.4-0.9,1.9"/>
	
		<path fill="none" stroke="#000000" stroke-width="0.7115" stroke-linecap="round" stroke-linejoin="round" stroke-miterlimit="10" d="
		M674.1,376c-0.9,1.2-1.8,2.3-3.6,2.1"/>
	
		<path fill="none" stroke="#000000" stroke-width="0.7115" stroke-linecap="round" stroke-linejoin="round" stroke-miterlimit="10" d="
		M622.1,405.3c-1.1,1.3-2.7,1.5-4.3,1.9c-1.3,0.4-2.5,1.2-4,1.3c-0.5,0-1.2,0.3-1.6,0.9c-0.3,0.4-1.1,0.5-1.7,0.5
		c0.1-1.3-1.2-0.6-1.7-1.2"/>
	
		<path fill="none" stroke="#000000" stroke-width="0.7115" stroke-linecap="round" stroke-linejoin="round" stroke-miterlimit="10" d="
		M605,410.4c-0.7-0.3-1.5-0.2-2.2-0.6c-0.7-0.4-1.4,0.1-1.9,0.7"/>
	
		<path fill="none" stroke="#000000" stroke-width="0.7115" stroke-linecap="round" stroke-linejoin="round" stroke-miterlimit="10" d="
		M659.8,384.5c-0.8,1-1.8,1.5-3.1,0.7c-1-0.6-1.8,0.1-2.7,0.5c-1.1,0.5-2.8,0.3-2.9-0.8c-0.2-1.4-0.9-2.5-1.3-3.8
		c-0.1-0.3,0.1-0.7,0.1-1"/>
	
		<path fill="none" stroke="#000000" stroke-width="0.7115" stroke-linecap="round" stroke-linejoin="round" stroke-miterlimit="10" d="
		M699.6,375.9c-1.4,1.6-2.8,3.2-4.2,4.7c-0.5,0.5-0.8,1.1-1.3,1.6c-0.6,0.5-1.2,0.8-1.9,0.6"/>
	
		<path fill="none" stroke="#000000" stroke-width="0.7115" stroke-linecap="round" stroke-linejoin="round" stroke-miterlimit="10" d="
		M615.9,425.7c-0.7,0.7-1.5,1.2-2.3,1.8c-0.4,0.3-0.7,0.3-1.1,0.2"/>
	
		<path fill="none" stroke="#000000" stroke-width="0.7115" stroke-linecap="round" stroke-linejoin="round" stroke-miterlimit="10" d="
		M617.5,449c-0.4,1.5-0.6,3,0.2,4.5"/>
	
		<path fill="none" stroke="#000000" stroke-width="0.7115" stroke-linecap="round" stroke-linejoin="round" stroke-miterlimit="10" d="
		M652.9,409.5c-1.4,0-2.8,0.3-3.9,1.3"/>
	
		<path fill="none" stroke="#000000" stroke-width="0.7115" stroke-linecap="round" stroke-linejoin="round" stroke-miterlimit="10" d="
		M655.1,368.1c-1.1-1.2-2.7-1.1-3.7,0.2c-0.1,0.2-0.5,0.2-0.4,0.5"/>
	
		<path fill="none" stroke="#000000" stroke-width="0.7115" stroke-linecap="round" stroke-linejoin="round" stroke-miterlimit="10" d="
		M636.5,395.8c-0.5-0.4-0.9,0.1-1.1,0.4c-0.1,0.1-0.1,0.6,0.3,1c0.4,0.3,0.6,1,0.9,1.5"/>
	
		<path fill="none" stroke="#000000" stroke-width="0.7115" stroke-linecap="round" stroke-linejoin="round" stroke-miterlimit="10" d="
		M699.6,374.1c-1.2,0.4-1.9,1.7-3.1,2.2"/>
	
		<path fill="none" stroke="#000000" stroke-width="0.7115" stroke-linecap="round" stroke-linejoin="round" stroke-miterlimit="10" d="
		M679.4,361.5c-0.9,0.5-1.6,0.5-2.2-0.4c-0.2-0.3-0.7-0.5-0.9-0.9"/>
	
		<path fill="none" stroke="#000000" stroke-width="0.7115" stroke-linecap="round" stroke-linejoin="round" stroke-miterlimit="10" d="
		M598.6,394.3c-0.2-1.4-0.7-1.7-1.8-1c-1,0.7-2,1.3-3.3,1.3c-0.5,0-1,0.4-1.5,0.7c-0.7,0.5-1.4,1-2.2,1c-1,0-1,1-1.7,1.4"/>
	
		<path fill="none" stroke="#000000" stroke-width="0.7115" stroke-linecap="round" stroke-linejoin="round" stroke-miterlimit="10" d="
		M601.9,392.5c-1.3-0.5-2.5-0.2-3.7,0.5"/>
	
		<path fill="none" stroke="#000000" stroke-width="0.7115" stroke-linecap="round" stroke-linejoin="round" stroke-miterlimit="10" d="
		M588.4,396.5c-1.7-0.4-2.9,0.8-4.3,1.3c-0.6,0.2-1.4,0.4-1.5,1.3"/>
	
		<path fill="none" stroke="#000000" stroke-width="0.7115" stroke-linecap="round" stroke-linejoin="round" stroke-miterlimit="10" d="
		M625.6,404.2c-0.6,1.3-1.3,1.6-3.2,1.2"/>
	
		<path fill="none" stroke="#000000" stroke-width="0.7115" stroke-linecap="round" stroke-linejoin="round" stroke-miterlimit="10" d="
		M635,429.1c-0.1,0-0.1,0-0.2,0c-2.3-0.9-4.2-0.4-5.6,1.7"/>
	
		<path fill="none" stroke="#000000" stroke-width="0.7115" stroke-linecap="round" stroke-linejoin="round" stroke-miterlimit="10" d="
		M675.2,396.2c-0.7,1-1.6,1.8-3,1.9"/>
	
		<path fill="none" stroke="#000000" stroke-width="0.7115" stroke-linecap="round" stroke-linejoin="round" stroke-miterlimit="10" d="
		M688.2,396.4c-0.6,1.2-1.4,2.1-2.9,2.1"/>
	
		<path fill="none" stroke="#000000" stroke-width="0.7115" stroke-linecap="round" stroke-linejoin="round" stroke-miterlimit="10" d="
		M661.8,407.2c-0.4,0.5-0.9,0.8-1.6,0.9c-1.2,0.1-1.5,0.9-1.1,2c0.4,1,0,2-0.2,3.1c-0.9-0.4-1.6-0.8-1.8-1.7c0-0.1,0-0.3,0-0.3
		c-1.4-0.3-1.3-1.8-2.2-2.5"/>
	
		<path fill="none" stroke="#000000" stroke-width="0.7115" stroke-linecap="round" stroke-linejoin="round" stroke-miterlimit="10" d="
		M669.6,373.2c-1.1,0.7-0.3,1.5-0.2,2.3c0.1,0.3,0.5,0.4,0.4,0.8"/>
	
		<path fill="none" stroke="#000000" stroke-width="0.7115" stroke-linecap="round" stroke-linejoin="round" stroke-miterlimit="10" d="
		M705.5,338.1c0.2,2-0.8,4.2-2.3,4.9"/>
	
		<path fill="none" stroke="#000000" stroke-width="0.7115" stroke-linecap="round" stroke-linejoin="round" stroke-miterlimit="10" d="
		M643.6,442.1c-0.1,0.7-0.7,1.1-1.2,1.4c-0.5,0.3-0.7,0.8-1,1.2"/>
	
		<path fill="none" stroke="#000000" stroke-width="0.7115" stroke-linecap="round" stroke-linejoin="round" stroke-miterlimit="10" d="
		M601.2,395.1c0.3-0.3,0.5-0.5,0.8-0.8c0.8-0.6,0.6-1.1,0-1.7"/>
	
		<path fill="none" stroke="#000000" stroke-width="0.7115" stroke-linecap="round" stroke-linejoin="round" stroke-miterlimit="10" d="
		M637.5,422.7c-0.2,0.7-0.1,1.6-1.1,1.9c-0.4,0.1-0.4,0.4-0.2,0.8c0.3,0.8-0.1,1.2-0.7,1.6"/>
	
		<path fill="none" stroke="#000000" stroke-width="0.7115" stroke-linecap="round" stroke-linejoin="round" stroke-miterlimit="10" d="
		M667.4,407.6c-0.6-0.7-1.2,0-1.6,0.2c-1.2,0.6-2.2,1.5-3.1,2.5c-0.5,0.5-0.7,1.1-0.6,1.8"/>
	
		<path fill="none" stroke="#000000" stroke-width="0.7115" stroke-linecap="round" stroke-linejoin="round" stroke-miterlimit="10" d="
		M593.7,432.6c-1.1,0.2-2.2,0.6-3.3,1"/>
	
		<path fill="none" stroke="#000000" stroke-width="0.7115" stroke-linecap="round" stroke-linejoin="round" stroke-miterlimit="10" d="
		M608.6,405.5c0.2,0.4,0.3,1,0,1.3c-0.5,0.7-0.2,1.2,0.1,1.7c-0.1,0.5-0.5,0.8-0.7,0.7c-1.2-0.3-1.9,0.3-2.6,1.2
		c-1.1,1.4-2.8,1.4-4.3,1.5c-1,0.1-2,0.2-2.9,0.4c-0.9,0.2-1.6,0.2-2.4-0.2"/>
	
		<path fill="none" stroke="#000000" stroke-width="0.7115" stroke-linecap="round" stroke-linejoin="round" stroke-miterlimit="10" d="
		M651.1,370.5c-0.6,0.8-1.4,1-2.4,0.8c-0.7,1.3-1.9,1.4-3.2,1.7"/>
	
		<path fill="none" stroke="#000000" stroke-width="0.7115" stroke-linecap="round" stroke-linejoin="round" stroke-miterlimit="10" d="
		M665.5,367.7c-1.4,0.9-2.9,0.9-4.5,0.5"/>
	
		<path fill="none" stroke="#000000" stroke-width="0.7115" stroke-linecap="round" stroke-linejoin="round" stroke-miterlimit="10" d="
		M612.2,390.3c-0.9,1.6-0.1,2.9,0.4,4.4"/>
	
		<path fill="none" stroke="#000000" stroke-width="0.7115" stroke-linecap="round" stroke-linejoin="round" stroke-miterlimit="10" d="
		M649.2,434.9c-0.8,1.1-2,1.8-3.2,2.5"/>
	
		<path fill="none" stroke="#000000" stroke-width="0.7115" stroke-linecap="round" stroke-linejoin="round" stroke-miterlimit="10" d="
		M657.2,423.5c-1,0.3-2.1-0.3-3,0.6"/>
	
		<path fill="none" stroke="#000000" stroke-width="0.7115" stroke-linecap="round" stroke-linejoin="round" stroke-miterlimit="10" d="
		M680.4,361.9c-0.3-0.2-0.5-0.4-0.8-0.5c0-0.4,0-0.8,0-1.2c-1.9-1.4-3.4,0-5,0.6"/>
	
		<path fill="none" stroke="#000000" stroke-width="0.7115" stroke-linecap="round" stroke-linejoin="round" stroke-miterlimit="10" d="
		M647.6,379.1c-1.2-1.4-1.4-1.5-2.4-0.8c-0.4,0.3,0.1,0.4,0.1,0.6"/>
	
		<path fill="none" stroke="#000000" stroke-width="0.7115" stroke-linecap="round" stroke-linejoin="round" stroke-miterlimit="10" d="
		M614.6,451.3c-0.6,0.3-0.4,1-0.5,1.5c-0.1,0.5,0.7,0.6,1.3,0.1"/>
	
		<path fill="none" stroke="#000000" stroke-width="0.7115" stroke-linecap="round" stroke-linejoin="round" stroke-miterlimit="10" d="
		M643,374.4c-1.3,0.2-1.5,0.5-1.2,1.6c0.1,0.2,0,0.5,0.1,0.7"/>
	
		<path fill="none" stroke="#000000" stroke-width="0.7115" stroke-linecap="round" stroke-linejoin="round" stroke-miterlimit="10" d="
		M654.3,427.1c0,0.7-0.8,1.2-0.3,2.1c0.3,0.6-0.5,1.4-1.3,1.4c-0.3,0-0.5,0-0.7,0.1"/>
	
		<path fill="none" stroke="#000000" stroke-width="0.7115" stroke-linecap="round" stroke-linejoin="round" stroke-miterlimit="10" d="
		M647.4,378.5c0.3-0.5,0.6-0.9,0.8-1.4c0.3-0.6,0.2-1.1-0.2-1.6c-0.6,0.2-1.3,0.5-2,0.1"/>
	
		<path fill="none" stroke="#000000" stroke-width="0.7115" stroke-linecap="round" stroke-linejoin="round" stroke-miterlimit="10" d="
		M657.6,386.9c-0.4,1.2-1,2-2.4,1.8"/>
	
		<path fill="none" stroke="#000000" stroke-width="0.7115" stroke-linecap="round" stroke-linejoin="round" stroke-miterlimit="10" d="
		M637.5,378.3c-2.2,0.9-2.2,0.9-2.1,3.3c-0.3,0.1-0.5,0.2-0.8,0.2"/>
	
		<path fill="none" stroke="#000000" stroke-width="0.7115" stroke-linecap="round" stroke-linejoin="round" stroke-miterlimit="10" d="
		M668.7,373.7c-1.1-0.2-1.7-1.1-2.3-1.9"/>
	
		<path fill="none" stroke="#000000" stroke-width="0.7115" stroke-linecap="round" stroke-linejoin="round" stroke-miterlimit="10" d="
		M596.4,397.7c0-0.3,0.1-0.7,0-0.8c-1.1-0.5-1-1.6-1.4-2.4"/>
	
		<path fill="none" stroke="#000000" stroke-width="0.7115" stroke-linecap="round" stroke-linejoin="round" stroke-miterlimit="10" d="
		M619.2,421.1c0.3,1.8,0.1,2.2-1.5,2.6c-0.4,0.1-0.5,0.7-1,0.6"/>
	
		<path fill="none" stroke="#000000" stroke-width="0.7115" stroke-linecap="round" stroke-linejoin="round" stroke-miterlimit="10" d="
		M650.8,391.8c-0.4,1-1.1,1.6-2.3,1.3"/>
	
		<path fill="none" stroke="#000000" stroke-width="0.7115" stroke-linecap="round" stroke-linejoin="round" stroke-miterlimit="10" d="
		M667.1,404.2c-0.8-0.1-1.6,0.3-2.1,0.8c-0.5,0.5-1.1,0.7-1.8,0.8"/>
	
		<path fill="none" stroke="#000000" stroke-width="0.7115" stroke-linecap="round" stroke-linejoin="round" stroke-miterlimit="10" d="
		M636.5,414.9c-0.7,0.7-1.6,0.8-2.5,0.9"/>
	
		<path fill="none" stroke="#000000" stroke-width="0.7115" stroke-linecap="round" stroke-linejoin="round" stroke-miterlimit="10" d="
		M628.8,398.9c0,1-0.5,2-0.8,2.9"/>
	
		<path fill="none" stroke="#000000" stroke-width="0.7115" stroke-linecap="round" stroke-linejoin="round" stroke-miterlimit="10" d="
		M647.7,388.2c-0.4,0.8-0.9,1.7-1.3,2.5"/>
	
		<path fill="none" stroke="#000000" stroke-width="0.7115" stroke-linecap="round" stroke-linejoin="round" stroke-miterlimit="10" d="
		M669,361.9c0.5,0.3,1.1,0.2,1.5,0.8c0.3,0.4,0.7,0.1,0.8-0.3c0.1-0.5,0.2-1-0.1-1.5c-1.3-0.6-2.1,0.5-2.8,1.2
		c-0.4,0.4-0.8,0.5-1.3,0.6"/>
	
		<path fill="none" stroke="#000000" stroke-width="0.7115" stroke-linecap="round" stroke-linejoin="round" stroke-miterlimit="10" d="
		M667.8,374.8c-0.6,0.4-0.9,0.9-0.4,1.7c0.3,0.5,0.6,0.9,0.9,1.4"/>
	
		<path fill="none" stroke="#000000" stroke-width="0.7115" stroke-linecap="round" stroke-linejoin="round" stroke-miterlimit="10" d="
		M642.6,395c-1.2-1.3-1.5-3.1-2.7-4.4"/>
	
		<path fill="none" stroke="#000000" stroke-width="0.7115" stroke-linecap="round" stroke-linejoin="round" stroke-miterlimit="10" d="
		M669.3,398.7c-0.8,0.4-1.6,0.6-2.2-0.4"/>
	
		<path fill="none" stroke="#000000" stroke-width="0.7115" stroke-linecap="round" stroke-linejoin="round" stroke-miterlimit="10" d="
		M663.6,364.5c0.6,0.5,1.5-0.5,2.1,0.5c-0.3,0.8-0.9,1.5-1.9,1.8"/>
	
		<path fill="none" stroke="#000000" stroke-width="0.7115" stroke-linecap="round" stroke-linejoin="round" stroke-miterlimit="10" d="
		M658.6,409.3c-0.9,0.1-1.9,0.2-2.8,0.4"/>
	
		<path fill="none" stroke="#000000" stroke-width="0.7115" stroke-linecap="round" stroke-linejoin="round" stroke-miterlimit="10" d="
		M657.9,407.8c-0.9,0-1.9,0-2.4,1"/>
	
		<path fill="none" stroke="#000000" stroke-width="0.7115" stroke-linecap="round" stroke-linejoin="round" stroke-miterlimit="10" d="
		M615.1,388.4c0.2,0.8,0,1.6-0.5,2.2c-0.5,0.5-0.2,1.3-0.8,1.7c0.3,0.2,0.6,0.4,0.9,0.5"/>
	
		<path fill="none" stroke="#000000" stroke-width="0.7115" stroke-linecap="round" stroke-linejoin="round" stroke-miterlimit="10" d="
		M652.7,431.1c0,0.2-0.1,0.3-0.2,0.5c-0.8,0.9-2,1.4-2.3,2.7c-0.1,0.3-0.5,0.5-0.9,0.4c0,0-0.1-0.1-0.1-0.1c0-0.1,0-0.1,0-0.2"/>
	
		<path fill="none" stroke="#000000" stroke-width="0.7115" stroke-linecap="round" stroke-linejoin="round" stroke-miterlimit="10" d="
		M666.6,417c-0.3-1.2-1.2-0.9-2-0.9"/>
	
		<path fill="none" stroke="#000000" stroke-width="0.7115" stroke-linecap="round" stroke-linejoin="round" stroke-miterlimit="10" d="
		M639.2,419.8c-0.4,0.9-1.2,1.1-2.1,1.2"/>
	
		<path fill="none" stroke="#000000" stroke-width="0.7115" stroke-linecap="round" stroke-linejoin="round" stroke-miterlimit="10" d="
		M651.2,385.9c-0.6,0.8-0.7,1.7-1,2.6"/>
	
		<path fill="none" stroke="#000000" stroke-width="0.7115" stroke-linecap="round" stroke-linejoin="round" stroke-miterlimit="10" d="
		M673.2,406.2c-0.9-0.3-0.5-1.5-1.2-1.9"/>
	
		<path fill="none" stroke="#000000" stroke-width="0.7115" stroke-linecap="round" stroke-linejoin="round" stroke-miterlimit="10" d="
		M611.9,393.9c-1.1,0.6-1.6,0-1.9-0.9"/>
	
		<path fill="none" stroke="#000000" stroke-width="0.7115" stroke-linecap="round" stroke-linejoin="round" stroke-miterlimit="10" d="
		M690.6,391.2c-0.5,0.5-0.5,1.9-1.8,1.2"/>
	
		<path fill="none" stroke="#000000" stroke-width="0.7115" stroke-linecap="round" stroke-linejoin="round" stroke-miterlimit="10" d="
		M697.2,355.1c-0.6-0.3-1.3-0.6-2-0.9c-0.3,0.8-1.4,0.9-1.5,1.8"/>
	
		<path fill="none" stroke="#000000" stroke-width="0.7115" stroke-linecap="round" stroke-linejoin="round" stroke-miterlimit="10" d="
		M652.1,373.2c-0.5,0.6-1.2,1.2-1,2.1"/>
	
		<path fill="none" stroke="#000000" stroke-width="0.7115" stroke-linecap="round" stroke-linejoin="round" stroke-miterlimit="10" d="
		M685.2,366.4c-1.5-0.9-2.5-2.1-2.7-3.9"/>
	
		<path fill="none" stroke="#000000" stroke-width="0.7115" stroke-linecap="round" stroke-linejoin="round" stroke-miterlimit="10" d="
		M622,385.2c-0.6,0.5-1.4,0.6-1.8,1.3"/>
	
		<path fill="none" stroke="#000000" stroke-width="0.7115" stroke-linecap="round" stroke-linejoin="round" stroke-miterlimit="10" d="
		M656,384.8c0.1-1-0.8-1.2-1.3-1.8"/>
	
		<path fill="none" stroke="#000000" stroke-width="0.7115" stroke-linecap="round" stroke-linejoin="round" stroke-miterlimit="10" d="
		M663.1,373.4c-0.1-0.9-1.1-1-1.4-1.8"/>
	
		<path fill="none" stroke="#000000" stroke-width="0.7115" stroke-linecap="round" stroke-linejoin="round" stroke-miterlimit="10" d="
		M706.4,332.9c-0.7,0.9-0.8,2.1-1.5,3c-0.4,0.6-0.1,1.2,0,1.9"/>
	
		<path fill="none" stroke="#000000" stroke-width="0.7115" stroke-linecap="round" stroke-linejoin="round" stroke-miterlimit="10" d="
		M690.3,390.7c-0.7,0.3-1.3,0.6-2,0.9"/>
	
		<path fill="none" stroke="#000000" stroke-width="0.7115" stroke-linecap="round" stroke-linejoin="round" stroke-miterlimit="10" d="
		M629,382c-1.2,0.7-2.6,1.3-3.4,2.6"/>
	
		<path fill="none" stroke="#000000" stroke-width="0.7115" stroke-linecap="round" stroke-linejoin="round" stroke-miterlimit="10" d="
		M663.9,372.1c-0.1,0.8,0.4,1.4,0.8,2"/>
	
		<path fill="none" stroke="#000000" stroke-width="0.7115" stroke-linecap="round" stroke-linejoin="round" stroke-miterlimit="10" d="
		M611.1,423.2c-0.5-1.3-0.5-1.3,1.1-3c-0.2-0.2-0.4-0.4-0.5-0.5"/>
	
		<path fill="none" stroke="#000000" stroke-width="0.7115" stroke-linecap="round" stroke-linejoin="round" stroke-miterlimit="10" d="
		M673.5,360.2c-0.8-0.1-1.6,0.1-2.2,0.7"/>
	
		<path fill="none" stroke="#000000" stroke-width="0.7115" stroke-linecap="round" stroke-linejoin="round" stroke-miterlimit="10" d="
		M632,421c-0.7,0.4-1.3,0.9-2,0"/>
	
		<path fill="none" stroke="#000000" stroke-width="0.7115" stroke-linecap="round" stroke-linejoin="round" stroke-miterlimit="10" d="
		M674.5,404.3c0.1-1.3-1.2-1.6-1.8-2.4"/>
	
		<path fill="none" stroke="#000000" stroke-width="0.7115" stroke-linecap="round" stroke-linejoin="round" stroke-miterlimit="10" d="
		M617.5,407.1c-0.4-0.5-0.7-1.3-1.5-1.4"/>
	
		<path fill="none" stroke="#000000" stroke-width="0.7115" stroke-linecap="round" stroke-linejoin="round" stroke-miterlimit="10" d="
		M649.9,371.5c0.5,0.6,0.8,1.1,0,1.7"/>
	
		<path fill="none" stroke="#000000" stroke-width="0.7115" stroke-linecap="round" stroke-linejoin="round" stroke-miterlimit="10" d="
		M659.3,403c-1.3-0.4-1.3-0.4-2,0.7"/>
	
		<path fill="none" stroke="#000000" stroke-width="0.7115" stroke-linecap="round" stroke-linejoin="round" stroke-miterlimit="10" d="
		M582.4,405.5c-0.2,0.7,0.1,1.5-0.3,2.1"/>
	
		<path fill="none" stroke="#000000" stroke-width="0.7115" stroke-linecap="round" stroke-linejoin="round" stroke-miterlimit="10" d="
		M632.8,454.2c-0.6,0.6-0.9,1.2-0.3,1.9"/>
	
		<path fill="none" stroke="#000000" stroke-width="0.7115" stroke-linecap="round" stroke-linejoin="round" stroke-miterlimit="10" d="
		M647,411.8c-0.1,0.8,0.6,1.2,0.9,1.9"/>
	
		<path fill="none" stroke="#000000" stroke-width="0.7115" stroke-linecap="round" stroke-linejoin="round" stroke-miterlimit="10" d="
		M615.3,402c-0.6,0.6-0.8,1.4-0.9,2.2"/>
	
		<path fill="none" stroke="#000000" stroke-width="0.7115" stroke-linecap="round" stroke-linejoin="round" stroke-miterlimit="10" d="
		M694,386.9c-0.5,0.6-0.6,1.5-0.9,2.2"/>
	
		<path fill="none" stroke="#000000" stroke-width="0.7115" stroke-linecap="round" stroke-linejoin="round" stroke-miterlimit="10" d="
		M640.9,445.7c-0.4,0.4-1.3,0.3-1.3,1.2"/>
	
		<path fill="none" stroke="#000000" stroke-width="0.7115" stroke-linecap="round" stroke-linejoin="round" stroke-miterlimit="10" d="
		M627.9,435.1c-0.5-0.2-1.1-0.3-1.6-0.5c-0.3-0.1-0.3,0.1-0.3,0.2"/>
	
		<path fill="none" stroke="#000000" stroke-width="0.7115" stroke-linecap="round" stroke-linejoin="round" stroke-miterlimit="10" d="
		M657.9,404.2c-0.9-0.8-1.7-0.3-2.5,0.1c-0.1,0.4,0.1,0.7,0.4,0.8"/>
	
		<path fill="none" stroke="#000000" stroke-width="0.7115" stroke-linecap="round" stroke-linejoin="round" stroke-miterlimit="10" d="
		M625.6,402.2c-0.8,0-1.5-0.1-2.2-0.6"/>
	
		<path fill="none" stroke="#000000" stroke-width="0.7115" stroke-linecap="round" stroke-linejoin="round" stroke-miterlimit="10" d="
		M659.5,416.4c0,0.8,0.6,1.2,1.1,1.7c0.4-0.1,0.8-0.2,1.1-0.5"/>
	
		<path fill="none" stroke="#000000" stroke-width="0.7115" stroke-linecap="round" stroke-linejoin="round" stroke-miterlimit="10" d="
		M690.4,381.6c0.1,0.1,0.3,0.1,0.4,0.2c0.6,0,1.2,0.2,1.3,0.8c0.2,0.8-0.5,1-1.1,1.3c-0.2,0.1-0.3,0.1-0.5,0.2
		c-0.1-0.2-0.2-0.4-0.3-0.7"/>
	
		<path fill="none" stroke="#000000" stroke-width="0.7115" stroke-linecap="round" stroke-linejoin="round" stroke-miterlimit="10" d="
		M646.5,433.9c0,0.2,0.1,0.4,0,0.4c-0.9,0.8-0.7,1.5,0.1,2.3"/>
	
		<path fill="none" stroke="#000000" stroke-width="0.7115" stroke-linecap="round" stroke-linejoin="round" stroke-miterlimit="10" d="
		M640.2,417.8c-0.1,0.3-0.2,0.5-0.2,0.8c-0.3,1.1-0.3,1.1-1.3,0.5"/>
	
		<path fill="none" stroke="#000000" stroke-width="0.7115" stroke-linecap="round" stroke-linejoin="round" stroke-miterlimit="10" d="
		M599.9,409.3c-0.4,0.5-0.3,1.3-0.9,1.7"/>
	
		<path fill="none" stroke="#000000" stroke-width="0.7115" stroke-linecap="round" stroke-linejoin="round" stroke-miterlimit="10" d="
		M616.9,400.4c-0.7-0.3-0.6-1-0.9-1.5"/>
	
		<path fill="none" stroke="#000000" stroke-width="0.7115" stroke-linecap="round" stroke-linejoin="round" stroke-miterlimit="10" d="
		M595.8,400.8c-0.4-0.3-0.7-0.9-1.4-0.7"/>
	
		<path fill="none" stroke="#000000" stroke-width="0.7115" stroke-linecap="round" stroke-linejoin="round" stroke-miterlimit="10" d="
		M671.3,402.5c-0.1,0.6-0.9,1-0.4,1.7"/>
	
		<path fill="none" stroke="#000000" stroke-width="0.7115" stroke-linecap="round" stroke-linejoin="round" stroke-miterlimit="10" d="
		M684.5,395.4c-0.5-0.3-1-0.7-1.5-1"/>
	
		<path fill="none" stroke="#000000" stroke-width="0.7115" stroke-linecap="round" stroke-linejoin="round" stroke-miterlimit="10" d="
		M640.8,392.6c-0.7,0.1-1.4,0.2-1.9-0.3"/>
	
		<path fill="none" stroke="#000000" stroke-width="0.7115" stroke-linecap="round" stroke-linejoin="round" stroke-miterlimit="10" d="
		M645.8,435.7c-0.5,0.2-1.2,0.2-1.3,1"/>
	
		<path fill="none" stroke="#000000" stroke-width="0.7115" stroke-linecap="round" stroke-linejoin="round" stroke-miterlimit="10" d="
		M613.3,425.1c-0.6-0.1-1.3,0.4-1.5-0.6"/>
	
		<path fill="none" stroke="#000000" stroke-width="0.7115" stroke-linecap="round" stroke-linejoin="round" stroke-miterlimit="10" d="
		M619.4,385.5c0.2,0.4,0.8,0.8,0.7,1.3c-0.4,0.5-1.1,0.6-1.4,1.2"/>
	
		<path fill="none" stroke="#000000" stroke-width="0.7115" stroke-linecap="round" stroke-linejoin="round" stroke-miterlimit="10" d="
		M638.2,376.4c-0.5,0.6-0.2,1.1,0.2,1.6"/>
	
		<path fill="none" stroke="#000000" stroke-width="0.7115" stroke-linecap="round" stroke-linejoin="round" stroke-miterlimit="10" d="
		M661.8,415.7c-0.1,0.6-0.1,1.1-0.2,1.7"/>
	
		<path fill="none" stroke="#000000" stroke-width="0.7115" stroke-linecap="round" stroke-linejoin="round" stroke-miterlimit="10" d="
		M707.8,334.2c-0.4-0.5-1.2-0.1-1.6-0.7"/>
	
		<path fill="none" stroke="#000000" stroke-width="0.7115" stroke-linecap="round" stroke-linejoin="round" stroke-miterlimit="10" d="
		M632.9,385.4c-0.5,0.5-0.4,1.1-0.5,1.7"/>
	
		<path fill="none" stroke="#000000" stroke-width="0.7115" stroke-linecap="round" stroke-linejoin="round" stroke-miterlimit="10" d="
		M616.8,403.6c-0.3-0.3,0.2-0.9-0.3-1c-1.2-0.3-1.1-1.5-1.8-2.1"/>
	
		<path fill="none" stroke="#000000" stroke-width="0.7115" stroke-linecap="round" stroke-linejoin="round" stroke-miterlimit="10" d="
		M632.2,394.2c-0.3,0.5-0.5,1-0.8,1.5"/>
	
		<path fill="none" stroke="#000000" stroke-width="0.7115" stroke-linecap="round" stroke-linejoin="round" stroke-miterlimit="10" d="
		M592,403c1.1-0.3,0.6-0.9,0.2-1.4"/>
	
		<path fill="none" stroke="#000000" stroke-width="0.7115" stroke-linecap="round" stroke-linejoin="round" stroke-miterlimit="10" d="
		M620.7,402.6c-0.8,0.5-1.5,1.6-2.7,0.7"/>
	
		<path fill="none" stroke="#000000" stroke-width="0.7115" stroke-linecap="round" stroke-linejoin="round" stroke-miterlimit="10" d="
		M612.6,396.2c-0.9,0.4-1.5,1.1-2.5,1.3"/>
	
		<path fill="none" stroke="#000000" stroke-width="0.7115" stroke-linecap="round" stroke-linejoin="round" stroke-miterlimit="10" d="
		M680.5,392.5c-0.3-0.6-1-0.5-1.4-0.9"/>
	
		<path fill="none" stroke="#000000" stroke-width="0.7115" stroke-linecap="round" stroke-linejoin="round" stroke-miterlimit="10" d="
		M595.4,401.7c-0.2,0.5-0.4,1.1-0.2,1.7"/>
	
		<path fill="none" stroke="#000000" stroke-width="0.7115" stroke-linecap="round" stroke-linejoin="round" stroke-miterlimit="10" d="
		M708.7,332.4c-0.9-0.1-1.4-0.6-1.4-1.5"/>
	
		<path fill="none" stroke="#000000" stroke-width="0.7115" stroke-linecap="round" stroke-linejoin="round" stroke-miterlimit="10" d="
		M651.6,379.8c-0.1,0.2-0.4,0.4-0.1,0.7c0.8,1.1,0.4,1.9-0.6,2.6"/>
	
		<path fill="none" stroke="#000000" stroke-width="0.7115" stroke-linecap="round" stroke-linejoin="round" stroke-miterlimit="10" d="
		M598.3,395.6c0.7,0.8,0.1,1.8,0.7,2.6"/>
	
		<path fill="none" stroke="#000000" stroke-width="0.7115" stroke-linecap="round" stroke-linejoin="round" stroke-miterlimit="10" d="
		M613.8,408.4c-0.3-0.4,0.1-1-0.4-1.4"/>
	
		<path fill="none" stroke="#000000" stroke-width="0.7115" stroke-linecap="round" stroke-linejoin="round" stroke-miterlimit="10" d="
		M698.3,353.4c-0.5-0.1-1.1-0.2-1.6-0.2c-0.8,0-1.2,0.4-1.2,1.2"/>
	
		<path fill="none" stroke="#000000" stroke-width="0.7115" stroke-linecap="round" stroke-linejoin="round" stroke-miterlimit="10" d="
		M592.9,400.8c-0.6,0.7-1.2,1.2-2.1,0.9c-0.4-0.1-0.7,0.1-1.1,0.2"/>
	
		<path fill="none" stroke="#000000" stroke-width="0.7115" stroke-linecap="round" stroke-linejoin="round" stroke-miterlimit="10" d="
		M688.5,359.2c-1,0.6-1.9,0.8-2.7-0.2"/>
	
		<path fill="none" stroke="#000000" stroke-width="0.7115" stroke-linecap="round" stroke-linejoin="round" stroke-miterlimit="10" d="
		M637.8,437.1c-0.4-0.2-0.6-0.7-0.9-1"/>
	
		<path fill="none" stroke="#000000" stroke-width="0.7115" stroke-linecap="round" stroke-linejoin="round" stroke-miterlimit="10" d="
		M637,427.9c-0.3,0.5-0.4,1-0.3,1.6"/>
	
		<path fill="none" stroke="#000000" stroke-width="0.7115" stroke-linecap="round" stroke-linejoin="round" stroke-miterlimit="10" d="
		M588,399.6c0-0.5-0.5-0.9-0.8-0.8c-1.3,0.3-1.2-0.6-1.4-1.3"/>
	
		<path fill="none" stroke="#000000" stroke-width="0.7115" stroke-linecap="round" stroke-linejoin="round" stroke-miterlimit="10" d="
		M603,412c0.2,0.4,0.3,0.9,0.5,1.3"/>
	
		<path fill="none" stroke="#000000" stroke-width="0.7115" stroke-linecap="round" stroke-linejoin="round" stroke-miterlimit="10" d="
		M668.3,364.3c0.1-0.5,0.3-1.1-0.2-1.6"/>
	
		<path fill="none" stroke="#000000" stroke-width="0.7115" stroke-linecap="round" stroke-linejoin="round" stroke-miterlimit="10" d="
		M635.4,438.9c0.2,0.4,0.2,0.8,0.1,1.2c-0.2,0.5,0.1,0.6,0.5,0.6"/>
	
		<path fill="none" stroke="#000000" stroke-width="0.7115" stroke-linecap="round" stroke-linejoin="round" stroke-miterlimit="10" d="
		M586,414.1c0.2,0.2,0.2,0.5-0.1,0.5c-0.4,0.1-0.9,0.1-1.3-0.4c0.1-0.5,0.2-1,0.3-1.6"/>
	
		<path fill="none" stroke="#000000" stroke-width="0.7115" stroke-linecap="round" stroke-linejoin="round" stroke-miterlimit="10" d="
		M630.5,380.6c-0.1,0.3-0.1,0.6,0.1,0.8c0.6,0.6,0.5,1.2-0.2,1.7"/>
	
		<path fill="none" stroke="#000000" stroke-width="0.7115" stroke-linecap="round" stroke-linejoin="round" stroke-miterlimit="10" d="
		M608.7,390.8c0.5,0.9,0.4,1.1-0.9,1.4"/>
	
		<path fill="none" stroke="#000000" stroke-width="0.7115" stroke-linecap="round" stroke-linejoin="round" stroke-miterlimit="10" d="
		M633.2,418.5c-0.1,0.4-0.1,0.8-0.2,1.2c-0.2,0.5,0.3,0.4,0.5,0.6"/>
	
		<path fill="none" stroke="#000000" stroke-width="0.7115" stroke-linecap="round" stroke-linejoin="round" stroke-miterlimit="10" d="
		M644.7,378.5c-0.3-0.1-0.5-0.1-0.8-0.2c-0.2,0.4-0.5,0.8-0.7,1.1"/>
	
		<path fill="none" stroke="#000000" stroke-width="0.7115" stroke-linecap="round" stroke-linejoin="round" stroke-miterlimit="10" d="
		M621.5,388c-0.5-0.2-0.6-1.1-1.4-1"/>
	
		<path fill="none" stroke="#000000" stroke-width="0.7115" stroke-linecap="round" stroke-linejoin="round" stroke-miterlimit="10" d="
		M630.7,391.3c-0.5-0.5-1-0.5-1.5,0"/>
	
		<path fill="none" stroke="#000000" stroke-width="0.7115" stroke-linecap="round" stroke-linejoin="round" stroke-miterlimit="10" d="
		M671.8,398.3c0.1,0.5-0.6,0.5-0.6,0.9"/>
	
		<path fill="none" stroke="#000000" stroke-width="0.7115" stroke-linecap="round" stroke-linejoin="round" stroke-miterlimit="10" d="
		M579.3,401.7c0.3-0.1,0.7-0.3,0.9,0.1c0.3,0.6-0.2,0.8-0.6,1.1"/>
	
		<path fill="none" stroke="#000000" stroke-width="0.7115" stroke-linecap="round" stroke-linejoin="round" stroke-miterlimit="10" d="
		M624.5,436.7c-0.7,0.2-1,0.6-1.3,1.2"/>
	
		<path fill="none" stroke="#000000" stroke-width="0.7115" stroke-linecap="round" stroke-linejoin="round" stroke-miterlimit="10" d="
		M631.5,450.4c0.5,0.3,1.2,0.4,1.3,1.2"/>
	
		<path fill="none" stroke="#000000" stroke-width="0.7115" stroke-linecap="round" stroke-linejoin="round" stroke-miterlimit="10" d="
		M612.3,423.3c0,0.4-0.7,0.3-0.5,0.9"/>
	
		<path fill="none" stroke="#000000" stroke-width="0.7115" stroke-linecap="round" stroke-linejoin="round" stroke-miterlimit="10" d="
		M636.5,413.8c-0.2,0.7-0.1,0.8,1,1.1"/>
	
		<path fill="none" stroke="#000000" stroke-width="0.7115" stroke-linecap="round" stroke-linejoin="round" stroke-miterlimit="10" d="
		M621.6,386.9c-0.4-0.2-0.6,0.2-0.9,0.3"/>
	
		<path fill="none" stroke="#000000" stroke-width="0.7115" stroke-linecap="round" stroke-linejoin="round" stroke-miterlimit="10" d="
		M627.2,431.1c-0.5,0.4-1,0.9-1.6,1.3"/>
	
		<path fill="none" stroke="#000000" stroke-width="0.7115" stroke-linecap="round" stroke-linejoin="round" stroke-miterlimit="10" d="
		M614.5,397.2c-0.8,0.5-0.6,1.1-0.3,1.8"/>
	
		<path fill="none" stroke="#000000" stroke-width="0.7115" stroke-linecap="round" stroke-linejoin="round" stroke-miterlimit="10" d="
		M669.1,364.6c-0.5,0-1-0.6-1.5,0"/>
</g>
</svg>
