<?xml version="1.0" encoding="utf-8"?>
<!-- Generator: Adobe Illustrator 18.0.0, SVG Export Plug-In . SVG Version: 6.00 Build 0)  -->
<!DOCTYPE svg PUBLIC "-//W3C//DTD SVG 1.0//EN" "http://www.w3.org/TR/2001/REC-SVG-20010904/DTD/svg10.dtd">
<svg version="1.0" id="Layer_1" xmlns="http://www.w3.org/2000/svg" xmlns:xlink="http://www.w3.org/1999/xlink" x="0px" y="0px"
	 width="1280px" height="800px" viewBox="0 0 1280 800" enable-background="new 0 0 1280 800" xml:space="preserve">
<g>
	
		<path fill="none" stroke="#000000" stroke-width="0.7087" stroke-linecap="round" stroke-linejoin="round" stroke-miterlimit="10" d="
		M670.4,391.7c-3,3.9-6.8,7.1-9.9,11c-4.6,5.7-8.8,11.6-12.1,18.1c-1.8,3.5-2.8,7.4-2.8,11.4c0.1,6.9,0.1,13.9,0.6,20.8
		c0.5,6.9,0.6,13.8,0.8,20.6c0.2,6.8,0.7,13.6,1.2,20.4c0.2,2.6,0.8,5.1,1.2,7.6c0.4,2.3-0.1,3-2.2,3.4c-0.5,0.1-0.8,0.3-1,0.7
		c-0.9,1.9-2.7,3.3-3.2,5.4"/>
	
		<path fill="none" stroke="#000000" stroke-width="0.7087" stroke-linecap="round" stroke-linejoin="round" stroke-miterlimit="10" d="
		M643.6,508.3c-1.3-1.6-0.3-3.6-0.7-5.4c-0.4-1.7-0.2-3.5-0.3-5.2c-0.3-10.5-0.5-21-1.1-31.5c-0.3-6.8-0.4-13.7-1.4-20.4
		c-0.3-2.2-0.7-4.3-1.2-6.4c-1.3-5.4-4.5-5.6-8.6-4c-5.4,2.1-10.1,5.4-15,8.4c-2.3,1.4-4.5,3-7,4.2c-5.2,2.5-7.3,7.3-8.4,12.6
		c-0.6,2.9-0.5,2.8,2.4,4.3c1.3,0.7,2.5,1.8,3.6,2.8c4.5,3.7,8.8,7.5,12.2,12.2c1.7,2.4,1.2,3.7-1.8,4.2c-0.3,0-0.5,0.1-0.8,0.2"/>
	
		<path fill="none" stroke="#000000" stroke-width="0.7087" stroke-linecap="round" stroke-linejoin="round" stroke-miterlimit="10" d="
		M641.8,327.2c-1.4,0-1.1-1.1-1-1.8c0.3-1.3,0.5-2.8,1-4c2.2-5.6,1.1-11.1-0.3-16.4c-2.6-10-8.8-17.4-17.4-22.8
		c-2.6-1.6-5.4-2.7-8.6-2.7c-2.6,0-4.4,1.1-5.7,3.6c-1.8,3.7-2.5,7.6-2.7,11.6c-0.6,8.7,1.5,16.9,5,24.8c1.8,4,4.2,7.6,7.7,10.5
		c1.2,1,1.8,2.8,3.5,3.6c1.1,0.5,2,1.2,3,1.8"/>
	
		<path fill="none" stroke="#000000" stroke-width="0.7087" stroke-linecap="round" stroke-linejoin="round" stroke-miterlimit="10" d="
		M657.2,335.8c0.6-0.1,1.2,0.2,1.8-0.2c2.8-1.8,6-3.1,9.2-4c3.6-1,5.6-3.7,7.4-6.6c4.4-7.2,7.9-14.8,9.7-23.1
		c0.8-3.5,1.4-7.2,0.1-10.8c-1-2.9-3-3.8-6-3.2c-6.8,1.3-12.6,4.7-18.2,8.5c-6.1,4.1-11.4,9.1-15,15.6c-0.4,0.8-0.9,1.6-1.2,2.4
		c-0.3,0.9-0.7,1.6-1.6,2"/>
	
		<path fill="none" stroke="#000000" stroke-width="0.7087" stroke-linecap="round" stroke-linejoin="round" stroke-miterlimit="10" d="
		M620.5,331.6c-3.7,0.9-7.2-0.8-10.8-0.9c-4.2-0.1-8.4-0.2-12.6,0.4c-4.2,0.6-8.3,1.4-12.4,2.5c-6.3,1.7-11.7,5.2-16.4,9.7
		c-1.4,1.3-2.5,3-1.5,5.2c0.1,0.3,0.1,0.5,0.4,0.8c1.9,2.1,3.8,4.3,5.9,6.1c3.3,2.7,6.9,5.1,11.3,6c3.6,0.7,7.3,0.9,11,1.3
		c4.2,0.4,8.3-0.2,12.4-0.4c1.6-0.1,3.2-0.1,4.8-0.5c0.8-0.2,1.7-0.3,2.6-0.1c1.3,0.3,2.3-0.6,3.2-1.3c3.4-2.9,7.1-5.3,11.2-7"/>
	
		<path fill="none" stroke="#000000" stroke-width="0.7087" stroke-linecap="round" stroke-linejoin="round" stroke-miterlimit="10" d="
		M602.1,382.5c-0.8,0.1-1.4-0.2-2-0.8c-6.4-6.3-14-10.7-21.8-15.1c-6.7-3.7-13.7-6.6-20.5-10.2c-0.2-0.1-0.4,0-0.6,0"/>
	
		<path fill="none" stroke="#000000" stroke-width="0.7087" stroke-linecap="round" stroke-linejoin="round" stroke-miterlimit="10" d="
		M622.5,406.5c-1-2.1-3.2-1.9-4.8-2.3c-2.2-0.6-4.1-1.8-6.4-2c-2.5-0.2-5-0.8-7.6-0.7c-1.8,0.1-3.8-0.2-5.6-1.1
		c-0.4-0.2-0.8-0.7-1.2-0.6c-3.3,1.2-6.3-0.6-9.4-0.8c-4.3-0.4-8.5-1-12.8-1.4c-5.6-0.5-11.2-0.6-16.8-0.2c-2.9,0.2-5.7,0.6-8.6,0.6
		"/>
	
		<path fill="none" stroke="#000000" stroke-width="0.7087" stroke-linecap="round" stroke-linejoin="round" stroke-miterlimit="10" d="
		M566.4,349.4c-0.3,0.1-0.7,0.4-1,0.4c-3.5-0.7-7-0.3-10.4,0.6c-2.7,0.7-5.6,1-8.5,1.4c-0.4,4.3,0.9,8.3,3,11.8
		c2.4,4.1,6.1,6.9,10.9,7.9"/>
	
		<path fill="none" stroke="#000000" stroke-width="0.7087" stroke-linecap="round" stroke-linejoin="round" stroke-miterlimit="10" d="
		M603.9,401.9c1.7,1.5,4,1.4,6,2.2c2.7,1,5.5,1.6,8.2,2.5c4.8,1.6,8.1,5.1,11.2,8.8c3.5,4.2,6.1,9,8.4,14c0.2,0.5,0.7,1,0.2,1.6"/>
	
		<path fill="none" stroke="#000000" stroke-width="0.7087" stroke-linecap="round" stroke-linejoin="round" stroke-miterlimit="10" d="
		M693.9,379.5c2.7,0.8,5.5,1.6,8.2,2.4c8.6,2.6,16.3,6.9,23.9,11.8c2.4,1.5,4.7,3.2,7.2,4.5c0.7,0.4,1.3,0.5,2,0.5"/>
	
		<path fill="none" stroke="#000000" stroke-width="0.7087" stroke-linecap="round" stroke-linejoin="round" stroke-miterlimit="10" d="
		M584.1,465.4c-2,0.5-3.4,2.1-5,3.2c-11.8,8.3-22.9,17.4-33.3,27.4"/>
	
		<path fill="none" stroke="#000000" stroke-width="0.7087" stroke-linecap="round" stroke-linejoin="round" stroke-miterlimit="10" d="
		M646.4,352.9c0.4,2.4,1.1,4.8,1.5,7.2c0.5,3.3-0.1,6.4-0.5,9.6c-0.2,1.5-0.4,3.1-0.8,4.6c-0.4,1.4-0.6,2.7-1.3,4
		c-0.9,1.7-1.5,3.4-1.2,5.6c0.4,2.7,0.2,5.5-0.1,8.2c-0.6,4.5-0.6,9.1-0.9,13.6c-0.3,3.9-0.4,7.9-0.4,11.8c0,2.9,0.4,5.7,0.6,8.6"/>
	
		<path fill="none" stroke="#000000" stroke-width="0.7087" stroke-linecap="round" stroke-linejoin="round" stroke-miterlimit="10" d="
		M695.9,369.9c0.5,0.7,1.3,0.6,2,0.6c9.5-0.1,18.4,2.2,27.1,5.9c2,0.9,4,1.7,6,2.7c1.1,0.5,2.2,1.1,2.5,2.6c-1.9,1.3-4,2.5-6.7,1.6"
		/>
	
		<path fill="none" stroke="#000000" stroke-width="0.7087" stroke-linecap="round" stroke-linejoin="round" stroke-miterlimit="10" d="
		M727.5,346.8c1.2,0,2.2,0.5,2.6,1.6c0.4,1.2-0.5,2.1-1.4,2.8c-3.1,2.6-6.5,4.6-9.8,6.8c-6.7,4.4-14.1,7.3-21.4,10.5
		c-2.1,0.9-4.1,1.8-6.4,1.5"/>
	
		<path fill="none" stroke="#000000" stroke-width="0.7087" stroke-linecap="round" stroke-linejoin="round" stroke-miterlimit="10" d="
		M559,469.6c-4,1.9-7.8,4.2-11.4,6.8c-1.6,1.2-2.8,2.6-2.8,4.8c0,1.1,0.8,1.7,1.1,2.8c-2,2.1-4.4,3.8-6.1,6.3
		c-1.7,2.5-3.3,4.9-3.9,8c-0.6,3.3,0.3,4.5,3.7,4c5.3-0.8,9.7-3.1,13.7-6.6c2.3-2,4.3-4.4,6.8-6.3"/>
	
		<path fill="none" stroke="#000000" stroke-width="0.7087" stroke-linecap="round" stroke-linejoin="round" stroke-miterlimit="10" d="
		M649.8,350c1.9-1.3,4-1,6-0.9c5,0.1,9.9,1.1,14.6,2.9c4.4,1.7,8.4,4.1,11.3,7.7c6.3,7.8,10,16.6,10.1,26.8c0,3-0.3,4-3.8,4.8
		c-5.7,1.3-11.5,1.2-17.2,0.2c-6.9-1.2-13.2-4.1-18.7-8.7c-2.1-1.8-4-3.8-6-5.6"/>
	
		<path fill="none" stroke="#000000" stroke-width="0.7087" stroke-linecap="round" stroke-linejoin="round" stroke-miterlimit="10" d="
		M585.1,444.4c-0.7,0.5-1.4,0.1-2-0.2c-4.2-1.7-8.5-2.8-12.8-4c-6.9-2.1-13.8-4.4-20.6-6.6c-0.3-0.1-0.5-0.1-0.8-0.2"/>
	
		<path fill="none" stroke="#000000" stroke-width="0.7087" stroke-linecap="round" stroke-linejoin="round" stroke-miterlimit="10" d="
		M598.3,468.2c0.9,3,0.2,6,0.4,9c0.2,2.8,0.1,5.6,0.5,8.4c0.2,1.9,0.2,3.8,0.5,5.6c0.6,5.1,0.7,10.3,1.1,15.4
		c0.2,1.9,0.6,3.7,0.6,5.6"/>
	
		<path fill="none" stroke="#000000" stroke-width="0.7087" stroke-linecap="round" stroke-linejoin="round" stroke-miterlimit="10" d="
		M554.6,425.6c-1.1,0.3-2.1,0.7-3.2,0.8c-1.4,0.1-2.8,0.5-4,1.1c-3,1.5-5.9,3.2-9.2,4.3c1.5,5.5,3.9,10,9.5,12.1
		c1.5,0.6,3,0.2,4.4,0.7"/>
	
		<path fill="none" stroke="#000000" stroke-width="0.7087" stroke-linecap="round" stroke-linejoin="round" stroke-miterlimit="10" d="
		M637.8,390.7c0.8,2.3,0.7,4.7,0.8,7c0.1,5.1,0,10.1,0,15.2c0,2.6,0.1,5.2,0.2,7.8c0,0.7-0.1,1.5-0.2,2.2"/>
	
		<path fill="none" stroke="#000000" stroke-width="0.7087" stroke-linecap="round" stroke-linejoin="round" stroke-miterlimit="10" d="
		M589.1,461.2c-0.5-0.1-0.8-0.6-1.4-0.6c-3.8,0.2-7.7-1-11.4,0.3c-2.6,0.9-5.2,1.5-7.8,1.7c-2,0.1-3.9,0.3-5.8,0.9
		c-2.1,0.6-3.8,1.8-4.7,3.7c0.3,1.9,1.7,2.3,3.3,2.2"/>
	
		<path fill="none" stroke="#000000" stroke-width="0.7087" stroke-linecap="round" stroke-linejoin="round" stroke-miterlimit="10" d="
		M584.1,464.4c-1.4-0.9-2.8-0.1-4.2,0.2c-7.5,1.6-14,5.4-20.2,9.6c-2,1.3-3.9,2.8-5.8,4.2"/>
	
		<path fill="none" stroke="#000000" stroke-width="0.7087" stroke-linecap="round" stroke-linejoin="round" stroke-miterlimit="10" d="
		M689.8,366.5c1.7-2.5,4.1-4.3,5.7-7c0.8-1.3,2.9-0.7,4.3-1c1.6-0.4,3.3-0.3,4.8-0.9c5.5-2.1,6.7-5,5.8-10.4
		c-1-6.1-4.8-10.6-9.7-13.7c-5.6-3.6-11.9-5.7-18.8-5.5c-2.6,0.1-5.1,0.6-7.6,1.4c-0.5,0.2-0.9,0.1-1.4,0"/>
	
		<path fill="none" stroke="#000000" stroke-width="0.7087" stroke-linecap="round" stroke-linejoin="round" stroke-miterlimit="10" d="
		M666.4,390.7c-2.9,3.3-5.9,6.5-8.8,9.8c-5.4,6.1-10.1,12.7-14,19.8"/>
	
		<path fill="none" stroke="#000000" stroke-width="0.7087" stroke-linecap="round" stroke-linejoin="round" stroke-miterlimit="10" d="
		M640,432.2c-3-1.8-6-1.6-9-0.2c-7.8,3.6-14.9,8.2-21.3,14c-0.5,0.5-0.9,0.8-0.8,1.4"/>
	
		<path fill="none" stroke="#000000" stroke-width="0.7087" stroke-linecap="round" stroke-linejoin="round" stroke-miterlimit="10" d="
		M739.5,318c-6.5,4.3-11.9,10-17.6,15.2c-4,3.6-7.9,7.3-11.8,11"/>
	
		<path fill="none" stroke="#000000" stroke-width="0.7087" stroke-linecap="round" stroke-linejoin="round" stroke-miterlimit="10" d="
		M684.4,392.3c4.3,5,8.3,10.3,13.4,14.4c2.8,2.2,6.1,3.5,9.4,4.6c0.6,0.2,1.4,0.7,2.1-0.3c-0.3-1.2-0.3-2.8-1.3-4"/>
	
		<path fill="none" stroke="#000000" stroke-width="0.7087" stroke-linecap="round" stroke-linejoin="round" stroke-miterlimit="10" d="
		M562.4,371.7c-2.2-0.1-3.6,1.2-4.8,3c3.1,2.8,6.8,3.7,10.7,3.9c3.1,0.1,6.1,0.5,9.2,0.5c1.1,0,2.2,0.4,3.3,1
		c-0.7,1-1.7,1.9-1.9,3.2c0.8,1.5,2.1,1.8,3.6,2c2.6,0.5,5.1,1.3,7.6,1.7c4.3,0.6,8.6,0.4,12.6-1.8"/>
	
		<path fill="none" stroke="#000000" stroke-width="0.7087" stroke-linecap="round" stroke-linejoin="round" stroke-miterlimit="10" d="
		M575.2,482.3c-3.1,4.7-6.3,9.3-10.4,13.2c-1,1-2.3,1.6-3.6,2c-3.3,1.1-5.2-0.1-5.2-3.6"/>
	
		<path fill="none" stroke="#000000" stroke-width="0.7087" stroke-linecap="round" stroke-linejoin="round" stroke-miterlimit="10" d="
		M615.7,362.1c-3,4-5.6,8-7.3,12.8c-1.1,3.3-2.2,6.7-2.3,10.2c0,0.7-0.4,1.1-0.6,1.6"/>
	
		<path fill="none" stroke="#000000" stroke-width="0.7087" stroke-linecap="round" stroke-linejoin="round" stroke-miterlimit="10" d="
		M724.7,404.9c-0.5,1.5,1.3,2.2,1.3,3.6c0,0.3,0.5,0.9,0.5,1.4c0.3,2,0,2.3-2,2.4c-4.6,0.1-8.8-1.5-13-3.2c-0.7-0.3-1.3-1-2.2-0.6"
		/>
	
		<path fill="none" stroke="#000000" stroke-width="0.7087" stroke-linecap="round" stroke-linejoin="round" stroke-miterlimit="10" d="
		M576,387.7c-3.6-1.1-7.2-2.4-11-3c-3.4-0.5-6.9-0.8-10.4-0.1c-1.5,0.3-3.1,0.2-4.6,0.9"/>
	
		<path fill="none" stroke="#000000" stroke-width="0.7087" stroke-linecap="round" stroke-linejoin="round" stroke-miterlimit="10" d="
		M598.3,400.9c-0.3,1.2-1.3,1.7-2.2,2.4c-3.6,2.8-7.7,4.2-12.2,4.8c-2.1,0.3-4.1,0.8-6.2,0.8c-2-0.1-2.3-0.4-1.8-2.2
		c0.1-0.3,0.1-0.5,0.2-0.9c-1.7-0.5-3.1,0.4-4.6,0.9c-3.6,1.1-7,3-10.8,3.6c-1.7,0.3-3.5,0.5-5.2,0.6c-1.9,0.1-2.9-0.6-1.6-2.8
		c0.1-0.2,0.1-0.4,0.2-0.6"/>
	
		<path fill="none" stroke="#000000" stroke-width="0.7087" stroke-linecap="round" stroke-linejoin="round" stroke-miterlimit="10" d="
		M551.2,388.3c-2.8,1.4-6,1.6-8.6,3.4c-3.2,2.2-6.5,4.2-10,6.1c4,6.2,9.8,9.3,16.8,9.8c2,0.2,4.3,0.1,6.2-1.1"/>
	
		<path fill="none" stroke="#000000" stroke-width="0.7087" stroke-linecap="round" stroke-linejoin="round" stroke-miterlimit="10" d="
		M620.9,401.1c6.7,6.7,11.9,14.7,17.6,22.2c0.8,1.1,1.2,2.4,2.4,3.2"/>
	
		<path fill="none" stroke="#000000" stroke-width="0.7087" stroke-linecap="round" stroke-linejoin="round" stroke-miterlimit="10" d="
		M603.9,451.2c-1.7-1.4-3.9-0.8-5.8-1.3c-3.6-1.1-7.2-2.1-10.6-3.6c-1.1-0.5-2.3-1.2-2.3-2.4c-0.2-3.5-2.4-6.1-3.9-9
		c-1.4-2.6-3.3-4.8-4.9-7.2c-0.1-0.2-0.3-0.3-0.4-0.4c-2.2-2.3-3.4-2.2-4.8,0.6"/>
	
		<path fill="none" stroke="#000000" stroke-width="0.7087" stroke-linecap="round" stroke-linejoin="round" stroke-miterlimit="10" d="
		M590.3,499.3c-1.6,3.6-1.6,7.1,0.2,10.6c1.9,3.6,5,6,8.4,8c0.7,0.4,1.5,0.9,2.2,0c2.8-3.7,6.7-6.3,9.2-10.2c1-1.6,1.5-3.6,2.8-5"/>
	
		<path fill="none" stroke="#000000" stroke-width="0.7087" stroke-linecap="round" stroke-linejoin="round" stroke-miterlimit="10" d="
		M553.6,444.2c-1.8,0.5-2.6,1.7-2.9,3.6c2.9,1.4,6,1.2,8.9,0.7c2.9-0.5,5.7-1.7,8.9-1.4c-0.8,3.5-0.8,3.6,2.8,3.5
		c2.7,0,5.5,0.4,8.2-0.4c2.6-0.8,5.2-1.7,6.8-4.2"/>
	
		<path fill="none" stroke="#000000" stroke-width="0.7087" stroke-linecap="round" stroke-linejoin="round" stroke-miterlimit="10" d="
		M614.1,481.9c1.9,3.7,3.2,7.6,4,11.6c0.5,2.4-0.3,8.9-2.5,11.4c-1.1-0.9-2.4-1.6-2.2-3.4"/>
	
		<path fill="none" stroke="#000000" stroke-width="0.7087" stroke-linecap="round" stroke-linejoin="round" stroke-miterlimit="10" d="
		M572.8,429.4c-3-2-5.8-4.4-9.2-5.6c-3.3-1.2-6.8-1.7-10.6-0.9c0.7,1.2,1,2.6,2.6,2.9"/>
	
		<path fill="none" stroke="#000000" stroke-width="0.7087" stroke-linecap="round" stroke-linejoin="round" stroke-miterlimit="10" d="
		M593.7,400.7c-0.5,1.2-1.7,1.1-2.6,1.4c-4.3,1.4-8.8,0.8-13.2,0.8c-1.4,0-2.8,0-4.2,0"/>
	
		<path fill="none" stroke="#000000" stroke-width="0.7087" stroke-linecap="round" stroke-linejoin="round" stroke-miterlimit="10" d="
		M599.1,463c-1-0.1-1.7,0.4-2.4,1c-4.9,3.6-7.1,8.7-8.2,14.4c0,0.2,0,0.4,0,0.6c-0.6,2.8-0.1,3.3,2.8,2.6c0.2,0,0.4,0.1,0.6,0.2"/>
	
		<path fill="none" stroke="#000000" stroke-width="0.7087" stroke-linecap="round" stroke-linejoin="round" stroke-miterlimit="10" d="
		M580.5,376.1c3.4,1.8,6.8,3.7,10.2,5.4c2.3,1.1,4.9,1.5,7.4,1.8c0.8,0.1,1.8,0.3,2.4-0.6"/>
	
		<path fill="none" stroke="#000000" stroke-width="0.7087" stroke-linecap="round" stroke-linejoin="round" stroke-miterlimit="10" d="
		M730.7,320.4c0.2-0.1,0.5-0.1,0.6-0.2c0.7-1.9,0.8-3.9,1-5.8c0.1-1-1.1-0.9-1.7-0.6c-2,1.2-3.7,2.6-5.4,4.2
		c-2.1,1.9-4.1,3.9-6.2,5.8c-0.5,0.4-0.8,1-1.6,0.6"/>
	
		<path fill="none" stroke="#000000" stroke-width="0.7087" stroke-linecap="round" stroke-linejoin="round" stroke-miterlimit="10" d="
		M597.7,363.1c0.2,2.8,1.9,5.1,2.5,7.8c0.5,2.5,1.6,4.9,2.3,7.4c0.2,0.6,0.3,1.2,0.1,2c-0.7,2.4,0.4,4.4,2.2,6
		c1.1,0.9,1.3,2,1.4,3.2c0.2,3.1,0.5,6.1,1.5,9c0.4,1.3,1.6,1.9,2.1,3"/>
	
		<path fill="none" stroke="#000000" stroke-width="0.7087" stroke-linecap="round" stroke-linejoin="round" stroke-miterlimit="10" d="
		M585.7,362.9c4.7,3.3,9.1,6.9,12.4,11.6c1.3,1.8,2.2,3.9,3.4,5.8"/>
	
		<path fill="none" stroke="#000000" stroke-width="0.7087" stroke-linecap="round" stroke-linejoin="round" stroke-miterlimit="10" d="
		M601.9,466.2c5,5.3,7,11.8,7.8,18.8"/>
	
		<path fill="none" stroke="#000000" stroke-width="0.7087" stroke-linecap="round" stroke-linejoin="round" stroke-miterlimit="10" d="
		M592.3,481.1c-0.3,3.6-2.5,6.3-4.2,9.2c-1.7,2.8-2.8,5.7-2.8,9c0,1.7,0.6,2.1,2.2,1.6c0.7-0.2,1.3-0.5,2-0.8"/>
	
		<path fill="none" stroke="#000000" stroke-width="0.7087" stroke-linecap="round" stroke-linejoin="round" stroke-miterlimit="10" d="
		M716.7,325.2c0.5-1.7,0-3.3-0.5-4.8c-0.3-1.1-1.7-1.3-2.7-0.4c-1.7,1.6-3,3.4-4.3,5.4c-2,3.2-3.6,6.7-6,9.6"/>
	
		<path fill="none" stroke="#000000" stroke-width="0.7087" stroke-linecap="round" stroke-linejoin="round" stroke-miterlimit="10" d="
		M643.6,382.5c-2,2.2-3.5,4.8-5.6,7.1c-3.5,3.9-7.6,7-12.3,9.3c-3.4,1.7-7.1,3-11,3.1c-0.2,0-0.4,0.3-0.6,0.4"/>
	
		<path fill="none" stroke="#000000" stroke-width="0.7087" stroke-linecap="round" stroke-linejoin="round" stroke-miterlimit="10" d="
		M595.9,398.5c-0.8,0.2-1.4-0.2-2-0.6c-4.2-3-9.1-4.3-14-5.4c-2.3-0.5-4.7-0.8-7-1.2"/>
	
		<path fill="none" stroke="#000000" stroke-width="0.7087" stroke-linecap="round" stroke-linejoin="round" stroke-miterlimit="10" d="
		M567.6,443.8c2.3,0.6,4.5,1.2,6.8,1.8c3.1,0.7,6.2,1.2,9.2-0.4"/>
	
		<path fill="none" stroke="#000000" stroke-width="0.7087" stroke-linecap="round" stroke-linejoin="round" stroke-miterlimit="10" d="
		M732.1,391.1c0.7,1.3,2.2,1.9,3.3,2.7c0.8,0.6,1.3,1.4,2,2.2c-0.3,1.1-1.7,1.4-2,3.1c0.1,0.7,0.2,2,0.3,3.3c0.1,1.4-0.4,2.5-2,2.8
		c-3.5,0.6-6.9,0-10.2-0.8c-0.2,0-0.3-0.4-0.4-0.6"/>
	
		<path fill="none" stroke="#000000" stroke-width="0.7087" stroke-linecap="round" stroke-linejoin="round" stroke-miterlimit="10" d="
		M709.1,377.7c-3-0.5-6-1.2-9-1.4c-2.2-0.2-4.4-0.7-6.6-0.6"/>
	
		<path fill="none" stroke="#000000" stroke-width="0.7087" stroke-linecap="round" stroke-linejoin="round" stroke-miterlimit="10" d="
		M599.7,464c-0.7,0.7-0.5,1.6-0.8,2.4c-0.2,0.7-0.4,1.3-1.2,1.9c-1.4,0.9-1.4,2.7-1.8,4.2c-0.6,1.9-0.6,4-0.4,6c0.2,1.7,0.1,3.3,0,5
		"/>
	
		<path fill="none" stroke="#000000" stroke-width="0.7087" stroke-linecap="round" stroke-linejoin="round" stroke-miterlimit="10" d="
		M581.5,385.5c1,2.1,3.3,2.6,4.8,4c2.5,2.3,5.2,4.3,7.8,6.5c1.2,1,2.3,2.2,2.6,3.8"/>
	
		<path fill="none" stroke="#000000" stroke-width="0.7087" stroke-linecap="round" stroke-linejoin="round" stroke-miterlimit="10" d="
		M739.1,322.4c1.9-0.2,3.9-1,5.7,0.7c-0.8,2.8-2.9,4.9-4.7,7.1c-1.1,1.3-2.6,2.3-3.2,4"/>
	
		<path fill="none" stroke="#000000" stroke-width="0.7087" stroke-linecap="round" stroke-linejoin="round" stroke-miterlimit="10" d="
		M561.2,390.5c-5.1,1.1-10.4,1.4-15.2,3.6"/>
	
		<path fill="none" stroke="#000000" stroke-width="0.7087" stroke-linecap="round" stroke-linejoin="round" stroke-miterlimit="10" d="
		M570,432.6c5.1,2.2,10,4.8,13.4,9.4c0.3,0.4,0.6,0.8,1.2,0.6"/>
	
		<path fill="none" stroke="#000000" stroke-width="0.7087" stroke-linecap="round" stroke-linejoin="round" stroke-miterlimit="10" d="
		M735.5,334.8c1.3-0.5,2.7-0.7,4.1,0.1c-1.4,4.9-4.6,8.2-9.1,10.4c-0.8,0.4-1.9,0.5-2.2,1.6"/>
	
		<path fill="none" stroke="#000000" stroke-width="0.7087" stroke-linecap="round" stroke-linejoin="round" stroke-miterlimit="10" d="
		M636.4,337.2c0.6,1.5,0.2,3.4,1.6,4.7c0.2,0.2,0,1.2-0.6,1.5c-2.1,1.5-1,3.4-0.7,5.2c0.1,1.2,0.8,2.3,1.2,3.4"/>
	
		<path fill="none" stroke="#000000" stroke-width="0.7087" stroke-linecap="round" stroke-linejoin="round" stroke-miterlimit="10" d="
		M627.3,352.4c-4.5,0.7-9,1.4-13.6,1.6"/>
	
		<path fill="none" stroke="#000000" stroke-width="0.7087" stroke-linecap="round" stroke-linejoin="round" stroke-miterlimit="10" d="
		M610.5,494.7c-0.9,1.5-1,3.2-1.4,4.8c-0.8,2.8-2.1,5.5-3.6,8"/>
	
		<path fill="none" stroke="#000000" stroke-width="0.7087" stroke-linecap="round" stroke-linejoin="round" stroke-miterlimit="10" d="
		M694.7,389.7c3.5,3.3,7.5,5.9,12,7.6"/>
	
		<path fill="none" stroke="#000000" stroke-width="0.7087" stroke-linecap="round" stroke-linejoin="round" stroke-miterlimit="10" d="
		M601.7,454c-1.6-0.5-2.7,0.7-3.8,1.4c-2.9,1.8-5.6,3.8-8.4,5.8"/>
	
		<path fill="none" stroke="#000000" stroke-width="0.7087" stroke-linecap="round" stroke-linejoin="round" stroke-miterlimit="10" d="
		M560.8,429.8c-4.1-0.4-8.1-0.5-12,0.8"/>
	
		<path fill="none" stroke="#000000" stroke-width="0.7087" stroke-linecap="round" stroke-linejoin="round" stroke-miterlimit="10" d="
		M743.9,316c-2.7-1.1-4.9,0.5-7.2,1.4c-1.5,0.6-2.9,1.7-4.6,1.8"/>
	
		<path fill="none" stroke="#000000" stroke-width="0.7087" stroke-linecap="round" stroke-linejoin="round" stroke-miterlimit="10" d="
		M620.7,333c-1.5,2.5-2.7,5.1-1.7,8.2c0.2,0.6,0.5,1.4,0.7,1.5c1.7,1,2.1,2.9,3.4,4.3"/>
	
		<path fill="none" stroke="#000000" stroke-width="0.7087" stroke-linecap="round" stroke-linejoin="round" stroke-miterlimit="10" d="
		M560,353.9c3.4,0,6.8,0.3,10,1.4c0.8,0.2,1.7,0.9,2.6,0"/>
	
		<path fill="none" stroke="#000000" stroke-width="0.7087" stroke-linecap="round" stroke-linejoin="round" stroke-miterlimit="10" d="
		M640.8,328.6c0.7,2.2,0.5,4.4,0,6.6c-0.4,1.9-1,3.8,1.4,5c0.3,0.2,0.3,0.9,0.5,1.5c-2.1,1.6-1.9,3.6-1.4,5.9
		c0.3,1.5,0.3,3.2-0.1,4.8"/>
	
		<path fill="none" stroke="#000000" stroke-width="0.7087" stroke-linecap="round" stroke-linejoin="round" stroke-miterlimit="10" d="
		M623.5,334.6c-1.3,2.5-1.4,5.3-2,8c-0.1,0.4-0.1,0.8-0.2,1.2"/>
	
		<path fill="none" stroke="#000000" stroke-width="0.7087" stroke-linecap="round" stroke-linejoin="round" stroke-miterlimit="10" d="
		M683.8,340.4c-3.1-0.3-6.1-0.3-9.2,0"/>
	
		<path fill="none" stroke="#000000" stroke-width="0.7087" stroke-linecap="round" stroke-linejoin="round" stroke-miterlimit="10" d="
		M600.9,354.5c3.1,0.5,6.1,0.1,9.2,0"/>
	
		<path fill="none" stroke="#000000" stroke-width="0.7087" stroke-linecap="round" stroke-linejoin="round" stroke-miterlimit="10" d="
		M548.4,485.5c-2.6,2.5-4.5,5.4-6.4,8.4"/>
	
		<path fill="none" stroke="#000000" stroke-width="0.7087" stroke-linecap="round" stroke-linejoin="round" stroke-miterlimit="10" d="
		M637,350.6c-1.7,0.3-3.2-0.2-4.8-0.6c-0.9-0.2-1.2-1.1-1.4-1.8c-0.2-1.2,0-2.5-0.1-3.8c0-0.7,0.2-1.4,0.8-1.8c1-0.7,1-1.5,0.4-2.4
		c-0.3-0.5-1-0.7-1.4-0.2c-0.6,0.7-1.8,1.4-0.5,2.6c0.2,0.2,0.2,0.7,0.6,0.8"/>
	
		<path fill="none" stroke="#000000" stroke-width="0.7087" stroke-linecap="round" stroke-linejoin="round" stroke-miterlimit="10" d="
		M695.3,359.5c-2-0.5-4-0.1-6,0.2c-2.3,0.3-4.6-0.3-6.8,0.2"/>
	
		<path fill="none" stroke="#000000" stroke-width="0.7087" stroke-linecap="round" stroke-linejoin="round" stroke-miterlimit="10" d="
		M653.2,341.6c-1,3.9-2.6,7.1-7,8"/>
	
		<path fill="none" stroke="#000000" stroke-width="0.7087" stroke-linecap="round" stroke-linejoin="round" stroke-miterlimit="10" d="
		M729.7,383.9c0.4,0.8,1.2,0.8,1.8,1c2.2,0.8,4.1,2.2,6,3.6"/>
	
		<path fill="none" stroke="#000000" stroke-width="0.7087" stroke-linecap="round" stroke-linejoin="round" stroke-miterlimit="10" d="
		M627.3,329.2c-0.4,0-0.8,0-0.8,0.4c0.3,2.5-0.2,5.4,2.6,7"/>
	
		<path fill="none" stroke="#000000" stroke-width="0.7087" stroke-linecap="round" stroke-linejoin="round" stroke-miterlimit="10" d="
		M730.7,338c-2.2,2.2-4.8,3.8-7.6,5.2"/>
	
		<path fill="none" stroke="#000000" stroke-width="0.7087" stroke-linecap="round" stroke-linejoin="round" stroke-miterlimit="10" d="
		M633.9,335.4c0,2.5-0.2,4.9,0.2,7.4"/>
	
		<path fill="none" stroke="#000000" stroke-width="0.7087" stroke-linecap="round" stroke-linejoin="round" stroke-miterlimit="10" d="
		M579.1,383.9c-0.7,0.2-1.4,0.4-2.2,0.2c-2.7-0.4-2.8-0.3-3.4,2.4"/>
	
		<path fill="none" stroke="#000000" stroke-width="0.7087" stroke-linecap="round" stroke-linejoin="round" stroke-miterlimit="10" d="
		M632.9,306c0.4,2.3,0.8,4.5,1.2,6.8"/>
	
		<path fill="none" stroke="#000000" stroke-width="0.7087" stroke-linecap="round" stroke-linejoin="round" stroke-miterlimit="10" d="
		M614.9,338.8c-2.3-0.3-4.5-0.5-6.8-0.8"/>
	
		<path fill="none" stroke="#000000" stroke-width="0.7087" stroke-linecap="round" stroke-linejoin="round" stroke-miterlimit="10" d="
		M615.3,347.6c2.3,0.5,4.5,1.1,6.8,1.6"/>
	
		<path fill="none" stroke="#000000" stroke-width="0.7087" stroke-linecap="round" stroke-linejoin="round" stroke-miterlimit="10" d="
		M647,330.4c-0.5,0.1-1.1-0.3-1.3,0.8c-0.4,1.9-1.2,3.6-0.8,5.6c0.2,1-0.2,2.2-0.7,3.2"/>
	
		<path fill="none" stroke="#000000" stroke-width="0.7087" stroke-linecap="round" stroke-linejoin="round" stroke-miterlimit="10" d="
		M657.4,334c-0.6,1.9-1.2,3.9-1.8,5.8c-0.5,1.5-2,1.1-3,1.5"/>
	
		<path fill="none" stroke="#000000" stroke-width="0.7087" stroke-linecap="round" stroke-linejoin="round" stroke-miterlimit="10" d="
		M625.3,339.2c0.1,0.5,0.1,1.1,0.1,1.6c0,1.6,0.7,3.1,0.4,4.8c-0.3,2,1.1,3.8,3.1,4.8"/>
	
		<path fill="none" stroke="#000000" stroke-width="0.7087" stroke-linecap="round" stroke-linejoin="round" stroke-miterlimit="10" d="
		M570.4,348.8c2,0.8,3.9,1.9,6,2.4"/>
	
		<path fill="none" stroke="#000000" stroke-width="0.7087" stroke-linecap="round" stroke-linejoin="round" stroke-miterlimit="10" d="
		M549.6,401.5c-2.1,0.1-4-0.6-6-1"/>
	
		<path fill="none" stroke="#000000" stroke-width="0.7087" stroke-linecap="round" stroke-linejoin="round" stroke-miterlimit="10" d="
		M636.2,326.8c0.1,0.3,0.3,0.6,0.2,0.8c-1.4,2-0.1,4.2-0.2,6.2"/>
	
		<path fill="none" stroke="#000000" stroke-width="0.7087" stroke-linecap="round" stroke-linejoin="round" stroke-miterlimit="10" d="
		M646.6,343.3c-0.2,0.2-0.7,0-0.6,0.5c0.7,2.5,0,5-0.6,7.4"/>
	
		<path fill="none" stroke="#000000" stroke-width="0.7087" stroke-linecap="round" stroke-linejoin="round" stroke-miterlimit="10" d="
		M608.1,346c-1.9-0.1-3.7-0.3-5.6-0.4"/>
	
		<path fill="none" stroke="#000000" stroke-width="0.7087" stroke-linecap="round" stroke-linejoin="round" stroke-miterlimit="10" d="
		M616.9,315.6c1.1,2.1,3,3.7,4.4,5.6"/>
	
		<path fill="none" stroke="#000000" stroke-width="0.7087" stroke-linecap="round" stroke-linejoin="round" stroke-miterlimit="10" d="
		M555.2,402.1c1.9,0.1,3.7,0.3,5.6,0.4"/>
	
		<path fill="none" stroke="#000000" stroke-width="0.7087" stroke-linecap="round" stroke-linejoin="round" stroke-miterlimit="10" d="
		M743.5,316.2c-1.1,1.9-2.1,3.7-3.2,5.6"/>
	
		<path fill="none" stroke="#000000" stroke-width="0.7087" stroke-linecap="round" stroke-linejoin="round" stroke-miterlimit="10" d="
		M668.2,336.4c-2.1,0-3.9,0.9-5.6,2"/>
	
		<path fill="none" stroke="#000000" stroke-width="0.7087" stroke-linecap="round" stroke-linejoin="round" stroke-miterlimit="10" d="
		M644,324.4c0.5,1.7,0.4,3.6,1.2,5.2"/>
	
		<path fill="none" stroke="#000000" stroke-width="0.7087" stroke-linecap="round" stroke-linejoin="round" stroke-miterlimit="10" d="
		M564,366.5c1.3,1.6,3.6,1.6,4.8,3.2"/>
	
		<path fill="none" stroke="#000000" stroke-width="0.7087" stroke-linecap="round" stroke-linejoin="round" stroke-miterlimit="10" d="
		M619.3,296c0.8,1.7,1.6,3.5,2.4,5.2"/>
	
		<path fill="none" stroke="#000000" stroke-width="0.7087" stroke-linecap="round" stroke-linejoin="round" stroke-miterlimit="10" d="
		M649.2,338.1c0.5-0.2,1-0.6,1.5,0.2c-0.9,1.6-0.5,3.6-1.3,5.3"/>
	
		<path fill="none" stroke="#000000" stroke-width="0.7087" stroke-linecap="round" stroke-linejoin="round" stroke-miterlimit="10" d="
		M563.6,390.5c1.7,0.1,3.5,0.3,5.2,0.4"/>
	
		<path fill="none" stroke="#000000" stroke-width="0.7087" stroke-linecap="round" stroke-linejoin="round" stroke-miterlimit="10" d="
		M630.5,348.6c-2.2-0.6-2.6-3-4.2-4.2"/>
	
		<path fill="none" stroke="#000000" stroke-width="0.7087" stroke-linecap="round" stroke-linejoin="round" stroke-miterlimit="10" d="
		M590.1,353.7c0.6,1.2,1.6,0.5,2.4,0.6c0.8,0.1,1.6,0,2.4,0"/>
	
		<path fill="none" stroke="#000000" stroke-width="0.7087" stroke-linecap="round" stroke-linejoin="round" stroke-miterlimit="10" d="
		M681,368.5c1.2,1.5,2.7,2.8,3.2,4.8"/>
	
		<path fill="none" stroke="#000000" stroke-width="0.7087" stroke-linecap="round" stroke-linejoin="round" stroke-miterlimit="10" d="
		M595.7,494.7c0.2,1.6-0.2,3.2,0.2,4.8"/>
	
		<path fill="none" stroke="#000000" stroke-width="0.7087" stroke-linecap="round" stroke-linejoin="round" stroke-miterlimit="10" d="
		M637.8,355.7c-0.9,1.6-1.9,3.2-2.8,4.8"/>
	
		<path fill="none" stroke="#000000" stroke-width="0.7087" stroke-linecap="round" stroke-linejoin="round" stroke-miterlimit="10" d="
		M653.6,330.4c0.2,2.5,0,4.9-1.6,7"/>
	
		<path fill="none" stroke="#000000" stroke-width="0.7087" stroke-linecap="round" stroke-linejoin="round" stroke-miterlimit="10" d="
		M736.7,388.7c-1.9,1.5-3.9,2.5-6.4,1.8"/>
	
		<path fill="none" stroke="#000000" stroke-width="0.7087" stroke-linecap="round" stroke-linejoin="round" stroke-miterlimit="10" d="
		M596.5,503.9c-0.2,1.7,0.6,3.2,0.8,4.8"/>
	
		<path fill="none" stroke="#000000" stroke-width="0.7087" stroke-linecap="round" stroke-linejoin="round" stroke-miterlimit="10" d="
		M604.5,337.4c-1.5-0.4-3,0.3-4.4-0.2"/>
	
		<path fill="none" stroke="#000000" stroke-width="0.7087" stroke-linecap="round" stroke-linejoin="round" stroke-miterlimit="10" d="
		M629.9,333.4c0.6,1.2,0.7,2.4-0.2,3.6c-1.1,1.5-2.1,3.2-4,4"/>
	
		<path fill="none" stroke="#000000" stroke-width="0.7087" stroke-linecap="round" stroke-linejoin="round" stroke-miterlimit="10" d="
		M699.9,345.6c1.6,1,3,2.1,4,3.6"/>
	
		<path fill="none" stroke="#000000" stroke-width="0.7087" stroke-linecap="round" stroke-linejoin="round" stroke-miterlimit="10" d="
		M682.2,380.9c0.6,1.6,2.3,2.4,2.8,4"/>
	
		<path fill="none" stroke="#000000" stroke-width="0.7087" stroke-linecap="round" stroke-linejoin="round" stroke-miterlimit="10" d="
		M554,439.8c1.3,0.4,2.7,0.8,4,1.2"/>
	
		<path fill="none" stroke="#000000" stroke-width="0.7087" stroke-linecap="round" stroke-linejoin="round" stroke-miterlimit="10" d="
		M549.4,386.3c1.2,0.7,2,2.2,3.8,1.8"/>
	
		<path fill="none" stroke="#000000" stroke-width="0.7087" stroke-linecap="round" stroke-linejoin="round" stroke-miterlimit="10" d="
		M653.8,355.3c1.5,0.7,2.7,1.8,4,2.8"/>
	
		<path fill="none" stroke="#000000" stroke-width="0.7087" stroke-linecap="round" stroke-linejoin="round" stroke-miterlimit="10" d="
		M637.8,333.2c-0.5,1.6,0.1,3.2-0.2,4.8"/>
	
		<path fill="none" stroke="#000000" stroke-width="0.7087" stroke-linecap="round" stroke-linejoin="round" stroke-miterlimit="10" d="
		M610.3,488.9c-0.1,1.3,0.2,2.6-0.2,3.8"/>
	
		<path fill="none" stroke="#000000" stroke-width="0.7087" stroke-linecap="round" stroke-linejoin="round" stroke-miterlimit="10" d="
		M641,327.4c-0.9,1.4-1.9,2.8-2.8,4.2"/>
	
		<path fill="none" stroke="#000000" stroke-width="0.7087" stroke-linecap="round" stroke-linejoin="round" stroke-miterlimit="10" d="
		M555.4,360.3c1.1,1.2,2.3,2.3,3.8,3"/>
	
		<path fill="none" stroke="#000000" stroke-width="0.7087" stroke-linecap="round" stroke-linejoin="round" stroke-miterlimit="10" d="
		M693.4,342.6c-1.1-0.7-2.4-0.8-3.6-1"/>
	
		<path fill="none" stroke="#000000" stroke-width="0.7087" stroke-linecap="round" stroke-linejoin="round" stroke-miterlimit="10" d="
		M618.1,390.9c-0.3,1.4-1.4,2.4-2,3.6"/>
	
		<path fill="none" stroke="#000000" stroke-width="0.7087" stroke-linecap="round" stroke-linejoin="round" stroke-miterlimit="10" d="
		M637.8,350.8c1.2,0,2.4,0,3.6,0"/>
	
		<path fill="none" stroke="#000000" stroke-width="0.7087" stroke-linecap="round" stroke-linejoin="round" stroke-miterlimit="10" d="
		M546.4,436.6c1.1,0.7,2.3,1.4,3.6,1.6"/>
	
		<path fill="none" stroke="#000000" stroke-width="0.7087" stroke-linecap="round" stroke-linejoin="round" stroke-miterlimit="10" d="
		M636.4,340.4c-0.4,1.2-2.3,2.2-0.4,3.6"/>
	
		<path fill="none" stroke="#000000" stroke-width="0.7087" stroke-linecap="round" stroke-linejoin="round" stroke-miterlimit="10" d="
		M640.8,339.8c-1.2,1.1-1.6,2.3-0.2,3.6"/>
	
		<path fill="none" stroke="#000000" stroke-width="0.7087" stroke-linecap="round" stroke-linejoin="round" stroke-miterlimit="10" d="
		M653,390.1c0.1,1.1-1.1,2.4,0.5,3.4c0.8-0.1,1.1-1,1.7-1.4"/>
	
		<path fill="none" stroke="#000000" stroke-width="0.7087" stroke-linecap="round" stroke-linejoin="round" stroke-miterlimit="10" d="
		M687.4,360.1c-0.3,1.4-1.4,2.3-2.2,3.4"/>
	
		<path fill="none" stroke="#000000" stroke-width="0.7087" stroke-linecap="round" stroke-linejoin="round" stroke-miterlimit="10" d="
		M631.7,329.6c-1.3,0.2-0.7,1.4-1.1,2c-0.4,0.7-0.5,1.7-1.7,1.6"/>
	
		<path fill="none" stroke="#000000" stroke-width="0.7087" stroke-linecap="round" stroke-linejoin="round" stroke-miterlimit="10" d="
		M617.7,332.2c0.6,1.1-0.4,2.6,1,3.4"/>
	
		<path fill="none" stroke="#000000" stroke-width="0.7087" stroke-linecap="round" stroke-linejoin="round" stroke-miterlimit="10" d="
		M645.2,350c-1.1,0.2-2.3,0.4-3.4,0.6"/>
	
		<path fill="none" stroke="#000000" stroke-width="0.7087" stroke-linecap="round" stroke-linejoin="round" stroke-miterlimit="10" d="
		M644.8,333.4c-2.3,0-4.6-0.3-6.8,0.2"/>
	
		<path fill="none" stroke="#000000" stroke-width="0.7087" stroke-linecap="round" stroke-linejoin="round" stroke-miterlimit="10" d="
		M655.2,398.5c0-0.7,0.1-1.4,0-2c-0.2-0.9-0.6-0.8-1,0"/>
	
		<path fill="none" stroke="#000000" stroke-width="0.7087" stroke-linecap="round" stroke-linejoin="round" stroke-miterlimit="10" d="
		M589.7,344.8c-1.7,0-3.4-0.1-5,0.6"/>
	
		<path fill="none" stroke="#000000" stroke-width="0.7087" stroke-linecap="round" stroke-linejoin="round" stroke-miterlimit="10" d="
		M649.8,390.9c-1.4,1.5-1.3,3.5-2,5.2"/>
	
		<path fill="none" stroke="#000000" stroke-width="0.7087" stroke-linecap="round" stroke-linejoin="round" stroke-miterlimit="10" d="
		M651.8,396.5c0.6,0,1.1-0.1,1.2,0.8c0.1,1-0.5,1.1-1.2,1"/>
	
		<path fill="none" stroke="#000000" stroke-width="0.7087" stroke-linecap="round" stroke-linejoin="round" stroke-miterlimit="10" d="
		M648.6,332.8c-0.2,1.9,0.8,3.4,1.6,5"/>
	
		<path fill="none" stroke="#000000" stroke-width="0.7087" stroke-linecap="round" stroke-linejoin="round" stroke-miterlimit="10" d="
		M637.4,334c-1.9-0.3-3.3,1.1-5,1.4c-0.6,0.1-1.1,0-1.6,0.2"/>
	
		<path fill="none" stroke="#000000" stroke-width="0.7087" stroke-linecap="round" stroke-linejoin="round" stroke-miterlimit="10" d="
		M618.7,401.9c0.7,1,2,1.4,2.2,2.8"/>
	
		<path fill="none" stroke="#000000" stroke-width="0.7087" stroke-linecap="round" stroke-linejoin="round" stroke-miterlimit="10" d="
		M574.6,484.9c1.8,2,4,1.5,5.8,0c3.5-3,5.2-7.2,6.6-11.4c1-3.1,1.7-6.3,2.6-9.4c0.3-1,0.3-2-0.4-2.8"/>
	
		<path fill="none" stroke="#000000" stroke-width="0.7087" stroke-linecap="round" stroke-linejoin="round" stroke-miterlimit="10" d="
		M649,392.7c0.6,1,1.5,0.9,2.4,0.6"/>
	
		<path fill="none" stroke="#000000" stroke-width="0.7087" stroke-linecap="round" stroke-linejoin="round" stroke-miterlimit="10" d="
		M648.4,389.3c0,0.8-0.1,1.7,0.4,2.4"/>
	
		<path fill="none" stroke="#000000" stroke-width="0.7087" stroke-linecap="round" stroke-linejoin="round" stroke-miterlimit="10" d="
		M655.6,392.1c0.3,0.7,0.6,1.3,1.4,1.6"/>
	
		<path fill="none" stroke="#000000" stroke-width="0.7087" stroke-linecap="round" stroke-linejoin="round" stroke-miterlimit="10" d="
		M641.8,431.4c-0.8,0-1.5,0.2-1.6,1.2"/>
	
		<path fill="none" stroke="#000000" stroke-width="0.7087" stroke-linecap="round" stroke-linejoin="round" stroke-miterlimit="10" d="
		M646.4,334.6c-0.5,0.3,0.2,1.2-0.6,1.4"/>
	
		<path fill="none" stroke="#000000" stroke-width="0.7087" stroke-linecap="round" stroke-linejoin="round" stroke-miterlimit="10" d="
		M646,333.8c0.7,0.7,1.4,1.1,2.4,0.8"/>
</g>
</svg>
