<?xml version="1.0" encoding="utf-8"?>
<!-- Generator: Adobe Illustrator 18.0.0, SVG Export Plug-In . SVG Version: 6.00 Build 0)  -->
<!DOCTYPE svg PUBLIC "-//W3C//DTD SVG 1.0//EN" "http://www.w3.org/TR/2001/REC-SVG-20010904/DTD/svg10.dtd">
<svg version="1.0" id="Layer_1" xmlns="http://www.w3.org/2000/svg" xmlns:xlink="http://www.w3.org/1999/xlink" x="0px" y="0px"
	 width="1280px" height="800px" viewBox="0 0 1280 800" enable-background="new 0 0 1280 800" xml:space="preserve">
<g>
	
		<path fill="none" stroke="#000000" stroke-width="0.7087" stroke-linecap="round" stroke-linejoin="round" stroke-miterlimit="10" d="
		M554.4,480.8c2.4-1.6,2.2-4.7,3.8-6.9c1.5,0.3,2.4-1,3.6-1.7c8-4.4,15.9-9.2,23.4-14.4c4.9-3.4,9.6-7,14.4-10.5
		c3.5-2.6,7-5.2,10.4-7.9c5.3-4.2,10.5-8.6,15.5-13.1c13.9-12.5,26.5-26.3,39.9-39.3c0.8-0.8,1.7-1.5,2.1-2.6"/>
	
		<path fill="none" stroke="#000000" stroke-width="0.7087" stroke-linecap="round" stroke-linejoin="round" stroke-miterlimit="10" d="
		M600.1,299.2c-1.7,0.5-3.3-0.1-4.9-0.2c-9-0.3-17.9,1-26.4,3.9c-3.8,1.3-7.2,3.7-11.1,5.2c-3,1.2-5.8,1.9-9,0.9
		c-3.4-1.1-6.7-0.9-10,0.7c-1.1,0.5-1.6,1.1-1,1.8c3.2,4,6.3,8.2,10.8,10.9c3,1.8,6.3,2.9,9.5,4.2c5.3,2.1,8.9,6.1,12,10.8
		c4.8,7.1,12,10,20.2,10.9c1.2,0.1,2.1,0.5,2.9,1.1"/>
	
		<path fill="none" stroke="#000000" stroke-width="0.7087" stroke-linecap="round" stroke-linejoin="round" stroke-miterlimit="10" d="
		M561.2,481.1c6.1-3.4,12.2-6.9,18.3-10.3c6.6-3.6,12.8-7.7,18.9-11.9c7.2-4.9,13.8-10.5,20.4-16.3c3.7-3.2,7.6-6.3,11.4-9.4
		c5.3-4.3,10.2-9,15.4-13.3c6.8-5.6,11.8-12.8,17.8-19.1c0.4-0.5,0.7-0.8,1.4-0.7"/>
	
		<path fill="none" stroke="#000000" stroke-width="0.7087" stroke-linecap="round" stroke-linejoin="round" stroke-miterlimit="10" d="
		M586.4,383.4c3.5-1.6,7-3.2,10.5-4.7c5.5-2.4,11.2-4.3,17.2-5.5c8.8-1.8,17.5-3.7,26.2-5.8c6.1-1.4,11.7-4.1,17.3-6.7
		c4.2-2,8.3-4.2,12.1-7c6.8-5.1,13.2-10.7,19.2-16.7c2.8-2.8,5.5-5.7,8.3-8.5"/>
	
		<path fill="none" stroke="#000000" stroke-width="0.7087" stroke-linecap="round" stroke-linejoin="round" stroke-miterlimit="10" d="
		M591.2,347.9c-1.5-3.4-3-6.8-2.1-10.7c0.2-1,0.5-2,0.6-3.1c0.1-1.2,1.1-1.7,1.9-1.9c3.3-0.9,7.3,1.3,7.9,4.7
		c0.4,2.4,1.5,2.5,3.3,2.1c2.2-0.5,3.1,0.1,3.7,2.4c0.4,1.4,0.8,2.8,0.9,4.3c0.1,1.9,1.1,2.9,2.8,3.2c2.2,0.5,4.4,1,6.7,1.3
		c1.8,0.2,3.2,0.9,4.6,2.2c1.8,1.9,4.2,2.3,7.1,1.6c-2.8-2.9-5.1-5.8-7-9.1c-0.8-1.4-1.3-2.8,0-3.8c1.3-0.9,2.6-2.1,4.7-1.3
		c2.6,1,3.1,3.4,4.3,5.4c0.2,0.3,0.3,0.8,0.5,1.5c2.2-1.8,4.1-0.6,6,0.5c3.3,1.9,6.7,3.5,10.7,3.2c0.9-0.1,1.8,0.1,2-1.1"/>
	
		<path fill="none" stroke="#000000" stroke-width="0.7087" stroke-linecap="round" stroke-linejoin="round" stroke-miterlimit="10" d="
		M616.7,292.6c-1.9-3.9-1.7-4.9,1.5-9.3c3.4,1,4.4,4.3,6.2,6.8c1.4,1.9,2.2,4.3,3.4,6.4c3.3,6.1,8.9,8.1,15.3,8.6
		c1,0.1,2-0.5,2.9-1.6c-1.6-1.8-3.4-3.5-4.5-5.8c-1.1-2.5,0.3-4.9,3-5.3c1-0.1,1.3,0.1,1.9,0.7c1,1.1,1.6,2.3,2.2,3.5
		c0.9,1.8,2.4,3.1,4.3,3.2c2.5,0.1,4,1.4,5.2,3.1c2.2,3.2,4.9,5.3,9.1,4.4"/>
	
		<path fill="none" stroke="#000000" stroke-width="0.7087" stroke-linecap="round" stroke-linejoin="round" stroke-miterlimit="10" d="
		M592,389.1c3.6-3.4,8.2-5,12.6-6.7c4.4-1.7,8.9-3,13.4-4.3c8.2-2.3,16.5-4,24.7-6.4c6.1-1.8,12.1-3.7,18-6.1c1-0.4,1.9-0.5,2.9-0.7
		"/>
	
		<path fill="none" stroke="#000000" stroke-width="0.7087" stroke-linecap="round" stroke-linejoin="round" stroke-miterlimit="10" d="
		M749.5,413.6c-0.9,0.4-1.9,0.9-2.8,1.3c-3.8,1.8-8.3-1.1-8-5.3c0.1-1.6,0.9-2.8,2.5-3.5c2.4-1.2,4.6-2.5,6.3-4.6
		c1.9-2.4,2.9-4.9,2.4-8c-1.8-0.5-2.2,1.3-3.1,2.1c-1.2,1-2.6,2.1-4.1,1.6c-1.8-0.6-2.7-2.4-3-4.2c-0.7-3.9,0.9-7.3,2.6-10.7
		c0.7-1.4,1.3-2.9,2-4.4c1.1-2.2,1.5-4.4,0.4-6.8c-1.4,0.4-2.1,1.6-3.1,2.4c-1.7,1.2-3.4,0.6-3.8-1.5c-0.2-1.2,0-2.4,0-3.6"/>
	
		<path fill="none" stroke="#000000" stroke-width="0.7087" stroke-linecap="round" stroke-linejoin="round" stroke-miterlimit="10" d="
		M662.9,381.2c3.7-2.8,6.6-6.4,9.7-9.7c8.2-8.8,16.6-17.4,24.3-26.7c2.8-3.3,5.6-6.7,8.4-10c0.6-0.7,1.1-1.8,2.4-1.6"/>
	
		<path fill="none" stroke="#000000" stroke-width="0.7087" stroke-linecap="round" stroke-linejoin="round" stroke-miterlimit="10" d="
		M541.8,312.9c3.9,1.2,7.7,2.4,11.6,3.6c3.7,1.1,7.3,2.4,11.1,3.2c1.8,0.4,3.7,0.2,5.5-0.1c1.5-0.3,2.7,0.1,4,0.8
		c5.6,2.8,11.6,3.8,17.6,5.1c4.7,1,9.6,1.3,14.2,3.2c3.5,1.5,7.5,1.5,11.3,1.7c5.1,0.2,10.1,0.9,15.2,1.1c6.6,0.2,13.2,1.6,19.9,1
		c5.1-0.5,10.3,0.3,15.4-1.2c1.3-0.4,2.2-0.9,3-2.2c1.7-2.9,2.9-6.2,5.6-8.6"/>
	
		<path fill="none" stroke="#000000" stroke-width="0.7087" stroke-linecap="round" stroke-linejoin="round" stroke-miterlimit="10" d="
		M585.5,249.7c0.9,1.7,2,3.1,1.3,5.3c-0.6,1.9,0.4,4,1.4,5.7c1.6,2.9,1.9,6.3,4.5,8.8c1.5,1.5,2.3,3.8,3.4,5.8
		c3.2,5.6,6.8,10.9,12.3,14.5c2.5,1.6,4.9,3.5,8.3,3.2c0.5,0,1.7,0.2,2.1,1.1"/>
	
		<path fill="none" stroke="#000000" stroke-width="0.7087" stroke-linecap="round" stroke-linejoin="round" stroke-miterlimit="10" d="
		M664.3,269.7c-0.8,0.3-1.4,0.7-2.3,0.8c-3,0.4-5.3,2.2-7.3,4.4c-1.7,1.9-0.2,5.6,2.6,6.8c5.4,2.4,10.5,1.2,14.2-3.5
		c2.9,1.7,5.6,2.4,9,0.8c2.7-1.2,6.3-2.2,9,1c0.3,0.4,1.1,0.4,1.7,0.5"/>
	
		<path fill="none" stroke="#000000" stroke-width="0.7087" stroke-linecap="round" stroke-linejoin="round" stroke-miterlimit="10" d="
		M638.9,457.4c5.4-2.5,11.4-2.3,17-3.7c8.8-2.3,16.6-6.4,22.2-14c1.3-1.8,2.3-4.1,4.4-5.3"/>
	
		<path fill="none" stroke="#000000" stroke-width="0.7087" stroke-linecap="round" stroke-linejoin="round" stroke-miterlimit="10" d="
		M587.3,252.5c2.4-0.7,4.3,0.8,6.2,1.7c5.1,2.3,10.4,2.5,15.8,2.1c7.4-0.7,14.8-0.4,22,1.7c3.1,0.9,5.6,2.8,6.9,6.2
		c-4.1-0.5-8-1.3-11.9-0.8c-0.8,0.1-1.7,0.2-2.4,0.5c-2.7,1.1-4.6,3.5-4.2,5.3c0.5,2.3,3.9,4.5,6.5,4.7c2.1,0.2,3.7-0.8,5.2-1.9
		c0.5-0.4,1.2-0.4,1.6-0.8"/>
	
		<path fill="none" stroke="#000000" stroke-width="0.7087" stroke-linecap="round" stroke-linejoin="round" stroke-miterlimit="10" d="
		M597.2,299.7c-3.3,2.1-6.5,4.3-9.8,6.4c-0.2,0.1-0.5,0.2-0.7,0.4c-3.2,2.4-3,5.6,0.6,7.4c3,1.5,6,1.6,8.9,0c3-1.6,6.3-2.6,8.8-4.7
		c1.7,0.5,1.8,2.1,2.5,3.2"/>
	
		<path fill="none" stroke="#000000" stroke-width="0.7087" stroke-linecap="round" stroke-linejoin="round" stroke-miterlimit="10" d="
		M701,483.7c1.8-0.8,2.8-2.5,4-4c2.7-3.2,6.6-4.9,10-7.1c2.5-1.6,5-3.1,7.7-4.3c5.8-2.6,8.5-7.2,9.7-13.2c-1.7-0.2-3.1,0.7-4.6,1.1
		c-3.7,0.9-5.1,0.4-6.4-2.4c-1-2.2-0.2-4.6,2.2-6.6c3-2.5,6.6-3.9,10.2-5.1c3.6-1.2,6.5-3,8.3-6.5c0.6-1.2,1.3-2.3,2.1-3.6
		c-2.1-0.1-4.1,0.3-5.8-1.2c-2.1-2-2-3.6,0.5-5c5-2.9,9.3-6.2,10.7-12.2c0.1-0.4,0.6-0.7,0.9-1.1"/>
	
		<path fill="none" stroke="#000000" stroke-width="0.7087" stroke-linecap="round" stroke-linejoin="round" stroke-miterlimit="10" d="
		M690.6,441.3c-0.1,7.2,2.1,14,3.7,20.8c1.6,6.5,2.8,13.1,4,19.7c0.2,0.9,0.3,1.6,1,2.2"/>
	
		<path fill="none" stroke="#000000" stroke-width="0.7087" stroke-linecap="round" stroke-linejoin="round" stroke-miterlimit="10" d="
		M701.3,475.7c-1.9-1.2-0.7-3-0.4-4.1c1.7-8.6,5.2-16.5,10.3-23.8c5.1-7.2,9.2-14.8,12.1-23.2c2-5.6,4-11.2,5.1-17.1
		c3.1-16.2,3.2-32.4-1-48.5c-0.1-0.4-0.1-0.9-0.2-1.4"/>
	
		<path fill="none" stroke="#000000" stroke-width="0.7087" stroke-linecap="round" stroke-linejoin="round" stroke-miterlimit="10" d="
		M628.5,284.4c1.3-0.9,2.7-0.2,3.7,0.3c5.3,3,11.1,3.9,16.9,5.1c6,1.2,12.2,1.7,18.1,3.5c10.7,3.1,21.4,6,31.4,11.3
		c5.2,2.7,9.4,6.4,13.7,10.2c0.2,0.2,0.5,0.3,0.8,0.4"/>
	
		<path fill="none" stroke="#000000" stroke-width="0.7087" stroke-linecap="round" stroke-linejoin="round" stroke-miterlimit="10" d="
		M693,433.9c0.5-0.5,0.5-1.5,1.8-1.5c0.9,4.3,2.2,8.4,5,12c2.2,2.9,5.7,3.2,7.5,0.6c1-1.4,1.2-2.7,0.5-4.5c-1.2-3.1-2.7-5.9-5-8.2
		c-0.8-0.9-1-1.3,0-2.2c0.8-0.8,1.2-1.8,1.3-3.3c0-4.3,0.8-8.7,0.3-13"/>
	
		<path fill="none" stroke="#000000" stroke-width="0.7087" stroke-linecap="round" stroke-linejoin="round" stroke-miterlimit="10" d="
		M648.9,447.7c2.7-3.5,6.4-5.9,9.5-9.1c3.8-4,7.2-8.3,10.8-12.5c2-2.3,3.4-5,5.9-7c1.4-1.1,2-3.2,3-4.8c2.7-4.4,5.8-8.5,8.1-13.2
		c1.4-2.9,4.5-3,7-4c2.2-0.8,4.5-1.3,6.8-1.7"/>
	
		<path fill="none" stroke="#000000" stroke-width="0.7087" stroke-linecap="round" stroke-linejoin="round" stroke-miterlimit="10" d="
		M656.1,311.8c-3.1,0.9-6.1,2.1-8.6,4.3c-1.6,1.4-2,3.3-2.1,5.3c0,0.5,0.2,1.1,0.5,1.5c1.7,1.7,6.9,1.6,8.4-0.3
		c0.5-0.7,1.3-1.3,1.5-2c1.1-3,3.7-4,6.2-4.8c1.2-0.4,2.1-1,2.9-1.7"/>
	
		<path fill="none" stroke="#000000" stroke-width="0.7087" stroke-linecap="round" stroke-linejoin="round" stroke-miterlimit="10" d="
		M633,334.9c1.4-0.9,2.9-0.4,4.3-0.2c11.2,1.5,22.3-0.1,33.2-2c5.4-1,10.8-2.5,16.1-4c5.3-1.5,10.4-3.4,15.7-4.9
		c2.8-0.8,6.1-1.1,8.8,0.8"/>
	
		<path fill="none" stroke="#000000" stroke-width="0.7087" stroke-linecap="round" stroke-linejoin="round" stroke-miterlimit="10" d="
		M761.7,332c3.3,0.1,5.5,2.2,7.8,4.3c4,3.7,6.8,8.2,9.5,12.8c1.3,2.2,3.4,3.8,4.8,6c1.5,2.4,3.7,3.5,6.1,4.3"/>
	
		<path fill="none" stroke="#000000" stroke-width="0.7087" stroke-linecap="round" stroke-linejoin="round" stroke-miterlimit="10" d="
		M727.6,321.7c4.9,1.8,8.1,5.5,10.8,9.7c1.7,2.6,4.2,2.6,5.9,0.4c0.9-1.1,0.4-1.9,0.1-2.8c-0.2-0.7-0.5-1.3-0.8-1.9
		c-0.3-0.6-1-1.1-0.5-2.2c2.7-0.4,4.8,1.2,6.7,3.2c2.9,3.1,4.8,7,7.3,10.5c1.3,1.8,3.1,2.7,4.6,1.9c2-1.1,2.4-3.2,1.1-5.4
		c-0.8-1.3-1.4-2.7-2.6-3.6"/>
	
		<path fill="none" stroke="#000000" stroke-width="0.7087" stroke-linecap="round" stroke-linejoin="round" stroke-miterlimit="10" d="
		M648.1,418.7c0.2,0.3,0.2,0.5,0,1c-1.7,2.7-2.3,5.6-3,8.7c-1.7,7.7-3,15.6-6.5,22.7c-0.9,1.8-2,3.5-3,5.3c-0.4,0.6-1,1.2-0.4,2"/>
	
		<path fill="none" stroke="#000000" stroke-width="0.7087" stroke-linecap="round" stroke-linejoin="round" stroke-miterlimit="10" d="
		M658.1,413.1c0.7,1.1,1.7,2,3,1.5c1.2-0.5,1.1-1.9,1.3-3c0.2-0.7-0.1-1.2-0.2-1.7c-0.2-1.4-0.4-2.3,1.7-2.5
		c1.6-0.2,2.3-2.7,1.9-5.1c-1.1-6.1-1.1-6.2,0.9-11.9c1.8,1.2,2,3.2,2.6,4.9c0.8,2.4,2.1,4.4,4.2,5.7c1.7,1,3.6,0.9,5-0.5
		c1.4-1.4,1.2-3.3,0.8-5.1c-0.5-2.1-2-3.8-2.2-6c4.7-0.4,5.2-4.1,5.9-7.6c6.5,1,6.7,0.8,6.4-5.8c-0.1-2.6,0.3-5.2-2-7.2"/>
	
		<path fill="none" stroke="#000000" stroke-width="0.7087" stroke-linecap="round" stroke-linejoin="round" stroke-miterlimit="10" d="
		M646.4,448.5c-1-1.9,0.7-2.8,1.6-3.5c7.4-6.2,13.7-13.5,19.8-21c5.4-6.6,10.6-13.4,14.8-20.8c3.7-6.6,7.8-13.1,11-20
		c5.6-11.9,10.8-24,13.9-36.9c0.6-2.4,1-4.9,1.5-7.4"/>
	
		<path fill="none" stroke="#000000" stroke-width="0.7087" stroke-linecap="round" stroke-linejoin="round" stroke-miterlimit="10" d="
		M740.4,352.9c5.4,2.2,11.2,3.6,16.6,1.9c4.3-1.3,6,0.7,8.3,2.8c0.2,0.2,0.5,0.6,0,1.5c-2.3,1.7-5.8,1.5-8.7,2.8"/>
	
		<path fill="none" stroke="#000000" stroke-width="0.7087" stroke-linecap="round" stroke-linejoin="round" stroke-miterlimit="10" d="
		M713.9,330.6c2,8.5-0.9,16.7-2.2,24.9c2.4,0.8,3.9-0.5,5.6-0.9c0.6,6.5-2.9,10.7-8,14c-0.7,0.5-1.5,0.8-2.3,1.3
		c-0.7,0.4-1.8,0.7-1.6,1.8c0.2,1,1,1.8,1.8,2.2c2.1,1,4.1,0.2,6.1-0.7c1.1-0.5,2-1.4,3.4-1.6c-0.7,5.1-4.4,7.2-8.6,8.6
		c-2,0.7-3.3,1.8-3.2,3.7c0.1,1.7-0.8,2.3-2,2.9c-1.2,0.6-2.7,1.3-2.5,2.9c0.2,1.5,1.6,2.7,2.9,3c2.4,0.5,4.8,1.7,7.3,0.4"/>
	
		<path fill="none" stroke="#000000" stroke-width="0.7087" stroke-linecap="round" stroke-linejoin="round" stroke-miterlimit="10" d="
		M688.8,398.2c-0.3-1.8,1.2-2.7,1.9-4c2.1-3.9,4-7.9,6.2-11.8c3-5.1,4.7-10.8,6.9-16.2c3.3-8.1,5.4-16.6,6.4-25.3
		c0.1-1.1,0-1.9-0.6-2.9c-1-1.8-0.3-3.9-0.2-5.9c0.1-2,0.7-3.4,2.8-4.2c1.5,0.8,3.8,0.6,5.4,2.3c0.9,0.9,0.6,2.1,1.3,3.2
		c2.1,3.1,5.3,5.4,6.6,9c2.1-0.7,4.1-1,6-0.2c0.2,1.2-0.8,2-0.8,3"/>
	
		<path fill="none" stroke="#000000" stroke-width="0.7087" stroke-linecap="round" stroke-linejoin="round" stroke-miterlimit="10" d="
		M726.8,424.2c-0.4-1.3,0.4-2.4,0.7-3.6c1.9-8,4-15.9,4.9-24.2c1.3-12.4-0.1-24.6-3-36.7c-0.3-1.3-1.1-2.2-1.8-3.2
		c0,0-0.2,0.1-0.2,0.1c-0.1,0.1-0.1,0.2-0.1,0.3"/>
	
		<path fill="none" stroke="#000000" stroke-width="0.7087" stroke-linecap="round" stroke-linejoin="round" stroke-miterlimit="10" d="
		M698.3,410.5c-2,3.6-4.6,6.7-8.7,7.8c-1.8,0.5-2.8,1.8-3.2,3.2c-0.4,1.4-1.5,1.7-2.1,1.6c-1.6-0.1-2.7,1-2.8,1.8
		c-0.6,2.9-3,3.1-5,3.9c-1.4,0.5-2.7,1.2-4,1.9c-1.4,0.8-3,1.7-2.4,3.7c0.6,1.7,2.2,3.4,4.6,3c1.8-0.3,3.5-0.8,5.3-1.2"/>
	
		<path fill="none" stroke="#000000" stroke-width="0.7087" stroke-linecap="round" stroke-linejoin="round" stroke-miterlimit="10" d="
		M667.9,343.6c-3.6,2.7-5.7,2.5-10.3-0.8c-1.2-0.9-2.4-1.8-3.6-2.7c-2-1.5-3.9-1-5.9,0c-2,1.1-2.5,3-2.6,4.8c-0.2,2.1,4,4.4,7,4.1"
		/>
	
		<path fill="none" stroke="#000000" stroke-width="0.7087" stroke-linecap="round" stroke-linejoin="round" stroke-miterlimit="10" d="
		M671.4,292.5c12.3,3.3,24.4,7.1,35,14.6c2.6,1.9,4.7,4.3,6.9,6.6"/>
	
		<path fill="none" stroke="#000000" stroke-width="0.7087" stroke-linecap="round" stroke-linejoin="round" stroke-miterlimit="10" d="
		M699.8,487.3c0.6-2.9,0.4-5.9,1.2-8.6c3.1-10.9,5.7-22,13.2-31c0.5-0.6,1.1-1.1,1.4-1.7c1.8-3.9,4.5-6.4,9-6.9
		c2.2-0.2,4.5-0.8,5.1-3.6c0.1-0.6,1-1,1.5-1.5"/>
	
		<path fill="none" stroke="#000000" stroke-width="0.7087" stroke-linecap="round" stroke-linejoin="round" stroke-miterlimit="10" d="
		M581.7,368.1c-1.2,2.5-2.9,4.7-3.3,7.5c-0.2,1.8,0.2,3.3,1.6,4.7c4.3-4.6,9.6-6.9,15.7-7.3"/>
	
		<path fill="none" stroke="#000000" stroke-width="0.7087" stroke-linecap="round" stroke-linejoin="round" stroke-miterlimit="10" d="
		M681,378.5c-0.5-1.2-1.9-1.2-2.6-2.1c-0.8-0.9-1.6-1.8,0-3.1c1.8-1.5,3.6-3.2,4.8-5.3c1.2-2.1,3.4-1.7,5.5-2.3
		c-1.4-2.7-0.2-4.5,1.9-6.3c2.4-2.1,4.6-4.4,7.9-5"/>
	
		<path fill="none" stroke="#000000" stroke-width="0.7087" stroke-linecap="round" stroke-linejoin="round" stroke-miterlimit="10" d="
		M650.8,416.3c0.8,0.9,0.9,1.8,1,3c0.1,1.9,0.3,3.8,1.2,5.5c1.1,2.2,2.5,3.1,4.8,2.7c2.1-0.4,3-1.6,3-4.1c0.1-2.3-0.4-4.6-1.4-6.7
		c-0.3-0.7-1.1-1.4,0-2.1"/>
	
		<path fill="none" stroke="#000000" stroke-width="0.7087" stroke-linecap="round" stroke-linejoin="round" stroke-miterlimit="10" d="
		M630.8,308.2c-3.6,0.1-6.4,1.9-9,4.1c-2.1,1.8-2.8,5.9-1.1,8.1c1.2,1.5,2.9,1.4,4.7,1c2.3-0.5,3.8-2.2,5.5-3.5
		c0.8-0.6,1.1-1.3,2.4-0.7c1,0.4,2.1-0.8,3-1.4c1.7-1.1,2.8-2.9,4.7-3.8"/>
	
		<path fill="none" stroke="#000000" stroke-width="0.7087" stroke-linecap="round" stroke-linejoin="round" stroke-miterlimit="10" d="
		M727.7,356.2c-2.2-4.1-3.1-8.7-5.4-12.8c-1.8-3.2-3.5-6.6-5.7-9.6c-0.3-0.4-0.8-0.8-0.6-1.5"/>
	
		<path fill="none" stroke="#000000" stroke-width="0.7087" stroke-linecap="round" stroke-linejoin="round" stroke-miterlimit="10" d="
		M568.2,321.8c6.3,3.5,13.5,3.4,20.3,4.9c4.9,1.1,9.8,2.2,14.7,3.3c2.6,0.6,2.9,3,4.4,4.5c4.2,4,8.1,8.3,12.2,12.5"/>
	
		<path fill="none" stroke="#000000" stroke-width="0.7087" stroke-linecap="round" stroke-linejoin="round" stroke-miterlimit="10" d="
		M588.1,253.8c3.7,4.1,6.8,8.8,11.8,11.5c1.7,3.5,5.3,4.3,8.1,6.3c6.3,4.6,13.5,7.1,20.6,9.7c5.4,2,10.6,4.5,16.4,5.5
		c5.7,1,11.5,2,17.1,3.5c3.4,0.9,5.4-1,7.4-2.8c2.9-2.6,6.3-4,9.8-5.4c0.3-0.1,0.6-0.3,0.9-0.5"/>
	
		<path fill="none" stroke="#000000" stroke-width="0.7087" stroke-linecap="round" stroke-linejoin="round" stroke-miterlimit="10" d="
		M662.7,316.8c-1.3,1.8-1.9,3.6-0.4,5.6c1,1.4,2,1.9,3.6,1c2-1.2,4.2-2.1,5.9-3.9c1.8-1.9,4.2-2.8,6.6-3.6c1.7-0.5,3-1.3,4.4-2.3"/>
	
		<path fill="none" stroke="#000000" stroke-width="0.7087" stroke-linecap="round" stroke-linejoin="round" stroke-miterlimit="10" d="
		M533.4,480.9c0.6-0.3,1.3-0.5,1.9-0.8c0.9-0.4,1.8-1,2.4,0.1c0.5,0.9,0.6,1.8-0.5,2.7c-1.5,1.2-1.8,2.9-0.9,4.8
		c1.9,0,3.1-1.8,4.8-2c1.6,1.8,1.8,3.1-0.7,4.6c-1.8,1.1-3.9,1.9-5.9,2.8"/>
	
		<path fill="none" stroke="#000000" stroke-width="0.7087" stroke-linecap="round" stroke-linejoin="round" stroke-miterlimit="10" d="
		M757.6,362.3c4.5,2,8.7,1.7,13.3-0.1c4.5-1.8,9.2-3.2,14.1-3.6c0.2,0,0.4-0.4,0.6-0.6"/>
	
		<path fill="none" stroke="#000000" stroke-width="0.7087" stroke-linecap="round" stroke-linejoin="round" stroke-miterlimit="10" d="
		M707.5,394c-1.7,1.8-3.1,3.7-3.4,6.2c-2.2,0.2-4.4-0.3-5.2,2.2c-0.3,1-1.2,0.7-1.9,0.8c-2.9,0.4-5.6,1.6-8.5,2.4
		c-1,0.3-1.6,1.3-1.6,2.4c0,1,0.4,2.1,1.4,2.4c3.9,1.4,7.7,0.8,11.3-1"/>
	
		<path fill="none" stroke="#000000" stroke-width="0.7087" stroke-linecap="round" stroke-linejoin="round" stroke-miterlimit="10" d="
		M602.5,272c3.9,1.3,7.2,3.5,10.9,5.2c3.7,1.7,7.4,3.5,11.2,5c1.9,0.8,3.2,1.7,4.2,3.7c2.3,4.6,5.1,8.9,8.6,12.8
		c0.3,0.4,0.5,0.9,0.8,1.3"/>
	
		<path fill="none" stroke="#000000" stroke-width="0.7087" stroke-linecap="round" stroke-linejoin="round" stroke-miterlimit="10" d="
		M705.2,418.5c0.9,0.5,1,1.4,1.3,2.3c1,3.3,3.9,5.8,6.9,5.9c2.2,0.1,3.9-1.6,3-3.5c-0.9-1.7-0.3-4.8-3.5-4.9"/>
	
		<path fill="none" stroke="#000000" stroke-width="0.7087" stroke-linecap="round" stroke-linejoin="round" stroke-miterlimit="10" d="
		M678.9,316.6c-0.4,1.2-1.6,1.8-1.9,3.1c-0.5,2.1,0.2,3.9,2.1,4.8c1.7,0.8,2.6-0.5,3.6-1.5c1.8-1.7,3.4-3.7,5.6-4.9
		c1.6-0.8,3.6-1,4.7-2.7"/>
	
		<path fill="none" stroke="#000000" stroke-width="0.7087" stroke-linecap="round" stroke-linejoin="round" stroke-miterlimit="10" d="
		M689,280.3c-3.2,1.2-6.5,2.1-9,4.6c3.2,5.5,8.1,5.5,13.4,4.3c3.8-0.9,4-0.9,7.6,0.2c0.1,0.7-0.2,0.9-0.7,1.3
		c-1.7,1.3-2.9,2.7-2.9,5.1c0,1.7,0.7,2.3,2,1.8c4.1-1.4,6.8,1.1,9.9,3.4c-1.2,0.7-1.7,1.7-1.9,2.9c5,1.4,6.2,5.4,6.8,9.9
		c0.1,0.6,0.6,1.1,0.9,1.6"/>
	
		<path fill="none" stroke="#000000" stroke-width="0.7087" stroke-linecap="round" stroke-linejoin="round" stroke-miterlimit="10" d="
		M587.4,255.7c3,3.3,5.5,7,8.8,9.9c0.9,0.8,1.7,1.6,2.6,2.4c1.8,1.9,3.4,3.6,3.8,6.5c0.5,3.7,3.6,6.3,5.9,9.1
		c0.5,0.6,0.7,1.2,1.2,1.7"/>
	
		<path fill="none" stroke="#000000" stroke-width="0.7087" stroke-linecap="round" stroke-linejoin="round" stroke-miterlimit="10" d="
		M720.5,377.4c4.2,2.8,6.7,1.8,7.5-3.1c-1-1-2.3-0.8-3.6-0.9c-1.7-0.1-2.2-1.4-2.9-2.6c-0.8-1.5,0.2-1.9,1.1-2.8
		c2.2-2.1,1.7-4.6-1.3-7.5c0.5-1,1.8-1.6,1.7-3.1c-0.1-1.3-1.3-1.9-1.9-2.8c-0.5-0.7-1.2-1.5-1-2.4c0.5-3.2-0.8-5.7-2.7-8
		c-0.8-1-0.8-2.5-2.2-2.9"/>
	
		<path fill="none" stroke="#000000" stroke-width="0.7087" stroke-linecap="round" stroke-linejoin="round" stroke-miterlimit="10" d="
		M677.3,305.6c-0.5-0.2-1.2-0.1-1.3-0.8c-0.3-2.1,1.9-5.2,4-5.5c1.4-0.2,2.7,0.1,3.3,1.7c0.3,0.6,0.7,1.3,0.8,1.9
		c0.4,3.5,1.5,6.5,5,7.9c0.4,0.1,0.6,0.6,0.9,1"/>
	
		<path fill="none" stroke="#000000" stroke-width="0.7087" stroke-linecap="round" stroke-linejoin="round" stroke-miterlimit="10" d="
		M512.6,465.6c-1.3-2.9-2.6-5.9-4.1-8.7c-1.2-2.3-2.4-2.4-4.5-1.1c-1.5,1-1.1,2.2-0.7,3.4c0.5,2,1.7,3.7,2,5.7"/>
	
		<path fill="none" stroke="#000000" stroke-width="0.7087" stroke-linecap="round" stroke-linejoin="round" stroke-miterlimit="10" d="
		M601.4,387.4c-0.4,0.8-0.9,1.5-1.1,2.6c-0.2,1.3-1.4,2.3-3.1,2.8c-3.1,0.8-6.1,1.3-9.3,0.9c0.7,4.7,2.9,6.9,7.3,7.3
		c3.5,0.3,7-0.1,10-2.3"/>
	
		<path fill="none" stroke="#000000" stroke-width="0.7087" stroke-linecap="round" stroke-linejoin="round" stroke-miterlimit="10" d="
		M635.7,330.7c-0.4-3.4,1.5-5.9,3.3-8.4c2.6-3.3,5.5-6.4,9.2-8.5"/>
	
		<path fill="none" stroke="#000000" stroke-width="0.7087" stroke-linecap="round" stroke-linejoin="round" stroke-miterlimit="10" d="
		M607.3,313c2.5-1.5,5-3.2,7.6-4.5c4-2,8.2-2.1,12.4-0.2"/>
	
		<path fill="none" stroke="#000000" stroke-width="0.7087" stroke-linecap="round" stroke-linejoin="round" stroke-miterlimit="10" d="
		M633.4,269.8c-0.3,3.3,3.2,5,6.2,3c2-1.3,3.9-2.8,5.4-4.8c1.1-0.4,1.7,0.6,2.6,1c1.7,0.9,3.4,1,5-0.2c3.9-2.7,7.8-1.5,11.5,0.5
		c1.1,0.6,2.7,0.8,3.2,2.3"/>
	
		<path fill="none" stroke="#000000" stroke-width="0.7087" stroke-linecap="round" stroke-linejoin="round" stroke-miterlimit="10" d="
		M564.7,406.8c2.7-1.1,5.3-0.6,7.9,0.3c3.3,1.2,6.2,0.5,9-1.5c2.9-2.1,4.1-5.4,2.9-8.2"/>
	
		<path fill="none" stroke="#000000" stroke-width="0.7087" stroke-linecap="round" stroke-linejoin="round" stroke-miterlimit="10" d="
		M680.1,332.9c-0.3,1.2-0.7,2.4-1,3.6c-3.3-0.3-6.7-0.7-10-1c-1.6-0.1-3.2,0.2-4.1,1.7c-1.1,1.8,0.5,3,1.5,4.2
		c0.5,0.6,1.4,0.9,1.8,1.7"/>
	
		<path fill="none" stroke="#000000" stroke-width="0.7087" stroke-linecap="round" stroke-linejoin="round" stroke-miterlimit="10" d="
		M719.1,391.9c0.2,0,0.4-0.1,0.6,0c1.7,1.2,3.7,1.6,5.3,0.5c1.6-1.1,1-4.9-0.6-7c-1.6-2-2.7-4.1-3.1-6.6"/>
	
		<path fill="none" stroke="#000000" stroke-width="0.7087" stroke-linecap="round" stroke-linejoin="round" stroke-miterlimit="10" d="
		M558.7,398.3c3.3-2.5,2.9-6.9,4.7-10.1c1.5-2.6,2.8-5.3,6-6.4c1.4-0.5,2.4-0.4,3.2,0.9"/>
	
		<path fill="none" stroke="#000000" stroke-width="0.7087" stroke-linecap="round" stroke-linejoin="round" stroke-miterlimit="10" d="
		M714.5,407.6c2.7,4.8,6.1,9.2,7.3,14.6c0.1,0.6,0.5,1.2,1.3,1.3"/>
	
		<path fill="none" stroke="#000000" stroke-width="0.7087" stroke-linecap="round" stroke-linejoin="round" stroke-miterlimit="10" d="
		M713.4,401.4c0.9,1.1,1.7,2.2,2.7,3.2c0.8,0.8,1.6,1.6,3.1,1.3c3.5-0.6,4.2-1.8,2.5-4.7c-0.7-1.3-1.7-2.2-3.2-2.9
		c1.7-3.2,0.8-6.2-1.1-9"/>
	
		<path fill="none" stroke="#000000" stroke-width="0.7087" stroke-linecap="round" stroke-linejoin="round" stroke-miterlimit="10" d="
		M688.8,310.2c-0.2-1-0.3-2-0.5-3c-0.3-1.4-0.2-2.7,1.3-3c1.5-0.3,3.1,0,3.9,1.6c0.3,0.5,0.5,1.1,0.7,1.7c0.6,1.5,1.3,2.6,3.1,1.3
		c1.2-0.9,2,0,2.3,1c0.9,2.6,2.9,3.5,5.4,3.8c3.2,0.5,3.7,1.3,3.8,4.7"/>
	
		<path fill="none" stroke="#000000" stroke-width="0.7087" stroke-linecap="round" stroke-linejoin="round" stroke-miterlimit="10" d="
		M564.8,488.6c1-1,2.3-1.1,3.5-1.1c4.7,0.1,7.7-2.9,10.8-5.8c0.4-0.4,0.6-1,0.1-1.5"/>
	
		<path fill="none" stroke="#000000" stroke-width="0.7087" stroke-linecap="round" stroke-linejoin="round" stroke-miterlimit="10" d="
		M571.8,318.9c0.3-3-0.3-6.1,1.8-8.9c1,0.4,2.1-0.4,3.2-1c4.2-2.3,8.4-4.5,12.6-6.8"/>
	
		<path fill="none" stroke="#000000" stroke-width="0.7087" stroke-linecap="round" stroke-linejoin="round" stroke-miterlimit="10" d="
		M669.4,421c-1-2.4-0.3-4.9-0.7-7.3c-0.7-3.7-0.8-7.5-1.1-11.3"/>
	
		<path fill="none" stroke="#000000" stroke-width="0.7087" stroke-linecap="round" stroke-linejoin="round" stroke-miterlimit="10" d="
		M555.9,479.6c2,1.1,4.2,1.7,6.3,2.6c4,1.7,8.1,1,12.2-0.4c3.4-1.2,6.3-2.7,8.4-5.7"/>
	
		<path fill="none" stroke="#000000" stroke-width="0.7087" stroke-linecap="round" stroke-linejoin="round" stroke-miterlimit="10" d="
		M509.4,482.8c-1.1-2-2.3-4.1-3.4-6.1c0.1,0,0.2-0.1,0.2-0.1c1-1.2,2.5-2.2,3.7-2.2c2-0.1,1.6,2.3,2.4,3.6c0.5,0.8,0.9,1.7,1.4,2.5"
		/>
	
		<path fill="none" stroke="#000000" stroke-width="0.7087" stroke-linecap="round" stroke-linejoin="round" stroke-miterlimit="10" d="
		M694.2,336.3c1.8,0.9,3.2,0.5,4.9-0.8c3.1-2.4,6.1-5.1,10.4-5.4"/>
	
		<path fill="none" stroke="#000000" stroke-width="0.7087" stroke-linecap="round" stroke-linejoin="round" stroke-miterlimit="10" d="
		M552.4,473c0.7-2.6,2.3-4,4.7-5.5c3.2-2,6.4-3.9,9.6-5.8c1.7-1,4.1-0.7,5.5-2.5"/>
	
		<path fill="none" stroke="#000000" stroke-width="0.7087" stroke-linecap="round" stroke-linejoin="round" stroke-miterlimit="10" d="
		M667.8,358.8c-1.9,0-2.7,1.9-3,3c-2.1,6.7-3,13.6-2.2,20.6c5,1.9,9.4,0.9,14-1c4.7-2,7.8-5.7,11.2-9.1c0.3-0.3,0.4-0.7,0.9-0.5"/>
	
		<path fill="none" stroke="#000000" stroke-width="0.7087" stroke-linecap="round" stroke-linejoin="round" stroke-miterlimit="10" d="
		M558.4,473.5c0.1-3,2.9-4,4.5-5.7c1.7-1.9,3.8-3.4,5.8-5.1c0.5-0.4,0.6-1,0.6-1.5"/>
	
		<path fill="none" stroke="#000000" stroke-width="0.7087" stroke-linecap="round" stroke-linejoin="round" stroke-miterlimit="10" d="
		M712.8,444.3c-1.9-5-4-10-6.7-14.7"/>
	
		<path fill="none" stroke="#000000" stroke-width="0.7087" stroke-linecap="round" stroke-linejoin="round" stroke-miterlimit="10" d="
		M564.6,395.9c1.4-0.7,2.2-1.9,3-3.2c1.7-2.7,3.8-4.8,6.7-6.1c0.9-0.4,1.8-0.8,2.4-1.6"/>
	
		<path fill="none" stroke="#000000" stroke-width="0.7087" stroke-linecap="round" stroke-linejoin="round" stroke-miterlimit="10" d="
		M669,393.8c3.2-3.8,6.3-7.5,9.4-11.3c0.4-0.5,1.5-0.5,1.2-1.5"/>
	
		<path fill="none" stroke="#000000" stroke-width="0.7087" stroke-linecap="round" stroke-linejoin="round" stroke-miterlimit="10" d="
		M729.8,345.7c3.8,1.7,7.7,1.6,11.7,1.2c2.1-0.3,4-0.1,4.4,2.6"/>
	
		<path fill="none" stroke="#000000" stroke-width="0.7087" stroke-linecap="round" stroke-linejoin="round" stroke-miterlimit="10" d="
		M727.3,338c4.8-3.7,9.6-0.6,14.3,0.1c5.3,0.8,10,3.7,15.5,3.9c3.3,0.2,6.4,2.4,9.5,4c2.1,1.1,4,2.9,6.5,3.2"/>
	
		<path fill="none" stroke="#000000" stroke-width="0.7087" stroke-linecap="round" stroke-linejoin="round" stroke-miterlimit="10" d="
		M756.2,342.3c0.4,0.8,1.2,1.1,2,1.6c4.8,2.7,10.2,4.4,14.5,7.9c3.2,2.6,6.7,4.5,10.2,6.4"/>
	
		<path fill="none" stroke="#000000" stroke-width="0.7087" stroke-linecap="round" stroke-linejoin="round" stroke-miterlimit="10" d="
		M689.7,371.2c3.1,1.3,5.4,0.2,6.9-3.6c0.3-0.6,0.5-1.4,0.4-2c-0.6-3.4,1.1-5.7,3-8.4c2.8-4.3,5-9,5.9-14.3c0.3-1.8,1.2-4,3.4-5"/>
	
		<path fill="none" stroke="#000000" stroke-width="0.7087" stroke-linecap="round" stroke-linejoin="round" stroke-miterlimit="10" d="
		M511.1,461.3c1-1.5,0.7-3.5,2.1-5.2c1.5,0.7,2.3,1.7,2.5,3.5c0.1,1.2,0.2,2.5-0.1,3.5c-0.7,2.5,0.9,3.5,2.1,5
		c1.7-2.4,2.4-5.2,5-6.5c1.4,1,2,2.1,1.6,3.9c-0.5,2.6,0.4,5.2-0.1,7.8"/>
	
		<path fill="none" stroke="#000000" stroke-width="0.7087" stroke-linecap="round" stroke-linejoin="round" stroke-miterlimit="10" d="
		M675.4,349.5c0.5,1.2,1,2.4,1.5,3.6c0.8,1.8,2,2.4,3.7,1.8c3.3-1.2,6.7-7.2,6.1-10.9"/>
	
		<path fill="none" stroke="#000000" stroke-width="0.7087" stroke-linecap="round" stroke-linejoin="round" stroke-miterlimit="10" d="
		M715.6,321.4c0.8,1.7,0.8,1.7,2.8,1.8c3,0.1,5.6,0.9,7.4,3.6c1.2,1.7,2.8,1.4,4.4,0.5c0.3-1.6-0.6-2.9-0.9-4.3"/>
	
		<path fill="none" stroke="#000000" stroke-width="0.7087" stroke-linecap="round" stroke-linejoin="round" stroke-miterlimit="10" d="
		M649.2,448.1c3.8-0.7,7.3-2.2,11-3.2c1.3-0.4,2.6-0.6,4.1-0.3c3.1,0.6,6-0.5,8.7-1.8"/>
	
		<path fill="none" stroke="#000000" stroke-width="0.7087" stroke-linecap="round" stroke-linejoin="round" stroke-miterlimit="10" d="
		M573.5,329.9c-1,2.3,0.4,4.3,1.3,6.1c1.1,2.3,2.9,4.3,4.4,6.5"/>
	
		<path fill="none" stroke="#000000" stroke-width="0.7087" stroke-linecap="round" stroke-linejoin="round" stroke-miterlimit="10" d="
		M505.3,519c-2.4,3.6-2.3,5.4,0.3,7.6c1.3,1,2.4,0.8,3.2-0.1c1.5-1.5,2.8-3.1,4.2-4.7"/>
	
		<path fill="none" stroke="#000000" stroke-width="0.7087" stroke-linecap="round" stroke-linejoin="round" stroke-miterlimit="10" d="
		M548.5,500.4c4.6-2.3,8.6-5,8.4-11c-0.1-3-1.4-5.5-2.5-8.1c-0.2-0.4-0.7-0.7-1.1-0.9c-2.2-0.6-2.6-2.4-3-4.3"/>
	
		<path fill="none" stroke="#000000" stroke-width="0.7087" stroke-linecap="round" stroke-linejoin="round" stroke-miterlimit="10" d="
		M630.9,462.2c5.4-3.6,10.2-8.2,14.9-12.6c1-0.9,1.8-1.4,3-1.3"/>
	
		<path fill="none" stroke="#000000" stroke-width="0.7087" stroke-linecap="round" stroke-linejoin="round" stroke-miterlimit="10" d="
		M719.9,440c0.8-3.9,3.6-7.1,4.5-10.9c1-4,3.7-5.6,7.4-6.6c2.3-0.6,4.7-0.8,6.8-2.2c0.6-0.4,0.9-0.9,1.3-1.4"/>
	
		<path fill="none" stroke="#000000" stroke-width="0.7087" stroke-linecap="round" stroke-linejoin="round" stroke-miterlimit="10" d="
		M729.4,334.4c6.2-0.3,11.9,1.9,17.7,3.5c2.7,0.7,5.4,1.4,7.4,3.6"/>
	
		<path fill="none" stroke="#000000" stroke-width="0.7087" stroke-linecap="round" stroke-linejoin="round" stroke-miterlimit="10" d="
		M766,337c1.8,2.7,3.9,5.2,5.3,8c1.9,3.8,4.1,6.8,8.1,8.6c1.8,0.8,3.1,2.5,5.1,3.1"/>
	
		<path fill="none" stroke="#000000" stroke-width="0.7087" stroke-linecap="round" stroke-linejoin="round" stroke-miterlimit="10" d="
		M693.2,438.6c-0.1,4.7,0.2,9.4,2.6,13.4c1.8,3,2.6,6.2,3.4,9.4"/>
	
		<path fill="none" stroke="#000000" stroke-width="0.7087" stroke-linecap="round" stroke-linejoin="round" stroke-miterlimit="10" d="
		M498.5,468.7c-1.7-0.6-3.5-1.3-5.2-1.8c-1.1-0.4-2.2-0.7-2.8,0.9c-0.5,1.6-1.9,3.3,0,4.7c1.1,0.8,2.4,1.7,4,1.4"/>
	
		<path fill="none" stroke="#000000" stroke-width="0.7087" stroke-linecap="round" stroke-linejoin="round" stroke-miterlimit="10" d="
		M501.4,471.2c-3.4-2.8-4.8-6.8-7-10.3c3.1-2.4,3.5-2.6,5.5-0.1c2.4,2.8,5.7,4.6,8.1,7.4"/>
	
		<path fill="none" stroke="#000000" stroke-width="0.7087" stroke-linecap="round" stroke-linejoin="round" stroke-miterlimit="10" d="
		M562.6,494.9c2.4-0.7,5-0.4,7.4-1.1c5.4-1.7,10.2-4.5,14.4-8.4"/>
	
		<path fill="none" stroke="#000000" stroke-width="0.7087" stroke-linecap="round" stroke-linejoin="round" stroke-miterlimit="10" d="
		M508.9,505.7c-0.7,0.5-1.4,1-2.1,1.5c-1.2,0.8-1.7,2-1.1,3.3c0.6,1.5,1.8,1.3,3.2,0.9c1.3-0.3,2.3-1.2,3.5-1.7"/>
	
		<path fill="none" stroke="#000000" stroke-width="0.7087" stroke-linecap="round" stroke-linejoin="round" stroke-miterlimit="10" d="
		M570,397c2.9-1.8,6.1-2.8,8.8-5.1c1.3-1.1,2.3-2.1,2.7-3.7"/>
	
		<path fill="none" stroke="#000000" stroke-width="0.7087" stroke-linecap="round" stroke-linejoin="round" stroke-miterlimit="10" d="
		M675.6,419.3c4.1,0.9,7.3-1,10.4-3.2c0.6-0.4,1-1.1,1.4-1.7"/>
	
		<path fill="none" stroke="#000000" stroke-width="0.7087" stroke-linecap="round" stroke-linejoin="round" stroke-miterlimit="10" d="
		M496.6,487.6c-1.9,1-4.3-0.2-6.1,1.4c0.2,5.5,1.9,6.9,6.6,5.4"/>
	
		<path fill="none" stroke="#000000" stroke-width="0.7087" stroke-linecap="round" stroke-linejoin="round" stroke-miterlimit="10" d="
		M572.6,324.4c-0.6,4,1.5,7.3,6,9.7c1.9,1,4.2,1.1,5.7,2.7c0.3,0.3,0.4,0.7,0.6,1.1"/>
	
		<path fill="none" stroke="#000000" stroke-width="0.7087" stroke-linecap="round" stroke-linejoin="round" stroke-miterlimit="10" d="
		M528.2,535.9c0,2.2-0.8,4.3-0.2,6.7c0.9,3.6,0.6,3.7,4.4,4.4c2-1.5,0.5-3.9,1.6-5.7"/>
	
		<path fill="none" stroke="#000000" stroke-width="0.7087" stroke-linecap="round" stroke-linejoin="round" stroke-miterlimit="10" d="
		M571.9,399.5c3.6-0.3,6.6-1.8,9.3-4.1c0.7-0.6,1.4-0.7,2.1-1.1"/>
	
		<path fill="none" stroke="#000000" stroke-width="0.7087" stroke-linecap="round" stroke-linejoin="round" stroke-miterlimit="10" d="
		M493.8,495.2c-0.3,0.2-0.5,0.5-0.8,0.7c-1.1,0.7-2.9,0.6-2.3,2.8c0.6,1.9,0.9,4.1,3.4,4.3c2.6,0.2,5.3,1.1,7.8-0.4"/>
	
		<path fill="none" stroke="#000000" stroke-width="0.7087" stroke-linecap="round" stroke-linejoin="round" stroke-miterlimit="10" d="
		M633.6,282.5c2.1-3.4,7.6-5,11.9-2.2"/>
	
		<path fill="none" stroke="#000000" stroke-width="0.7087" stroke-linecap="round" stroke-linejoin="round" stroke-miterlimit="10" d="
		M588,408c0.4-2.2-1.1-4.6,0.3-6.8c5.9,3.1,9.3,3.8,13.1-0.1"/>
	
		<path fill="none" stroke="#000000" stroke-width="0.7087" stroke-linecap="round" stroke-linejoin="round" stroke-miterlimit="10" d="
		M547.8,527.3c2.3,1.6,4.2,0.2,6.1-0.8c1.2-0.6,0.9-2.8-0.4-3.3c-1.8-0.6-3.6-1-5.5-0.8"/>
	
		<path fill="none" stroke="#000000" stroke-width="0.7087" stroke-linecap="round" stroke-linejoin="round" stroke-miterlimit="10" d="
		M647.9,444.7c-0.5-7.2-0.5-14.3,0.5-21.4"/>
	
		<path fill="none" stroke="#000000" stroke-width="0.7087" stroke-linecap="round" stroke-linejoin="round" stroke-miterlimit="10" d="
		M630.4,334c2-0.2,2.3,1.6,3.3,2.6c2.4,2.4,4.7,4.9,7.1,7.3c0.2,0.2,0.3,0.4,0.4,0.7"/>
	
		<path fill="none" stroke="#000000" stroke-width="0.7087" stroke-linecap="round" stroke-linejoin="round" stroke-miterlimit="10" d="
		M533.4,537.8c-0.1,3.4,2.5,5.5,4,8.1c0.6,1,1.8,1.2,3,0.7c1.9-0.7,0.9-2.2,1.1-3.3"/>
	
		<path fill="none" stroke="#000000" stroke-width="0.7087" stroke-linecap="round" stroke-linejoin="round" stroke-miterlimit="10" d="
		M725.6,343c0.7,4,2.1,7.6,6.2,9.3c2,0.8,0.4,2.3,1.1,3.5c0.5,0.4,1.2,0.3,2,0.5c1.5,0.2,2.1,1,2.2,2.7c0.1,1.8,0.3,3.9,2.5,4.7
		c-0.4,0.7-0.7,1.3-0.9,1.8"/>
	
		<path fill="none" stroke="#000000" stroke-width="0.7087" stroke-linecap="round" stroke-linejoin="round" stroke-miterlimit="10" d="
		M593.8,373.8c-1.5,1.2-3,2.4-4.5,3.7c-1.8,1.6-3.7,3-3.3,6c0.1,1-0.7,2-1.2,3.1"/>
	
		<path fill="none" stroke="#000000" stroke-width="0.7087" stroke-linecap="round" stroke-linejoin="round" stroke-miterlimit="10" d="
		M559.4,456.2c-0.8,2.9-3.4,4.8-4.4,7.7c-0.5,1.6-1.3,3-0.9,4.7"/>
	
		<path fill="none" stroke="#000000" stroke-width="0.7087" stroke-linecap="round" stroke-linejoin="round" stroke-miterlimit="10" d="
		M641.6,310.4c-1.3,1-0.2,1.9,0.3,2.5c0.7,0.7,1.7,0.9,2.8,0.3c1.5-0.9,3.1-1.5,4.6-2.4c1-0.5,2-0.6,3-0.5"/>
	
		<path fill="none" stroke="#000000" stroke-width="0.7087" stroke-linecap="round" stroke-linejoin="round" stroke-miterlimit="10" d="
		M653.8,291.4c0.2,1.8,1.9,2.5,2.8,3.8c1.3,1.9,2.8,3.7,3.6,6"/>
	
		<path fill="none" stroke="#000000" stroke-width="0.7087" stroke-linecap="round" stroke-linejoin="round" stroke-miterlimit="10" d="
		M514,493c0-1.3-1.1-2.2-1.2-3.5c-0.1-1.2,0.4-1.7,1.1-2c0.8-0.4,1.6-0.1,2,0.9c0.4,1,1.1,2,1.6,3"/>
	
		<path fill="none" stroke="#000000" stroke-width="0.7087" stroke-linecap="round" stroke-linejoin="round" stroke-miterlimit="10" d="
		M570.5,369.4c0,5,1.6,8.3,5,9.8c-0.2-6.4,2.7-10.7,8.8-12.8"/>
	
		<path fill="none" stroke="#000000" stroke-width="0.7087" stroke-linecap="round" stroke-linejoin="round" stroke-miterlimit="10" d="
		M573.7,401.5c3.7,0.5,7.1,0.3,9.8-2.8c0.7-0.9,1.6-1.7,1-3c-1-2.1-1.4-4.5-3.2-6.2"/>
	
		<path fill="none" stroke="#000000" stroke-width="0.7087" stroke-linecap="round" stroke-linejoin="round" stroke-miterlimit="10" d="
		M538.3,538c1.8,1.7,2.4,4.2,4.4,5.9c1.5,1.3,2.3,1.2,3.6,0.3c0.8-0.6,1.7-1.3,2.8-2.1c-1.1-1.3-1.7-2.8-3.6-3.1
		c-2.6-0.5-4-2.3-5-4.6"/>
	
		<path fill="none" stroke="#000000" stroke-width="0.7087" stroke-linecap="round" stroke-linejoin="round" stroke-miterlimit="10" d="
		M684.2,295.7c3.2-2.1,6.7-3.5,10.4-4.3"/>
	
		<path fill="none" stroke="#000000" stroke-width="0.7087" stroke-linecap="round" stroke-linejoin="round" stroke-miterlimit="10" d="
		M548.3,475.2c-2.3-1.4-3.3-3.5-2.1-5.9c1.6-3.1,0.6-5.8-0.4-8.8c-1.2-3.6-2-7.3-1.3-11.2"/>
	
		<path fill="none" stroke="#000000" stroke-width="0.7087" stroke-linecap="round" stroke-linejoin="round" stroke-miterlimit="10" d="
		M703.9,470.4c3.1-1.5,6.2-3.2,9.5-4.3c3.9-1.3,7.1-3.6,10.4-5.9"/>
	
		<path fill="none" stroke="#000000" stroke-width="0.7087" stroke-linecap="round" stroke-linejoin="round" stroke-miterlimit="10" d="
		M601.8,326.5c1.8-2.9,3.2-6,5.6-8.5c2.7-2.7,6.3-4.1,9.5-5.8c1.4-0.7,2.7-1.5,4.2-2.1"/>
	
		<path fill="none" stroke="#000000" stroke-width="0.7087" stroke-linecap="round" stroke-linejoin="round" stroke-miterlimit="10" d="
		M517,473.5c4.2-0.2,6.6,2.6,5.4,6.5c-0.2,0.5-0.2,1.1-0.3,1.6"/>
	
		<path fill="none" stroke="#000000" stroke-width="0.7087" stroke-linecap="round" stroke-linejoin="round" stroke-miterlimit="10" d="
		M687.4,345.4c0.9,0.6,1.9,1.6,2.7,0c1.8-3.8,3.5-7.6,3.7-11.9c0-0.2-0.2-0.5-0.4-0.7"/>
	
		<path fill="none" stroke="#000000" stroke-width="0.7087" stroke-linecap="round" stroke-linejoin="round" stroke-miterlimit="10" d="
		M507.9,490.2c-0.8-0.2-1.6-0.4-2.3-0.5c-1.3-0.2-2.5-0.4-3.1,1.4c-0.5,1.7,0.5,2.3,1.7,3c0.7,0.4,1.3,0.7,2.1,0.6"/>
	
		<path fill="none" stroke="#000000" stroke-width="0.7087" stroke-linecap="round" stroke-linejoin="round" stroke-miterlimit="10" d="
		M541.4,528.6c1.4,2.3,3.5,3.5,6.1,4c1.7,0.3,3.4,0.7,5,1.1c1.8-1.7,0.7-2.8-0.6-3.8c-0.6-0.5-1.6-0.7-1.8-1.7"/>
	
		<path fill="none" stroke="#000000" stroke-width="0.7087" stroke-linecap="round" stroke-linejoin="round" stroke-miterlimit="10" d="
		M713.4,417.8c1.7-4.8,0.8-6.6-3.6-9.4c2.3-3.1,4.3-6.3,2.9-10.4"/>
	
		<path fill="none" stroke="#000000" stroke-width="0.7087" stroke-linecap="round" stroke-linejoin="round" stroke-miterlimit="10" d="
		M735.3,344.8c3.4-0.9,6.3-2.8,8.6-5.4"/>
	
		<path fill="none" stroke="#000000" stroke-width="0.7087" stroke-linecap="round" stroke-linejoin="round" stroke-miterlimit="10" d="
		M691.4,317.6c0.7,2.1,2.2,2,3.8,1.4c0.8-0.3,1.7-0.6,2.6-0.6c0.5,0.6,0.4,1.4,0.6,2.2c1,0.3,2,0.1,2.6-0.6c2.1-2.6,4.7-2.6,7.3-1.3
		c1.7,0.9,3.6,1.7,4.7,3.5"/>
	
		<path fill="none" stroke="#000000" stroke-width="0.7087" stroke-linecap="round" stroke-linejoin="round" stroke-miterlimit="10" d="
		M689.4,370.8c2.2-2.6,4.3-5.4,7.1-7.5"/>
	
		<path fill="none" stroke="#000000" stroke-width="0.7087" stroke-linecap="round" stroke-linejoin="round" stroke-miterlimit="10" d="
		M666.1,306.8c-0.1-0.3,0-0.6-0.2-0.8c-2.8-3.9-2.8-3.9,0.1-7.2c1.8-0.3,2.5,1.2,3.6,2.2c1.8,1.6,3.6,3.4,6.2,3.6"/>
	
		<path fill="none" stroke="#000000" stroke-width="0.7087" stroke-linecap="round" stroke-linejoin="round" stroke-miterlimit="10" d="
		M547.6,463.8c0.3-0.9,0.6-1.9,0.8-2.8c0.7-4.1,2.8-7.2,6.6-9"/>
	
		<path fill="none" stroke="#000000" stroke-width="0.7087" stroke-linecap="round" stroke-linejoin="round" stroke-miterlimit="10" d="
		M521.5,526c0.4,1.1-1,1.6-0.9,2.6c0.1,1.2-0.1,2.3,1.4,3.1c1.7,0.9,2.1-0.6,3-1.2c0.2-0.1,0.3-0.5,0.4-0.8"/>
	
		<path fill="none" stroke="#000000" stroke-width="0.7087" stroke-linecap="round" stroke-linejoin="round" stroke-miterlimit="10" d="
		M607.5,262.3c1.5,1.2,3.2,0.3,4.8,0.5c2.3,0.3,4.4,0.7,6.3,2.2"/>
	
		<path fill="none" stroke="#000000" stroke-width="0.7087" stroke-linecap="round" stroke-linejoin="round" stroke-miterlimit="10" d="
		M719,331.3c3.5,1.8,6.9,4,10.8,4.9"/>
	
		<path fill="none" stroke="#000000" stroke-width="0.7087" stroke-linecap="round" stroke-linejoin="round" stroke-miterlimit="10" d="
		M547.6,539.6c1.2-0.4,2.8-0.3,3-2c0.1-1.2-0.8-2.1-1.6-2.9c-0.6-0.6-1.5-1-1.7-2"/>
	
		<path fill="none" stroke="#000000" stroke-width="0.7087" stroke-linecap="round" stroke-linejoin="round" stroke-miterlimit="10" d="
		M750.6,338.2c-0.4-3.3-2.1-6.1-3.8-8.9"/>
	
		<path fill="none" stroke="#000000" stroke-width="0.7087" stroke-linecap="round" stroke-linejoin="round" stroke-miterlimit="10" d="
		M561.2,488c4.7,1.8,9.7,2.2,14.7,2.8"/>
	
		<path fill="none" stroke="#000000" stroke-width="0.7087" stroke-linecap="round" stroke-linejoin="round" stroke-miterlimit="10" d="
		M565.9,389.8c0.9-2.4,2.7-3.9,4.9-5.1c3.1-1.8,3-1.7,6.2,0.4c1.5,1,3.2,1.5,4.5,3.3c2.6-2.5,5.4-1.1,7.7,0.1c3.6,2,7,2.6,10.7,0.8"
		/>
	
		<path fill="none" stroke="#000000" stroke-width="0.7087" stroke-linecap="round" stroke-linejoin="round" stroke-miterlimit="10" d="
		M514,533.8c0.2,0.1,0.7,0.1,0.7,0.2c1.1,4.4,2.8,5.1,6.5,2.6"/>
	
		<path fill="none" stroke="#000000" stroke-width="0.7087" stroke-linecap="round" stroke-linejoin="round" stroke-miterlimit="10" d="
		M747.7,352.1c3.5-0.3,6.8-1.5,9.7-3.4c1.5-1,3.3-1.3,4.7-2.2"/>
	
		<path fill="none" stroke="#000000" stroke-width="0.7087" stroke-linecap="round" stroke-linejoin="round" stroke-miterlimit="10" d="
		M717.1,329.4c1.4-0.8,2.6-0.6,3.9,0.5c1.4,1.2,3.1,2.1,4.6,3.1"/>
	
		<path fill="none" stroke="#000000" stroke-width="0.7087" stroke-linecap="round" stroke-linejoin="round" stroke-miterlimit="10" d="
		M696.9,354.4c-0.2-0.7-0.4-1.4-0.6-1.9c1.3-1.4,2.8-2.2,3.7-3.9c1.2-2.2,2.9-4.1,5.4-5.2"/>
	
		<path fill="none" stroke="#000000" stroke-width="0.7087" stroke-linecap="round" stroke-linejoin="round" stroke-miterlimit="10" d="
		M552.3,463.8c1.2-2.3,2.3-4.6,4.4-6.4c1.4-1.3,3.4-1.1,4.6-2.5"/>
	
		<path fill="none" stroke="#000000" stroke-width="0.7087" stroke-linecap="round" stroke-linejoin="round" stroke-miterlimit="10" d="
		M500.8,514.7c-0.3,0.7-0.7,1.3-0.9,2c-0.4,1.8,0.6,3,2.4,2.7c1.5-0.3,3.2-0.3,4.3-1.8"/>
	
		<path fill="none" stroke="#000000" stroke-width="0.7087" stroke-linecap="round" stroke-linejoin="round" stroke-miterlimit="10" d="
		M676.6,331.5c2.8,1.5,5.9,0.8,8.8,1.3c0.4,0.1,1-0.4,1.3-0.7c1.4-1.6,2.8-3.1,5.3-2.3c0.7,0.2,1.2-0.2,1.4-0.6
		c0.8-1,2.2-1.3,2.9-1.2c4.1,1.1,6-1.7,8.2-4.1"/>
	
		<path fill="none" stroke="#000000" stroke-width="0.7087" stroke-linecap="round" stroke-linejoin="round" stroke-miterlimit="10" d="
		M521.7,534.8c-0.6,4.4,1.6,6.9,5.9,6.8"/>
	
		<path fill="none" stroke="#000000" stroke-width="0.7087" stroke-linecap="round" stroke-linejoin="round" stroke-miterlimit="10" d="
		M529.4,516.8c0.9,0.7,1.5,0.6,2.2-0.3c0.7-0.9,0.1-1.4-0.3-2c-0.8-1.1-1.8-2.2-2.7-3.3"/>
	
		<path fill="none" stroke="#000000" stroke-width="0.7087" stroke-linecap="round" stroke-linejoin="round" stroke-miterlimit="10" d="
		M533.2,473.6c2.4-1.4,4.8-2.5,7.6-2.9c1.8-0.3,3.2,0.6,4.8,0.7"/>
	
		<path fill="none" stroke="#000000" stroke-width="0.7087" stroke-linecap="round" stroke-linejoin="round" stroke-miterlimit="10" d="
		M729,438.2c3.6,1,5.8,0,7.6-3.4"/>
	
		<path fill="none" stroke="#000000" stroke-width="0.7087" stroke-linecap="round" stroke-linejoin="round" stroke-miterlimit="10" d="
		M733.6,385.3c3.1-0.9,4.2-4,6.1-6.1"/>
	
		<path fill="none" stroke="#000000" stroke-width="0.7087" stroke-linecap="round" stroke-linejoin="round" stroke-miterlimit="10" d="
		M511.5,524.7c0.2,0.9,0.6,1.6,0.1,2.7c-1.3,2.3-0.7,4.2,1.8,6.4"/>
	
		<path fill="none" stroke="#000000" stroke-width="0.7087" stroke-linecap="round" stroke-linejoin="round" stroke-miterlimit="10" d="
		M682.5,367.5c-2.4,0.7-4.3,1.9-5.3,4.4c-0.2,0.7,0,1.1,0.3,1.6"/>
	
		<path fill="none" stroke="#000000" stroke-width="0.7087" stroke-linecap="round" stroke-linejoin="round" stroke-miterlimit="10" d="
		M705.7,363.7c2.6-0.8,4.7-2.5,7.1-3.7"/>
	
		<path fill="none" stroke="#000000" stroke-width="0.7087" stroke-linecap="round" stroke-linejoin="round" stroke-miterlimit="10" d="
		M713.7,465.5c-0.4-0.9-0.2-1.6,0.5-2.4c1.6-1.8,2.1-4,1.8-6.4"/>
	
		<path fill="none" stroke="#000000" stroke-width="0.7087" stroke-linecap="round" stroke-linejoin="round" stroke-miterlimit="10" d="
		M769.9,358.7c2.2-1.4,5-1.5,7.2-3.1"/>
	
		<path fill="none" stroke="#000000" stroke-width="0.7087" stroke-linecap="round" stroke-linejoin="round" stroke-miterlimit="10" d="
		M720.9,307.6c0.5-0.3,0.9-0.6,1.4-0.7c1.2-0.4,2.7-0.7,2.6-2.1c-0.1-1.5-1.9-1.1-2.9-1.6"/>
	
		<path fill="none" stroke="#000000" stroke-width="0.7087" stroke-linecap="round" stroke-linejoin="round" stroke-miterlimit="10" d="
		M535.4,464.3c1,2.3,3.2,3.4,4.9,5c0.3,0.3,0.5,0.5,0.7,0.8"/>
	
		<path fill="none" stroke="#000000" stroke-width="0.7087" stroke-linecap="round" stroke-linejoin="round" stroke-miterlimit="10" d="
		M600.2,265.2c1.9-1.1,3.8-2.4,6-2.5c0.5,0,0.6-0.2,0.9-0.5c2.1-2.1,4.9-2.4,7.6-2.8"/>
	
		<path fill="none" stroke="#000000" stroke-width="0.7087" stroke-linecap="round" stroke-linejoin="round" stroke-miterlimit="10" d="
		M732.2,404.5c2.7,0,4.9-1.3,7.2-2.6"/>
	
		<path fill="none" stroke="#000000" stroke-width="0.7087" stroke-linecap="round" stroke-linejoin="round" stroke-miterlimit="10" d="
		M608.7,271.4c2.4-1.2,5-1.5,7.7-1.6"/>
	
		<path fill="none" stroke="#000000" stroke-width="0.7087" stroke-linecap="round" stroke-linejoin="round" stroke-miterlimit="10" d="
		M684.7,397.9c-0.9-2.4-1.9-4.7-2.8-7.1"/>
	
		<path fill="none" stroke="#000000" stroke-width="0.7087" stroke-linecap="round" stroke-linejoin="round" stroke-miterlimit="10" d="
		M552.9,453.6c0.1,2.7-1.5,5.2-1,8c0.1,0.5,0.5,0.5,0.6,0.9"/>
	
		<path fill="none" stroke="#000000" stroke-width="0.7087" stroke-linecap="round" stroke-linejoin="round" stroke-miterlimit="10" d="
		M533.1,461.8c2.3,2.9,6,3,9,4.6c-1.1-11.6,2.2-13.9,2.5-17"/>
	
		<path fill="none" stroke="#000000" stroke-width="0.7087" stroke-linecap="round" stroke-linejoin="round" stroke-miterlimit="10" d="
		M699.4,379.5c2.5-0.2,4.6-1.8,7-2.4"/>
	
		<path fill="none" stroke="#000000" stroke-width="0.7087" stroke-linecap="round" stroke-linejoin="round" stroke-miterlimit="10" d="
		M723.1,396.3c2.4,1.2,3.6,3.6,5.6,5.2"/>
	
		<path fill="none" stroke="#000000" stroke-width="0.7087" stroke-linecap="round" stroke-linejoin="round" stroke-miterlimit="10" d="
		M529.5,528.7c0.3,0.6,0.5,1.3,0.8,1.9c0.8,1.8,1.9,3.2,4.4,1.9c0.7-1.3,0.4-2.7-0.5-4.1"/>
	
		<path fill="none" stroke="#000000" stroke-width="0.7087" stroke-linecap="round" stroke-linejoin="round" stroke-miterlimit="10" d="
		M507.1,498.7c0,3.2,0.4,3.7,3.2,4.1c0.7,0.1,1.5,0.2,2.2,0.2"/>
	
		<path fill="none" stroke="#000000" stroke-width="0.7087" stroke-linecap="round" stroke-linejoin="round" stroke-miterlimit="10" d="
		M540.5,501.6c2.3-1.2,2.5-3.5,3.1-5.6c0.3-1.2,0.1-2.3-1.1-2.9c-1.3-0.7-2.1,0.3-3,1c-0.3,0.3-0.5,0.6-0.3,1.1"/>
	
		<path fill="none" stroke="#000000" stroke-width="0.7087" stroke-linecap="round" stroke-linejoin="round" stroke-miterlimit="10" d="
		M539.7,514c1.1-0.1,2.2-0.1,3.2-0.6c1.1-0.6,1.5-1.2,1.3-2.5c-0.2-1.2-0.7-1.6-1.9-1.7c-1-0.1-2-0.4-2.9,0.2"/>
	
		<path fill="none" stroke="#000000" stroke-width="0.7087" stroke-linecap="round" stroke-linejoin="round" stroke-miterlimit="10" d="
		M663.9,444.1c1.9-1.4,4.2-2.2,5.7-4.1"/>
	
		<path fill="none" stroke="#000000" stroke-width="0.7087" stroke-linecap="round" stroke-linejoin="round" stroke-miterlimit="10" d="
		M523.7,478c1.3-0.1,2.2,1,2.9,1.7c1.1,1.2,2.1,2.8,0.7,4.7c-1.1,1.5-2,3.2-3.4,4.5"/>
	
		<path fill="none" stroke="#000000" stroke-width="0.7087" stroke-linecap="round" stroke-linejoin="round" stroke-miterlimit="10" d="
		M524.7,469.7c0.8-0.4,0.5-1.8,1.8-2.1c0.9,0.9,2.8,1.2,2.5,3.3"/>
	
		<path fill="none" stroke="#000000" stroke-width="0.7087" stroke-linecap="round" stroke-linejoin="round" stroke-miterlimit="10" d="
		M529.3,490.1c2.1-3,1.8-4.1-1.3-6.1"/>
	
		<path fill="none" stroke="#000000" stroke-width="0.7087" stroke-linecap="round" stroke-linejoin="round" stroke-miterlimit="10" d="
		M573.3,309.7c-0.9-3.3-0.6-4.2,2.6-5.9"/>
	
		<path fill="none" stroke="#000000" stroke-width="0.7087" stroke-linecap="round" stroke-linejoin="round" stroke-miterlimit="10" d="
		M549.2,514.9c-0.1-0.8,0.7-0.5,1-0.8c1-1,2.6-1.7,1.5-3.6c-0.9-1.6-2.3-1.7-3.9-1.1"/>
	
		<path fill="none" stroke="#000000" stroke-width="0.7087" stroke-linecap="round" stroke-linejoin="round" stroke-miterlimit="10" d="
		M738.9,352.3c2.5,0.5,4.3-1.1,6.4-1.9c0.6-0.2,0.8-0.3,1.2,0"/>
	
		<path fill="none" stroke="#000000" stroke-width="0.7087" stroke-linecap="round" stroke-linejoin="round" stroke-miterlimit="10" d="
		M491.8,483.7c-0.9-0.4-1.8-0.7-2.7-1.1c-0.7-1.9-0.6-3.6,0-5.5c2.7,0.3,5,1.3,7.2,2.9"/>
	
		<path fill="none" stroke="#000000" stroke-width="0.7087" stroke-linecap="round" stroke-linejoin="round" stroke-miterlimit="10" d="
		M584.8,402.4c1.5,2.2,1.6,5,3.6,6.9"/>
	
		<path fill="none" stroke="#000000" stroke-width="0.7087" stroke-linecap="round" stroke-linejoin="round" stroke-miterlimit="10" d="
		M669.9,295.1c0.4,2.2,2.4,3.4,3,5.4"/>
	
		<path fill="none" stroke="#000000" stroke-width="0.7087" stroke-linecap="round" stroke-linejoin="round" stroke-miterlimit="10" d="
		M643.6,278c2.3-2.5,5.3-3.7,8.3-4.9c0.7-0.3,1.6-0.3,2.3-0.7"/>
	
		<path fill="none" stroke="#000000" stroke-width="0.7087" stroke-linecap="round" stroke-linejoin="round" stroke-miterlimit="10" d="
		M655.7,331.4c0.6-2.6,1.9-5,3-7.3"/>
	
		<path fill="none" stroke="#000000" stroke-width="0.7087" stroke-linecap="round" stroke-linejoin="round" stroke-miterlimit="10" d="
		M499.7,503.7c0.1,0.6,0.2,1.2,0.3,1.9c1.8,0.2,3-0.9,4.3-1.5"/>
	
		<path fill="none" stroke="#000000" stroke-width="0.7087" stroke-linecap="round" stroke-linejoin="round" stroke-miterlimit="10" d="
		M605.5,321.5c2.2,0.1,4.3-0.7,6.3-1.5"/>
	
		<path fill="none" stroke="#000000" stroke-width="0.7087" stroke-linecap="round" stroke-linejoin="round" stroke-miterlimit="10" d="
		M568,375.5c0.7,1.9,0.5,4.1,2.2,5.6"/>
	
		<path fill="none" stroke="#000000" stroke-width="0.7087" stroke-linecap="round" stroke-linejoin="round" stroke-miterlimit="10" d="
		M543.2,499.5c0.3-0.1,0.6-0.1,0.8-0.2c3.6-1.5,4.4-0.8,4.2,3.3"/>
	
		<path fill="none" stroke="#000000" stroke-width="0.7087" stroke-linecap="round" stroke-linejoin="round" stroke-miterlimit="10" d="
		M532,484.4c0.6-3,1.2-6,0.9-9.1c-0.1-1.1,0-1.8-1.2-2c-1.2-0.2-1.5,0.7-1.8,1.6c-0.1,0.5-0.1,1.1-0.7,1.3"/>
	
		<path fill="none" stroke="#000000" stroke-width="0.7087" stroke-linecap="round" stroke-linejoin="round" stroke-miterlimit="10" d="
		M549.6,508.8c0.5-1.3,1.9-2.5,0.7-4c-1.1-1.5-2.6-2.2-4.3-0.9"/>
	
		<path fill="none" stroke="#000000" stroke-width="0.7087" stroke-linecap="round" stroke-linejoin="round" stroke-miterlimit="10" d="
		M532.1,496.2c2.5-0.9,3.5-0.3,4.5,2.8"/>
	
		<path fill="none" stroke="#000000" stroke-width="0.7087" stroke-linecap="round" stroke-linejoin="round" stroke-miterlimit="10" d="
		M575.2,390.5c1.8-0.9,3.6-1.8,5.3-2.7"/>
	
		<path fill="none" stroke="#000000" stroke-width="0.7087" stroke-linecap="round" stroke-linejoin="round" stroke-miterlimit="10" d="
		M668,357.5c-0.1,2.4,2,2.5,3.4,2.8c1.9,0.3,3.1-1.4,4-2.8c0.7-1,0.9-2.4,1.3-3.6"/>
	
		<path fill="none" stroke="#000000" stroke-width="0.7087" stroke-linecap="round" stroke-linejoin="round" stroke-miterlimit="10" d="
		M546.3,516.2c1.9-1.3,3.7-0.2,5.5,0.3c1.2,0.3,1.1,2.2-0.1,3.5c-0.5,0.6-1.2,1.1-1.8,1.6"/>
	
		<path fill="none" stroke="#000000" stroke-width="0.7087" stroke-linecap="round" stroke-linejoin="round" stroke-miterlimit="10" d="
		M540.9,523.5c1.7-0.1,1.9-1.5,2-2.7c0.2-1.1-0.7-1.8-1.6-2.4c-1-0.6-2.1-1.2-3.1-1.8"/>
	
		<path fill="none" stroke="#000000" stroke-width="0.7087" stroke-linecap="round" stroke-linejoin="round" stroke-miterlimit="10" d="
		M723.4,313.6c2.5-2.3,5.5-3.3,8.8-4"/>
	
		<path fill="none" stroke="#000000" stroke-width="0.7087" stroke-linecap="round" stroke-linejoin="round" stroke-miterlimit="10" d="
		M561.3,494.1c1.5,2.2,3.8,3.4,5.8,5.1"/>
	
		<path fill="none" stroke="#000000" stroke-width="0.7087" stroke-linecap="round" stroke-linejoin="round" stroke-miterlimit="10" d="
		M500.2,506.1c-0.3,0.8-1.1,0.8-1.7,1.2c-1.2,0.8-2.5,1.8-1.6,3.3c0.7,1.4,0.9,3.7,3.5,3.1"/>
	
		<path fill="none" stroke="#000000" stroke-width="0.7087" stroke-linecap="round" stroke-linejoin="round" stroke-miterlimit="10" d="
		M558.7,312.3c0.9,1.6,1.4,3.3,1.4,5.2"/>
	
		<path fill="none" stroke="#000000" stroke-width="0.7087" stroke-linecap="round" stroke-linejoin="round" stroke-miterlimit="10" d="
		M696.7,452.7c0.8-1.8,0.3-3.8,0.7-5.7"/>
	
		<path fill="none" stroke="#000000" stroke-width="0.7087" stroke-linecap="round" stroke-linejoin="round" stroke-miterlimit="10" d="
		M732.3,333.7c0.3-1.8,0.1-3.7-0.4-5.4"/>
	
		<path fill="none" stroke="#000000" stroke-width="0.7087" stroke-linecap="round" stroke-linejoin="round" stroke-miterlimit="10" d="
		M648,430.6c1.5-0.6,2.5-2.2,4.3-2.4"/>
	
		<path fill="none" stroke="#000000" stroke-width="0.7087" stroke-linecap="round" stroke-linejoin="round" stroke-miterlimit="10" d="
		M715.9,320.8c0.9-2,0.4-3.8-1-5.4"/>
	
		<path fill="none" stroke="#000000" stroke-width="0.7087" stroke-linecap="round" stroke-linejoin="round" stroke-miterlimit="10" d="
		M606,331.3c2,0.2,4,0.4,6,0.5"/>
	
		<path fill="none" stroke="#000000" stroke-width="0.7087" stroke-linecap="round" stroke-linejoin="round" stroke-miterlimit="10" d="
		M518.8,513.8c-1,1.3,0.5,1.7,1,2.1c1.2,1,2,1.8,2.6,3.4c0.5,1.5,2.1,2.7,3.1,4.1c1.2,1.6,2.1,1.3,3.7-0.6"/>
	
		<path fill="none" stroke="#000000" stroke-width="0.7087" stroke-linecap="round" stroke-linejoin="round" stroke-miterlimit="10" d="
		M554.5,400.3c0.9-0.4,1.7-0.9,2.6-1.2c1.4-0.4,2.8-1.4,3.6,1c0.3,1,1.5,0.1,2.3,0.5c0.3,2.6,3.1,5.2,0.3,7.9"/>
	
		<path fill="none" stroke="#000000" stroke-width="0.7087" stroke-linecap="round" stroke-linejoin="round" stroke-miterlimit="10" d="
		M529.5,479.9c-0.6-1.7-0.3-3.6-1.3-5.2c-0.5-0.8,0-2.1,0.6-3"/>
	
		<path fill="none" stroke="#000000" stroke-width="0.7087" stroke-linecap="round" stroke-linejoin="round" stroke-miterlimit="10" d="
		M633.1,298.5c1.1-1.2-0.7-2.7,0.5-3.9"/>
	
		<path fill="none" stroke="#000000" stroke-width="0.7087" stroke-linecap="round" stroke-linejoin="round" stroke-miterlimit="10" d="
		M699.2,462c0.5,1.2,1.6,1.9,2.5,2.8"/>
	
		<path fill="none" stroke="#000000" stroke-width="0.7087" stroke-linecap="round" stroke-linejoin="round" stroke-miterlimit="10" d="
		M693.3,376.1c0.6,0.9,0.3,2.3,1.4,3.1"/>
	
		<path fill="none" stroke="#000000" stroke-width="0.7087" stroke-linecap="round" stroke-linejoin="round" stroke-miterlimit="10" d="
		M505.1,479.9c1,0.5,1.7,1.5,3,1.6"/>
	
		<path fill="none" stroke="#000000" stroke-width="0.7087" stroke-linecap="round" stroke-linejoin="round" stroke-miterlimit="10" d="
		M554.6,402.7c0.7-0.7,2.2-1,1.3-2.5"/>
	
		<path fill="none" stroke="#000000" stroke-width="0.7087" stroke-linecap="round" stroke-linejoin="round" stroke-miterlimit="10" d="
		M706.3,337.8c0.5-1,1.5-1.5,2.5-2"/>
	
		<path fill="none" stroke="#000000" stroke-width="0.7087" stroke-linecap="round" stroke-linejoin="round" stroke-miterlimit="10" d="
		M501.2,514.2c0.3-1.2,1.6-1.5,2.2-2.4"/>
	
		<path fill="none" stroke="#000000" stroke-width="0.7087" stroke-linecap="round" stroke-linejoin="round" stroke-miterlimit="10" d="
		M494.4,485.2c1.3,1,2,2.6,3.7,3"/>
	
		<path fill="none" stroke="#000000" stroke-width="0.7087" stroke-linecap="round" stroke-linejoin="round" stroke-miterlimit="10" d="
		M666.2,290.7c0.8,1,1.9,1.2,3.1,1.2"/>
	
		<path fill="none" stroke="#000000" stroke-width="0.7087" stroke-linecap="round" stroke-linejoin="round" stroke-miterlimit="10" d="
		M540.7,517.9c0.5-1.2-0.7-1.8-0.9-2.7"/>
	
		<path fill="none" stroke="#000000" stroke-width="0.7087" stroke-linecap="round" stroke-linejoin="round" stroke-miterlimit="10" d="
		M492,477.1c0.1-1.1,0.2-2.1,0.3-3.2"/>
	
		<path fill="none" stroke="#000000" stroke-width="0.7087" stroke-linecap="round" stroke-linejoin="round" stroke-miterlimit="10" d="
		M696.4,460c0.8,0.5,1.6,1.1,2.4,1.6"/>
	
		<path fill="none" stroke="#000000" stroke-width="0.7087" stroke-linecap="round" stroke-linejoin="round" stroke-miterlimit="10" d="
		M702.2,345.2c-0.6-1.2,0.5-1.8,0.9-2.6"/>
	
		<path fill="none" stroke="#000000" stroke-width="0.7087" stroke-linecap="round" stroke-linejoin="round" stroke-miterlimit="10" d="
		M555.6,403.3c0.4-0.1,0.9-0.2,1.2-0.4c0.8-0.5,1.1-1.1-0.2-1.4"/>
	
		<path fill="none" stroke="#000000" stroke-width="0.7087" stroke-linecap="round" stroke-linejoin="round" stroke-miterlimit="10" d="
		M538.7,492c0.1,0.7-0.3,1.6,0.8,1.9"/>
	
		<path fill="none" stroke="#000000" stroke-width="0.7087" stroke-linecap="round" stroke-linejoin="round" stroke-miterlimit="10" d="
		M719.6,304.2c0.6-0.3,1.2-0.7,1.8-1"/>
	
		<path fill="none" stroke="#000000" stroke-width="0.7087" stroke-linecap="round" stroke-linejoin="round" stroke-miterlimit="10" d="
		M555,496.2c0.5,0.4,1,0.8,1.6,1.2"/>
	
		<path fill="none" stroke="#000000" stroke-width="0.7087" stroke-linecap="round" stroke-linejoin="round" stroke-miterlimit="10" d="
		M562.7,406.5c-1.6,1.4,0.7,2.1,0.6,3.2"/>
	
		<path fill="none" stroke="#000000" stroke-width="0.7087" stroke-linecap="round" stroke-linejoin="round" stroke-miterlimit="10" d="
		M556.6,497.4c4.7,2.3,11.5,2,12.4,2"/>
</g>
</svg>
