<?xml version="1.0" encoding="utf-8"?>
<!-- Generator: Adobe Illustrator 18.0.0, SVG Export Plug-In . SVG Version: 6.00 Build 0)  -->
<!DOCTYPE svg PUBLIC "-//W3C//DTD SVG 1.0//EN" "http://www.w3.org/TR/2001/REC-SVG-20010904/DTD/svg10.dtd">
<svg version="1.0" xmlns="http://www.w3.org/2000/svg" xmlns:xlink="http://www.w3.org/1999/xlink" x="0px" y="0px" width="1280px"
	 height="800px" viewBox="0 0 1280 800" enable-background="new 0 0 1280 800" xml:space="preserve">
<g id="Layer_111">
	
		<path fill="none" stroke="#000000" stroke-width="0.7087" stroke-linecap="round" stroke-linejoin="round" stroke-miterlimit="10" d="
		M619.3,378.5c0.3,3.1-0.7,2.8,0.7,5.6c3.1-1.3,5.2-4.1,7.8-6c8.4-6,17.2-11.4,27.4-14.1c7.1-1.9,16.9,2,18.8,10.7
		c0.1,0.6,0.6,1.2,0.9,1.7"/>
</g>
<g id="Layer_110">
	
		<path fill="none" stroke="#000000" stroke-width="0.7087" stroke-linecap="round" stroke-linejoin="round" stroke-miterlimit="10" d="
		M656,407.2c0.4-0.3,1.1-0.5,1.2-0.8c2.3-6,7.5-8.1,12.9-9.9c1.8-7.3,1.1-14.7,0.1-22c-0.7-5.3-6.7-8.8-12.6-7.8
		c-7.9,1.4-15.3,4.2-21.3,9.7c-1.6,1.4-3.2,2.9-4.9,4.1c-4.6,3.2-7.8,7.5-11.3,11.8c-3.8,4.8-7.3,9.8-10,15.2
		c-9.1,18-19.8,35.1-29.9,52.5c-5.3,9.1-11.3,18-15.9,27.4c-2.4,4.9-6,6.7-10.5,8.5c-0.8-3.2,0.1-5.6,1.8-8.5
		c9.7-16.2,20.4-31.8,29.5-48.4c2.9-5.3,6-10.6,9-15.8c6.8-11.7,14.2-23,20-35.2"/>
</g>
<g id="Layer_109">
	
		<path fill="none" stroke="#000000" stroke-width="0.7087" stroke-linecap="round" stroke-linejoin="round" stroke-miterlimit="10" d="
		M532.5,542c7.2-12.2,14.2-24.5,21.2-36.9c2.6-4.6,6.7-8.4,12.1-10c2.8-0.8,5.4-2.2,8.2-2.6c7.5-1.3,14.8-3.7,22.5-4.5
		c6.3-0.7,10.7,2.3,14.1,6.6c3.4,4.3,7,8.3,12,10.3c3.8,1.5,8.3,1.8,12.6,1.4"/>
</g>
<g id="Layer_108">
	
		<path fill="none" stroke="#000000" stroke-width="0.7087" stroke-linecap="round" stroke-linejoin="round" stroke-miterlimit="10" d="
		M512.2,430.4c1-1.8,2.6-2.1,4.4-2.1c7.2-0.1,13,3.1,18.2,7.7c0.7,0.6,0.9,1.7,1.2,2.6c2.8,8.9,5.6,17.7,7.3,27
		c0.8,4.4,2.6,8.7,3.6,13.1c1.1,5,1.4,10.1,2.3,15.2c0.2,1.1-0.3,2.3-0.7,3.4c-2.2,5.4-5.1,10.3-8.1,15.2
		c-5.1,8.4-9.6,17.1-14.3,25.6"/>
</g>
<g id="Layer_107">
	
		<path fill="none" stroke="#000000" stroke-width="0.7087" stroke-linecap="round" stroke-linejoin="round" stroke-miterlimit="10" d="
		M659.1,399.3c-3.2,1-6.3-0.4-9.5-0.6c-8.4-0.5-16.8-0.2-25,1.4c-8.1,1.5-12.1,5.9-13.7,13.8c-2,10,1.6,18.1,8.5,24.8
		c1.4,1.4,3.4,3.4,6.4,2.3c-1.1-3.8-3.6-6.6-5-10c-1.9-4.7-3.2-9.6-0.8-14.5c1.7-3.5,4.7-5.1,8.5-5.2c3.4-0.1,6.8,0,8.8,3.6
		c3.9,6.7,7.9,13.4,12.1,20.1c2.1,3.4,4.6,6.5,8.3,8.5c0.8,0.4,1.4,0.1,2.1,0.4"/>
</g>
<g id="Layer_106">
	
		<path fill="none" stroke="#000000" stroke-width="0.7087" stroke-linecap="round" stroke-linejoin="round" stroke-miterlimit="10" d="
		M608.6,258.6c-1.7,0.3-2.1,1.9-2.9,3c-5.6,7.1-10.2,14.9-13.4,23.4c-0.1,0.4,0.4,1-0.4,1.7c-4.1-0.4-4.4,3-5.3,5.9
		c-2.4,7.5-5.2,14.9-4.2,23c0.1,0.7,0.2,1.4,0.3,2.4c-2.3,0.2-2.9,1.9-2.8,3.9c0.2,6.6,0.9,13,4.6,18.8c0.6,0.9,1.2,1.7,0.3,2.9
		c-0.9,1.2,0.4,2.2,0.8,3.2c1.2,2.3,2.8,4.2,4.7,6"/>
</g>
<g id="Layer_105">
	
		<path fill="none" stroke="#000000" stroke-width="0.7087" stroke-linecap="round" stroke-linejoin="round" stroke-miterlimit="10" d="
		M569.8,495.4c7.4,10.3,17.5,16.2,29.9,18.5c2.4,0.4,3.5-0.2,3.4-2.9c5.3,1.1,10.3,3.4,15.6,3.9c3.6,0.4,7.4,1.4,10.8,0
		c2.5-1,4.5-1.1,6.9-0.2c6.7,2.6,13.6,1.7,20.5,1.1c8.4-0.7,15.9-5.2,24.2-6.4c3.3-3.7,8.1-2.9,12.2-4.1c1.8-0.5,3.7-0.8,4.6-3.2
		c-1.6-1.4-2.7-3.6-3.4-6.2c-0.3-1.2-1.5-2-2.6-2.8c-1.2-0.9-2.8-1.8-3.2-3.1c-1.5-5-6-7-9.6-9.8c-1.9-1.5-4.2-2.7-6.4-3.8
		c-2.7-1.3-5.5-2.3-6.5-5.8c-0.5-1.6-2.6-2.2-4.1-2.8c-8.1-3.6-16.2-7.1-25.1-7.8c-0.9-0.1-1.9-0.2-2.2-0.9
		c-1.6-4.2-5.5-3.8-8.8-4.3c-2.6-0.4-5.2,0-7.9-0.1c-4-0.1-7.9,0.8-12.1,0.4c-5.1-0.4-10.3,2.6-14.6,5.9
		c-8.9,6.9-15.9,15.5-21.7,25.2c-0.6,1-0.6,1.9-0.7,2.9"/>
</g>
<g id="Layer_104">
	
		<path fill="none" stroke="#000000" stroke-width="0.7087" stroke-linecap="round" stroke-linejoin="round" stroke-miterlimit="10" d="
		M693.9,499.7c-5.6-2.5-11.4-4.6-17.3-5.7c-9.3-1.8-18.5-4.5-28.1-5.1c-13.8-0.9-27.6-2.7-41.5-1.3c-1.2,0.1-2.3,0.2-3.2,0.9"/>
</g>
<g id="Layer_103">
	
		<path fill="none" stroke="#000000" stroke-width="0.7087" stroke-linecap="round" stroke-linejoin="round" stroke-miterlimit="10" d="
		M638.4,313.7c1.7,2.5,1.7,5.4,1.8,8.1c0.1,3.9-0.4,7.9-1,11.7c-0.5,3.9-2.7,7.9-4.2,11.8c-3.1,7.8-8.3,14.4-12.5,21.6
		c-0.9,1.7-2.5,2.7-3.9,4"/>
</g>
<g id="Layer_102">
	
		<path fill="none" stroke="#000000" stroke-width="0.7087" stroke-linecap="round" stroke-linejoin="round" stroke-miterlimit="10" d="
		M587.1,397.1c5.4,5.2,8.6,11.4,5.9,18.8c-1.7,4.7-4.8,9-8.5,12.6c-4.3,4.2-8.9,8.2-15,9.6c-0.8,0.2-1.4,1-2.1,1.5"/>
</g>
<g id="Layer_101">
	
		<path fill="none" stroke="#000000" stroke-width="0.7087" stroke-linecap="round" stroke-linejoin="round" stroke-miterlimit="10" d="
		M762.4,387.8c0.3-1,0.6-2,0.9-2.8c-2.8-5.5-8.2-5-12.9-5.3c-4.3-0.3-8.7-1.2-13.2,0.1c-2.2,0.6-4.9-0.9-7.4-1
		c-5.8-0.2-11.6-0.9-17.5,0.8c-2.6,0.7-5.9-0.6-9-0.4c-7.2,0.3-14.3,0.4-21.5,0.7c-1,0-2.1,0.3-3.1,0.5c-2.8,0.8-3.4,0.3-3.7-3
		c0.8-1.3,2.3-0.9,3.4-1c12.9-1,25.8-2.4,38.8-2.4c10.2,0,20.5,0.5,30.5,2.7c3.4,0.7,6.9,0.2,10.4,1.5c6.4,2.4,13.3,3.6,19.5,7
		c-0.8,3.2-3.7,4.1-6.1,5.4c-1.4,0.7-3,0.9-4.6,1.2c-1.5,0.3-2.8,0.6-2.8,2.7c0,1-1.2,1.6-2.3,2.1c-6.8,3.2-13.9,5.8-20.9,8.5
		c-5.9,2.3-12,3.2-18,4.9c-2.9,0.8-5.8,1.3-8.8,0.3c-1.9-0.6-5.1,1.7-5.7,3.6c-0.4,1.2-0.5,2.3-1.8,3.3c-3.5,2.8-3.3,4.6,0.1,7.5"/>
</g>
<g id="Layer_100">
	
		<path fill="none" stroke="#000000" stroke-width="0.7087" stroke-linecap="round" stroke-linejoin="round" stroke-miterlimit="10" d="
		M545,474.5c-9.3-0.5-18.4-1.9-26.6-6.8c-4.5-2.7-8.1-6.8-11-11.2c-0.8-1.3-2.9-3.3,0.1-5c0.2-0.1-0.2-1.5-0.6-2.2
		c-1.4-3.1-1.7-6.5-2.4-9.7c-0.3-1.5-1.1-3.5,1.1-4.8c0.8-0.5,0.2-2,0-3.1c-0.9-4.8-1.8-9.7,0.6-14.1c2.4-4.2,3-8.5,3-13.2
		c0-1.1,0-2.9,0.6-3.5c5-5.8,3.3-14,7.2-20.1c2-3.2,1.6-6.6,2.6-9.8c0.5-1.6,1-3,2-4.4"/>
</g>
<g id="Layer_99">
	
		<path fill="none" stroke="#000000" stroke-width="0.7087" stroke-linecap="round" stroke-linejoin="round" stroke-miterlimit="10" d="
		M617.5,460.5c-5.9,0.7-11.7,1.8-17.1,4.4c-1.2,0.6-2,1.1-2.6,2.4c-2.3,4.5-6.8,6.7-10.5,9.9c-2.7,2.3-5.6,4.5-8.3,6.9
		c-0.7,0.6-1.7,1.3-1.6,2.6"/>
</g>
<g id="Layer_98">
	
		<path fill="none" stroke="#000000" stroke-width="0.7087" stroke-linecap="round" stroke-linejoin="round" stroke-miterlimit="10" d="
		M728.1,358.1c-2.9-2.5-6.7-3-10.1-2.6c-3.8,0.5-8.3,0.6-11.1,3.5c-5.3,5.4-11.2,10-17.3,14.4c-0.7,0.5-0.5,1-0.8,1.5"/>
</g>
<g id="Layer_97">
	
		<path fill="none" stroke="#000000" stroke-width="0.7087" stroke-linecap="round" stroke-linejoin="round" stroke-miterlimit="10" d="
		M561.6,431.8c1.8,4.9,2.6,9.9,2.7,15.1c0.1,8.2-4.2,14.4-8.6,20.6c-1.3,1.9-2.4,4.1-4.6,5.3"/>
</g>
<g id="Layer_96">
	
		<path fill="none" stroke="#000000" stroke-width="0.7087" stroke-linecap="round" stroke-linejoin="round" stroke-miterlimit="10" d="
		M684.4,435.4c3.8,6.5,3.8,13.5,2.3,20.6c-0.6,2.6-2.1,5.1-4.1,7c-2.8,2.7-7.2,2.2-9.1-1.1c-0.5-0.8-0.2-2-1.4-2.4"/>
</g>
<g id="Layer_95">
	
		<path fill="none" stroke="#000000" stroke-width="0.7087" stroke-linecap="round" stroke-linejoin="round" stroke-miterlimit="10" d="
		M569.1,387.2c1.6-3,3.9-5.5,4.9-8.9c0.6-1.9,1-3.5,0.5-5.6c-1.4-5.6-4.5-9.3-10.2-10.7c-2-0.5-4.1-0.2-5.6,1
		c-5,3.9-8.7,8.6-9.4,15.2c-0.1,0.4,0,0.8,0.4,1"/>
</g>
<g id="Layer_94">
	
		<path fill="none" stroke="#000000" stroke-width="0.7087" stroke-linecap="round" stroke-linejoin="round" stroke-miterlimit="10" d="
		M596.2,285.7c0,3.5-2.1,6.3-3.3,9.4c-1.4,3.7,0.3,10.3,3.7,12.3c4.2,2.5,7.8,5.7,11,9.3c0.2,0.2,0.7,0.2,1,0.2"/>
</g>
<g id="Layer_93">
	
		<path fill="none" stroke="#000000" stroke-width="0.7087" stroke-linecap="round" stroke-linejoin="round" stroke-miterlimit="10" d="
		M638.4,313c-0.3-6.1-0.6-12.2-2.6-18c-0.4-1.2-0.3-2.5-0.5-3.8c-0.4-2.4-0.8-4.5-2.7-6.6c-2-2-2.6-5.3-4-8
		c-1.1-2.1-1.6-2.1-4.4-1.6c-1.1-2.7-2-5.6-3.6-8.1c-2.2-3.6-5.5-6.3-8.9-8.8c-0.8-0.6-1.7-1.3-2.4,0.1"/>
</g>
<g id="Layer_92">
	
		<path fill="none" stroke="#000000" stroke-width="0.7087" stroke-linecap="round" stroke-linejoin="round" stroke-miterlimit="10" d="
		M543.3,387.7c-4.6-10.2-12.7-17.3-20.6-25.6c-0.7,3.3-0.1,5.2,0.9,7.6c2,4.6,2.4,9.7,3.3,14.6c1.2,6.7,0.9,13.6,3.4,20.1"/>
</g>
<g id="Layer_91">
	
		<path fill="none" stroke="#000000" stroke-width="0.7087" stroke-linecap="round" stroke-linejoin="round" stroke-miterlimit="10" d="
		M726.9,397.4c-4.2,6.4-10,9.8-17.8,8.2c-3.4-0.7-6.6-2.5-9.9-3.8c-1.2-0.5-2.2-1.1-3.4-1.6"/>
</g>
<g id="Layer_90">
	
		<path fill="none" stroke="#000000" stroke-width="0.7087" stroke-linecap="round" stroke-linejoin="round" stroke-miterlimit="10" d="
		M611.5,308.8c0.7,10.8,1,21.6,1.3,32.5c0.1,2.7,0.4,5.3,0.3,8c0,0.9-0.6,1-0.9,1.5"/>
</g>
<g id="Layer_89">
	
		<path fill="none" stroke="#000000" stroke-width="0.7087" stroke-linecap="round" stroke-linejoin="round" stroke-miterlimit="10" d="
		M671,489.4c-8.1-2.1-16.5-3.3-24.8-4.5c-9.3-1.3-18.6-1.1-27.9-1.4c-14-0.5-27.6,2-41.3,3.5c-3.4,0.4-7.4,1.5-10.7,3.2
		c-1.1,0.6-2.1,0.7-3.3,0.8"/>
</g>
<g id="Layer_88">
	
		<path fill="none" stroke="#000000" stroke-width="0.7087" stroke-linecap="round" stroke-linejoin="round" stroke-miterlimit="10" d="
		M675.3,380.6c-1.8,1.3-0.4,3.1-0.7,4.6c-0.3,1.8,0.4,3.8,0,5.6c-0.8,3.9-0.5,6.5,4,8c3.7,1.3,5.2,5.3,6.4,9"/>
</g>
<g id="Layer_87">
	
		<path fill="none" stroke="#000000" stroke-width="0.7087" stroke-linecap="round" stroke-linejoin="round" stroke-miterlimit="10" d="
		M695,498.5c-7.4-3.8-15.4-6.4-23.6-8.7c4.2-4.2,6.7-4.3,11.6-0.8"/>
</g>
<g id="Layer_86">
	
		<path fill="none" stroke="#000000" stroke-width="0.7087" stroke-linecap="round" stroke-linejoin="round" stroke-miterlimit="10" d="
		M576,374.9c2.3-0.5,2.8-2.5,3.6-4.1c4.5-9,11.6-15,20.8-18.6c3.1-1.3,5.6-0.3,8.4,1.7c3.9,2.8,5.5,6.3,5.8,10.7
		c0.4,6,0.8,12,1.1,17.9c0.1,1.4-0.2,2.9-0.6,4.3c-0.2,0.6-1.2,3.1-1.8-0.7"/>
</g>
<g id="Layer_85">
	
		<path fill="none" stroke="#000000" stroke-width="0.7087" stroke-linecap="round" stroke-linejoin="round" stroke-miterlimit="10" d="
		M762,371.9c-0.2-1.7-1.1-2.8-2.6-3.5c-6-3.1-11.3-7.6-17.9-9.4c-0.6-0.2-1.2-0.7-1.6-1.3c-3.5-5.6-9.6-6.5-15.2-8.1
		c-3.2-0.9-6.5-1.2-9.8-0.7c-2.6,0.4-4.4-1.6-6.8-2c-6.2-1-12.1-0.3-18.1,0.9c-1.8,0.4-3.5,1.2-5.5,0c-1.1-0.7-2.6,0-3.8,0.5
		c-7.5,3.1-14.2,7.4-20.4,12.6c-0.6,0.5-0.8,1.6-1.3,2.4"/>
</g>
<g id="Layer_84">
	
		<path fill="none" stroke="#000000" stroke-width="0.7087" stroke-linecap="round" stroke-linejoin="round" stroke-miterlimit="10" d="
		M674.8,431.2c-6.5,2.5-11.4,7.1-14.5,13c-1.8,3.4-2.7,7.6-2.3,11.5c0.7,5.8,4.8,7.6,9.9,5.5c6.4-2.6,8.4-8.5,10-14.4
		c0.9-3.4,0.6-7,0.1-10.6c-0.6-4.2,0-5.5,3.8-7.1c4.8-2,9.2-4.5,13.3-7.5c3.2-2.3,6-5.2,7-9.1c0.6-2.3,1.4-4.7-0.9-6.9
		c-2.6-2.4-4.6-0.4-6.9,0.3"/>
</g>
<g id="Layer_83">
	
		<path fill="none" stroke="#000000" stroke-width="0.7087" stroke-linecap="round" stroke-linejoin="round" stroke-miterlimit="10" d="
		M678.1,381.1c2.1,2.7,5.4,3.7,7.9,5.8c2.5,2.1,5.1,4,7.1,6.6c3.2,4.1,3.2,5.1,0.7,9.4c-0.5,0.8-0.9,1.7-1.4,2.7
		c4.1,1.8,0.4,6,2.7,8.3c2.5,0.9,4.2-2.3,6.7-1.3"/>
</g>
<g id="Layer_82">
	
		<path fill="none" stroke="#000000" stroke-width="0.7087" stroke-linecap="round" stroke-linejoin="round" stroke-miterlimit="10" d="
		M666.7,393.2c-2.2-1.2-3.4-3.3-4.8-5.2c-4.3-5.9-6.6-6.8-13.9-5c-6.9,1.6-14,1.5-20.8,3.4c-0.3,0.1-0.7-0.1-1-0.2"/>
</g>
<g id="Layer_81">
	
		<path fill="none" stroke="#000000" stroke-width="0.7087" stroke-linecap="round" stroke-linejoin="round" stroke-miterlimit="10" d="
		M572.1,369.4c-2,0.6-3.4,2-4.2,3.8c-1.1,2.5-3.3,3.5-5.5,2.5c-5.1-2.2-8.5,0.3-12.1,3.2c-2.1,1.8-2.2,6.1-0.2,9.7"/>
</g>
<g id="Layer_80">
	
		<path fill="none" stroke="#000000" stroke-width="0.7087" stroke-linecap="round" stroke-linejoin="round" stroke-miterlimit="10" d="
		M593,356.7c5.3,6.3,11.3,11.7,18.6,15.7"/>
</g>
<g id="Layer_79">
	
		<path fill="none" stroke="#000000" stroke-width="0.7087" stroke-linecap="round" stroke-linejoin="round" stroke-miterlimit="10" d="
		M617.5,361c-1.7-2.1-1.7-4.8-3.2-7.1c-5.5-8.3-12.5-7.1-18.9-4c-8.4,4.1-13.6,11.2-18.3,19c-0.6,1.1-1,2.5-2.5,2.9"/>
</g>
<g id="Layer_78">
	
		<path fill="none" stroke="#000000" stroke-width="0.7087" stroke-linecap="round" stroke-linejoin="round" stroke-miterlimit="10" d="
		M631.2,316.6c0.3,5.4-1.7,9.5-5.1,13.9c-3.8,4.9-8.3,9.1-12.1,14"/>
</g>
<g id="Layer_77">
	
		<path fill="none" stroke="#000000" stroke-width="0.7087" stroke-linecap="round" stroke-linejoin="round" stroke-miterlimit="10" d="
		M534.7,418.3c-0.1,2.9,1.5,5.4,2.4,8c3.5,10.1,6.4,20.4,9.3,30.6c2.4,8.5,4,17.2,6.3,25.7c0.6,2.3-0.4,4.8,1,6.9"/>
</g>
<g id="Layer_76">
	
		<path fill="none" stroke="#000000" stroke-width="0.7087" stroke-linecap="round" stroke-linejoin="round" stroke-miterlimit="10" d="
		M577,403.7c0.3,2.9-0.9,4.7-3.8,4.9c-0.1,5.2,0.3,10-1.8,14.9c-3.1,6.9-9.4,9.4-16.4,5.7c-3.8-2-5.7-4.9-6-9.1
		c-0.1-1.4,0.3-2.6,1-3.7c1.3-2,2.4-4.1,3.6-6.1"/>
</g>
<g id="Layer_75">
	
		<path fill="none" stroke="#000000" stroke-width="0.7087" stroke-linecap="round" stroke-linejoin="round" stroke-miterlimit="10" d="
		M543,465.9c-1.7-1.3-3.5-2.5-5.2-3.9c-4.2-3.4-9.1-4.3-14.2-4.4c-1.9,0-3.4,1.2-4.8,2.2c-2.2,1.6-1,2.6,0.7,3.5"/>
</g>
<g id="Layer_74">
	
		<path fill="none" stroke="#000000" stroke-width="0.7087" stroke-linecap="round" stroke-linejoin="round" stroke-miterlimit="10" d="
		M631.8,334.1c-0.1,4.6,0.4,9.3-2.7,13.3c-0.9,1.2-1.8,2.4-3.1,3.2c-4.2,2.7-6.1,7-8.3,11.2c-0.6,1.1,0,1.8,0,2.7
		c0.1,4.7,0.5,9.3,1.6,13.9"/>
</g>
<g id="Layer_73">
	
		<path fill="none" stroke="#000000" stroke-width="0.7087" stroke-linecap="round" stroke-linejoin="round" stroke-miterlimit="10" d="
		M522.8,369.3c-1.4,3.3,0.3,6.5,0.6,9.7c1.1,9.6,2.2,19.2,3.1,28.8c0.6,5.9,3.5,11.5,5.2,17.4c0.9,3.4,3.5,6.3,2.7,10.2"/>
</g>
<g id="Layer_72">
	
		<path fill="none" stroke="#000000" stroke-width="0.7087" stroke-linecap="round" stroke-linejoin="round" stroke-miterlimit="10" d="
		M648.7,468.8c-4.2-4.1-9.5-3.6-14.6-3.1c-3.2,0.3-6.4,1.4-9.5,2.1"/>
</g>
<g id="Layer_71">
	
		<path fill="none" stroke="#000000" stroke-width="0.7087" stroke-linecap="round" stroke-linejoin="round" stroke-miterlimit="10" d="
		M609.5,306.9c-1.2,10.5,1,20.9,0.7,31.4c-0.1,3.6-0.1,7.3-0.2,10.9"/>
</g>
<g id="Layer_70">
	
		<path fill="none" stroke="#000000" stroke-width="0.7087" stroke-linecap="round" stroke-linejoin="round" stroke-miterlimit="10" d="
		M620.7,461.7c4.2,2.6,4.3,4.5,1.8,8.5c-2.7,4.2-6.5,6.8-10.4,9.5c-1.3,0.9-3.2,1.3-3.6,3.4"/>
</g>
<g id="Layer_69">
	
		<path fill="none" stroke="#000000" stroke-width="0.7087" stroke-linecap="round" stroke-linejoin="round" stroke-miterlimit="10" d="
		M692.3,405.5c-6.3,0.5-9.9,4.6-12.5,9.9c-2,4.1-4.1,8.2-4.8,12.8c-0.3,1.7,0.2,2.5,2,3.8c6.9,4.9,13.1,1.6,19.5-0.5
		c4.8-1.6,9-4.1,11.9-8.6c2.1-3.2,2.5-6,0.2-8.5"/>
</g>
<g id="Layer_68">
	
		<path fill="none" stroke="#000000" stroke-width="0.7087" stroke-linecap="round" stroke-linejoin="round" stroke-miterlimit="10" d="
		M555.3,433.2c0.3,1.2,0.8,2.5,0.9,3.7c0.2,2.4,0.2,4.7-1.6,6.9c-2.6,3.3-2.5,7.8-4.2,11.6c-0.7,1.6-0.4,3.8-2.4,4.8"/>
</g>
<g id="Layer_67">
	
		<path fill="none" stroke="#000000" stroke-width="0.7087" stroke-linecap="round" stroke-linejoin="round" stroke-miterlimit="10" d="
		M776.7,384.1c1-2.6-1.3-4-2.6-4.9c-3.9-2.8-8.3-4.9-12.7-6.9"/>
</g>
<g id="Layer_66">
	
		<path fill="none" stroke="#000000" stroke-width="0.7087" stroke-linecap="round" stroke-linejoin="round" stroke-miterlimit="10" d="
		M755.9,376.9c3.2-4,3.1-5-1.6-8c-4.4-2.9-7.5-2.6-11.3,1.2c-1.6,1.6-4.3,1.9-5,4.5"/>
</g>
<g id="Layer_65">
	
		<path fill="none" stroke="#000000" stroke-width="0.7087" stroke-linecap="round" stroke-linejoin="round" stroke-miterlimit="10" d="
		M660.4,400.4c-4.3-5.8-9.6-10.7-14.5-16"/>
</g>
<g id="Layer_64">
	
		<path fill="none" stroke="#000000" stroke-width="0.7087" stroke-linecap="round" stroke-linejoin="round" stroke-miterlimit="10" d="
		M579.2,372.8c0.6,0.2,1.4,0.9,1.9,0.7c8.4-3.3,14.2,4,11.6,12.4c-2.5,8.2-7.9,13.4-15.5,16.7c-1.1,0.5-2.6,0.1-3.9,0.1"/>
</g>
<g id="Layer_63">
	
		<path fill="none" stroke="#000000" stroke-width="0.7087" stroke-linecap="round" stroke-linejoin="round" stroke-miterlimit="10" d="
		M511.8,440.4c-0.2,6.4,4.2,10.3,8,14.4c0.8,0.9,1.4,1.9,2.3,2.6"/>
</g>
<g id="Layer_62">
	
		<path fill="none" stroke="#000000" stroke-width="0.7087" stroke-linecap="round" stroke-linejoin="round" stroke-miterlimit="10" d="
		M609.4,342.1c-0.4-0.1-1.1-0.1-1.3-0.4c-2.9-4.3-7.4-6.4-11.7-8.8c-7.7-4.3-9.7-11.1-7.2-18.4"/>
</g>
<g id="Layer_61">
	
		<path fill="none" stroke="#000000" stroke-width="0.7087" stroke-linecap="round" stroke-linejoin="round" stroke-miterlimit="10" d="
		M705.2,354.4c-1.9-1.2-4.1-0.9-6.1-0.8c-8.9,0.3-15.8,5.1-22.5,10.2c-1.9,1.4-3.7,3-5.9,4"/>
</g>
<g id="Layer_60">
	
		<path fill="none" stroke="#000000" stroke-width="0.7087" stroke-linecap="round" stroke-linejoin="round" stroke-miterlimit="10" d="
		M580,492.1c4.3,3.9,8.1,8.4,12.5,12.2c4,3.4,9.6,4.3,15,3.7"/>
</g>
<g id="Layer_59">
	
		<path fill="none" stroke="#000000" stroke-width="0.7087" stroke-linecap="round" stroke-linejoin="round" stroke-miterlimit="10" d="
		M712.4,380.2c1,2.4,3.9,2.4,5.3,4.3c2.2,2.9,5,5.3,6.7,8.4c3.4,6.1,8.8,7.3,15,7.2"/>
</g>
<g id="Layer_58">
	
		<path fill="none" stroke="#000000" stroke-width="0.7087" stroke-linecap="round" stroke-linejoin="round" stroke-miterlimit="10" d="
		M729.2,360.3c-2.1,4-4.4,7.9-8.5,10.3c-1.3,0.7-1.7,1.9-2.4,2.9"/>
</g>
<g id="Layer_57">
	
		<path fill="none" stroke="#000000" stroke-width="0.7087" stroke-linecap="round" stroke-linejoin="round" stroke-miterlimit="10" d="
		M569.2,436.7c1.9-3.1,5-5.1,7.4-7.8c2.8-3.3,4.5-7,4.2-11.2c-0.3-4-2.9-5.9-7.1-5.8"/>
</g>
<g id="Layer_56">
	
		<path fill="none" stroke="#000000" stroke-width="0.7087" stroke-linecap="round" stroke-linejoin="round" stroke-miterlimit="10" d="
		M624.8,291.6c1,6.5-0.4,12.5-4.3,17.9c-2.3,3.1-4.2,6.6-7.3,9"/>
</g>
<g id="Layer_55">
	
		<path fill="none" stroke="#000000" stroke-width="0.7087" stroke-linecap="round" stroke-linejoin="round" stroke-miterlimit="10" d="
		M622.4,282.4c-1.4-1.8-3.5-1.4-5.3-1.6c-1,3-2.2,6.1-4.6,8.3c-2.4,2.3-1.2,5.1-1.7,7.6"/>
</g>
<g id="Layer_54">
	
		<path fill="none" stroke="#000000" stroke-width="0.7087" stroke-linecap="round" stroke-linejoin="round" stroke-miterlimit="10" d="
		M592.9,379.8c-2-0.3-3.4,0.7-4.8,1.8c-2.5,1.8-5.1,0.7-5.7-2.2c-0.4-1.8-0.1-3.7-1.1-5.4"/>
</g>
<g id="Layer_53">
	
		<path fill="none" stroke="#000000" stroke-width="0.7087" stroke-linecap="round" stroke-linejoin="round" stroke-miterlimit="10" d="
		M667.2,506.4c-6,0.3-10.6-2.4-14.5-6.6c-3-3.2-5.3-7-8.7-9.8"/>
</g>
<g id="Layer_52">
	
		<path fill="none" stroke="#000000" stroke-width="0.7087" stroke-linecap="round" stroke-linejoin="round" stroke-miterlimit="10" d="
		M653.8,501.9c-3.3,5.1-8.1,6.4-13.9,5.5"/>
</g>
<g id="Layer_51">
	
		<path fill="none" stroke="#000000" stroke-width="0.7087" stroke-linecap="round" stroke-linejoin="round" stroke-miterlimit="10" d="
		M600.5,352.5c2,4.1,5.8,6.5,9,9.4c1.2,1,2,1.9,2,3.1c0,7.1,1.4,14,1.8,21"/>
</g>
<g id="Layer_50">
	
		<path fill="none" stroke="#000000" stroke-width="0.7087" stroke-linecap="round" stroke-linejoin="round" stroke-miterlimit="10" d="
		M737.5,380.1c5.2,7.1,11.6,12,21,11.6"/>
</g>
<g id="Layer_49">
	
		<path fill="none" stroke="#000000" stroke-width="0.7087" stroke-linecap="round" stroke-linejoin="round" stroke-miterlimit="10" d="
		M546.3,396.5c-1,0.2-1.4-1.1-3.1-0.5c-4.7,1.7-8.4,4.2-11.8,7.7c-2.5,2.5-2,8.3,1,11.6c3.5,3.8,8,3.8,12.6,3.9
		c1.2,0,2.4-0.4,3.5-0.6"/>
</g>
<g id="Layer_48">
	
		<path fill="none" stroke="#000000" stroke-width="0.7087" stroke-linecap="round" stroke-linejoin="round" stroke-miterlimit="10" d="
		M682,410.4c-0.4-0.2-0.8-0.4-1.2-0.7c-3.3-2.8-4-2.8-6.8,0.3c-0.9,1-1.4,2.2-3.3,2.4c-0.9-0.3-0.6-1.8-1.2-2.8
		c-2.5-4.6-2.9-4.9-7.9-3.9c-1.1,0.2-2.2,0.8-3.4,0.4"/>
</g>
<g id="Layer_47">
	
		<path fill="none" stroke="#000000" stroke-width="0.7087" stroke-linecap="round" stroke-linejoin="round" stroke-miterlimit="10" d="
		M652.4,472.5c-0.8,4.4-3.9,7.2-7.1,9.9c-0.6,0.5-1.2,0.8-1.6,1.5"/>
</g>
<g id="Layer_46">
	
		<path fill="none" stroke="#000000" stroke-width="0.7087" stroke-linecap="round" stroke-linejoin="round" stroke-miterlimit="10" d="
		M664.3,476.8c-2.6-1.6-5.4-2-8.3-1.9c-1.3,0.1-2.8,0.7-4.1-0.4"/>
</g>
<g id="Layer_45">
	
		<path fill="none" stroke="#000000" stroke-width="0.7087" stroke-linecap="round" stroke-linejoin="round" stroke-miterlimit="10" d="
		M669.5,376.4c-6.4,0.7-12.8,0.9-19.3,0.9c-4.2-0.1-8.3,0.7-12.5,1.2c-1,0.1-1.8,0.1-2.7-0.1"/>
</g>
<g id="Layer_44">
	
		<path fill="none" stroke="#000000" stroke-width="0.7087" stroke-linecap="round" stroke-linejoin="round" stroke-miterlimit="10" d="
		M594.1,332.3c-3.3,2.5-4.3,5.9-2.7,9.8c0.3,0.7,0.5,1.3,0.8,2"/>
</g>
<g id="Layer_43">
	
		<path fill="none" stroke="#000000" stroke-width="0.7087" stroke-linecap="round" stroke-linejoin="round" stroke-miterlimit="10" d="
		M669.8,380.5c-3.1,0.7-6.2,0.3-9.3,0.4c-1.5,0-2.7,0.5-3.9,1.3"/>
</g>
<g id="Layer_42">
	
		<path fill="none" stroke="#000000" stroke-width="0.7087" stroke-linecap="round" stroke-linejoin="round" stroke-miterlimit="10" d="
		M526.2,408.1c-0.9-0.6-2-1-2.8-2c-1.2-1.5-2.8-2.5-4.6-2.7c-3.9-0.6-4.3-1.2-3.1-5.4"/>
</g>
<g id="Layer_41">
	
		<path fill="none" stroke="#000000" stroke-width="0.7087" stroke-linecap="round" stroke-linejoin="round" stroke-miterlimit="10" d="
		M592.7,505.1c-3.8,1.2-6.6-0.4-9.3-2.8"/>
</g>
<g id="Layer_40">
	
		<path fill="none" stroke="#000000" stroke-width="0.7087" stroke-linecap="round" stroke-linejoin="round" stroke-miterlimit="10" d="
		M653.9,368.4c-0.5,3.3-4.1,5-4.2,8.5"/>
</g>
<g id="Layer_39">
	
		<path fill="none" stroke="#000000" stroke-width="0.7087" stroke-linecap="round" stroke-linejoin="round" stroke-miterlimit="10" d="
		M534,381c-0.9-1.3-1.6-2.7-3.3-3.1c-0.7,1.9-0.6,4.3-2.8,5.4"/>
</g>
<g id="Layer_38">
	
		<path fill="none" stroke="#000000" stroke-width="0.7087" stroke-linecap="round" stroke-linejoin="round" stroke-miterlimit="10" d="
		M630.8,309.3c-0.9-3.8-4.3-3.3-7-4.1"/>
</g>
<g id="Layer_37">
	
		<path fill="none" stroke="#000000" stroke-width="0.7087" stroke-linecap="round" stroke-linejoin="round" stroke-miterlimit="10" d="
		M510.5,420c-0.3,3.4,2.2,5.6,3.8,8.1"/>
</g>
<g id="Layer_36">
	
		<path fill="none" stroke="#000000" stroke-width="0.7087" stroke-linecap="round" stroke-linejoin="round" stroke-miterlimit="10" d="
		M738.9,363.7c-3.1-1.3-6.2-2.8-9.7-1.4"/>
</g>
<g id="Layer_35">
	
		<path fill="none" stroke="#000000" stroke-width="0.7087" stroke-linecap="round" stroke-linejoin="round" stroke-miterlimit="10" d="
		M516.3,403.5c-1.7,2-3.4,4-3.9,6.7"/>
</g>
<g id="Layer_34">
	
		<path fill="none" stroke="#000000" stroke-width="0.7087" stroke-linecap="round" stroke-linejoin="round" stroke-miterlimit="10" d="
		M747.5,390.4c-1.3,2.3-1.8,4.9-3.4,7"/>
</g>
<g id="Layer_33">
	
		<path fill="none" stroke="#000000" stroke-width="0.7087" stroke-linecap="round" stroke-linejoin="round" stroke-miterlimit="10" d="
		M542.9,423.5c-1.5,2-1.7,4.7-3.8,6.4"/>
</g>
<g id="Layer_32">
	
		<path fill="none" stroke="#000000" stroke-width="0.7087" stroke-linecap="round" stroke-linejoin="round" stroke-miterlimit="10" d="
		M603.5,272c-0.8,2.3-2.4,4.5-1,7.1c-1.4,1.1-2.8,2.1-4.2,3.1"/>
</g>
<g id="Layer_31">
	
		<path fill="none" stroke="#000000" stroke-width="0.7087" stroke-linecap="round" stroke-linejoin="round" stroke-miterlimit="10" d="
		M673,494.5c1.9,3.7,3.7,7.5,8.5,8.2c1.4,0.2,2.6,0.4,3.8-0.5"/>
</g>
<g id="Layer_30">
	
		<path fill="none" stroke="#000000" stroke-width="0.7087" stroke-linecap="round" stroke-linejoin="round" stroke-miterlimit="10" d="
		M609.7,258.8c0.5,3.1,0,6.3-0.5,9.4c2.5,0.1,3.5-3.5,5.9-1.2"/>
</g>
<g id="Layer_29">
	
		<path fill="none" stroke="#000000" stroke-width="0.7087" stroke-linecap="round" stroke-linejoin="round" stroke-miterlimit="10" d="
		M675,486.6c0.4-3.4-1.5-4.9-4.4-5.8"/>
</g>
<g id="Layer_28">
	
		<path fill="none" stroke="#000000" stroke-width="0.7087" stroke-linecap="round" stroke-linejoin="round" stroke-miterlimit="10" d="
		M564.9,395c-1.7,1.7-3.3,3.4-4.5,5.6"/>
</g>
<g id="Layer_27">
	
		<path fill="none" stroke="#000000" stroke-width="0.7087" stroke-linecap="round" stroke-linejoin="round" stroke-miterlimit="10" d="
		M664,371.2c-1.4,2-4.1,2.8-4.5,5.6"/>
</g>
<g id="Layer_26">
	
		<path fill="none" stroke="#000000" stroke-width="0.7087" stroke-linecap="round" stroke-linejoin="round" stroke-miterlimit="10" d="
		M559.8,401c-1.3,2-2.6,4-3.9,5.9"/>
</g>
<g id="Layer_25">
	
		<path fill="none" stroke="#000000" stroke-width="0.7087" stroke-linecap="round" stroke-linejoin="round" stroke-miterlimit="10" d="
		M609.8,268.6c0.1,2.7,0.2,5.4,0.3,8"/>
</g>
<g id="Layer_24">
	
		<path fill="none" stroke="#000000" stroke-width="0.7087" stroke-linecap="round" stroke-linejoin="round" stroke-miterlimit="10" d="
		M537.6,387.5c1.3,2.5,1.6,5,0.3,7.6c-0.5,1-0.6,2.3-0.9,3.4"/>
</g>
<g id="Layer_23">
	
		<path fill="none" stroke="#000000" stroke-width="0.7087" stroke-linecap="round" stroke-linejoin="round" stroke-miterlimit="10" d="
		M616.4,272.6c1.4,2.4,0.4,5,0.7,7.5"/>
</g>
<g id="Layer_22">
	
		<path fill="none" stroke="#000000" stroke-width="0.7087" stroke-linecap="round" stroke-linejoin="round" stroke-miterlimit="10" d="
		M677.4,501.8c-0.9,2.9-3.9,2.6-5.9,4"/>
</g>
<g id="Layer_21">
	
		<path fill="none" stroke="#000000" stroke-width="0.7087" stroke-linecap="round" stroke-linejoin="round" stroke-miterlimit="10" d="
		M519.5,384.2c-1.7,1.5-2.5,3.2-2,5.5"/>
</g>
<g id="Layer_20">
	
		<path fill="none" stroke="#000000" stroke-width="0.7087" stroke-linecap="round" stroke-linejoin="round" stroke-miterlimit="10" d="
		M556.3,442c2.4,1.3,2,3.9,2.8,5.9"/>
</g>
<g id="Layer_19">
	
		<path fill="none" stroke="#000000" stroke-width="0.7087" stroke-linecap="round" stroke-linejoin="round" stroke-miterlimit="10" d="
		M609.3,279.3c0.1,2,0.1,3.9-1,5.7"/>
</g>
<g id="Layer_18">
	
		<path fill="none" stroke="#000000" stroke-width="0.7087" stroke-linecap="round" stroke-linejoin="round" stroke-miterlimit="10" d="
		M602.3,279.9c5,2.4,7.1,6.4,6.7,11.8"/>
</g>
<g id="Layer_17">
	
		<path fill="none" stroke="#000000" stroke-width="0.7087" stroke-linecap="round" stroke-linejoin="round" stroke-miterlimit="10" d="
		M580.7,500.3c-1.7-0.8-2.5-2.7-4.3-3.3"/>
</g>
<g id="Layer_16">
	
		<path fill="none" stroke="#000000" stroke-width="0.7087" stroke-linecap="round" stroke-linejoin="round" stroke-miterlimit="10" d="
		M593.4,305.6c-2.5-0.1-3.3,1.7-4,3.5"/>
</g>
<g id="Layer_15">
	
		<path fill="none" stroke="#000000" stroke-width="0.7087" stroke-linecap="round" stroke-linejoin="round" stroke-miterlimit="10" d="
		M610.9,356.3c-1.3,1.9,1.2,3.9-0.3,5.7"/>
</g>
<g id="Layer_14">
	
		<path fill="none" stroke="#000000" stroke-width="0.7087" stroke-linecap="round" stroke-linejoin="round" stroke-miterlimit="10" d="
		M592.6,344.7c0.5,1.9,3.2,1.9,3.5,4"/>
</g>
<g id="Layer_13">
	
		<path fill="none" stroke="#000000" stroke-width="0.7087" stroke-linecap="round" stroke-linejoin="round" stroke-miterlimit="10" d="
		M519,378.4c1.1,0.7,0.3,1.8,0.3,2.6c0,2.9,1.4,4.5,4.1,5.1"/>
</g>
<g id="Layer_12">
	
		<path fill="none" stroke="#000000" stroke-width="0.7087" stroke-linecap="round" stroke-linejoin="round" stroke-miterlimit="10" d="
		M623,505.7c-1.3,1.5-3.2,2.1-5,2.5"/>
</g>
<g id="Layer_11">
	
		<path fill="none" stroke="#000000" stroke-width="0.7087" stroke-linecap="round" stroke-linejoin="round" stroke-miterlimit="10" d="
		M530.3,377.3c-1-1.6-0.6-3.9-2.5-5"/>
</g>
<g id="Layer_10">
	
		<path fill="none" stroke="#000000" stroke-width="0.7087" stroke-linecap="round" stroke-linejoin="round" stroke-miterlimit="10" d="
		M548.8,387c-1.5-0.5-3-0.4-4.4,0.2c-2.6,1.1-3.4,4.3-1.5,6.5c0.5,0.6,0.6,1.2,0.9,1.8"/>
</g>
<g id="Layer_9">
	
		<path fill="none" stroke="#000000" stroke-width="0.7087" stroke-linecap="round" stroke-linejoin="round" stroke-miterlimit="10" d="
		M556.2,398.4c0.8,1.6,2.5,1.6,3.8,2.1c1.5,0.6,2.6,1.5,3.6,2.6"/>
</g>
<g id="Layer_8">
	
		<path fill="none" stroke="#000000" stroke-width="0.7087" stroke-linecap="round" stroke-linejoin="round" stroke-miterlimit="10" d="
		M633,329.4c-0.6-1.6-1.7-2.6-3.4-2.8"/>
</g>
<g id="Layer_7">
	
		<path fill="none" stroke="#000000" stroke-width="0.7087" stroke-linecap="round" stroke-linejoin="round" stroke-miterlimit="10" d="
		M767.3,386c-1.2-0.6-2.4-1-3.7-1"/>
</g>
<g id="Layer_6">
	
		<path fill="none" stroke="#000000" stroke-width="0.7087" stroke-linecap="round" stroke-linejoin="round" stroke-miterlimit="10" d="
		M598.7,460.4c0.1,1.4,0.2,2.7,0.3,4.1"/>
</g>
<g id="Layer_5">
	
		<path fill="none" stroke="#000000" stroke-width="0.7087" stroke-linecap="round" stroke-linejoin="round" stroke-miterlimit="10" d="
		M745.2,367c-0.7-1.1-1.6-2-2.7-2.8"/>
</g>
<g id="Layer_4">
	
		<path fill="none" stroke="#000000" stroke-width="0.7087" stroke-linecap="round" stroke-linejoin="round" stroke-miterlimit="10" d="
		M608,262.9c-0.6,0.9-0.9,1.8-0.5,2.8"/>
</g>
</svg>
