<?xml version="1.0" encoding="utf-8"?>
<!-- Generator: Adobe Illustrator 18.0.0, SVG Export Plug-In . SVG Version: 6.00 Build 0)  -->
<!DOCTYPE svg PUBLIC "-//W3C//DTD SVG 1.0//EN" "http://www.w3.org/TR/2001/REC-SVG-20010904/DTD/svg10.dtd">
<svg version="1.0" id="Layer_1" xmlns="http://www.w3.org/2000/svg" xmlns:xlink="http://www.w3.org/1999/xlink" x="0px" y="0px"
	 width="1280px" height="800px" viewBox="0 0 1280 800" enable-background="new 0 0 1280 800" xml:space="preserve">
<path fill="none" stroke="#1D1D1B" stroke-width="0.7087" stroke-miterlimit="10" d="M331.8,455.1h-0.4c-3.8,8.4-13.4,13-22,13
	c-18.8,0-28.4-10.6-28.4-26v-96c0-19,15.8-26,33.2-26c17.4,0,33.2,7,33.2,26v27h-28.2v-22.4c0-4-0.6-9.4-5-9.4s-5,5.4-5,9.4v86.8
	c0,4,0.6,9.4,5,9.4s5-5.4,5-9.4v-24.4h-7v-20.4h35.2v72.6h-13.6L331.8,455.1z"/>
<path fill="none" stroke="#1D1D1B" stroke-width="0.7087" stroke-miterlimit="10" d="M355,465.3V322.9h33.2c17.4,0,33.2,7,33.2,28.8
	v12.6c0,10.6-4.8,22.2-21.8,23.2v0.4c17.8,1,21.8,7.8,21.8,24v28.2c0,13.8,2.6,19.6,4.2,25.2H397c-2-4-3.8-8.6-3.8-18.4v-32.4
	c0-8.8,0-15.8-10-15.8v66.6H355z M383.2,382.3h3.4c4.6,0,6.6-2.2,6.6-9v-21c0-6.8-2-9-6.6-9h-3.4V382.3z"/>
<path fill="none" stroke="#1D1D1B" stroke-width="0.7087" stroke-miterlimit="10" d="M429,346.1c0-19,15.8-26,33.2-26
	c17.4,0,33.2,7,33.2,26v96c0,19-15.8,26-33.2,26c-17.4,0-33.2-7-33.2-26V346.1z M467.2,350.7c0-4-0.6-9.4-5-9.4s-5,5.4-5,9.4v86.8
	c0,4,0.6,9.4,5,9.4s5-5.4,5-9.4V350.7z"/>
<path fill="none" stroke="#1D1D1B" stroke-width="0.7087" stroke-miterlimit="10" d="M574.2,322.9l8,93.4h0.4l7.2-93.4H618
	l-19.8,142.4h-32.4l-9.6-99.4h-0.4L545,465.3h-31.6L499,322.9h28.2l5.8,93.4h0.4l10.2-93.4H574.2z"/>
<path fill="none" stroke="#1D1D1B" stroke-width="0.7087" stroke-miterlimit="10" d="M624,465.3V322.9h28.2v142.4H624z"/>
<path fill="none" stroke="#1D1D1B" stroke-width="0.7087" stroke-miterlimit="10" d="M663.2,465.3V322.9h39.2l14.4,92.4h0.4v-92.4
	h22v142.4h-33.6l-20-112l-0.4,0.4v111.6H663.2z"/>
<path fill="none" stroke="#1D1D1B" stroke-width="0.7087" stroke-miterlimit="10" d="M798.4,455.1H798c-3.8,8.4-13.4,13-22,13
	c-18.8,0-28.4-10.6-28.4-26v-96c0-19,15.8-26,33.2-26c17.4,0,33.2,7,33.2,26v27h-28.2v-22.4c0-4-0.6-9.4-5-9.4c-4.4,0-5,5.4-5,9.4
	v86.8c0,4,0.6,9.4,5,9.4c4.4,0,5-5.4,5-9.4v-24.4h-7v-20.4H814v72.6h-13.6L798.4,455.1z"/>
<path fill="none" stroke="#1D1D1B" stroke-width="0.7087" stroke-miterlimit="10" d="M925,442.1c0,19-15.8,26-33.2,26
	c-17.4,0-33.2-7-33.2-26V322.9h28.2v114.6c0,4,0.6,9.4,5,9.4c4.4,0,5-5.4,5-9.4V322.9H925V442.1z"/>
<path fill="none" stroke="#1D1D1B" stroke-width="0.7087" stroke-miterlimit="10" d="M932.6,465.3V322.9h33.2
	c17.4,0,33.2,7,33.2,28.8v29.2c0,21.8-15.8,28.8-33.2,28.8h-5v55.6H932.6z M960.8,389.3h3.4c4.6,0,6.6-2.2,6.6-9v-28
	c0-6.8-2-9-6.6-9h-3.4V389.3z"/>
</svg>
