<?xml version="1.0" encoding="utf-8"?>
<!-- Generator: Adobe Illustrator 18.0.0, SVG Export Plug-In . SVG Version: 6.00 Build 0)  -->
<!DOCTYPE svg PUBLIC "-//W3C//DTD SVG 1.0//EN" "http://www.w3.org/TR/2001/REC-SVG-20010904/DTD/svg10.dtd">
<svg version="1.0" id="Layer_1" xmlns="http://www.w3.org/2000/svg" xmlns:xlink="http://www.w3.org/1999/xlink" x="0px" y="0px"
	 width="1280px" height="800px" viewBox="0 0 1280 800" enable-background="new 0 0 1280 800" xml:space="preserve">
<g>
	<path fill="none" stroke="#000000" stroke-width="0.7087" stroke-miterlimit="10" d="M749.2,391.7c0.3-0.3,0.6-0.6,0.7-1.1
		c0.5-2.6,0.8-5.3,0.5-8c-0.4-3.7-2.7-5.9-5.8-7.6c-3.2-1.7-6.3-3.5-9.6-5c-5.4-2.5-10.9-4.3-16.9-4c-1.6,0.1-3.2,0.4-4.8,0.5
		c-0.6,0-1.2-0.1-1.7-0.5c-1.6-1.2-1.6-2.8,0.2-3.7c1.5-0.8,3.1-1.2,4.7-1.4c4.3-0.7,8.6-0.3,12.9,0.5c6.5,1.3,12.6,3.8,18.7,6.1
		c1.4,0.5,2.7,1.3,4.1,1.7c0.3-0.5,0.2-1,0.2-1.4c-0.6-3.2-1.2-6.5-1.8-9.7c-0.4-2.2-1.8-3.4-3.8-4c-3.2-0.9-6.5-1.2-9.8-1.5
		c-3.5-0.3-6.9-0.2-10.4,0.1c-4,0.4-7.9,1.4-11.8,2.4c-0.9,0.2-1.8,0.5-2.7,0.7c-1.1,0.2-2.1,0.2-2.8-0.7c-0.6-0.8-0.4-2.5,0.3-3.4
		c1.4-1.7,3.3-2.5,5.4-2.9c2.9-0.5,5.7,0.1,8.5,0.4c2.8,0.3,5.6,0.1,8.4,0c3.4-0.1,6.7,0.2,10,0.7c2.4,0.3,4.7,0.9,7,1.3
		c0.6,0.1,1.3,0.2,1.9-0.2c0.2-1.6-1-2.3-2.1-3.1c-1.1-0.8-2.3-1.4-3.5-2.1c-2-1.1-3.5-2.7-4.3-4.8c-0.5-1.4-1.7-2-3.1-2
		c-2,0-4.1,0.1-6.1,0.2c-4.2,0.2-8.4,0.8-12.4,2.1c-2.6,0.8-5,2.2-7.3,3.6c-1.4,0.8-2.8,1.4-4.4,1.5c-2.3,0.1-3.2-1.3-2.4-3.2
		c0.3-0.8,0.8-1.3,1.4-1.8c3.9-3.5,8.4-5.7,13.4-7c3.8-1,7.7-1.3,11.6-1c2,0.2,4,0.8,5.8,1.9c0.3,0.2,0.5,0.4,1,0.5
		c0.3-1.8,0.1-3.5-0.3-5.2c-0.7-2.8-2.7-4.5-5.2-5.6c-2.2-1-4.5-1.8-6.9-2c-1.8-0.1-3.6,0.2-5.1,1.1c-5.7,3.3-11.1,7.1-15.6,12.1
		c-1,1.1-2,2.2-3.5,2.5c-1.6,0.3-2.3-0.4-1.8-2c0.7-2.3,2.2-4.1,3.9-5.6c3.6-3,7.2-6.1,11.4-8.2c2.1-1,4.2-1.9,6.5-2.1"/>
	<path fill="none" stroke="#000000" stroke-width="0.7087" stroke-miterlimit="10" d="M624.9,343.7c0.1-1.4,0.6-2.8,0.7-4.2
		c0.2-3.4-0.7-6.3-3-8.7c-0.8-0.8-1.9-1.7-3.3-1.5c-0.2,0.8,0.2,1.5,0.4,2.3c0.6,2.3,0.8,4.6,0.2,6.9c-0.2,0.9,0.1,1.7,0.6,2.4
		c1.4,2,1.5,2.5-0.9,4.1c-1.2,0.8-2.3,1.3-3.5,0.6c-1.5-0.9-2.3-2.2-2.3-4c0-0.9,0.1-1.8,0.4-2.6c0.4-1.4,0.5-2.9,0.9-4.4
		c0.4-1.6-0.2-3-1.3-4.2c-0.6-0.7-1.8-0.8-2.7-0.2c-1.4,1-1.7,2.5-1.6,4c0.3,3.8,0.7,7.6,1.7,11.3c0.2,0.7,0.1,1.2-0.8,1.3
		c-1.4,0.2-3-0.4-3.9-1.7c-1.5-2.3-1.6-4.8-1.1-7.3c1.2-4.9,2.8-9.7,5.4-14.1c0.7-1.3,1.7-2.4,2.1-3.8c0.4-1.1,0.5-2.2-0.2-3.2
		c-0.6-0.8-1.5-0.9-2.1-0.1c-0.2,0.2-0.4,0.4-0.7,0.6c-1.8,0.8-2.9,2.3-3.7,4c-1.1,2.3-2,4.7-2.7,7.2c-1.5,5.2-2.1,10.5-1,15.9
		c0,0.1-0.1,0.3-0.1,0.5c-3.2,0-5.5-1.6-6.5-4.5c-0.1-0.2-0.2-0.5-0.3-0.7"/>
	<path fill="none" stroke="#000000" stroke-width="0.7087" stroke-miterlimit="10" d="M661.8,351.1c-1.3-0.6-2.7-0.4-4.1-0.5
		c-4.7-0.2-9.5-0.2-14.2,0c-4.5,0.2-8.9,0.9-13.3,1.7c-4.8,0.9-9.5,1.8-14.3,2.7c-6.6,1.2-13.2,2.5-19.7,3.8
		c-6.6,1.3-13.2,2.7-19.8,4.1c-0.9,0.2-1.7,0.9-2.6,0.4c-1.3-0.8-2.6-1.7-3.1-3.2c-0.4-1.1-1.2-1.5-2.3-1.6
		c-4.5-0.4-7.6-4.5-7.5-8.5c0.1-3,1.7-5.4,3.3-7.8c3.4-5.1,7.9-9,13.3-11.8"/>
	<path fill="none" stroke="#000000" stroke-width="0.7087" stroke-miterlimit="10" d="M671.1,297.3c-3.3-0.4-6.5-1.1-8.4-4.4
		c-1.4-2.5-3.6-4.3-6-5.6c-1.7-0.9-3.6-1.2-5.4-0.4c-2.4,1.1-4.7,1-7.2,0.3c-2.8-0.8-5.6-0.8-8.4-0.1c-1.8,0.4-2.2,1.8-1,3.3
		c1.4,1.7,3.3,2.5,5.4,3c1.8,0.4,3.6,0.2,5.2-0.8c1-0.6,2.2-0.9,3.5-0.9c1.2,0,2.2,0.3,3,1.3c1.5,1.9,3.6,2.9,6.1,2.9
		c0.7,1.1-0.3,1.8-0.8,2.5c-0.3,0.5-0.9,0.8-1.4,1.1c-2.7,1.6-3.1,5.4-2,7.8c0.4,0.9,0.9,1.8,1.4,2.6c0.3,0.4,0.3,0.9-0.1,1.1
		c-0.4,0.2-0.9,0.1-1.1-0.3c-1.3-2.1-3.5-3.1-5.2-4.7c-2-1.8-4.1-3.6-5.7-5.8c-0.9-1.3-2.2-2-3.8-1.9c-1.5,0-2.5-1-3.6-1.9
		c-1.5-1.2-3-1.5-4.5-0.5c-0.3,0.2-0.6,0.3-0.9,0.5c-1.5,0.9-2.3,0.7-3.5-0.6c-1-1.2-2.6-1.5-3.9-0.8c-0.6,0.3-1.3,1.9-1,2.7
		c0.9,2.7,2.5,4.6,5.1,5.8c2.5,1.1,5.2,1.7,7.8,2.4c3.4,0.9,5.9,2.7,7.8,5.5c0.6,0.9,1.3,1.8,2.1,2.6c1.1,1.1,2.6,1.5,4,1.6
		c0.9,0.1,1.2,0.5,0.8,1.2c-0.4,0.6-0.7,1.2-1.9,0.9c-2-0.4-3.8,1-4.1,3c-0.1,0.9-0.3,1.8-0.2,2.7c0,0.4-0.1,0.9-0.8,1
		c-1.5-1.9-2.2-4.3-3-6.5c-0.7-1.9-1.5-3.8-2.7-5.5c-1.3-1.8-3-2.9-5-3.6c-2.1-0.7-4.2-1.1-6.3-1.5c-0.9-0.2-1.3,0.2-1.2,1.2
		c0.2,1.7,1.3,2.9,2.4,4.1c1.8,2.1,3.9,4,6.1,5.7c2.9,2.3,4.2,5.6,4.7,9.2c0.4,2.6,0.2,5.2-0.4,7.7c-0.2,1-0.7,1.8-1.6,2.3
		c-1.6,0.9-3.2,1.8-4.6,2.8"/>
	<path fill="none" stroke="#000000" stroke-width="0.7087" stroke-miterlimit="10" d="M659.8,373.2c-1.3-2.6-2.5-5.2-3.1-8.1
		c-0.9-4.6,1.7-8.9,5.5-10.5c1.3-0.6,2.6-1,4-1.4c1.6-0.5,3.1-0.4,4.7-0.2c1.2,0.2,2.3,0.2,3.4-0.8c-1-0.9-1.9-1.9-2.9-2.8
		c-0.9-0.8-1.6-0.7-2.5,0.2c-0.5,0.5-0.9,1-1.4,1.5c-2,1.8-4.2,2.4-6.9,1.7c-2-0.5-4.1-0.4-6.2-0.5c-6.2-0.2-12.3,0.9-18.4,2.1
		c-7.1,1.5-14.2,2.5-21.3,3.3c-5.8,0.7-11.5,2.1-17.1,3.7c-5.6,1.6-11.1,3.1-16.7,4.6c-0.6,0.2-1.2,0.5-1.9,0.8
		c-1.3,0.6-1.5,1.8-1.5,3.1c0,0.3,0,0.7,0.1,1c0.6,2,0,3.8-0.7,5.7c-0.4,1-0.5,2.1,0,3.1c0.4,0.8,0.8,1.5,2,1.5c1,0,1.9,0.6,2.8,1.3
		c5.5,4.7,11.1,9.4,16.2,14.5c4.8,4.9,9.2,10.1,13.1,15.7c5.2,7.6,9.9,15.6,14.1,23.8c1.4,2.7,2.9,5.4,4.5,8
		c2.4,3.9,3.9,8.3,5.6,12.5c0.3,0.6,0.3,1.4,1.1,1.7"/>
	<path fill="none" stroke="#000000" stroke-width="0.7087" stroke-miterlimit="10" d="M697.5,424.6c-0.8-1-2.2-1.1-3.3-1.6
		c-1.4-0.5-2.7-1.2-4.2-1.5c-1.5-0.4-2.6-1.3-3.2-2.8c-1.1-3-1.9-6-2-9.1c0-1.6,0.4-3,0.8-4.5c0.8-3.6,1.5-7.1,2.5-10.6
		c0.7-2.6,1.6-5.2,2.9-7.7c0.7-1.5,1.4-3.1,1.4-4.8c0-0.5-0.3-0.8-0.3-1.2c-2.4-0.3-3.7,0.7-4.8,3.3c-1.7,4.3-2.2,8.9-3.2,13.4
		c-0.6,2.7-1.2,5.3-1.7,8c-0.5,2.4-1.1,4.8-1.2,7.2c-0.1,1,0.1,2.1,0.4,3.1c0.3,1.1,0.7,2.2,1.1,3.3"/>
	<path fill="none" stroke="#000000" stroke-width="0.7087" stroke-miterlimit="10" d="M682.1,418.1c-0.7-0.1-1.2-0.6-1.8-1
		c-1-0.6-2.2-0.9-3.2-1.3c-3-1.2-4-3.6-4.4-6.5c-0.3-2.6,0.2-5.1,0.6-7.7c0.4-2.7,1.1-5.3,2.2-7.9c1-2.2,1.9-4.4,3.1-6.5
		c1.4-2.7,2.7-5.4,3.5-8.4c0.3-0.9,0.3-1.9-0.6-2.5c-0.9-0.7-2-0.4-2.9,0.6c-1.8,2-3.3,4.2-4.2,6.8c-0.4,1-0.7,2-1,3.1
		c-0.5,1.9-1.4,3.7-2.2,5.5c-0.8,2-1.2,4.1-1.4,6.2c-0.4,3-0.4,6-0.1,9.1c0,0.2-0.1,0.4-0.2,0.6"/>
	<path fill="none" stroke="#000000" stroke-width="0.7087" stroke-miterlimit="10" d="M632.5,457.9c0.1-1.6-0.9-2.9-1.6-4.3
		c-2-3.9-4.5-7.5-7-11.1c-2-2.9-3.6-6-4.9-9.3c-1.4-3.5-3.6-6.6-5.6-9.7c-1.7-2.6-3.5-5.1-5.2-7.7c-2.3-3.4-5.1-6.5-8-9.4
		c-4.5-4.6-9-9.3-13.5-13.9c-2.4-2.5-5-4.8-8.2-6.4c-1.7-0.9-3.5-0.8-4.8,0.4c-1.1,1.1-2.5,1.7-3.9,2.3"/>
	<path fill="none" stroke="#000000" stroke-width="0.7087" stroke-miterlimit="10" d="M745.6,409.9c-1.5-4.3-3.9-8.1-7.9-10.3
		c-4-2.1-6.8-5.4-10-8.3c-1.3-1.3-2.7-2.6-4.2-3.6c-2.2-1.4-4.5-1.7-6.5,0c0.3,1.8,1.6,2.7,3.1,3.4c2.5,1.2,5.1,2.2,7.5,3.5
		c3.2,1.7,5.6,4.2,8.1,6.7c1.6,1.6,3.5,2.8,5.2,4.3c1,0.8,1.7,1.8,2.3,2.9c0.6,1.3,0.7,2.6,0,4c-1.4,2.8-3.7,4.9-5.9,7.3
		c-0.8-9.2-6.3-14.8-13.5-19.2c-0.8,1.2-0.6,2.4,0.6,3.1c0.6,0.4,1.2,0.8,1.5,1.4c0.7,2.3,2.3,3.9,3.9,5.5c2.1,2.2,3.6,4.8,4.9,7.6
		c0.3,0.7,0,1-0.7,1.2c-2.6,0.9-4.8,2.5-6.3,4.8c-0.4,0.6-0.8,1.2-1,2.2c-1.2-0.6-2.2-1-3.4-1.1c-2-0.3-3.8,0.1-5.7,0.7
		c-1.9,0.7-2.6,0.3-3.8-1.1c-1-1.1-1.7-2.6-2-4c-0.7-3.2-1.4-6.4-1.6-9.8c-0.1-2,0.2-3.8,0.4-5.8c0.1-1.1,0-2.2-0.4-3.2
		c-0.4-1.1-1.2-1.6-2.6-1.8c-1.3,2.2-1.5,4.7-1.7,7.2c-0.3,4.6,0.5,9,1.4,13.5c0.3,1.6,1,3,2.1,4.2c0.4,0.5,0.8,1.1,1.3,1.7
		c-0.8,0.6-1.5,0.3-2.2,0.3c-2.2-0.1-4.3-0.8-6.2-2c-1.9-1.2-2.3-3.3-2.4-5.4c-0.4-5.8,0.1-11.6,0.6-17.4c0.2-2.9,0.3-5.8,0.6-8.7
		c0.1-1.4,0.3-2.7,0.7-4c0.3-0.9-0.1-1.3-1.1-1c-0.6,0.2-1.1,0.6-1.3,1.1c-1.3,3.6-2.8,7.1-2.8,11.1c0,0.9-0.3,1.9-0.7,2.9
		c-0.7,1.8-0.8,3.7-0.7,5.5c0.1,2.9,0,5.8-0.8,8.6c-0.3,1,0.1,1.9,0.5,2.7c0.4,1,1,1.9,1.5,2.8"/>
	<path fill="none" stroke="#000000" stroke-width="0.7087" stroke-miterlimit="10" d="M669.4,408.5c-3.3-2.4-6.1-5.2-7.1-9.3
		c-0.8-3-0.4-5.9,0.7-8.6c1.4-3.3,3-6.4,4.7-9.5c1.5-2.6,3.6-4.7,5.7-6.8c1-1,2.1-1.8,3-3c0.6-0.9,1.1-1.8,0.6-2.8
		c-0.7-1.6-2.9-1.9-4.7-0.6c-0.8,0.6-1.4,1.3-1.9,2.1c-2.4,3.6-4.8,7.1-6.6,11.1c-0.5,1.2-0.6,2.4-0.5,3.6c0.2,2.5-0.6,4.7-1.5,6.9
		c-0.4,1-0.4,2.1-0.7,3.2"/>
	<path fill="none" stroke="#000000" stroke-width="0.7087" stroke-miterlimit="10" d="M628.1,546.2c-0.4,0-0.6-0.3-0.7-0.6
		c-2.4-4.2-2.8-8.6-0.9-13.1c1.1-2.7,2.7-5.2,3.4-8.2c0.1-0.7,0.2-0.7-0.2-1.4c-3.4,2.1-5.9,9.6-6.4,15.5c-1.5,0.2-2.9-1.4-2.6-3.1
		c0.7-3.8,1.5-7.6,3.3-11c1-1.9,2.4-3.5,3.8-5.2c1.6-1.9,2.9-4,3.4-6.5c0.1-0.6,0.1-1.3,0-1.9c-0.2-1.1-1.4-1.5-2.4-1.1
		c-1.8,0.8-2.7,2.4-3.5,3.9c-2.4,4.2-4.6,8.5-5.9,13.2c-0.4,1.5-0.5,3-0.1,4.6c-0.6,0.1-1,0.1-1.4-0.4c-1.4-1.5-3.1-2.5-5.1-3.2
		c-1.2-0.4-1.6-1.5-1.4-3.4c0.2-3.1,1.7-5.8,3-8.5c1.5-3.3,4-5.6,7-7.4c1.4-0.8,2.6-1.8,3.3-3.2c1-1.7,1.1-3.6-0.5-4.9
		c-1.3-1-3.4-1.5-5.1,0c-1.4,1.3-2.4,2.9-3.1,4.6c-1.2,2.7-2,5.6-2.9,8.4c-0.6,1.8-1.3,3.5-2.4,5.1c-0.2,0.3-0.4,0.5-0.7,0.7
		c-1.8-1.9-2.6-4.3-3.4-6.6c-0.6-1.6-1.1-3.2-1.5-4.9c-0.6-2.4,0.2-4.4,1.7-6c2.3-2.4,5.1-4.2,8.4-5.2c1.6-0.5,3.3-1,4.5-2.3
		c0.7-0.8,1.2-1.7,0.9-2.9c-0.7,0-1.3,0.4-1.9,0.8c-3,1.7-6.1,3.3-9.1,5.1c-1.9,1.1-3.9,2.3-5,4.3c-0.5,0.9-1,1.9-1.2,3
		c-0.9,0-1.4-0.7-1.8-1.2c-1.8-2.7-2.7-5.7-2.1-8.9c0.4-2,1.4-3.9,3.5-4.8"/>
	<path fill="none" stroke="#000000" stroke-width="0.7087" stroke-miterlimit="10" d="M670.3,267.2c-3-3.1-7.1-4.2-11-5.6
		c-0.2-0.1-0.4-0.1-0.6-0.2c-2.5-1.3-4.1-1-6.2,0.9c-1.3,1.1-2.1,2.6-3.1,3.9c-0.9,1.2-2,2.2-3.1,2.9c-1.4,0.9-2.9,1.8-4.5,2.4
		c-1.2,0.4-2,1.7-1.7,2.4c0.3,0.6,1.7,1,2.8,0.6c1.9-0.6,3.4-1.8,5.1-3c2.3-1.6,4.7-2.7,7.5-2.8c1.2-0.1,2.3-0.3,3-1.6
		c0.7-1.3,2.6-1.6,4.2-0.8c3.1,1.5,5.6,3.8,7.8,6.5c0.8,1,0.5,2.1,0.4,3.2c-0.1,1.1-0.3,2.2-0.4,3.4c-0.1,0.4-0.1,0.8-0.5,1
		c-0.4,0-0.5-0.3-0.6-0.5c-0.7-2-3.6-3.3-5.9-2.9c-2,0.4-4.1,0.3-6-0.9c-0.4-0.3-0.8-0.6-1.1-1c-1.2-2-2.7-2.6-5.1-2.3
		c-2.1,0.3-3.9,1.2-5.6,2.4c-2.1,1.4-4.3,2.5-6.4,3.9c-1.3,0.9-1.3,1.2-0.1,2.1c0.9,0.7,1.7,1.5,2.7,2.1c1.9,1.1,3.8,1,5.6,0.3
		c3-1.2,5.9-2.5,9.2-3c3.1-0.5,6.2-0.6,9.1,0.5c3.1,1.1,5.4,3.9,4.8,7.5c-0.2,1.1-0.8,2-1,3.1c-0.3,1.3-0.1,2.4,0.7,3.4
		c0.7,0.8,1.1,1.7,1.4,2.6"/>
	<path fill="none" stroke="#000000" stroke-width="0.7087" stroke-miterlimit="10" d="M594.9,335.8c0.9-0.9,1.4-2,1.7-3.1
		c0.5-1.8,1.1-3.5,1.5-5.3c0.6-2.7,2.3-4.6,4.5-6.2c2.3-1.7,4.6-3.5,6.4-5.7c1.2-1.5,2.2-3.1,2.8-5c0.2-0.5,0.1-1-0.2-1.4
		c-0.9-1.2-1-1.5-1-3c-0.8-0.2-1.5,0.2-2,0.7c-1,1-1.7,2.2-2.2,3.5c-1.2,3.3-2.8,6.3-5.5,8.7c-2,1.8-3.2,4.2-4.3,6.8
		c-1,2.4-1.5,5-2.3,7.5c-0.3,0.9-0.5,2,0.5,2.7"/>
	<path fill="none" stroke="#000000" stroke-width="0.7087" stroke-miterlimit="10" d="M637,468.3c1.2,0.7,1.1,1.8,1,2.9
		c-0.2,5.9-0.5,11.7-0.7,17.6c-0.2,5.6-0.6,11.2-0.8,16.8c-0.2,5.8-0.5,11.7-0.6,17.5c-0.1,4.2-0.5,8.3-0.7,12.5
		c0,0.7-0.2,1.3-0.5,1.9c-1.5-1-1.3-2.6-1.3-4c-0.1-6.8-0.2-13.6,0.3-20.5c0.3-4.2,0.6-8.4,1.1-12.6c0.6-4.8,0.8-9.6,0.8-14.5
		c-0.1-5.3-0.2-10.7-0.3-16c0-1,0.5-1.5,1.6-1.7"/>
	<path fill="none" stroke="#000000" stroke-width="0.7087" stroke-miterlimit="10" d="M575,286.2c-0.4-3.2-0.2-6.3,1.5-9.2
		c1.4-2.3,3.5-3.1,6-3.2c0.6,0,1-0.2,1.5-0.5c1.7-0.9,3.6-1,5.5-0.7c3.6,0.4,6.7,2.1,9.5,4.1c0.5,0.4,1.1,0.8,1.7,0.8
		c1.2,0,2.1-1.3,1.7-2.5c-0.9-2.9-2.8-4.9-5.7-5.8c-2.3-0.8-4.7-0.7-7.1-0.6c-2.2,0.1-4.4,0.2-6.5-0.4c-0.2-0.1-0.6,0-0.6-0.6
		c0.8-1.4,2.2-2.5,3.9-3.3c3.5-1.6,6.8-0.9,10.1,0.9c1.8,1,3.7,1.9,5.6,2.6c1.4,0.5,3,0.5,4.5,0.4c1.5,0,3-0.1,4.5,0.5
		c2.3,0.8,3,2.5,3.2,4.8c0.2,3.2,0.7,6.4,2.7,9.1c0.4,0.6,0.9,0.8,1.5,1c0.9,0.3,1.5,1,1.2,1.9c-1,3.2-0.8,6.4-1.1,9.6
		c-0.3,3-0.4,6.1-0.6,9.2c-0.4,6.2-1,12.3-1.2,18.5c0,1.1-0.7,2.2-0.5,3.3c0,0.3,0.1,0.5,0.2,0.7"/>
	<path fill="none" stroke="#000000" stroke-width="0.7087" stroke-miterlimit="10" d="M671.1,524.3c-0.4-0.9,0.1-1.8-0.1-2.8
		c-0.6-3-2.1-5.5-3.7-8c-1.9-2.9-3.9-5.8-6.3-8.3c-2.9-3.2-5.9-6.3-9.5-8.7c-1-0.7-2-1.1-3.3-0.7c0.5,0.9,1.2,1.4,1.9,2.1
		c3,3,5.3,6.5,7.8,9.9c1.9,2.4,3.7,4.9,5.4,7.5c1.1,1.8,1.8,3.8,2.3,5.9c0.5,2.2,1.2,4.2,2.1,6.2c1.3,2.5,1.6,4.5-1,6.9
		c-0.1,0.1-0.1,0.2-0.2,0.3c-1.5,1.5-3,3-4.6,4.6c-1-2.4-1.5-4.8-2.2-7.2c-1.1-3.8-2.2-7.6-3.3-11.4c-0.5-1.9-1.5-3.4-2.8-4.9
		c-1.6-1.8-3.1-3.8-5-5.5c-0.6-0.5-1.2-0.9-2-0.7c-0.1,0.6,0.4,0.9,0.7,1.2c3.8,4.3,6.8,9,9,14.2c0.5,1.3,0.4,3.5-1,4.5
		c-0.9-1.2-1.6-2.5-2.4-3.7c-3-4.4-6.6-8.2-10.3-12c-0.5-0.5-0.9-1-1.7-0.9c-0.2,0.4,0,0.6,0.2,1c2,3.1,4.6,5.7,6.7,8.7
		c1.9,2.7,3.4,5.4,3.7,8.8c0.3,3.6-1.9,8.4-6.6,9.1c0.9,2.9,2.8,5.2,5.1,7.2c0.6,0.5,1.3,0.9,1.6,1.9c-1.1,0.5-1.9-0.3-2.6-0.7
		c-4.1-2.6-7.2-6-7.9-11.1c-0.2-1.4-0.8-2.8-1.2-4.2c-0.1-0.5-0.3-0.9-0.8-1"/>
	<path fill="none" stroke="#000000" stroke-width="0.7087" stroke-miterlimit="10" d="M749,393c0.4-1.4-0.4-3-2.1-4.1
		c-2.3-1.5-4.9-2.7-7.1-4.3c-3.2-2.4-6.2-5.1-9.2-7.8c-1.9-1.7-3.8-3.4-6.2-4.6c-2.3-1.1-4.6-1.2-7-0.9c-1.2,0.2-2.4,0.4-3.6,0.6
		c-2.3,0.4-3.1,2-2,4.2c0.8,1.7,2.3,2.5,4.1,2.8c4.3,0.7,8.5,1.8,12.5,3.3c4.1,1.5,7.9,3.5,11.5,6c2.3,1.5,4.6,3.2,6.2,5.4
		c2,2.7,2.4,5.6,1.8,8.8c-0.3,2.1-1.2,4-1.7,6c-0.1,0.5-0.3,0.8-0.8,0.9"/>
	<path fill="none" stroke="#000000" stroke-width="0.7087" stroke-miterlimit="10" d="M575.1,285.5c0.9-1.1,1.6-2.4,2.8-3.3
		c2.5-2,5.5-2.7,8.6-2.8c3.8-0.2,7.5,0.3,10.8,2.4c0.5,0.3,1,0.8,1.6,1.2c-1.1,1.1-2.2,2-3.9,2c-3.3,0-6.4,0.8-9.3,2.2
		c-1.9,0.9-3.6,1.8-5.4,2.9c-1.6,1-3.3,1.7-5.1,2.3c-1.7,0.5-2.9,1.7-3.5,3.3c-0.5,1.3-0.3,2.7,0.1,4c0.5,1.4,1.1,2.8,1.7,4.2
		c1.2,3.3,1.2,6.4-0.5,9.6c-1.9,3.4-1.9,6.9,0,10.4c0.4,0.9,0.6,1.9,1.4,2.5"/>
	<path fill="none" stroke="#000000" stroke-width="0.7087" stroke-miterlimit="10" d="M670.4,268.2c0.4-1.8-0.1-3.4-0.5-5.1
		c-0.1-0.5-0.1-1-0.3-1.4c-0.3-0.7,0.5-1.3,0-1.9c-0.8-0.8-1.8-1.5-3-1.8c-1.9-0.6-3.8-1-5.6-2c-2-1.2-3.7-2.5-5.1-4.2
		c-1.8-2.2-3.5-2.6-6-1.6c-2.4,0.9-4.7,2-6.9,3.4c-1.3,0.9-2.2,2.1-2.7,3.5c-0.7,2.5-2,4.6-3.6,6.6c-1,1.1-1.6,2.5-2.7,3.5
		c-0.9,0.9-1.8,1.3-3,1.3c-1.2,0-1.6-0.4-1.6-1.6c0.2-2.5,1.3-4.7,3.1-6.3c2.1-1.9,4.3-3.5,6.4-5.3c0.9-0.8,1.7-1.7,2.6-2.5
		c1.7-1.6,3.7-2.8,5.9-3.5c0.4-0.1,0.7-0.3,1-0.6"/>
	<path fill="none" stroke="#000000" stroke-width="0.7087" stroke-miterlimit="10" d="M644.6,448.7c-1.5,0.4-2.8,1.3-3.7,2.6
		c-1.1,1.5-1.4,3-0.4,4.5c1.3,1.9,2.2,4,2.7,6.4c1.1-1.1,1.7-2.3,2.4-3.4c1-1.5,2-3.1,3.3-4.4c3-3.3,6.4-3.9,10.5-1.3
		c1.8,1.1,4,3.4,4.9,5c-1.2-0.1-2.3-0.3-3.3-0.1c-2.3,0.3-4.4,1-6.4,2c-2.2,1.1-4.4,2.3-6.4,3.7c-0.4,0.3-0.8,0.7-1.2,1.2
		c-0.6,0.8-0.6,1.8,0.1,2.5c0.9,0.8,2,1.6,3.2,2c1.1,0.4,2.2-0.1,3.2-0.6c2.6-1.4,5.4-2.3,8.4-2.3c5.5,0,10.4,3.7,10.6,9.4
		c0.1,1.7-0.7,3.4-1,5.1c-1.4-0.4-2.4-1.3-3.5-2c-4.2-2.7-8.8-3.5-13.6-3.4c-0.7,0-1.5-0.2-2.2,0.2"/>
	<path fill="none" stroke="#000000" stroke-width="0.7087" stroke-miterlimit="10" d="M629.8,342.2c1.2-1.7,1.3-3.7,1.7-5.6
		c0.8-4.3,0.1-8.5-1.8-12.4c-1.1-2.4-2.8-4.2-5.3-5.3c-0.7-0.3-1.3,0-1.6,0.9c-0.5,1.2-0.3,2.4,0.3,3.5c0.4,0.8,0.9,1.7,1.6,2.3
		c2.2,2,2.9,4.6,2.9,7.4c0,2.4,0.1,4.8-0.5,7.1c-0.4,1.7-1,3.2-2.6,4.1"/>
	<path fill="none" stroke="#000000" stroke-width="0.7087" stroke-miterlimit="10" d="M650.7,248.6c-1.6,0.3-3.1-0.6-4.7-0.6
		c-2.6,0-5,0.6-7.4,1.5c-0.6,0.2-1.2,0.7-1.7,1.1c-4.7,4.3-10,8-14.8,12.2c-1.8,1.6-3.4,3.4-4.1,5.8c-0.7,2.2-0.1,4.3,0.8,6.3
		c0.6,1.5,1.4,2.9,1.7,4.5c0.3,1.7,0.3,3.3-1.2,4.5"/>
	<path fill="none" stroke="#000000" stroke-width="0.7087" stroke-miterlimit="10" d="M707.3,317.6c-2.7-1.1-5.4-1-8.2-0.6
		c-2.7,0.4-5.2,1.7-7.3,3.4c-3.1,2.6-5.9,5.5-8.4,8.6c-2,2.5-2.4,5.3-1.9,8.3c0.6,3.5,1.8,6.8,2.3,10.3c0.1,0.4,0.1,0.9,0.2,1.3
		c0.5,2.1,1.4,4,2.8,5.6c1.9,2.5,4.2,4.7,5.5,7.6c0.6,1.3,1.2,2.6,1.8,3.9c1.2,2.6,2.9,4.8,4.7,7c2.8,3.3,4.8,7.1,6.7,11.1
		c1,2.2,2.7,4,4,6.1c1.3,2.1,2.6,4.3,3.8,6.5c0.2,0.4,0.3,0.9,0.1,1.4"/>
	<path fill="none" stroke="#000000" stroke-width="0.7087" stroke-miterlimit="10" d="M525.9,415.7"/>
	<path fill="none" stroke="#000000" stroke-width="0.7087" stroke-miterlimit="10" d="M562.1,384.7"/>
	<path fill="none" stroke="#000000" stroke-width="0.7087" stroke-miterlimit="10" d="M675.9,337.7c3.6,1.2,5.1,3.5,5.5,7.2
		c0.2,2,0.4,4,1.9,5.7c0.4,0.4,0,1.2,0.4,1.8c1.1,2.3,2.7,4.2,4.2,6.2c1.4,1.9,2.7,3.9,3.7,6.1c1.3,2.7,2.9,5.2,4.9,7.4
		c1.9,2.1,3.7,4.3,4.6,7.1c0.8,2.5,2.6,4.5,4.1,6.6c2.5,3.6,4.8,7.5,7.2,11.1c2,3,3.5,6.3,5.2,9.5c0.6,1.2,1,2.4,1.5,3.6"/>
	<path fill="none" stroke="#000000" stroke-width="0.7087" stroke-miterlimit="10" d="M652,476.1c1.5,1.1,3.3,1.6,5,2.2
		c5.5,1.8,10.8,3.9,15.8,6.9c3.8,2.4,5.6,5.8,4.9,10.4c-0.4,3.1-1.8,5.7-3.2,8.3c-0.2,0.3-0.4,0.5-0.7,0.7"/>
	<path fill="none" stroke="#000000" stroke-width="0.7087" stroke-miterlimit="10" d="M617,283.2c-1,1.4-1.1,3-1.1,4.7
		c-0.1,3.9,0.1,7.9-0.1,11.8c-0.2,4.1-0.3,8.1-0.4,12.2c-0.1,4,0.1,8,0.5,11.9c0,0.3,0.1,0.7,0.5,0.9"/>
	<path fill="none" stroke="#000000" stroke-width="0.7087" stroke-miterlimit="10" d="M602.2,297c-2.7,2.2-6,3.5-9.1,4.9
		c-2.1,1-4.1,2.2-5.1,4.5c-0.2,0.5-0.4,1.2-0.4,1.8c0.1,1.9,1.6,2.7,3.3,1.9c1.6-0.7,2.8-2,4.1-3.2c1.9-1.8,3.8-3.6,5.6-5.4
		c0.9-0.9,1.7-1.9,1.9-3.2c0.1-0.4,0.3-0.8-0.2-1.2"/>
	<path fill="none" stroke="#000000" stroke-width="0.7087" stroke-miterlimit="10" d="M528.6,446.1"/>
	<path fill="none" stroke="#000000" stroke-width="0.7087" stroke-miterlimit="10" d="M525.9,415.7"/>
	<path fill="none" stroke="#000000" stroke-width="0.7087" stroke-miterlimit="10" d="M557.6,388.5c0.4,0,0.8,0.1,1.2,0
		c0.1-0.8-0.6-1.4-0.4-2.3c0-0.1,0-0.1,0.1-0.1c2,0.9,3.5-0.2,5-1.4c2-1.6,3.7-3.4,5.3-5.3c0.2-0.2,0.5-0.5,0.4-0.7
		c-0.2-1.9,0.4-3.8,0.6-5.7c0.2-2.3-1.1-4-2.3-5.7c-1.8-2.6-4.5-4.2-7.1-5.7c-0.4-0.2-0.8-0.1-1.1,0.1c-1.3,0.4-2.5,0.9-3.7,1.3"/>
	<path fill="none" stroke="#000000" stroke-width="0.7087" stroke-miterlimit="10" d="M660.8,394.3c-2.5-3.8-4.2-7.9-5.5-12.2
		c-0.6-2.1,0.2-3.9,1.5-5.4c2.2-2.5,4.7-4.7,7.2-7c3.1-2.9,6.4-5.6,10.1-7.8c1.5-0.9,1.7-1.9,0.8-2.9c-0.6-0.6-1.4-0.7-2.1-0.4
		c-0.5,0.1-1,0.4-1.3,0.7c-2.1,2.1-4.9,3.4-7.3,5.1c-1.2,0.9-2,1.9-2.4,3.5c-0.2,1.2-0.1,2.2,0.7,3"/>
	<path fill="none" stroke="#000000" stroke-width="0.7087" stroke-miterlimit="10" d="M581.5,316c0.3,1,0.2,2.1-0.1,3.1
		c-0.3,1.2-0.6,2.4-1.1,3.6c-0.8,2.2-2.5,3.3-4.4,4.5c-4.8,3.2-9.3,6.8-13.3,11c-3.2,3.5-5.7,7.5-7.3,11.9c-0.5,1.5-0.6,2.8,0.9,3.9
		c0.6,0.4,1,1,1.5,1.5c0.6,0.6,0.7,1.2,0.4,2"/>
	<path fill="none" stroke="#000000" stroke-width="0.7087" stroke-miterlimit="10" d="M720.8,320.8c-0.6-0.7-1.5-0.8-2.2-1.1
		c-1.8-0.8-3.5-1.8-5.6-1.7c-1.1,0-2.2,0.3-3.2,0.8c-3.2,1.6-5.8,4-8.5,6.4c-1.7,1.6-3.3,3.3-4.5,5.3c-0.4,0.6-0.8,1.3-1.8,1.2
		c-1.3-0.2-1.4-0.2-1.6-1.6c-0.3-2.5,0.8-4.6,2.2-6.5c2.2-2.9,5-4.8,8.9-5c1,0,2.2-0.1,3-1c0.1-0.1,0.5,0,0.7-0.1"/>
	<path fill="none" stroke="#000000" stroke-width="0.7087" stroke-miterlimit="10" d="M591.4,325.5c1.6-1.1,2.7-2.8,3.9-4.3
		c2.7-3.4,5-7.1,7.1-10.9c1.3-2.4,2.4-4.9,3.4-7.4c0.2-0.4,0.4-0.8,0.6-1.3c-0.3-0.8-0.9-0.6-1.5-0.2c-1.9,1.1-3.4,2.6-4.6,4.4
		c-2.4,3.5-4.5,7.1-7.4,10.2c-1.6,1.7-2.1,3.9-1.7,6.4c0.3,1.6,0.5,3.2-0.6,4.7"/>
	<path fill="none" stroke="#000000" stroke-width="0.7087" stroke-miterlimit="10" d="M615.5,456.4c1.3,0.7,2.8,0.8,4.1,1.5
		c3.1,1.6,5.2,3.8,5.5,7.5c-2.5,0.7-4.7-0.1-6.9-1c-2.3-0.9-4.2-2.4-6.3-3.8c-0.8,0.8-1.9,1.3-3,1.6c-1.2,0.4-2.1,1.1-2.5,2.3
		c-0.8,2.3-2.1,4.2-4,5.7c0.8,0.8,1.6,1,3,0.6c1.5-0.4,3.1-0.9,4.7-0.7c2.5,0.3,5,0.9,7.2,2.4c0.3,0.2,0.7,0.1,0.9,0.2"/>
	<path fill="none" stroke="#000000" stroke-width="0.7087" stroke-miterlimit="10" d="M631.4,288.1c-1.2-0.4-2.5-0.2-3.7,0
		c-1.7,0.3-3.5,0.4-5,1.5c-0.5,0.4-1.2,0.7-1.1,1.6c0.1,0.8,0.5,1.3,1.3,1.6c1.9,0.8,3.9,0.7,5.8,0.6c1.9-0.2,1.9-0.3,2.3-2.2
		c0.2-1.1,0.5-2.3,0.8-3.4"/>
	<path fill="none" stroke="#000000" stroke-width="0.7087" stroke-miterlimit="10" d="M650.9,484.9c0.6,0.5,1.3,0.1,1.9,0.2
		c4.2,0.7,7.3,3.1,10.1,6.1c2.6,2.8,5.1,5.7,7.1,9c1.4,2.2,3,4.2,4.6,6.3c1.5,2,1.6,4.3,1.4,6.5c-0.2,1.8-0.3,3.6-0.9,5.3
		c-0.8,2.5-1.8,4.9-4.2,6.3c-0.1,0.1-0.1,0.2-0.2,0.3"/>
	<path fill="none" stroke="#000000" stroke-width="0.7087" stroke-miterlimit="10" d="M651.5,485.3c3,3.5,5.8,7.2,10.1,9.3
		c3,1.5,5.6,3.8,7.9,6.2c0.4,0.4,0.7,0.6,1.2,0.7"/>
	<path fill="none" stroke="#000000" stroke-width="0.7087" stroke-miterlimit="10" d="M526.1,414.8"/>
	<path fill="none" stroke="#000000" stroke-width="0.7087" stroke-miterlimit="10" d="M624.5,284.8c1.5,0.2,3,0.5,4.6,0.6
		c2.1,0.2,3.9-0.4,5.2-2.2c0.7-0.9,0.5-1.4-0.8-1.7c-0.7-0.1-1.5,0.1-2.1,0.4c-1.5,0.8-3,1.1-4.7,1.1c-0.7,0-1.4,0.2-1.9,0.6
		c-0.3,0.3-0.6,0.6-0.4,1.1"/>
	<path fill="none" stroke="#000000" stroke-width="0.7087" stroke-miterlimit="10" d="M581.1,300.4c4.5-1.9,9.1-3.7,13.6-5.7
		c1.7-0.7,3.4-1.5,4.2-3.4c0.2-0.5,0.5-0.9,0.2-1.4c-0.3-0.5-0.8-0.2-1.2-0.2c-2.1,0.2-4.2,0.2-6.2,1c-0.9,0.3-1.6,0.9-2.3,1.4
		c-2.2,1.6-4.5,3.1-6.4,5c-0.8,0.8-2,1.6-1.7,3.1"/>
	<path fill="none" stroke="#000000" stroke-width="0.7087" stroke-miterlimit="10" d="M645.9,449.2c-1.4-1.1-2.9-1.8-4.7-2
		c-1.9-0.2-3.4,0.7-4.2,2.5c-1,2.4-1.1,4.9-0.7,7.4c0.2,1.2-0.3,2.7,0.9,3.8"/>
	<path fill="none" stroke="#000000" stroke-width="0.7087" stroke-miterlimit="10" d="M617.2,472.6c-3.1,1.1-6.3,1.2-9.5,1.2
		c-2.4,0-4.6-0.5-6.8-1.4c-0.1,0-0.2,0-0.2-0.1c-1.3-1.6-3.2-1.2-4.9-1.2c-4.6-0.1-6.5,1.1-9.8,4.8c0.7,0.5,1.5,0.8,2.4,1.1
		c2.9,0.8,5.7,1.7,8.6,2.1c1.2,0.2,2.3,0.2,3.5,0.3c0.4,0,0.8-0.1,1,0.3"/>
	<path fill="none" stroke="#000000" stroke-width="0.7087" stroke-miterlimit="10" d="M555.8,362.8c0.1-3.4-2.7-4.5-5.1-5
		c-3.3-0.7-6.6-0.5-9.9,0.6c-1.2,0.4-1.7-0.1-1.5-1.4c0.2-1.2,0.5-2.5,1.6-3.3c0.4-0.2,0.6-0.7,0.5-1c-0.5-1.1-0.3-2.3-0.9-3.4
		c-0.9-1.8-1-3.9-0.7-5.9c0.1-0.5-0.1-1-0.1-1.5c-0.1-0.8-0.2-1.5,0.1-2.2"/>
	<path fill="none" stroke="#000000" stroke-width="0.7087" stroke-miterlimit="10" d="M672.3,337.5c-0.2,0.5-0.7,0.4-1,0.6
		c-1.3,0.6-2,1.9-1.8,3.3c0,0.4,0.3,0.7,0,1.2c-2.7,0.2-4.1,1.9-5.1,4.2c-0.3,0.7-0.7,1.5-1,2.2c-0.5,1.5-1.7,2.5-2.7,3.6"/>
	<path fill="none" stroke="#000000" stroke-width="0.7087" stroke-miterlimit="10" d="M638,530.4c1.1,4.7,2,9.4,3.2,14.1
		c0.5,1.8-0.2,3.2-1.6,3.9c-1,0.5-2.1,0.4-3-0.2c-0.3-0.2-0.4-0.6-1.3-0.3c-1,0.8-2.6,1.5-4.4,1.5c-0.9,0-1.3-0.6-0.8-1.5
		c0.6-1.2,1.2-2.4,1.2-3.8c0-0.7-0.2-1.1-0.7-1.7c-1.9,0.8-2,2.6-2.4,4.2"/>
	<path fill="none" stroke="#000000" stroke-width="0.7087" stroke-miterlimit="10" d="M633,459.8c0.2-1.2-0.6-1.7-1.5-2.3
		c-1.6-1.2-3.3-2.2-5.3-2.6c-3.7-0.8-7.4-0.5-10.8,1.2c-0.4,0.2-0.8,0.1-1.2,0.2"/>
	<path fill="none" stroke="#000000" stroke-width="0.7087" stroke-miterlimit="10" d="M631.1,477.8c-0.8-0.3-1.6-0.1-2.4,0.1
		c-2.3,0.5-3.9,1.1-5.1,2.1c0.9,1.3,3.4,2,5.2,1.3c1.4-0.5,2.4-1.4,2.7-3c0.1-0.4-0.3-0.2-0.3-0.4"/>
	<path fill="none" stroke="#000000" stroke-width="0.7087" stroke-miterlimit="10" d="M632.4,276.1c-1.7,0.4-3.4,0.7-5,1.3
		c-1.2,0.5-2.2,1.1-2.7,2.2c0.4,0.8,1,0.4,1.5,0.4c1.7,0,3.4,0.1,4.9-1c0.9-0.7,1.7-1.5,1.5-2.8"/>
	<path fill="none" stroke="#000000" stroke-width="0.7087" stroke-miterlimit="10" d="M625.7,486.9c1.1,2.1,4.7,2.7,6.4,1.1
		c0.4-0.4,0.6-0.9,0.7-1.5c0.1-0.5-0.1-0.7-0.5-0.8c-1.7-0.2-3.4-0.6-5.1,0.1c-0.6,0.2-1,0.6-1.4,1"/>
	<path fill="none" stroke="#000000" stroke-width="0.7087" stroke-miterlimit="10" d="M602.6,479.8c-0.3-0.1-0.7-0.3-0.9,0
		c-1.4,2-3.8,3-5.4,4.9c-1.2,1.5-1.1,2.3,0.4,3.5c1.3,1,2.9,1.3,4.4,1.5c0.3,0,0.5,0.2,0.7,0.3"/>
	<path fill="none" stroke="#000000" stroke-width="0.7087" stroke-miterlimit="10" d="M629.1,499.7c1.6,0,2.2-0.4,2.6-1.9
		c0.3-0.9,0.5-1.9,1.2-2.7c0.2-0.2,0.3-0.5,0-0.9c-0.3-0.4-0.6-0.2-0.8-0.1c-1.1,0.5-2.1,1.2-3.1,1.7c-1.5,0.8-2.2,2.4-0.1,3.8"/>
	<path fill="none" stroke="#000000" stroke-width="0.7087" stroke-miterlimit="10" d="M702.6,368c0.8,0,1.5-0.4,2.2-0.8
		c1.5-0.9,1.7-2.1,0.4-3.2c-1.1-1-2.4-1.4-3.9-0.8c-1.2,0.4-1.3,0.6-0.9,1.8c0.3,0.8,0.7,1.5,1.3,2.1c0.3,0.3,0.6,0.6,0.7,1"/>
	<path fill="none" stroke="#000000" stroke-width="0.7087" stroke-miterlimit="10" d="M612.1,285.1c-2.1,0-3.8,0.7-5,2.5
		c-0.8,1.1-0.7,1.6,0.5,2.1c1.4,0.6,3.1,0.4,4-0.6c0.8-0.9,1.4-2.2,0.7-3.8"/>
	<path fill="none" stroke="#000000" stroke-width="0.7087" stroke-miterlimit="10" d="M570.4,388.9c1.9,2-12.5,4.9-14.6,5.4"/>
	<path fill="none" stroke="#000000" stroke-width="0.7087" stroke-miterlimit="10" d="M581.7,315.2c-0.1,0.3-0.2,0.6-0.4,0.8
		c-3.1,2.2-4.7,5.4-6.1,8.8c-0.3,0.6-0.8,1.2-0.7,1.9"/>
	<path fill="none" stroke="#000000" stroke-width="0.7087" stroke-miterlimit="10" d="M540.1,343.3c1.1,1.9,2.3,3.7,3.9,5.3
		c0.8,0.8,1.8,1.5,3,1.9c1,0.3,1.4-0.1,1.6-0.9c0.1-0.3,0.3-0.7,0.4-1"/>
	<path fill="none" stroke="#000000" stroke-width="0.7087" stroke-miterlimit="10" d="M613.4,292.6c-0.3,0.9-0.5,1.9-0.8,2.8
		c-0.2,0.5,0,1.3-0.9,1.5c-0.9,0.3-1.7,0.1-2.4-0.2c-1-0.4-2.6-2.3-3.2-3.5c2.3-0.9,4.7-1,7.1-0.7"/>
	<path fill="none" stroke="#000000" stroke-width="0.7087" stroke-miterlimit="10" d="M577.5,326.5c0,0.1,0.1,0.2,0,0.3
		c-1.3,1.6-0.2,2.8,0.8,4c1.9,2.2,3.6,4.5,5.7,6.6c0.8,0.8,1.4,1.7,2.6,2c0.3,0.1,0.4,0.4,0.6,0.6"/>
	<path fill="none" stroke="#000000" stroke-width="0.7087" stroke-miterlimit="10" d="M696.4,347.3c0.2,1.8,1.4,2.8,2.9,2.6
		c0.5-0.1,0.9-0.2,1.1-0.7c0.2-0.6-0.2-0.8-0.5-1.1c-0.9-1-2.3-1.3-3.5-0.9"/>
	<path fill="none" stroke="#000000" stroke-width="0.7087" stroke-miterlimit="10" d="M594.3,343.3c0.1-0.9-0.6-1.4-1-2
		c-1.6-2.8-4-4.5-7.1-5.2"/>
	<path fill="none" stroke="#000000" stroke-width="0.7087" stroke-miterlimit="10" d="M639.6,475c-0.1,1.2,0.5,1.8,1.6,2.3
		c1.7,0.8,3.4,1.5,5.3,1.5c0.1-1.1-0.7-1.7-1.3-2.2c-1.1-0.9-2.3-1.7-3.7-2.2c-0.7-0.2-1.4-0.5-2,0.3"/>
	<path fill="none" stroke="#000000" stroke-width="0.7087" stroke-miterlimit="10" d="M555.2,352.8c-2.4-0.4-6-2.8-6.5-5.9"/>
	<path fill="none" stroke="#000000" stroke-width="0.7087" stroke-miterlimit="10" d="M692.1,350.8c0.3,0.6,0.7,1.1,1,1.7
		c0.4,0.7,0.1,1.2-0.5,1.7c-0.6-1-1.8-1.9-0.8-3.3"/>
	<path fill="none" stroke="#000000" stroke-width="0.7087" stroke-miterlimit="10" d="M585.4,335c0.8,1.2,1,2.7,1.2,4.1"/>
	<path fill="none" stroke="#000000" stroke-width="0.7087" stroke-miterlimit="10" d="M675.6,337.7c-0.6-0.1-1.3-0.1-1.9-0.2"/>
	<path fill="none" stroke="#000000" stroke-width="0.7087" stroke-miterlimit="10" d="M595.3,339.6c-0.4,0.4-0.7,0.9-0.6,1.4
		c0,0.5-0.1,0.9-0.4,1.3"/>
	<path fill="none" stroke="#000000" stroke-width="0.7087" stroke-miterlimit="10" d="M651.6,475.7c-0.4-0.2-0.9-0.1-1.3-0.1"/>
	<path fill="none" stroke="#000000" stroke-width="0.7087" stroke-miterlimit="10" d="M687.1,367.4c-0.1,0-0.3,0.1-0.4,0.1
		c-2.3,1.3-2.4,2.5-0.6,4.3c0.9,0.9,1.8,0.8,2.6-0.3c1.6-2.1,1.1-3.4-1.5-4.1"/>
	<path fill="none" stroke="#000000" stroke-width="0.7087" stroke-miterlimit="10" d="M628.8,272.2c-1.7,0-3.3,0.2-4.4,1.8
		c-0.5,0.7-0.6,1.3-0.6,2.2c1.9-0.6,3.8-0.7,5.4-1.7c0.3-0.2,0.5-0.3,0.8-0.5c0.8-0.8,0.7-1.3-0.4-1.6c-0.2-0.1-0.4-0.1-0.6-0.2"/>
	<path fill="none" stroke="#000000" stroke-width="0.7087" stroke-miterlimit="10" d="M651.1,254.3c-1.4-0.2-2.9-0.4-4.3-0.1
		c-2.2,0.5-3.6,1.9-4.5,3.9c-0.7,1.7-1.2,3.5-1.7,5.3c-0.4,1.5-0.9,2.9-2.1,4c-0.3,0.3-0.4,0.7-0.6,1.1c-0.2,0.5-0.5,1.1,0.1,1.5
		c0.4,0.3,1,0.5,1.5,0.2c3.2-1.4,6.5-2.8,8.3-6.2c0.4-0.8,1.2-1.5,2.1-1.9c1-0.6,2.1-1.1,3.1-1.8c1-0.7,1.8-1.6,1.7-3
		c-0.1-1.5-1.1-2.1-2.3-2.6c-0.4-0.2-0.9-0.3-1.4-0.4"/>
	<path fill="none" stroke="#000000" stroke-width="0.7087" stroke-miterlimit="10" d="M683,362.3c-0.6,0.1-0.9,0.5-1.1,1.1
		c-0.3,0.9-0.1,1.6,0.6,2c0.7,0.4,1.3,0,1.7-0.5c0.5-0.6,0.4-1.3,0-2c-0.3-0.4-0.7-0.4-1.1-0.5"/>
	<path fill="none" stroke="#000000" stroke-width="0.7087" stroke-miterlimit="10" d="M641.2,488.7c-1.5,0.6-1.9,1.9-0.8,3.3
		c1.1,1.3,2.6,2,4.1,2.6c0.7,0.3,1,0,1.2-0.7c0.5-1.6,0.5-2.2-1.2-3.4c-1-0.7-2-1.5-3.2-1.8"/>
	<path fill="none" stroke="#000000" stroke-width="0.7087" stroke-miterlimit="10" d="M701.9,354.2c-1.3-0.1-2.5-0.2-3.7,0.3
		c-1.8,0.8-1.8,1.4-1.1,2.8c0.3,0.7,0.4,1.5,1.1,2.1c1.2-0.5,2.5-0.3,3.8-0.9c0.8-0.4,1.4-1,1.6-1.9c0.3-1.3-0.1-1.8-1.6-2.4"/>
	<path fill="none" stroke="#000000" stroke-width="0.7087" stroke-miterlimit="10" d="M630,471.9c-0.8,0-1.6,0-2.4,0.1
		c-0.8,0.1-1.7,0.3-2.4,0.7c0.1,1.2,0.6,1.7,2.1,1.9c2.2,0.3,3.7,0.1,4.7-2c-0.5-0.6-1.2-0.4-1.8-0.7"/>
	<path fill="none" stroke="#000000" stroke-width="0.7087" stroke-miterlimit="10" d="M641.8,481.4c-1.1,0.5-1.3,1.1-0.5,2
		c1.4,1.5,3.9,3.1,6.1,3.2c0.4-1.3-0.4-2.8-1.9-3.8c-1.1-0.7-2.3-1-3.5-1.3"/>
</g>
</svg>
